<?xml version="1.0" standalone="no"?>
<!DOCTYPE svg PUBLIC "-//W3C//DTD SVG 1.1//EN" "http://www.w3.org/Graphics/SVG/1.1/DTD/svg11.dtd" >
<svg xmlns="http://www.w3.org/2000/svg">
<metadata>
Created by FontPrep 20130207 at Tue Nov 29 14:27:10 2016
 By Mega Mind
(c) 1990, 1991, 1992, 1994, 1997, 1998, 2000, 2002, 2004 Adobe Systems Incorporated. All rights reserved.
</metadata>
<defs>
<font id="d50e19e52400e7ead72aae3dd972b622" horiz-adv-x='1024' >
  <font-face 
    font-family="MinionPro-Bold"
    font-weight="700"
    font-stretch="normal"
    units-per-em="2048"
    panose-1="2 4 7 3 6 3 6 2 2 3"
    ascent="1489"
    descent="-559"
    x-height="905"
    cap-height="1331"
    bbox="-653.042 -737.007 3449 2097"
    underline-thickness="102"
    underline-position="-102"
    unicode-range="U+0020-FB06"
  />
<missing-glyph horiz-adv-x="1024" 
d="M102 1239v-1044l349 522zM164 102h696l-348 523zM922 195v1044l-349 -522zM860 1331h-696l348 -522zM1024 0h-1024v1434h1024v-1434z" />
    <glyph glyph-name="T_h" unicode="Th" horiz-adv-x="2263" 
d="M242 1331h845q117 0 159 9t42 32v27q174 27 262 55v-655q130 131 270 131t214 -86t73 -254v-373q1 -94 19 -117t100 -34v-66h-483v66q72 10 88 32t16 107v362q0 211 -149 211q-88 0 -148 -59v-514q0 -84 16 -107t79 -32v-66h-490v66q94 10 114 32q19 23 19 121v1004
q-141 18 -399 18h-80v-973q0 -128 30 -158t152 -40v-70h-633v70q119 10 148 41t29 157v973h-80q-125 0 -173 -14t-75 -51q-45 -57 -78 -187h-74l25 393h45q23 -33 47 -42t70 -9z" />
    <glyph glyph-name="Tcaron_h" unicode="&#x164;h" horiz-adv-x="2263" 
d="M944 1700l31 -53q-100 -78 -270 -252h-62q-125 135 -272 252l35 53q135 -55 268 -121q120 60 270 121zM242 1331h845q117 0 159 9t42 32v27q174 27 262 55v-655q130 131 270 131t214 -86t73 -254v-373q1 -94 19 -117t100 -34v-66h-483v66q72 10 88 32t16 107v362
q0 211 -149 211q-88 0 -148 -59v-514q0 -84 16 -107t79 -32v-66h-490v66q94 10 114 32q19 23 19 121v1004q-141 18 -399 18h-80v-973q0 -128 30 -158t152 -40v-70h-633v70q119 10 148 41t29 157v973h-80q-125 0 -173 -14t-75 -51q-45 -57 -78 -187h-74l25 393h45
q23 -33 47 -42t70 -9z" />
    <glyph glyph-name="uni021A_h" unicode="&#x21a;h" horiz-adv-x="2263" 
d="M649 -63q72 -1 124 -55t52 -143t-68 -150q-69 -60 -182 -87l-20 54q131 63 131 141q0 72 -104 98q-31 8 -31 51q-1 43 29 67t69 24zM242 1331h845q117 0 159 9t42 32v27q174 27 262 55v-655q130 131 270 131t214 -86t73 -254v-373q1 -94 19 -117t100 -34v-66h-483v66
q72 10 88 32t16 107v362q0 211 -149 211q-88 0 -148 -59v-514q0 -84 16 -107t79 -32v-66h-490v66q94 10 114 32q19 23 19 121v1004q-141 18 -399 18h-80v-973q0 -128 30 -158t152 -40v-70h-633v70q119 10 148 41t29 157v973h-80q-125 0 -173 -14t-75 -51q-45 -57 -78 -187
h-74l25 393h45q23 -33 47 -42t70 -9z" />
    <glyph glyph-name="f_b" unicode="fb" horiz-adv-x="1746" 
d="M1042 223q0 -49 12 -77t47 -59q36 -32 81 -34q86 -3 154 99t67 285q0 183 -80 273t-188 89q-48 -1 -93 -19v-557zM1260 930q178 0 302 -129t124 -303q0 -223 -156 -373t-385 -150q-168 0 -365 74v1176q-39 47 -100 79t-113 31q-70 0 -92 -75q-23 -66 -22 -283v-72h192
q6 -18 -1 -53t-26 -47h-165v-576q1 -100 23 -126t122 -35v-68h-535v68q82 10 105 36t22 125v576h-137l-8 24l59 76h86v45q0 68 27 144q47 137 174 232t258 114q109 -6 182 -51q129 25 199 51l12 -15v-571l74 35q92 41 144 41z" />
    <glyph glyph-name="f_f_b" unicode="ffb" horiz-adv-x="2334" 
d="M1630 223q0 -49 11 -75t47 -57q36 -32 81 -34q88 -1 155 101t67 282t-79 268t-190 87q-53 -1 -92 -17v-555zM780 905v43q0 121 56 215q-86 137 -222 137q-49 0 -87 -36t-56 -100t-18 -195v-64h327zM1849 930q178 0 301 -128t123 -302q-1 -223 -157 -374t-383 -151
q-168 0 -365 74v1170q-92 123 -203 122q-68 0 -100 -84q-25 -61 -25 -280v-72h193q10 -14 4 -49t-29 -47h-168v-594q0 -94 23 -116t117 -31v-68h-500v68q66 8 83 32t17 117v592h-329v-596q0 -90 18 -113t90 -32v-68h-498v68q90 10 110 31q19 22 19 114v596h-137l-10 25
l61 71h86v35q0 68 48 170t170 180q129 94 286 107q174 -6 252 -92q139 123 297 135q104 -2 182 -51q94 18 193 51l12 -17v-569q14 8 76 33q86 43 143 43z" />
    <glyph glyph-name="f_f_h" unicode="ffh" horiz-adv-x="2349" 
d="M612 1298q-159 0 -159 -329v-64h327v47q0 129 58 217q-84 129 -226 129zM2310 0h-481v68q74 8 89 28t15 103v370q0 211 -147 211q-92 0 -156 -63v-518q0 -81 16 -101t80 -30v-68h-458v68q72 10 87 29t15 110v1016q-39 53 -93 87t-106 33q-74 0 -106 -96q-23 -70 -23 -270
v-72h191q10 -14 3 -50t-28 -46h-166v-606q0 -85 22 -105t110 -30v-68h-494v68q66 8 83 30t17 107v604h-327v-602q0 -86 18 -108t88 -31v-68h-489v68q82 10 101 32t19 107v602h-131l-10 22l62 74h79v35q0 70 52 172t166 178q137 100 292 107q156 -2 250 -88q139 119 293 131
q106 -6 176 -47q121 20 201 47l10 -13v-628q134 131 274 131t215 -88t74 -256v-385q1 -83 19 -103t98 -30v-68z" />
    <glyph glyph-name="f_f_j" unicode="ffj" horiz-adv-x="1759" 
d="M774 905v43q0 58 18 118t39 89q-25 51 -91 103q-67 52 -146 53q-90 0 -123 -119q-20 -76 -20 -223v-64h323zM1036 905h209q252 0 375 25v-668q0 -193 -56 -327q-56 -135 -148 -253t-136 -151q-45 -33 -74 -33q-30 0 -58 34t-28 83t47 53q139 6 157 40q34 62 34 530v424
q0 100 -14 122t-87 23h-221v-592q0 -92 20 -114t113 -35v-66h-495v66q66 10 83 34t17 115v592h-323v-594q0 -90 18 -114t90 -33v-66h-498v66q86 10 108 34t21 115v592h-139l-10 24l61 74h88v35q0 80 37 156q57 118 184 208t273 103q186 -6 270 -111q170 139 330 146
q145 -2 240 -92q49 -53 24 -111q-16 -39 -63 -72q-57 -37 -90 -4q-4 4 -32 40t-50 60q-23 23 -65 47t-87 23q-80 0 -108 -121q-16 -68 -17 -231v-76z" />
    <glyph glyph-name="f_f_k" unicode="ffk" horiz-adv-x="2277" 
d="M780 905v47q0 125 56 213q-34 53 -92 95t-122 43q-117 0 -153 -140q-16 -61 -16 -194v-64h327zM1626 440v-229q0 -90 22 -112t113 -31v-68h-501v68q76 10 92 32t16 111v1008q-39 53 -93 87t-106 33q-74 0 -106 -96q-23 -68 -23 -266v-72h197q6 -18 -3 -55t-26 -45h-168
v-604q0 -83 20 -103t101 -30v-68h-489v68q72 8 90 30t18 103v604h-329v-596q0 -86 18 -109t90 -32v-68h-498v68q88 10 109 31q20 22 20 108v598h-137l-12 24l61 76h88v31q0 82 50 176t176 186t289 99q162 -2 247 -88q131 119 291 131q123 -6 172 -49q133 27 201 49l10 -13
v-927q72 16 125 75q74 86 121 173q55 73 -62 88v63l443 19v-64q-160 -27 -239 -97t-163 -177q45 -74 147 -209t151 -189q50 -54 85 -79q35 -24 88 -35v-68l-358 -4q-100 121 -281 405q-23 35 -36 35q-12 4 -21 4z" />
    <glyph glyph-name="f_f_t" unicode="fft" horiz-adv-x="1892" 
d="M780 905v47q0 113 54 213q-32 49 -94 93t-145 44q-146 1 -144 -333v-64h329zM1620 -25q-250 0 -250 258v576h-328v-608q0 -83 22 -103t116 -30v-68h-500v68q68 8 84 28t16 107v606h-327v-608q0 -80 18 -102t90 -31v-68h-500v68q90 10 110 29q19 19 19 104v608h-139
l-10 25l61 71h88v35q0 78 48 171t163 175q137 102 301 111q152 -2 248 -90q139 123 285 133q127 -6 192 -72q39 -39 19 -86t-66 -76q-37 -27 -67 0q-43 45 -101 83t-96 38q-49 0 -69 -65q-16 -63 -7 -285l2 -72h328v121l232 168l28 -16v-273h205q18 -14 14 -49t-28 -47h-191
v-502q0 -104 35 -146t83 -42t103 24l23 -67l-170 -78q-51 -23 -84 -23z" />
    <glyph glyph-name="f_h" unicode="fh" horiz-adv-x="1759" 
d="M1722 0h-483v68q72 8 88 30t16 107v362q0 209 -149 209q-92 0 -152 -61v-510q0 -84 16 -107t79 -30v-68h-471v68q80 10 97 30t17 111v1012q-37 49 -97 82t-121 33q-62 0 -86 -72q-24 -70 -23 -291v-68h190q12 -16 5 -53t-30 -47h-165v-590q0 -92 17 -115t97 -32v-68h-501
v68q88 10 106 32t18 115v590h-129l-8 24l60 76h77v39q0 72 27 148q55 141 178 235t254 113q102 -4 180 -49q139 27 201 49l12 -13v-628q130 131 272 131t217 -87t75 -253v-375q0 -94 17 -116t99 -31v-68z" />
    <glyph glyph-name="f_j" unicode="fj" horiz-adv-x="1177" 
d="M453 905h209q250 0 374 25v-672q0 -190 -56 -324t-147 -252t-137 -151t-75 -33t-59 35t-30 84t48 49q135 0 156 38q38 69 38 534v424q0 96 -15 120t-89 25h-217v-602q-1 -82 21 -105t106 -34v-66h-514v66q86 12 105 32t19 107v602h-133l-10 24l62 74h81v45q0 90 48 188
t161 183q143 111 306 119q156 -6 233 -94q48 -54 24 -104t-74 -79t-79 11q-17 32 -59 74t-77 64q-35 21 -89 21q-86 0 -113 -127q-18 -74 -18 -237v-64z" />
    <glyph glyph-name="f_k" unicode="fk" horiz-adv-x="1691" 
d="M1038 440v-225q0 -94 20 -116t109 -31v-68h-495v68q76 10 92 32t16 115v1010q-35 49 -94 80t-115 30q-72 0 -96 -82q-23 -70 -22 -282v-66h190q10 -16 3 -54t-28 -46h-165v-580q0 -98 18 -123t98 -34v-68h-508v68q90 10 110 33q19 24 19 124v580h-137l-8 22l59 78h86v39
q0 72 27 148q47 135 176 232t256 116q113 -6 178 -49q154 33 199 49l12 -13v-927q76 16 138 90t114 162q25 32 14 54t-79 30v63l440 19v-64q-166 -29 -250 -104q-70 -66 -149 -170q39 -66 141 -203q103 -137 153 -193t86 -82q36 -25 89 -34v-68l-361 -4q-119 156 -278 405
q-23 35 -39 35q-12 4 -19 4z" />
    <glyph glyph-name="f_t" unicode="ft" horiz-adv-x="1304" 
d="M1032 -25q-252 0 -252 258v574h-327v-602q0 -87 19 -107t108 -30v-68h-521v68q92 10 112 30q19 20 19 107v602h-137l-10 24l61 74h86v37q0 63 29 154q49 135 174 233q109 92 250 111q131 -6 193 -70q39 -39 16 -86q-16 -43 -60 -73t-75 -3q-41 41 -96 75t-101 34t-63 -60
q-20 -63 -6 -288l2 -64h327v129l232 160l30 -14v-275h205q17 -16 13 -51t-29 -47h-189v-500q0 -106 36 -147t80 -41t108 24l20 -67l-172 -78q-47 -23 -82 -23z" />
    <glyph glyph-name="longs_b" unicode="&#x17f;b" horiz-adv-x="1728" 
d="M1034 223q0 -47 13 -67q12 -33 46 -64t78 -31q85 -1 149 97t64 279t-75 272q-76 90 -185 90q-20 -1 -90 -17v-559zM1245 930q180 0 301 -127t121 -307q0 -224 -154 -372t-380 -149q-164 0 -361 74v1182q-94 113 -180 113t-114 -97q-28 -96 -27 -354v-670q0 -100 20 -123
t113 -34v-66h-518v66q88 12 106 34t18 123v584h-133l-10 24l62 74h81v43q0 70 25 137q39 135 167 235t263 120q109 -6 182 -51q121 25 195 51l12 -17v-569l72 35q82 41 139 41z" />
    <glyph glyph-name="longs_h" unicode="&#x17f;h" horiz-adv-x="1748" 
d="M1333 575q1 205 -161 205q-76 0 -138 -61v-514q0 -84 16 -107t80 -32v-66h-468v66q78 10 94 30t16 113v1024q-90 109 -194 108q-70 0 -101 -94q-27 -94 -26 -370v-664q0 -90 18 -113t100 -34v-66h-503v66q86 14 105 36t19 111v594h-137l-10 22l59 76h88v43q0 70 25 137
q39 137 170 237t260 118q104 -6 176 -49q143 27 205 49l8 -13v-626q130 129 270 129t215 -87t74 -253v-381q-1 -91 17 -111t98 -32v-66h-479v66q72 10 88 32t16 105v372z" />
    <glyph glyph-name="longs_i" unicode="&#x17f;i" horiz-adv-x="1189" 
d="M1161 0h-502v66q84 12 100 33q15 22 15 130v410q0 96 -17 120t-100 40v57q213 27 377 74v-701q0 -109 18 -131t109 -32v-66zM190 905v33q0 220 213 383q150 113 308 119q147 -6 233 -94q47 -52 26 -102q-20 -50 -70 -84t-83 3l-31 41q-31 42 -51 62t-64 43t-93 22
q-82 0 -107 -123q-20 -82 -20 -360v-647q0 -82 19 -104t93 -31v-66h-502v66q92 12 111 31q18 19 18 104v606h-139l-8 24l61 74h86z" />
    <glyph glyph-name="longs_k" unicode="&#x17f;k" horiz-adv-x="1669" 
d="M1030 440v-227q0 -92 22 -115t115 -32v-66h-503v66q76 10 93 32t17 107v1026q-98 113 -196 112q-76 0 -102 -98t-25 -352v-678q0 -92 19 -115t103 -34v-66h-514v66q92 12 112 34q19 23 19 115v592h-137l-10 24l59 74h88v43q0 225 207 381q127 94 244 111q121 -6 176 -49
q150 31 201 49l12 -13v-927q112 22 236 245q26 37 16 60t-76 31v63l439 19v-64q-171 -27 -241 -95t-157 -179q39 -64 134 -194t151 -194t91 -89q36 -24 93 -37v-66l-360 -4q-88 115 -271 405q-23 35 -38 35q-12 4 -17 4z" />
    <glyph glyph-name="longs_l" unicode="&#x17f;l" horiz-adv-x="1189" 
d="M1161 0h-499v66q74 10 92 34t18 119v1010q-80 113 -180 112q-74 0 -105 -81q-37 -86 -36 -381v-658q0 -96 17 -120t97 -35v-66h-502v66q90 10 109 33q18 24 18 122v586h-137l-8 22l59 76h86v43q0 63 25 142q41 133 176 233q129 100 264 117q115 -6 181 -49q150 37 186 49
l12 -15v-1206q0 -94 20 -118t107 -35v-66z" />
    <glyph glyph-name="longs_longs" unicode="&#x17f;&#x17f;" horiz-adv-x="1189" 
d="M1034 225q0 -98 20 -121t105 -38v-66h-500v66q78 12 97 35q18 24 18 124v578h-137l-10 24l59 78h88v35q0 111 62 217q-106 141 -226 141q-96 0 -135 -139q-25 -90 -24 -358v-600q0 -82 17 -104t91 -31v-66h-491v66q86 12 104 32t18 103v602h-135l-8 24l62 78h81v19
q0 72 48 159q47 103 175 201t292 109q160 -6 243 -86q129 113 271 133q117 -6 170 -64q41 -39 21 -82q-20 -44 -61 -74q-42 -30 -71 -1q-106 106 -174 106q-74 0 -74 -168l4 -330v-602z" />
    <glyph glyph-name="longs_longs_i" unicode="&#x17f;&#x17f;i" horiz-adv-x="1781" 
d="M1755 0h-493v66q72 10 89 34t17 119v420q0 98 -17 121t-100 39v57q229 29 377 74v-703q0 -100 20 -126t107 -35v-66zM190 905v19q0 70 46 167t175 194t302 108q152 -4 245 -99q68 62 164 104t185 42q150 -6 233 -99q47 -51 25 -102q-23 -51 -71 -83t-81 3q-2 2 -27 38
t-66 73q-69 61 -153 61t-110 -129q-16 -66 -17 -346v-639q0 -92 18 -117t97 -34v-66h-489v66q76 10 94 34t18 117v588h-139l-8 22l61 78h86v35q0 133 56 215q-100 137 -226 137q-102 0 -135 -133q-20 -76 -20 -350v-602q0 -84 17 -108t89 -33v-66h-496v66q86 14 107 35
q20 22 20 106v598h-139l-10 22l61 78h88z" />
    <glyph glyph-name="longs_longs_l" unicode="&#x17f;&#x17f;l" horiz-adv-x="1781" 
d="M1757 0h-504v68q76 10 96 35q19 26 19 124v1000q-88 109 -179 109t-120 -81q-29 -74 -29 -385v-649q0 -96 18 -121t95 -32v-68h-498v68q84 10 104 34q19 25 19 119v584h-139l-8 22l61 78h86v39q0 115 60 217q-86 133 -226 133q-100 0 -137 -137q-23 -82 -22 -350v-596
q0 -88 17 -112t89 -31v-68h-491v68q84 10 103 32t19 111v594h-139l-8 22l59 78h88v15q0 82 43 161q49 104 175 201q135 100 303 111q152 -4 247 -93q150 131 293 140q111 -6 174 -49q152 35 193 49l10 -13v-1200q0 -100 20 -125t109 -34v-68z" />
    <glyph glyph-name="f_f" unicode="ff" horiz-adv-x="1259" 
d="M774 944q0 109 47 205q-31 61 -94 111t-142 51q-136 0 -134 -342v-64h323v39zM190 905v37q0 204 214 360q120 88 262 103q178 -4 268 -102q133 125 276 139q121 0 185 -72q35 -41 12 -88q-13 -39 -59 -72t-76 2l-14 14t-16 15q-3 4 -15 14t-29 24t-25 19q-8 4 -26 16
t-47 11q-58 -1 -70 -69t2 -275l4 -76h238q8 -16 1 -52t-28 -48h-211v-590q0 -90 26 -114t128 -35v-66h-514v66q63 10 81 35q17 26 17 116v588h-323v-590q0 -88 19 -114t91 -35v-66h-502v66q86 10 109 34t22 115v590h-139l-10 24l59 76h90z" />
    <glyph glyph-name="f_f_i" unicode="ffi" horiz-adv-x="1775" 
d="M774 948q0 124 55 211q-25 51 -90 104q-66 52 -145 52q-92 0 -125 -119q-18 -70 -18 -227v-64h323v43zM1745 0h-483v66q61 10 78 34t18 107v455q0 98 -16 122t-91 23h-215v-592q0 -92 18 -115t91 -34v-66h-471v66q66 10 83 34t17 115v592h-323v-594q0 -88 18 -113t90 -34
v-66h-493v66q82 10 104 34t20 115v592h-135l-10 24l61 74h84v35q0 86 37 160q57 119 174 203q143 98 277 108q199 -6 274 -108q166 137 336 143q152 -2 246 -96q51 -54 29 -104q-21 -50 -73 -83t-85 0q-4 4 -33 41t-53 63q-25 27 -68 51t-88 23q-82 0 -110 -124
q-16 -68 -17 -236v-76h205q256 0 379 25v-723q0 -82 20 -106t105 -35v-66z" />
    <glyph glyph-name="f_f_l" unicode="ffl" horiz-adv-x="1775" 
d="M774 905v41q0 31 21 133q8 31 41 95q-78 137 -228 137q-104 0 -139 -135q-18 -70 -18 -213v-58h323zM1751 0h-481v66q57 10 72 32t16 107v1040q-57 106 -168 107q-66 0 -110 -66t-44 -239v-142h215q6 -18 -1 -53t-27 -45h-187v-592q0 -92 20 -115t97 -34v-66h-479v66
q66 10 83 34t17 117v590h-323v-594q0 -90 17 -114t89 -33v-66h-489v66q82 12 102 36t20 113v592h-131l-10 24l60 74h81v39q0 80 50 176t161 176q147 104 295 111q168 -2 262 -92q152 121 290 125t237 -51q45 14 112 45l23 -11v-1218q0 -86 21 -107q22 -20 110 -32v-66z" />
    <glyph glyph-name="longs_t" unicode="&#x17f;t" horiz-adv-x="1290" 
d="M1024 -25q-252 0 -252 261v571h-129l-12 24l59 74h82v129l232 160l30 -14v-275h201q16 -14 13 -50t-27 -48h-187v-502q0 -104 36 -146t78 -42t105 24l19 -67l-162 -76q-47 -23 -86 -23zM190 905v39q0 66 29 146q41 125 167 228t267 122q119 -6 185 -68q39 -41 17 -88
t-67 -76q-37 -29 -67 2q-102 113 -182 113q-49 -1 -69 -63t-19 -371v-674q-1 -90 23 -115t116 -34v-66h-527v66q88 12 108 35q19 24 19 114v592h-139l-10 24l61 74h88z" />
    <glyph glyph-name="f_i" unicode="fi" horiz-adv-x="1189" 
d="M1159 0h-483v68q66 8 82 32t16 115v447q0 96 -16 120t-90 23h-217v-594q1 -84 23 -109t97 -34v-68h-505v68q82 8 104 32t20 111v594h-139l-8 26l61 74h86v45q0 214 209 371q145 113 303 119q156 -6 238 -97q45 -57 18 -112q-18 -45 -63 -68q-55 -35 -86 6l-18 27
q-99 137 -209 137q-84 0 -111 -121q-20 -80 -20 -243v-64h204q256 0 381 25v-715q0 -90 20 -115t103 -32v-68z" />
    <glyph glyph-name="f_l" unicode="fl" horiz-adv-x="1189" 
d="M1163 0h-479v68q59 8 75 32q15 25 15 115v1028q-68 102 -168 103q-70 0 -112 -73t-43 -231v-137h211q8 -16 1 -53t-28 -47h-184v-594q0 -88 17 -111t95 -32v-68h-504v68q90 12 110 33q19 22 19 110v594h-139l-8 29l61 71h86v35q0 104 52 210t176 194q122 88 264 96
q115 0 213 -49q68 17 123 41l18 -11v-1206q0 -90 20 -113t109 -34v-68z" />
    <glyph glyph-name=".notdef" horiz-adv-x="1024" 
d="M102 1239v-1044l349 522zM164 102h696l-348 523zM922 195v1044l-349 -522zM860 1331h-696l348 -522zM1024 0h-1024v1434h1024v-1434z" />
    <glyph glyph-name=".null" horiz-adv-x="0" 
 />
    <glyph glyph-name="nonmarkingreturn" horiz-adv-x="681" 
 />
    <glyph glyph-name="space" unicode=" " horiz-adv-x="444" 
 />
    <glyph glyph-name="exclam" unicode="!" horiz-adv-x="583" 
d="M291 -25q-68 0 -111 45t-43 116t44 116t111 45q68 0 112 -45t44 -116t-44 -116q-45 -45 -113 -45zM289 1362q168 0 168 -88q0 -22 -34 -220t-87 -605q-4 -17 -47 -19t-47 19q-53 408 -87 596t-34 229q0 88 168 88z" />
    <glyph glyph-name="quotedbl" unicode="&#x22;" horiz-adv-x="778" 
d="M545 864q-94 512 -96 516l229 70l18 -14q-8 -141 -75 -533zM303 1450l19 -14q-4 -59 -74 -533l-78 -39q-88 498 -96 516z" />
    <glyph glyph-name="numbersign" unicode="#" horiz-adv-x="1024" 
d="M641 793h-197l-61 -248h199zM958 961l-22 -168h-195l-61 -248h172l-27 -168h-184l-84 -346h-100l84 346h-199l-82 -346h-102l82 346h-197l23 168h215l59 248h-184l20 168h203l72 296h104l-72 -296h197l72 296h100l-72 -296h178z" />
    <glyph glyph-name="dollar" unicode="$" horiz-adv-x="1024" 
d="M731 309q0 115 -139 183l-29 14v-397q76 12 122 62t46 138zM315 999q0 -118 164 -186v365q-80 -12 -122 -62t-42 -117zM563 -145h-84v163q-199 2 -338 86q-18 59 -55 291l66 13q109 -283 327 -304v431l-61 26q-303 121 -303 338q0 141 96 239t268 119v154h84v-147
q104 0 165 -18t99 -25q35 -178 47 -275l-67 -10q-29 96 -83 162t-161 80v-398l78 -28q305 -117 305 -346q-2 -160 -104 -260t-279 -121v-170z" />
    <glyph glyph-name="percent" unicode="%" horiz-adv-x="1564" 
d="M1284 338q0 104 -26 192t-90 88t-92 -88q-59 -186 0 -389q28 -92 92 -92t90 92q26 93 26 197zM1167 692q154 0 236 -112t82 -247q0 -136 -81 -247t-236 -111q-156 0 -238 112t-82 247q0 134 82 246t237 112zM406 1227q-62 0 -92 -91q-60 -186 -1 -385q29 -93 93 -94
q63 1 89 93t25 194q1 283 -114 283zM401 1300q154 0 237 -112t83 -246q0 -135 -82 -247q-82 -111 -236 -111q-155 0 -237 112t-82 246q0 192 138 300q75 58 179 58zM1231 1278l-838 -1356l-76 55l838 1354z" />
    <glyph glyph-name="ampersand" unicode="&#x26;" horiz-adv-x="1464" 
d="M614 158q66 0 135 35t109 83q-145 147 -430 396q-86 -92 -86 -228t80 -212q80 -74 192 -74zM600 1280q-66 0 -107 -54q-40 -54 -40 -128t44 -134t150 -145q102 86 103 252q0 85 -42 147t-108 62zM1499 872v-69q-94 -10 -141 -37t-103 -100q-27 -33 -172 -240
q195 -188 355 -430l-13 -25q-137 0 -232 25t-120 49q-4 3 -60 65t-102 105q-186 -244 -389 -244q-202 0 -318 118t-116 263q0 62 16 110t62 95t84 78q39 31 125 90q-137 133 -137 281t110 249q112 103 264 103t249 -84t97 -213q0 -96 -88 -168q-55 -49 -163 -121
q150 -129 319 -287q150 225 112 275q-22 28 -124 43v69h485z" />
    <glyph glyph-name="quotesingle" unicode="'" horiz-adv-x="407" 
d="M303 1450l19 -14q-6 -111 -74 -533l-78 -39q-86 479 -100 516z" />
    <glyph glyph-name="parenleft" unicode="(" horiz-adv-x="720" 
d="M156 554q0 595 432 908l55 -55q-139 -139 -216 -363t-77 -488q0 -262 81 -496t212 -357l-55 -55q-432 311 -432 906z" />
    <glyph glyph-name="parenright" unicode=")" horiz-adv-x="720" 
d="M563 554q0 -593 -432 -906l-53 53q137 133 214 361t77 490t-82 498t-209 361l53 51q432 -315 432 -908z" />
    <glyph glyph-name="asterisk" unicode="*" horiz-adv-x="829" 
d="M762 989l-268 -57l69 -281l-55 -24l-148 262l-251 -152l-37 54l204 196l-213 215l39 51l250 -161l123 270l60 -14l-50 -287l275 -12z" />
    <glyph glyph-name="plus" unicode="+" horiz-adv-x="1181" 
d="M1087 453h-417v-453h-154v453h-420v133h420v409h154v-409h417v-133z" />
    <glyph glyph-name="comma" unicode="," horiz-adv-x="520" 
d="M207 330q84 0 161 -75q76 -75 76 -195t-101 -210q-101 -88 -245 -122l-26 71q184 76 184 199q0 53 -39 95t-111 57q-28 14 -28 67t38 83t91 30z" />
    <glyph glyph-name="hyphen" unicode="-" horiz-adv-x="700" 
d="M618 543l-32 -148h-502l31 148h503z" />
    <glyph glyph-name="period" unicode="." horiz-adv-x="520" 
d="M260 -25q-64 0 -108 44q-43 44 -43 112t43 112q44 44 108 44t108 -44t44 -113t-44 -112t-108 -43z" />
    <glyph glyph-name="slash" unicode="/" horiz-adv-x="669" 
d="M623 1362l-443 -1454h-143l442 1454h144z" />
    <glyph glyph-name="zero" unicode="0" horiz-adv-x="1024" 
d="M510 1217q-172 0 -172 -572q0 -242 43 -414t135 -172q170 0 170 584q0 246 -42 410t-134 164zM524 1300q110 0 203 -60q92 -60 141 -160q97 -199 97 -442t-97 -441q-49 -101 -141 -161t-215 -60t-215 60t-142 160q-98 197 -98 441q0 321 149 518q109 145 318 145z" />
    <glyph glyph-name="one" unicode="1" horiz-adv-x="1024" 
d="M838 0h-629v70q119 8 149 41t31 145v743q0 80 -15 102t-77 25l-104 9v59q172 27 466 106v-1044q0 -110 30 -144t149 -42v-70z" />
    <glyph glyph-name="two" unicode="2" horiz-adv-x="1024" 
d="M68 0v53q246 242 327 338q225 266 226 479q-1 109 -57 177t-158 67q-147 0 -275 -182l-59 49l131 193q131 126 299 126t276 -99t107 -265q0 -118 -66 -226t-221 -255l-246 -234h334q94 -1 127 19t88 118l68 -24l-80 -334h-821z" />
    <glyph glyph-name="three" unicode="3" horiz-adv-x="1024" 
d="M842 1024q0 -78 -66 -137q-41 -35 -151 -105v-4q145 -24 225 -114t80 -208t-71 -215t-170 -151q-369 -203 -562 -47q-47 39 -47 85t59 91q43 32 92 -10q13 -12 19 -16q6 -5 21 -17q104 -87 197 -86q93 0 144 70q52 70 52 206t-75 202t-171 65q-57 0 -111 -15l-14 70
q295 98 295 266q0 94 -50 140t-126 47q-133 0 -244 -154l-53 49l100 138q119 126 284 126t254 -76t89 -200z" />
    <glyph glyph-name="four" unicode="4" horiz-adv-x="1024" 
d="M551 473v537h-4q-193 -266 -363 -537h367zM995 356h-184v-129q0 -94 27 -121t139 -36v-70h-610v70q125 10 155 40t29 128v118h-520v84q371 524 633 848h147v-815h184v-117z" />
    <glyph glyph-name="five" unicode="5" horiz-adv-x="1024" 
d="M520 807q188 0 299 -102t111 -242q0 -203 -207 -348q-186 -135 -383 -140q-133 0 -213 66q-49 39 -49 73q0 67 65 115q33 23 74 -12q137 -125 264 -125q92 0 141 73q48 73 48 201t-82 210q-82 84 -204 84t-241 -39l93 655h649l12 -21l-66 -200h-520l-55 -316
q174 68 264 68z" />
    <glyph glyph-name="six" unicode="6" horiz-adv-x="1024" 
d="M481 678q-66 0 -129 -23q-12 -53 -12 -163q0 -195 67 -314t151 -118t121 86q36 85 36 217q0 131 -66 223t-168 92zM590 823q176 0 284 -104t109 -289q0 -186 -133 -320t-332 -134t-330 142t-131 380q1 156 51 288t134 222q158 170 360 239q121 41 305 66l15 -78
q-117 -25 -220 -74q-265 -135 -335 -426l102 49q88 39 121 39z" />
    <glyph glyph-name="seven" unicode="7" horiz-adv-x="1024" 
d="M365 1055q-103 0 -137 -22t-76 -113h-72q40 232 55 356h840l18 -25q-53 -113 -230 -480t-357 -771l-211 -25l-17 27q309 459 623 1053h-436z" />
    <glyph glyph-name="eight" unicode="8" horiz-adv-x="1024" 
d="M311 346q1 -137 67 -213t152 -76q86 -1 138 61t51 163q-2 53 -19 93q-28 69 -149 140q-41 25 -133 74q-47 -35 -77 -100t-30 -142zM692 962q0 132 -57 194t-128 63t-113 -55t-42 -139t65 -143t199 -124q76 72 76 204zM528 1300q175 0 279 -90t104 -227q0 -86 -67 -152
q-72 -63 -150 -112q129 -70 201 -151t72 -203q1 -181 -143 -285t-330 -104t-307 94q-122 94 -121 252q0 98 86 180q53 47 190 125q-225 125 -225 317q0 150 117 253q119 103 294 103z" />
    <glyph glyph-name="nine" unicode="9" horiz-adv-x="1024" 
d="M477 1219q-78 0 -118 -83t-40 -206t68 -219t176 -97q51 0 113 27q10 72 10 152q0 174 -50 300t-159 126zM516 1300q215 0 332 -147t117 -393q1 -246 -139 -440t-367 -283q-61 -25 -171 -45t-179 -23l-13 74q221 39 374 183t192 335l-99 -51q-68 -37 -119 -37
q-178 0 -286 111t-109 269q0 158 116 295q56 68 148 110t203 42z" />
    <glyph glyph-name="colon" unicode=":" horiz-adv-x="520" 
d="M262 -25q-64 0 -107 44q-42 44 -42 112t42 111q43 43 107 43t107 -43t43 -112t-43 -112t-107 -43zM262 858q66 0 108 -44t42 -112t-42 -110t-108 -43q-66 0 -108 43q-42 42 -41 110q-1 68 41 112t108 44z" />
    <glyph glyph-name="semicolon" unicode=";" horiz-adv-x="520" 
d="M209 330q84 0 161 -75q76 -75 76 -197t-101 -208q-101 -88 -247 -122l-18 71q178 76 178 199q0 53 -39 95t-110 57q-8 2 -19 22q-10 20 -10 59t38 69t91 30zM262 858q66 0 108 -44t42 -112t-42 -110t-108 -43q-66 0 -108 43q-42 42 -41 110q-1 68 41 112t108 44z" />
    <glyph glyph-name="less" unicode="&#x3c;" horiz-adv-x="1122" 
d="M1018 0l-909 449v139l909 448v-145l-760 -371v-4l760 -373v-143z" />
    <glyph glyph-name="equal" unicode="=" horiz-adv-x="1181" 
d="M1087 266h-991v133h991v-133zM1087 641h-991v133h991v-133z" />
    <glyph glyph-name="greater" unicode="&#x3e;" horiz-adv-x="1122" 
d="M1018 449l-909 -449v143l759 373v4l-759 371v145l909 -448v-139z" />
    <glyph glyph-name="question" unicode="?" horiz-adv-x="817" 
d="M387 -25q-68 0 -112 45t-44 115t45 116t112 46t112 -46t45 -116t-45 -115t-113 -45zM162 688q0 123 188 242t212 145t24 43q0 76 -96 76t-223 -109q-42 -37 -54 -36q-37 0 -78 44t-41 92t46 90q46 43 116 65t117 22q135 0 252 -111t116 -250q1 -71 -23 -119t-97 -98
q-169 -113 -196 -156q-13 -22 -13 -42q0 -55 55 -123l-45 -49q-98 38 -179 112t-81 162z" />
    <glyph glyph-name="at" unicode="@" horiz-adv-x="1568" 
d="M856 770q-58 0 -102 -50t-74 -138q-29 -88 -31 -184t39 -95q30 0 94 58t121 159q37 106 62 223q-51 27 -109 27zM893 1094q-269 0 -445 -188t-176 -470q0 -204 123 -363q135 -175 443 -175q162 0 292 69l27 -61q-180 -111 -397 -111q-274 0 -461 166q-186 166 -184 467
q0 229 112 405q113 175 287 262t377 87q272 0 433 -152t161 -368q-1 -216 -145 -365q-144 -150 -365 -150q-78 0 -97 34t-6 114l17 94l-4 2q-57 -82 -159 -163t-175 -81q-45 1 -76 49t-29 136q8 217 162 375q64 65 162 109t195 44q31 0 85 -12t101 -12q-45 -162 -77 -332
t-32 -199q0 -59 37 -55q109 0 201 108t91 308t-137 314t-341 114z" />
    <glyph glyph-name="A" unicode="A" horiz-adv-x="1445" 
d="M799 545l-152 442h-6q-53 -140 -99 -267q-45 -126 -63 -175h320zM1407 0h-586v72q88 14 107 40q18 26 -10 102t-80 222h-394q-51 -145 -73 -219q-27 -73 -4 -103t129 -42v-72h-459l2 72q102 12 139 47t88 164l420 1052l105 27q362 -990 403 -1096t79 -144t134 -50v-72z
" />
    <glyph glyph-name="B" unicode="B" horiz-adv-x="1304" 
d="M518 662v-383q0 -113 34 -154t124 -39t163 75t72 212q0 289 -352 289h-41zM518 743h47q147 1 216 61t69 188t-65 190t-145 63q-80 0 -100 -21q-21 -21 -22 -91v-390zM682 1331q459 0 459 -305q0 -133 -93 -205q-94 -71 -227 -98v-8q395 -47 396 -320q0 -203 -193 -307
q-156 -88 -432 -88h-520v72q120 10 148 42t28 160v783q0 129 -27 161t-137 42v71h598z" />
    <glyph glyph-name="C" unicode="C" horiz-adv-x="1384" 
d="M84 649q0 317 224 515t589 198q123 0 373 -55q31 -186 47 -336l-76 -15q-88 315 -383 316q-213 0 -337 -171t-124 -431t135 -432t347 -172q241 0 401 315l72 -33q-55 -203 -115 -325q-231 -53 -405 -53t-326 58q-152 60 -242 159q-180 198 -180 462z" />
    <glyph glyph-name="D" unicode="D" horiz-adv-x="1558" 
d="M522 1106v-819q0 -115 35 -157t139 -42q209 0 336 160t127 440t-151 432q-131 127 -334 127q-100 1 -126 -25t-26 -116zM84 1331h616q400 0 584 -175t184 -437q0 -350 -256 -549q-225 -170 -620 -170h-526v72q122 10 152 42t30 160v783q0 129 -27 161t-137 42v71z" />
    <glyph glyph-name="E" unicode="E" horiz-adv-x="1189" 
d="M1047 1331q0 -42 20 -307l-74 -10q-37 129 -85 178t-203 49h-99q-57 0 -70 -11t-14 -61v-434h137q131 0 169 24t59 130h74v-414h-74q-19 109 -57 133t-171 23h-137v-355q0 -143 48 -165q48 -23 199 -23t214 66q56 65 115 200l71 -14q-18 -141 -71 -340h-1045v72
q133 10 164 41t31 159v787q0 131 -27 161t-139 40v71h965z" />
    <glyph glyph-name="F" unicode="F" horiz-adv-x="1134" 
d="M707 1241h-103q-55 0 -67 -11t-13 -61v-452h166q135 1 172 25t56 124h73v-407h-73q-16 104 -54 130t-174 25h-166v-323q0 -143 30 -176t165 -43v-72h-639v72q114 10 142 44t28 175v756q0 135 -28 167t-142 43v74h971q10 -157 22 -311l-72 -14q-37 125 -81 176
q-57 59 -213 59z" />
    <glyph glyph-name="G" unicode="G" horiz-adv-x="1488" 
d="M1440 635v-70q-78 -16 -96 -41t-19 -125v-161q0 -129 12 -193q-303 -76 -467 -76q-356 1 -568 187t-212 493q0 225 114 390t295 244t402 79q141 0 399 -57q8 -106 33 -340l-76 -15q-37 164 -141 245t-256 81q-194 0 -326 -161t-133 -429q0 -355 214 -535q114 -95 274 -96
q80 0 115 25q47 29 47 113v194q0 61 -4 87t-29 48t-66 29q-41 6 -127 14v70h615z" />
    <glyph glyph-name="H" unicode="H" horiz-adv-x="1603" 
d="M1528 1331v-71q-121 -10 -147 -40t-25 -161v-789q0 -128 26 -158t146 -40v-72h-625v72q123 10 151 41t27 159v381h-559v-381q0 -130 27 -160t141 -40v-72h-610v72q116 10 142 41t26 159v787q0 129 -28 160t-148 41v71h614v-71q-112 -10 -138 -41t-26 -160v-301h559v301
q0 129 -26 160q-27 31 -142 41v71h615z" />
    <glyph glyph-name="I" unicode="I" horiz-adv-x="774" 
d="M692 0h-614v72q114 10 142 42t28 158v785q0 129 -28 161t-142 42v71h614v-71q-114 -10 -142 -42t-28 -161v-785q0 -126 28 -158t142 -42v-72z" />
    <glyph glyph-name="J" unicode="J" horiz-adv-x="749" 
d="M692 1331v-71q-110 -10 -136 -42t-26 -161v-676q0 -209 -40 -345t-158 -236t-260 -134l-31 76q164 70 192 248q23 139 23 399v668q0 129 -29 161t-147 42v71h612z" />
    <glyph glyph-name="K" unicode="K" horiz-adv-x="1439" 
d="M1432 0h-412q-176 242 -404 571q-53 78 -100 72v-369q0 -128 29 -160t147 -42v-72h-612v72q112 10 140 42t28 160v783q0 129 -28 161t-144 42v71h602v-71q-110 -10 -136 -42t-26 -161v-348q70 20 156 108q158 158 286 330q39 49 29 74t-80 32l-37 7v71h533v-71
q-102 -10 -173 -40q-70 -30 -138 -92t-115 -110q-47 -49 -113 -119t-84 -88q201 -297 430 -588q62 -77 110 -109t112 -42v-72z" />
    <glyph glyph-name="L" unicode="L" horiz-adv-x="1128" 
d="M49 0v72q135 10 167 42t32 158v785q0 129 -29 161t-147 42v71h626v-71q-120 -10 -148 -41t-28 -162v-799q0 -76 10 -106t48 -48q38 -16 166 -16t189 68t116 213l71 -23q-49 -254 -75 -346h-998z" />
    <glyph glyph-name="M" unicode="M" horiz-adv-x="1818" 
d="M1761 0h-606v72q115 12 141 45t23 174l-4 788h-10l-453 -1065h-57l-418 1045h-8l-25 -535q-12 -240 -3 -318t46 -102q37 -23 141 -32v-72h-491v72q84 8 120 36t46 82q27 143 43 388l33 403q12 176 -16 221t-159 58v71h424l396 -897l401 897h412v-71q-121 -12 -147 -43
t-21 -160l18 -766q4 -141 30 -174t144 -45v-72z" />
    <glyph glyph-name="N" unicode="N" horiz-adv-x="1515" 
d="M1483 1331v-71q-84 -4 -120 -31t-44 -96q-18 -190 -19 -340v-813h-98l-852 1019h-6v-460q0 -168 16 -332q8 -72 48 -102t149 -33v-72h-502v72q86 6 125 34t45 95q20 168 21 338v428q0 104 -7 144t-36 75q-47 61 -170 74v71h379l782 -899h8v361q0 98 -16 335q-8 68 -50 97
t-153 35v71h500z" />
    <glyph glyph-name="O" unicode="O" horiz-adv-x="1568" 
d="M778 1276q-170 0 -274 -157t-104 -423t113 -453q114 -187 304 -188q154 -1 253 147t99 435t-110 463q-111 176 -281 176zM805 1362q285 0 481 -192t197 -502q0 -312 -202 -506t-504 -193q-303 0 -497 199t-194 489q0 289 192 497t527 208z" />
    <glyph glyph-name="P" unicode="P" horiz-adv-x="1226" 
d="M518 1167v-532q98 -40 181 -7q172 62 169 316q0 160 -74 234q-75 74 -182 73q-50 1 -72 -19t-22 -65zM88 1331h563q248 0 359 -80q152 -102 152 -298t-120 -301q-150 -132 -385 -132l-139 33v-281q0 -128 31 -160t164 -42v-70h-637v70q116 10 144 42t28 160v785
q0 129 -26 160t-134 43v71z" />
    <glyph glyph-name="Q" unicode="Q" horiz-adv-x="1552" 
d="M772 1276q-174 0 -273 -164t-99 -410t87 -421q88 -175 246 -220l168 54q12 -8 53 -39q84 35 150 175t65 370q0 303 -111 479q-112 176 -286 176zM86 653q0 186 79 344t246 261t394 104q285 0 481 -192t197 -488q0 -248 -130 -427t-323 -239q278 -197 475 -297l-18 -55
q-147 -25 -301 17q-168 41 -484 292q-104 5 -228 61t-206 144q-182 199 -182 475z" />
    <glyph glyph-name="R" unicode="R" horiz-adv-x="1349" 
d="M516 653h53q139 0 201 56q98 81 98 237t-71 230q-72 74 -157 74t-104 -19q-19 -18 -20 -78v-500zM516 573v-299q0 -124 29 -158t145 -44v-72h-618v72q116 10 146 44t30 158v787q0 123 -28 156t-140 43v71h575q254 0 365 -78q139 -90 139 -272q0 -227 -256 -334
q57 -119 166 -291q117 -178 169 -234t114 -75l-13 -65l-61 2q-184 8 -269 52t-151 146l-168 301q-45 88 -135 90h-39z" />
    <glyph glyph-name="S" unicode="S" horiz-adv-x="1034" 
d="M549 1278q-86 0 -142 -57q-57 -57 -57 -143t58 -143q58 -58 216 -136t250 -175t93 -239q-1 -178 -139 -297t-359 -119q-111 1 -189 23t-143 51q-29 80 -59 348l72 23q24 -78 66 -154t122 -142t172 -65q92 -1 147 59t55 151t-58 155q-60 64 -185 129q-178 90 -267 183
t-89 231q0 173 128 287t341 114q143 0 284 -55q4 -43 18 -143l21 -150l-69 -17q-94 281 -287 281z" />
    <glyph glyph-name="T" unicode="T" horiz-adv-x="1312" 
d="M248 1331h823q74 0 119 51h49q5 -157 23 -397l-74 -4q-37 158 -87 209t-210 51h-94v-969q-1 -130 31 -160t169 -40v-72h-667v72q131 10 162 41t30 159v969h-69q-115 0 -162 -13t-74 -42q-45 -47 -86 -207h-74q24 382 25 403h49q23 -33 47 -42t70 -9z" />
    <glyph glyph-name="U" unicode="U" horiz-adv-x="1492" 
d="M1483 1331v-71q-158 -8 -174 -121q-18 -115 -19 -285v-223q0 -354 -145 -508t-377 -154t-367 107q-170 131 -170 481v481q0 141 -27 176q-28 35 -145 46v71h617v-71q-114 -10 -142 -46t-28 -176v-444q0 -234 84 -360t248 -125q350 0 350 526v219q0 162 -21 285
q-8 55 -53 85t-145 36v71h514z" />
    <glyph glyph-name="V" unicode="V" horiz-adv-x="1456" 
d="M1438 1331v-74q-100 -10 -146 -51t-106 -184q-156 -365 -414 -1045h-102q-229 616 -418 1080q-45 119 -86 155t-135 45v74h610v-74q-107 -16 -127 -42t8 -91q35 -96 156 -410t139 -362h6q197 522 258 713q39 106 19 142t-142 50v74h480z" />
    <glyph glyph-name="W" unicode="W" horiz-adv-x="2004" 
d="M1985 1331v-71q-105 -16 -145 -56t-81 -166q-131 -367 -340 -1061h-106q-72 197 -334 910h-4q-199 -580 -307 -910h-109q-229 762 -328 1076q-37 119 -75 155t-129 52v71h606v-71q-111 -12 -133 -43t4 -109q113 -397 209 -705h4q199 602 295 916h98q172 -469 344 -924h4
q109 342 193 690q23 96 -2 129t-146 46v71h482z" />
    <glyph glyph-name="X" unicode="X" horiz-adv-x="1419" 
d="M1432 0h-658v72q94 16 110 44q15 28 -20 77q-6 8 -217 366q-145 -215 -225 -360q-34 -67 -16 -89t124 -38v-72h-514v72q160 18 244 112q213 270 334 455q-220 365 -278 456t-111 123t-154 42v71h619v-71q-80 -18 -96 -41t10 -58q33 -61 184 -309q100 133 184 287
q33 55 16 79t-114 42v71h494v-71q-102 -14 -156 -41t-114 -99q-62 -72 -257 -340q178 -287 340 -538q61 -96 111 -128t160 -42v-72z" />
    <glyph glyph-name="Y" unicode="Y" horiz-adv-x="1341" 
d="M1323 1331v-71q-96 -10 -142 -44q-94 -70 -333 -530q-37 -72 -37 -141v-262q0 -137 31 -169t168 -44v-70h-666v70q131 10 162 43t31 170v227q0 55 -27 111q-72 145 -254 464q-55 99 -96 131t-127 44v71h585v-71q-96 -12 -112 -38t16 -81q18 -37 234 -445q186 367 213 434
q31 60 9 88t-130 42v71h475z" />
    <glyph glyph-name="Z" unicode="Z" horiz-adv-x="1267" 
d="M346 1331h834l16 -31q-526 -815 -766 -1196q102 -12 254 -12q291 0 362 68t128 235l69 -16q-47 -287 -76 -379h-1085l-25 35q256 385 783 1204h-258q-146 0 -200 -16t-81 -56q-51 -70 -80 -194l-69 2l24 407h53q23 -35 45 -43t72 -8z" />
    <glyph glyph-name="bracketleft" unicode="[" horiz-adv-x="718" 
d="M618 -332h-378v1774h378v-74q-154 -14 -184 -43t-31 -149v-1246q-1 -68 3 -94t28 -50t61 -30q38 -6 123 -14v-74z" />
    <glyph glyph-name="backslash" unicode="\" horiz-adv-x="679" 
d="M623 -92h-144l-422 1454h144z" />
    <glyph glyph-name="bracketright" unicode="]" horiz-adv-x="718" 
d="M479 -332h-379v74q152 14 184 43t31 149v1242q1 122 -31 150t-184 42v74h379v-1774z" />
    <glyph glyph-name="asciicircum" unicode="^" horiz-adv-x="1144" 
d="M1036 436h-157l-310 686l-311 -686h-149l397 840h133z" />
    <glyph glyph-name="underscore" unicode="_" horiz-adv-x="1024" 
d="M1024 -256h-1024v102h1024v-102z" />
    <glyph glyph-name="grave" unicode="`" 
d="M428 1001q-157 192 -264 320l8 29q22 14 100 28t109 11q66 -205 113 -361z" />
    <glyph glyph-name="a" unicode="a" horiz-adv-x="954" 
d="M334 293q0 -84 40 -124t81 -40t88 33v327q-22 -11 -113 -63q-96 -49 -96 -133zM338 -25q-125 0 -201 80q-76 81 -76 171t37 134t129 77q92 34 186 69q94 34 130 63v62q0 96 -34 148t-83 52t-76 -36q-33 -39 -59 -142q-18 -70 -86 -69q-43 0 -85 32t-42 73q0 42 72 95
q168 115 339 146q121 0 191 -54t94 -118q23 -64 23 -158v-338q0 -121 65 -121q25 0 70 17l20 -66l-223 -117q-127 0 -178 119q-180 -119 -213 -119z" />
    <glyph glyph-name="b" unicode="b" horiz-adv-x="1093" 
d="M401 221q-1 -41 11 -69t47 -61q35 -32 78 -34q88 -1 149 97t62 280q0 182 -77 272t-186 91q-31 -1 -84 -15v-561zM608 930q182 0 303 -128t121 -304q0 -223 -154 -373t-378 -150q-164 0 -361 74v1110q0 90 -19 114t-106 32v61q215 25 387 74v-586l76 37q84 39 131 39z
" />
    <glyph glyph-name="c" unicode="c" horiz-adv-x="864" 
d="M59 412q0 113 55 216q54 103 152 175q172 127 348 127q115 0 177 -51q37 -27 37 -72t-30 -80t-54 -35t-50 23q-125 106 -201 106q-77 -1 -127 -73t-50 -238t96 -257t186 -91q121 0 219 84l39 -49q-72 -101 -166 -161t-186 -61q-201 0 -323 130t-122 307z" />
    <glyph glyph-name="d" unicode="d" horiz-adv-x="1120" 
d="M580 131q74 0 125 33v573q-49 106 -148 107q-53 0 -121 -64q-38 -36 -62 -114t-24 -187q2 -172 79 -260t151 -88zM465 -25q-55 0 -127 28q-166 65 -239 223q-40 89 -40 198q0 211 162 358t400 148q8 0 84 -10v247q0 82 -22 104t-116 32v63q258 33 400 74v-1182
q0 -86 15 -106t81 -29l45 -4v-66q-301 -51 -403 -80v119l-123 -80q-61 -37 -117 -37z" />
    <glyph glyph-name="e" unicode="e" horiz-adv-x="894" 
d="M483 848q-59 0 -105 -70t-54 -188q259 0 276 15q8 7 10 32q0 83 -34 147t-93 64zM61 414q0 223 152 370q145 146 299 146t252 -100t96 -230q0 -66 -59 -74q-182 -20 -488 -32q8 -158 85 -244t197 -86t222 88l37 -49q-84 -125 -185 -176t-184 -52q-197 0 -311 127
t-113 312z" />
    <glyph glyph-name="f" unicode="f" horiz-adv-x="677" 
d="M190 905v45q0 53 25 137q45 133 176 240q113 96 242 113q109 -6 168 -62q39 -39 19 -86t-62 -78q-41 -31 -70 -2q-102 102 -172 103q-49 0 -63 -55q-14 -45 -4 -283l2 -72h235q6 -18 -1 -53t-28 -45h-206v-586q1 -94 27 -119t143 -36v-66h-558v66q88 12 108 35
q19 24 19 120v586h-133l-10 24l59 74h84z" />
    <glyph glyph-name="g" unicode="g" horiz-adv-x="1007" 
d="M484 -43q-118 0 -163 -47q-45 -46 -45 -112t74 -126t190 -59q116 0 182 54t66 138q0 104 -114 134q-72 18 -190 18zM625 602q0 108 -36 180q-37 72 -97 72t-96 -60t-36 -170t37 -183t105 -72q123 0 123 233zM985 -80q0 -172 -169 -296q-170 -124 -366 -124t-295 77
t-100 173q0 59 64 113q27 20 155 100q-102 37 -153 113q-35 51 -31 110q115 47 209 136q-92 30 -146 104t-55 168q0 160 121 248t277 88q111 0 219 -56q84 5 297 25l8 -14q-33 -90 -88 -125l-117 8q55 -66 55 -156q0 -152 -114 -236t-277 -83q-25 0 -100 10q-29 -29 -29 -59
t32 -54q32 -25 99 -22l189 2q315 0 315 -250z" />
    <glyph glyph-name="h" unicode="h" horiz-adv-x="1126" 
d="M1090 0h-484v66q72 10 88 32t17 109v360q0 211 -148 211q-90 0 -147 -57v-514q0 -84 15 -108t79 -33v-66h-485v66q88 10 108 32t21 117v954q0 91 -16 109t-99 29v59q174 23 377 74v-643q129 133 268 133t213 -86t74 -254v-375q0 -95 17 -115t102 -34v-66z" />
    <glyph glyph-name="i" unicode="i" horiz-adv-x="604" 
d="M584 0h-525v66q90 10 111 35q20 26 20 132v406q0 98 -18 122t-94 36v59q195 23 373 74v-697q0 -104 20 -130t113 -37v-66zM160 1204q0 58 43 100t103 42t102 -41t43 -101t-43 -103q-44 -42 -103 -42t-102 43t-43 102z" />
    <glyph glyph-name="j" unicode="j" horiz-adv-x="589" 
d="M40 -500q-28 0 -56 34t-29 84q0 50 49 50q132 2 152 40t26 147q8 242 8 385v385q0 106 -19 131q-20 25 -108 39v61q150 16 388 74v-666q0 -201 -58 -332q-53 -130 -144 -248t-136 -151t-73 -33zM160 1204q0 58 43 100t103 42t102 -41t43 -101t-43 -103q-44 -42 -103 -42
t-102 43t-43 102z" />
    <glyph glyph-name="k" unicode="k" horiz-adv-x="1050" 
d="M426 440q-6 0 -14 -2v-217q0 -98 20 -121t113 -34v-66h-527v66q94 12 115 34q20 23 21 121v946q0 86 -20 109t-103 33v57q219 29 381 74v-940q54 12 120 84t115 172q20 33 7 53t-68 29v61l442 19v-62q-180 -32 -255 -106t-144 -168q88 -147 297 -412q47 -54 82 -74
t90 -30v-66l-361 -4q-72 90 -266 405q-25 39 -45 39z" />
    <glyph glyph-name="l" unicode="l" horiz-adv-x="569" 
d="M551 0h-531v66q92 14 113 38q20 25 21 121v938q0 90 -18 112t-105 32v59q219 27 383 74v-1215q0 -102 22 -126t115 -33v-66z" />
    <glyph glyph-name="m" unicode="m" horiz-adv-x="1726" 
d="M1688 0h-484v66q70 10 88 32t19 117v352q0 201 -146 201q-78 0 -159 -68q6 -68 6 -82v-413q0 -86 17 -108t89 -31v-66h-473v66q74 10 89 30t16 109v373q0 193 -142 192q-70 0 -157 -65v-500q0 -86 16 -108t76 -31v-66h-482v66q90 10 110 32q19 23 19 117v430
q0 88 -17 115t-87 37v59q168 25 360 78v-158q86 63 129 88q101 66 181 66t141 -44t90 -118q23 16 47 34t55 38q30 20 46 32q84 57 161 58q133 0 204 -86t71 -244v-395q0 -87 17 -107t100 -32v-66z" />
    <glyph glyph-name="n" unicode="n" horiz-adv-x="1159" 
d="M1124 0h-477v66q66 10 81 34t15 131v349q0 193 -141 192q-70 0 -151 -63v-496q0 -92 15 -115t81 -32v-66h-494v66q98 14 118 35q19 22 19 122v424q0 90 -17 113t-93 37v59q176 23 371 78v-152q94 70 127 90q90 57 159 58q125 0 197 -87t72 -241v-387q0 -94 18 -116
t100 -33v-66z" />
    <glyph glyph-name="o" unicode="o" horiz-adv-x="1075" 
d="M522 850q-70 0 -119 -89t-49 -269t58 -309q58 -128 151 -128q160 0 160 353q-1 214 -53 328t-148 114zM61 432q0 230 150 364q151 134 349 134t327 -135t129 -326q0 -233 -140 -363t-351 -131t-337 137t-127 320z" />
    <glyph glyph-name="p" unicode="p" horiz-adv-x="1120" 
d="M573 774q-78 0 -141 -49v-567q31 -31 81 -56t87 -24q86 0 138 96t52 262t-69 252q-70 86 -148 86zM688 930q172 0 271 -118t100 -277q1 -215 -143 -363t-355 -197q-63 0 -129 25v-260q0 -90 26 -113t144 -33v-65h-569v65q96 8 118 31t21 113v917q0 84 -20 107t-99 33v61
q123 20 379 94v-149l143 90q66 39 113 39z" />
    <glyph glyph-name="q" unicode="q" horiz-adv-x="1097" 
d="M552 846q-74 0 -140 -95q-64 -95 -64 -267t87 -277q87 -104 186 -105q40 1 73 17v643q-68 84 -142 84zM1094 -471h-562v65q111 12 137 34t25 114v303l-164 -70q-227 -1 -349 133t-122 304q0 216 170 368t404 150q86 -6 135 -24t83 -17q34 0 101 24l11 -8q-6 -123 -7 -217
v-948q0 -90 20 -113t118 -33v-65z" />
    <glyph glyph-name="r" unicode="r" horiz-adv-x="827" 
d="M451 715h6q125 215 229 215q59 0 98 -37t39 -90q-1 -53 -29 -94t-69 -57t-66 7q-51 43 -94 43q-68 0 -114 -106v-381q-1 -94 25 -117t145 -32v-66h-562v66q86 10 109 34t22 115v447q0 76 -18 96t-92 39v57q207 27 371 78v-217z" />
    <glyph glyph-name="s" unicode="s" horiz-adv-x="784" 
d="M414 850q-41 0 -73 -32t-32 -79q1 -90 147 -154t214 -130t67 -176q0 -141 -111 -223q-112 -81 -255 -81q-76 0 -150 22t-108 48q-10 25 -21 114q-10 89 -12 160l61 7q39 -111 109 -191t156 -80q48 0 80 32t32 80t-33 88t-105 74t-100 51q-178 102 -178 258q0 124 94 208
t250 84q113 0 197 -37q33 -78 49 -234l-61 -18q-92 209 -217 209z" />
    <glyph glyph-name="t" unicode="t" horiz-adv-x="694" 
d="M424 -25q-250 0 -250 258v574h-129l-10 24l57 74h82v150l232 159l28 -12v-297h201q18 -16 15 -51t-27 -47h-189v-506q0 -178 117 -178q51 0 102 24l21 -71l-166 -78q-57 -23 -84 -23z" />
    <glyph glyph-name="u" unicode="u" horiz-adv-x="1136" 
d="M170 266v424q0 74 -17 93t-96 40v60q184 8 379 37q-6 -129 -6 -310v-297q0 -92 41 -136t115 -44t133 57v498q1 78 -19 98t-112 37v60q217 10 391 37v-666q0 -82 15 -106t71 -29l45 -4v-66q-143 -18 -375 -74l-16 15v123q-82 -63 -103 -76q-94 -61 -178 -62
q-128 0 -198 77t-70 214z" />
    <glyph glyph-name="v" unicode="v" horiz-adv-x="952" 
d="M989 905v-65q-77 -14 -107 -40t-63 -100q-100 -219 -299 -723h-80q-228 569 -276 683t-78 138q-30 26 -102 42v65h505v-65q-69 -14 -83 -34t0 -58t161 -441q55 131 152 420q16 53 -1 77t-97 36v65h368z" />
    <glyph glyph-name="w" unicode="w" horiz-adv-x="1398" 
d="M6 905h506v-65q-86 -14 -105 -34t-7 -64t124 -408h4q6 14 213 561h80q78 -201 232 -565h4q86 254 107 352t1 121t-112 37v65h379v-65q-72 -12 -98 -35t-80 -159t-240 -669h-78q-31 76 -114 272t-126 300l-227 -572h-78q-100 309 -244 726q-29 85 -53 107t-88 30v65z" />
    <glyph glyph-name="x" unicode="x" horiz-adv-x="987" 
d="M1012 0h-510v66q57 10 67 30t-18 66l-102 178q-25 -34 -64 -100t-43 -74q-26 -43 -14 -65t73 -35v-66h-387v66q84 16 127 42t89 78t171 222l-180 297q-47 75 -79 99t-109 36v65h483v-65q-51 -12 -62 -28t11 -52l96 -160q39 57 101 160q22 35 10 51t-72 29v65h375v-65
q-84 -14 -118 -30t-89 -71q-6 -6 -162 -207l199 -317q49 -78 93 -109t114 -40v-66z" />
    <glyph glyph-name="y" unicode="y" horiz-adv-x="952" 
d="M989 905v-65q-75 -12 -103 -38t-59 -92t-207 -490q-176 -425 -253 -664q-19 -56 -71 -56t-100 39t-48 86t55 84q117 61 168 146q27 51 39 88t-9 92q-170 473 -258 678q-29 69 -57 93t-100 34v65h508v-65q-68 -12 -83 -28t1 -67l153 -454q68 168 154 436q16 51 -4 75
t-94 38v65h368z" />
    <glyph glyph-name="z" unicode="z" horiz-adv-x="911" 
d="M403 817q-102 0 -151 -30t-94 -115l-35 -68l-64 27q47 154 84 319h45q23 -45 125 -45h502l19 -28q-68 -115 -451 -787h131q113 0 174 33t117 131l35 57l59 -28q-94 -274 -96 -283h-727l-27 33q147 236 463 784h-109z" />
    <glyph glyph-name="braceleft" unicode="{" horiz-adv-x="731" 
d="M635 -344q-346 0 -346 287l12 401q0 115 -83 152q-40 18 -103 22v74q129 8 161 67q25 45 25 107l-12 395q0 293 346 293v-80q-178 -18 -178 -196l24 -381q0 -203 -184 -238v-8q184 -37 184 -238l-24 -374q0 -93 36 -143t142 -60v-80z" />
    <glyph glyph-name="bar" unicode="|" horiz-adv-x="552" 
d="M362 -512h-172v2048h172v-2048z" />
    <glyph glyph-name="braceright" unicode="}" horiz-adv-x="731" 
d="M94 -344v76q186 23 187 205q0 49 -14 171q-13 122 -13 197q0 209 184 246v8q-184 37 -184 238q0 71 13 199t14 186q0 174 -187 196v76q252 0 321 -135q30 -59 29 -150l-12 -383q0 -76 20 -116q35 -70 166 -78v-74q-129 -8 -161 -72q-25 -48 -25 -122l12 -387
q0 -281 -350 -281z" />
    <glyph glyph-name="asciitilde" unicode="~" horiz-adv-x="1181" 
d="M811 383q-102 -1 -231 71t-195 72q-111 0 -190 -153l-89 71q104 209 285 209q104 -1 227 -71t205 -70q100 0 166 147l94 -57q-84 -219 -272 -219z" />
    <glyph glyph-name="uni00A0" unicode="&#xa0;" horiz-adv-x="444" 
 />
    <glyph glyph-name="exclamdown" unicode="&#xa1;" horiz-adv-x="583" 
d="M293 -453q-168 0 -168 88q0 20 20 148q49 260 103 676q2 20 45 20t47 -20q52 -409 86 -597t35 -227q0 -88 -168 -88zM291 936q67 0 111 -45t44 -116t-45 -116t-111 -45t-111 45q-44 45 -44 116t44 116t112 45z" />
    <glyph glyph-name="cent" unicode="&#xa2;" horiz-adv-x="1024" 
d="M553 383v633q-84 -8 -152 -84q-67 -76 -67 -218t62 -224q63 -80 157 -107zM633 10h-80v191q-211 8 -335 130t-124 283q0 231 205 379q109 76 254 101v166h80v-158h35q131 0 196 -47q31 -21 31 -61t-29 -72t-47 -33q-18 0 -39 24q-74 84 -147 99v-643q151 2 260 104
l39 -55q-129 -182 -299 -211v-197z" />
    <glyph glyph-name="sterling" unicode="&#xa3;" horiz-adv-x="1024" 
d="M827 592h-311q2 0 1 -14t-1 -17q0 -90 -66 -172t-161 -133q121 6 227 -37q223 -90 292 -90t69 48q1 48 -13 77t4 55q45 55 75 55t45 -24q15 -25 16 -59q0 -72 -54 -142t-123 -119q-102 -76 -211 -75q-57 -1 -114 25q-56 26 -111 58q-143 83 -207 83q-51 0 -67 -82
q-8 -33 -35 -33t-42 24q-28 44 27 122q22 32 55 72q34 40 46 58q80 102 80 230q0 51 -6 90h-195v94h178q-14 128 -14 194t47 161t160 174t225 85q127 0 201 -77q37 -43 6 -95q-18 -31 -51 -55q-35 -19 -68 7q-90 70 -114 80q-66 26 -91 26q-86 0 -86 -131q0 -74 30 -206
t36 -163h321v-94z" />
    <glyph glyph-name="currency" unicode="&#xa4;" horiz-adv-x="1024" 
d="M502 940q-100 0 -166 -79t-66 -197t65 -196q65 -77 167 -77t166 77q63 77 63 197q-1 119 -65 197t-164 78zM500 256q-135 0 -226 76l-137 -156l-100 103l145 139q-88 94 -88 248t88 247l-145 140l100 102l139 -156q88 76 224 76t223 -76l137 156l103 -102l-146 -140
q88 -93 88 -247t-88 -248l146 -139l-103 -103l-137 154q-88 -74 -223 -74z" />
    <glyph glyph-name="yen" unicode="&#xa5;" horiz-adv-x="1024" 
d="M1001 1276v-70q-75 -10 -107 -35t-66 -88t-187 -389h217v-84h-231v-137h233v-84h-233v-110q1 -137 29 -169t155 -40v-70h-621v70q121 8 149 41t28 170v108h-222v84h222v137h-222v84h197q-26 72 -81 189q-54 117 -86 189q-31 72 -63 98t-100 36v70h506v-70l-47 -10
q-37 -6 -46 -21t11 -69t71 -182q52 -128 71 -176q100 217 134 305q34 87 24 111q-9 24 -54 32l-55 10v70h374z" />
    <glyph glyph-name="brokenbar" unicode="&#xa6;" horiz-adv-x="552" 
d="M362 -358h-172v716h172v-716zM362 666h-172v716h172v-716z" />
    <glyph glyph-name="section" unicode="&#xa7;" horiz-adv-x="987" 
d="M260 1014q-107 -151 -16 -317q41 -75 143 -169q207 -190 250 -252q47 -74 49 -157h4q59 96 60 194q4 160 -181 308q-125 96 -217 188q-94 100 -90 201zM180 -112q0 24 24 57q52 72 87 45q68 -55 172 -56q47 0 81 25t34 61t-26 71q-26 34 -99 99q-37 39 -117 114t-111 108
q-139 137 -137 313q0 213 174 395q147 158 307 197q84 0 148 -55q27 -25 25 -62t-56 -80q-18 -14 -41 6q-74 55 -172 56q-47 0 -79 -24t-32 -54q0 -59 93 -135t204 -165t167 -176t53 -210q-2 -186 -205 -430q-141 -154 -307 -199q-90 0 -148 43q-39 32 -39 56z" />
    <glyph glyph-name="dieresis" unicode="&#xa8;" 
d="M758 1199q0 -56 -42 -96t-97 -40q-56 0 -97 40t-41 96t41 96q40 40 98 40t98 -40t40 -96zM199 1063q-57 0 -99 40q-41 40 -41 96t42 96q41 40 99 40t98 -40t40 -96t-41 -96t-98 -40z" />
    <glyph glyph-name="copyright" unicode="&#xa9;" horiz-adv-x="1431" 
d="M752 305q-186 -1 -288 105t-104 260q0 154 119 254t287 100q127 0 217 -37q6 -92 23 -182l-52 -12q-32 81 -74 123t-129 42t-147 -79q-59 -80 -59 -208q-1 -128 65 -212t149 -84t131 40t85 120l53 -13q-49 -170 -51 -176q-123 -41 -225 -41zM717 1212q-227 0 -376 -156
q-148 -157 -148 -389t149 -391q150 -158 376 -158t375 158q148 158 148 390t-148 389q-149 157 -376 157zM715 1292q270 0 451 -183q182 -183 182 -444t-182 -443t-451 -183q-270 0 -451 182q-180 181 -180 443t180 445q181 183 451 183z" />
    <glyph glyph-name="ordfeminine" unicode="&#xaa;" horiz-adv-x="686" 
d="M244 757q0 -46 26 -69q49 -44 109 -4v188q-6 -4 -28 -13t-50 -25q-57 -31 -57 -77zM233 555q-75 0 -125 50t-51 114q0 92 115 135q16 6 95 31t112 49v33q0 43 -23 69t-57 25q-55 0 -88 -109q-14 -43 -50 -43t-65 22q-28 23 -28 53t47 63q113 70 231 92q88 0 146 -46
t57 -139v-217q0 -72 43 -71q23 0 47 10l12 -47l-151 -74q-82 0 -117 74q-106 -74 -150 -74z" />
    <glyph glyph-name="guillemotleft" unicode="&#xab;" horiz-adv-x="933" 
d="M844 104l-64 -38q-156 203 -325 393q160 172 325 393l64 -39l-170 -354zM485 104l-65 -38q-168 229 -324 393q156 164 324 393l65 -39l-170 -354z" />
    <glyph glyph-name="logicalnot" unicode="&#xac;" horiz-adv-x="1181" 
d="M1087 207h-153v428h-838v133h991v-561z" />
    <glyph glyph-name="uni00AD" unicode="&#xad;" horiz-adv-x="700" 
d="M618 543l-32 -148h-502l31 148h503z" />
    <glyph glyph-name="registered" unicode="&#xae;" horiz-adv-x="653" 
d="M301 1092h18q20 0 37 12q23 12 23 41q0 49 -51 49q-27 0 -27 -27v-75zM301 1055v-45q0 -29 6 -34t33 -7v-33h-143v33q31 2 35 7t6 34v143q0 27 -6 33t-33 8v31h145q100 0 100 -76q0 -47 -55 -72q27 -51 55 -81t41 -35l-8 -27q-71 0 -99 39t-39 60t-30 22h-8zM329 1300
q-91 0 -152 -64q-60 -65 -60 -159t61 -157q62 -64 152 -64t151 64t62 157q1 95 -61 159t-153 64zM328 1350q114 0 194 -80t80 -191t-80 -191t-194 -81q-114 0 -193 78q-78 77 -78 191t78 194t193 80z" />
    <glyph glyph-name="macron" unicode="&#xaf;" 
d="M666 1108h-512v149h512v-149z" />
    <glyph glyph-name="degree" unicode="&#xb0;" horiz-adv-x="677" 
d="M341 1272q-67 0 -110 -49t-43 -127t43 -129t109 -51t107 50q42 50 42 126t-40 129q-41 51 -108 51zM338 1362q117 0 198 -74q80 -74 80 -196t-80 -193q-80 -72 -197 -72q-118 0 -198 72t-80 194q0 121 80 195t197 74z" />
    <glyph glyph-name="plusminus" unicode="&#xb1;" horiz-adv-x="1181" 
d="M1087 0h-991v133h991v-133zM1087 623h-417v-396h-154v396h-420v133h420v370h154v-370h417v-133z" />
    <glyph glyph-name="twosuperior" unicode="&#xb2;" horiz-adv-x="712" 
d="M74 815v53q324 248 323 410q0 63 -30 99q-31 36 -86 36q-92 0 -166 -102l-43 41l69 100q35 43 93 69t118 25q110 0 180 -60t70 -165q0 -70 -49 -131t-174 -160l-88 -69v-5h184q53 0 77 14t52 66l53 -14q-20 -55 -55 -207h-528z" />
    <glyph glyph-name="threesuperior" unicode="&#xb3;" horiz-adv-x="712" 
d="M625 1069q0 -83 -73 -149t-156 -94q-193 -65 -296 18q-30 28 -14 68t51 63q23 12 47 -6q100 -86 146 -86q98 0 98 133q0 72 -38 108t-91 35q-53 0 -88 -14l-14 61q176 55 176 142q0 36 -26 58t-64 21q-72 0 -144 -79l-37 36l70 91q72 71 179 71t165 -48t57 -104
q0 -56 -38 -91q-41 -33 -109 -64v-4q199 -29 199 -166z" />
    <glyph glyph-name="acute" unicode="&#xb4;" 
d="M418 1001l-64 27q14 47 55 182q40 135 46 156q14 10 105 19t118 4l12 -21z" />
    <glyph glyph-name="mu" unicode="&#xb5;" horiz-adv-x="1101" 
d="M141 676q0 117 -8 207l262 49q6 -59 6 -234v-352q0 -104 44 -156t109 -51q65 0 124 66v678l260 49v-674q0 -133 78 -133q30 0 63 16l25 -57q-33 -45 -95 -77t-141 -32q-150 0 -184 142h-4q-117 -141 -226 -141t-163 87h-4v-30q1 -102 25 -264t46 -242l-30 -27
q-46 4 -102 29t-85 57q-4 20 -4 102l4 453v535z" />
    <glyph glyph-name="paragraph" unicode="&#xb6;" horiz-adv-x="1062" 
d="M741 51q0 -238 -151 -389q-52 -51 -114 -80t-85 -28q-94 0 -151 49q-31 29 -24 65t39 63q32 28 56 11q70 -47 145 -47q76 -1 118 65t42 256v275l-143 -64q-16 -4 -35 -4q-114 0 -236 122q-122 123 -122 319t148 328t333 132h412l8 -26l-61 -66l-179 -20v-961z" />
    <glyph glyph-name="periodcentered" unicode="&#xb7;" horiz-adv-x="520" 
d="M414 479q0 -69 -44 -113t-110 -44t-109 44q-45 44 -45 112t44 114q44 45 110 45t110 -44t44 -114z" />
    <glyph glyph-name="cedilla" unicode="&#xb8;" 
d="M563 -274q0 -135 -254 -207l-26 51q57 26 90 60t33 65t-46 67q-43 39 -47 72t35 78l76 88h94l-49 -51q-33 -35 14 -82q80 -80 80 -141z" />
    <glyph glyph-name="onesuperior" unicode="&#xb9;" horiz-adv-x="712" 
d="M592 815h-447v59q76 8 100 32t23 102v315q0 59 -11 77t-60 23l-52 4v60q156 14 324 59v-538q0 -78 23 -102t100 -32v-59z" />
    <glyph glyph-name="ordmasculine" unicode="&#xba;" horiz-adv-x="755" 
d="M376 1069q-106 0 -110 -203q-2 -104 33 -174t88 -69q96 0 102 192q1 119 -31 187t-82 67zM393 1139q135 0 222 -86t85 -215t-95 -206t-239 -77t-231 84q-86 84 -83 210q2 126 104 208t237 82z" />
    <glyph glyph-name="guillemotright" unicode="&#xbb;" horiz-adv-x="933" 
d="M449 811l65 41q147 -201 324 -393q-176 -188 -324 -393l-65 36l169 357zM96 811l66 41q127 -168 323 -393q-174 -190 -323 -393l-66 36l172 357z" />
    <glyph glyph-name="onequarter" unicode="&#xbc;" horiz-adv-x="1605" 
d="M1151 289v266h-4q-90 -119 -189 -266h193zM1450 199h-113v-41q1 -53 21 -75t82 -28v-55h-412v55q78 7 100 27t23 76v41h-317v57q223 297 378 477h125v-444h113v-90zM1266 1272l-832 -1354l-78 57l828 1352zM602 569h-446v60q78 7 102 31t23 102v315q1 61 -11 79t-61 22
l-51 4v59q158 14 323 62v-541q0 -78 23 -102t98 -31v-60z" />
    <glyph glyph-name="onehalf" unicode="&#xbd;" horiz-adv-x="1615" 
d="M899 0v53q326 246 326 410q0 63 -32 99t-87 36q-90 0 -164 -102l-45 41l72 100q35 43 93 70t118 26q110 0 180 -61q70 -60 70 -148t-50 -148t-174 -161l-88 -70v-4h185q53 1 77 15t52 67l51 -16q-25 -76 -56 -207h-528zM1225 1272l-832 -1354l-78 57l828 1352zM584 569
h-447v60q78 7 102 31t23 102v315q0 61 -11 79t-61 22l-51 4v59q156 14 324 62v-541q1 -78 23 -102t98 -31v-60z" />
    <glyph glyph-name="threequarters" unicode="&#xbe;" horiz-adv-x="1615" 
d="M692 814q0 -74 -74 -140t-156 -92t-136 -27q-54 0 -98 14t-66 36t-10 60q14 38 53 64q23 12 47 -6q100 -86 146 -86q96 0 96 135q0 72 -38 107q-62 57 -177 22l-15 60q176 57 176 141q0 36 -26 58t-64 22q-76 0 -143 -80l-37 37l68 92q72 72 179 72q107 -1 165 -49
t59 -106t-37 -88t-110 -65v-4q198 -29 198 -177zM1149 289v266h-4q-113 -150 -189 -266h193zM1448 199h-113v-41q1 -53 21 -75t82 -28v-55h-414v55q78 7 102 27t23 76v41h-318v57q211 285 377 477h127v-444h113v-90zM1266 1272l-830 -1354l-78 57l828 1352z" />
    <glyph glyph-name="questiondown" unicode="&#xbf;" horiz-adv-x="817" 
d="M655 219q0 -125 -193 -244t-216 -153q-10 -14 -10 -27q0 -76 97 -76t218 106q41 36 53 36q37 0 78 -45q41 -46 41 -94t-46 -90t-114 -64t-117 -21q-138 0 -254 110t-116 251q0 68 24 116q25 48 97 99q8 6 48 33t84 60q74 54 75 108t-54 122l45 48q96 -35 178 -110
t82 -165zM424 936q68 0 112 -45t44 -116t-45 -116t-112 -45t-112 45t-45 116t45 116t113 45z" />
    <glyph glyph-name="Agrave" unicode="&#xc0;" horiz-adv-x="1445" 
d="M860 1460l-29 -59l-425 119l-5 24q6 35 42 93t63 75q135 -94 354 -252zM799 545l-152 442h-6q-53 -140 -99 -267q-45 -126 -63 -175h320zM1407 0h-586v72q88 14 107 40q18 26 -10 102t-80 222h-394q-51 -145 -73 -219q-27 -73 -4 -103t129 -42v-72h-459l2 72
q102 12 139 47t88 164l420 1052l105 27q362 -990 403 -1096t79 -144t134 -50v-72z" />
    <glyph glyph-name="Aacute" unicode="&#xc1;" horiz-adv-x="1445" 
d="M1075 1546l-8 -24l-422 -123l-29 57q135 98 355 250q29 -10 65 -66t39 -94zM799 545l-152 442h-6q-53 -140 -99 -267q-45 -126 -63 -175h320zM1407 0h-586v72q88 14 107 40q18 26 -10 102t-80 222h-394q-51 -145 -73 -219q-27 -73 -4 -103t129 -42v-72h-459l2 72
q102 12 139 47t88 164l420 1052l105 27q362 -990 403 -1096t79 -144t134 -50v-72z" />
    <glyph glyph-name="Acircumflex" unicode="&#xc2;" horiz-adv-x="1445" 
d="M1051 1454l-33 -53q-78 29 -160 71t-110 54q-229 -109 -271 -125l-31 53q102 82 271 252h63q103 -111 271 -252zM799 545l-152 442h-6q-53 -140 -99 -267q-45 -126 -63 -175h320zM1407 0h-586v72q88 14 107 40q18 26 -10 102t-80 222h-394q-51 -145 -73 -219
q-27 -73 -4 -103t129 -42v-72h-459l2 72q102 12 139 47t88 164l420 1052l105 27q362 -990 403 -1096t79 -144t134 -50v-72z" />
    <glyph glyph-name="Atilde" unicode="&#xc3;" horiz-adv-x="1445" 
d="M635 1634q43 0 127 -36t133 -36t96 87l62 -31q-63 -201 -191 -201q-41 0 -143 43q-61 31 -113 31t-98 -90l-59 41q67 192 186 192zM799 545l-152 442h-6q-53 -140 -99 -267q-45 -126 -63 -175h320zM1407 0h-586v72q88 14 107 40q18 26 -10 102t-80 222h-394
q-51 -145 -73 -219q-27 -73 -4 -103t129 -42v-72h-459l2 72q102 12 139 47t88 164l420 1052l105 27q362 -990 403 -1096t79 -144t134 -50v-72z" />
    <glyph glyph-name="Adieresis" unicode="&#xc4;" horiz-adv-x="1445" 
d="M520 1696q57 0 98 -40t41 -96t-41 -96t-97 -41q-56 0 -97 40q-41 41 -41 97t40 96t97 40zM952 1696q58 0 98 -40t40 -96t-41 -96t-97 -41q-56 0 -98 40q-41 41 -41 97t41 96t98 40zM799 545l-152 442h-6q-53 -140 -99 -267q-45 -126 -63 -175h320zM1407 0h-586v72
q88 14 107 40q18 26 -10 102t-80 222h-394q-51 -145 -73 -219q-27 -73 -4 -103t129 -42v-72h-459l2 72q102 12 139 47t88 164l420 1052l105 27q362 -990 403 -1096t79 -144t134 -50v-72z" />
    <glyph glyph-name="Aring" unicode="&#xc5;" horiz-adv-x="1445" 
d="M739 1690q-41 0 -67 -30t-27 -76q0 -46 27 -77q28 -31 68 -31t66 30t25 77q0 47 -25 77q-26 30 -67 30zM736 1767q77 0 136 -51q60 -51 60 -133t-60 -134t-136 -52q-77 0 -134 52t-57 135t57 133t134 50zM799 545l-152 442h-6q-53 -140 -99 -267q-45 -126 -63 -175h320z
M1407 0h-586v72q88 14 107 40q18 26 -10 102t-80 222h-394q-51 -145 -73 -219q-27 -73 -4 -103t129 -42v-72h-459l2 72q102 12 139 47t88 164l420 1052l105 27q362 -990 403 -1096t79 -144t134 -50v-72z" />
    <glyph glyph-name="AE" unicode="&#xc6;" horiz-adv-x="1806" 
d="M868 696v529q-23 0 -45 -8q-250 -510 -254 -521h299zM684 0v72q125 10 155 47t29 178v301h-344q-33 -66 -168 -360q-38 -88 -18 -120t133 -46v-72h-500v72q96 12 147 50q50 38 107 142q195 354 463 887q25 49 19 69t-54 25l-123 15v71h1133q10 -184 20 -301l-71 -10
q-35 127 -81 174t-206 47h-106q-55 0 -69 -11t-13 -61v-475h133q135 0 175 25t56 127h76v-412h-76q-16 110 -55 136t-176 26l-133 2v-313q0 -90 10 -127t41 -52q42 -16 196 -16t211 66q74 77 121 202l70 -18q-41 -215 -76 -340h-1026z" />
    <glyph glyph-name="Ccedilla" unicode="&#xc7;" horiz-adv-x="1384" 
d="M973 -281q0 -133 -256 -217l-35 64q57 28 90 62t34 56t-42 78q-39 43 -45 70t20 64l62 75q-181 7 -323 69t-225 160q-167 198 -167 447q-2 319 222 517t597 198q119 0 189 -14q69 -14 118 -26q49 -11 58 -13q29 -176 47 -336l-78 -17q-53 170 -145 242t-234 72
q-209 0 -334 -167t-125 -429t128 -436t331 -175q258 1 418 316l74 -29q-53 -209 -111 -323q-186 -49 -342 -54l-20 -24q-17 -17 -15 -35t29 -49q80 -90 80 -146z" />
    <glyph glyph-name="Egrave" unicode="&#xc8;" horiz-adv-x="1189" 
d="M735 1460l-28 -59l-424 119l-7 24q6 35 42 93t65 75q217 -154 352 -252zM1047 1331q0 -42 20 -307l-74 -10q-37 129 -85 178t-203 49h-99q-57 0 -70 -11t-14 -61v-434h137q131 0 169 24t59 130h74v-414h-74q-19 109 -57 133t-171 23h-137v-355q0 -143 48 -165
q48 -23 199 -23t214 66q56 65 115 200l71 -14q-18 -141 -71 -340h-1045v72q133 10 164 41t31 159v787q0 131 -27 161t-139 40v71h965z" />
    <glyph glyph-name="Eacute" unicode="&#xc9;" horiz-adv-x="1189" 
d="M932 1546l-8 -24l-422 -123l-29 57q8 6 352 250q29 -10 66 -66t41 -94zM1047 1331q0 -42 20 -307l-74 -10q-37 129 -85 178t-203 49h-99q-57 0 -70 -11t-14 -61v-434h137q131 0 169 24t59 130h74v-414h-74q-19 109 -57 133t-171 23h-137v-355q0 -143 48 -165
q48 -23 199 -23t214 66q56 65 115 200l71 -14q-18 -141 -71 -340h-1045v72q133 10 164 41t31 159v787q0 131 -27 161t-139 40v71h965z" />
    <glyph glyph-name="Ecircumflex" unicode="&#xca;" horiz-adv-x="1189" 
d="M870 1401q-47 18 -268 125q-225 -106 -270 -125l-33 53q102 82 272 252h62q116 -123 270 -252zM1047 1331q0 -42 20 -307l-74 -10q-37 129 -85 178t-203 49h-99q-57 0 -70 -11t-14 -61v-434h137q131 0 169 24t59 130h74v-414h-74q-19 109 -57 133t-171 23h-137v-355
q0 -143 48 -165q48 -23 199 -23t214 66q56 65 115 200l71 -14q-18 -141 -71 -340h-1045v72q133 10 164 41t31 159v787q0 131 -27 161t-139 40v71h965z" />
    <glyph glyph-name="Edieresis" unicode="&#xcb;" horiz-adv-x="1189" 
d="M387 1696q57 0 97 -40t40 -96t-41 -96t-97 -41q-56 0 -97 40q-41 41 -41 97t41 96t98 40zM817 1696q57 0 97 -39t40 -96t-40 -97t-97 -41q-57 0 -98 40q-41 41 -41 97t41 96t98 40zM1047 1331q0 -42 20 -307l-74 -10q-37 129 -85 178t-203 49h-99q-57 0 -70 -11t-14 -61
v-434h137q131 0 169 24t59 130h74v-414h-74q-19 109 -57 133t-171 23h-137v-355q0 -143 48 -165q48 -23 199 -23t214 66q56 65 115 200l71 -14q-18 -141 -71 -340h-1045v72q133 10 164 41t31 159v787q0 131 -27 161t-139 40v71h965z" />
    <glyph glyph-name="Igrave" unicode="&#xcc;" horiz-adv-x="774" 
d="M528 1460l-30 -59l-424 119l-4 24q6 35 41 93t63 75q135 -94 354 -252zM692 0h-614v72q114 10 142 42t28 158v785q0 129 -28 161t-142 42v71h614v-71q-114 -10 -142 -42t-28 -161v-785q0 -126 28 -158t142 -42v-72z" />
    <glyph glyph-name="Iacute" unicode="&#xcd;" horiz-adv-x="774" 
d="M711 1546l-9 -24l-421 -123l-31 57q49 35 171 121l183 129q29 -10 65 -64t42 -96zM692 0h-614v72q114 10 142 42t28 158v785q0 129 -28 161t-142 42v71h614v-71q-114 -10 -142 -42t-28 -161v-785q0 -126 28 -158t142 -42v-72z" />
    <glyph glyph-name="Icircumflex" unicode="&#xce;" horiz-adv-x="774" 
d="M655 1401q-52 22 -270 125q-207 -100 -268 -125l-33 53q102 82 272 252h62q116 -123 270 -252zM692 0h-614v72q114 10 142 42t28 158v785q0 129 -28 161t-142 42v71h614v-71q-114 -10 -142 -42t-28 -161v-785q0 -126 28 -158t142 -42v-72z" />
    <glyph glyph-name="Idieresis" unicode="&#xcf;" horiz-adv-x="774" 
d="M172 1696q57 0 97 -40t40 -96t-41 -96t-97 -41q-56 0 -97 40q-41 41 -41 97t41 96t98 40zM602 1696q57 0 97 -39t40 -96t-40 -97t-97 -41q-57 0 -98 40q-41 41 -41 97t41 96t98 40zM692 0h-614v72q114 10 142 42t28 158v785q0 129 -28 161t-142 42v71h614v-71
q-114 -10 -142 -42t-28 -161v-785q0 -126 28 -158t142 -42v-72z" />
    <glyph glyph-name="Eth" unicode="&#xd0;" horiz-adv-x="1556" 
d="M545 645v-364q1 -111 31 -150t135 -39q197 0 325 161t127 443q0 282 -147 432q-115 115 -322 115q-106 0 -131 -29q-18 -18 -18 -100v-366h289v-103h-289zM106 1331h615q385 0 567 -175t182 -435q0 -360 -253 -549q-229 -172 -609 -172h-518v70q121 12 151 46t29 165v364
h-192v103h192v303q0 131 -26 165t-138 44v71z" />
    <glyph glyph-name="Ntilde" unicode="&#xd1;" horiz-adv-x="1515" 
d="M664 1634q45 0 128 -36t134 -36t94 87l61 -31q-63 -201 -188 -201q-41 0 -143 43q-60 31 -112 31t-99 -90l-62 41q68 192 187 192zM1483 1331v-71q-84 -4 -120 -31t-44 -96q-18 -190 -19 -340v-813h-98l-852 1019h-6v-460q0 -168 16 -332q8 -72 48 -102t149 -33v-72h-502
v72q86 6 125 34t45 95q20 168 21 338v428q0 104 -7 144t-36 75q-47 61 -170 74v71h379l782 -899h8v361q0 98 -16 335q-8 68 -50 97t-153 35v71h500z" />
    <glyph glyph-name="Ograve" unicode="&#xd2;" horiz-adv-x="1568" 
d="M934 1479l-29 -62l-426 119l-4 25q6 35 41 93t64 75q35 -25 354 -250zM778 1276q-170 0 -274 -157t-104 -423t113 -453q114 -187 304 -188q154 -1 253 147t99 435t-110 463q-111 176 -281 176zM805 1362q285 0 481 -192t197 -502q0 -312 -202 -506t-504 -193
q-303 0 -497 199t-194 489q0 289 192 497t527 208z" />
    <glyph glyph-name="Oacute" unicode="&#xd3;" horiz-adv-x="1568" 
d="M637 1473l354 249q29 -10 65 -64t42 -95l-8 -25l-422 -123zM778 1276q-170 0 -274 -157t-104 -423t113 -453q114 -187 304 -188q154 -1 253 147t99 435t-110 463q-111 176 -281 176zM805 1362q285 0 481 -192t197 -502q0 -312 -202 -506t-504 -193q-303 0 -497 199
t-194 489q0 289 192 497t527 208z" />
    <glyph glyph-name="Ocircumflex" unicode="&#xd4;" horiz-adv-x="1568" 
d="M1053 1417l-271 125q-207 -100 -268 -125l-33 53q102 82 273 252h61q116 -123 270 -252zM778 1276q-170 0 -274 -157t-104 -423t113 -453q114 -187 304 -188q154 -1 253 147t99 435t-110 463q-111 176 -281 176zM805 1362q285 0 481 -192t197 -502q0 -312 -202 -506
t-504 -193q-303 0 -497 199t-194 489q0 289 192 497t527 208z" />
    <glyph glyph-name="Otilde" unicode="&#xd5;" horiz-adv-x="1568" 
d="M682 1651q45 0 128 -36t134 -36t94 86l62 -31q-63 -201 -191 -200q-37 0 -143 43q-62 31 -112 31t-97 -91l-61 41q67 193 186 193zM778 1276q-170 0 -274 -157t-104 -423t113 -453q114 -187 304 -188q154 -1 253 147t99 435t-110 463q-111 176 -281 176zM805 1362
q285 0 481 -192t197 -502q0 -312 -202 -506t-504 -193q-303 0 -497 199t-194 489q0 289 192 497t527 208z" />
    <glyph glyph-name="Odieresis" unicode="&#xd6;" horiz-adv-x="1568" 
d="M569 1704q57 0 97 -40t41 -96q0 -56 -41 -96q-42 -40 -98 -40t-97 40t-41 96t41 96t98 40zM999 1704q57 0 97 -39t41 -96q0 -57 -40 -97q-39 -40 -97 -40t-99 40t-41 96t41 96t98 40zM778 1276q-170 0 -274 -157t-104 -423t113 -453q114 -187 304 -188q154 -1 253 147
t99 435t-110 463q-111 176 -281 176zM805 1362q285 0 481 -192t197 -502q0 -312 -202 -506t-504 -193q-303 0 -497 199t-194 489q0 289 192 497t527 208z" />
    <glyph glyph-name="multiply" unicode="&#xd7;" horiz-adv-x="1181" 
d="M1063 123l-100 -103l-373 381l-371 -381l-98 103l368 381l-368 377l98 104l371 -379l373 383l100 -102l-373 -383z" />
    <glyph glyph-name="Oslash" unicode="&#xd8;" horiz-adv-x="1579" 
d="M813 55q164 0 269 151q106 150 106 412t-86 424l-567 -833q47 -74 121 -114t157 -40zM782 1276q-170 0 -282 -159t-111 -409q0 -250 96 -419l570 829q-103 158 -273 158zM1493 686q0 -319 -204 -518t-513 -199q-199 0 -352 92l-117 -167l-63 53l108 157q-122 94 -194 240
t-72 295q0 280 177 494q85 102 227 165q142 64 330 64t343 -90l105 155l67 -47l-102 -157q119 -97 189 -235t71 -302z" />
    <glyph glyph-name="Ugrave" unicode="&#xd9;" horiz-adv-x="1492" 
d="M926 1460l-29 -59l-424 119l-6 24q6 35 42 93t62 75q136 -94 355 -252zM1483 1331v-71q-158 -8 -174 -121q-18 -115 -19 -285v-223q0 -354 -145 -508t-377 -154t-367 107q-170 131 -170 481v481q0 141 -27 176q-28 35 -145 46v71h617v-71q-114 -10 -142 -46t-28 -176
v-444q0 -234 84 -360t248 -125q350 0 350 526v219q0 162 -21 285q-8 55 -53 85t-145 36v71h514z" />
    <glyph glyph-name="Uacute" unicode="&#xda;" horiz-adv-x="1492" 
d="M1112 1546l-8 -24l-420 -123l-31 57q297 211 355 250q28 -10 64 -66t40 -94zM1483 1331v-71q-158 -8 -174 -121q-18 -115 -19 -285v-223q0 -354 -145 -508t-377 -154t-367 107q-170 131 -170 481v481q0 141 -27 176q-28 35 -145 46v71h617v-71q-114 -10 -142 -46
t-28 -176v-444q0 -234 84 -360t248 -125q350 0 350 526v219q0 162 -21 285q-8 55 -53 85t-145 36v71h514z" />
    <glyph glyph-name="Ucircumflex" unicode="&#xdb;" horiz-adv-x="1492" 
d="M1090 1454l-33 -53q-78 29 -160 71t-111 54q-236 -113 -268 -125l-33 53q123 100 271 252h63q117 -123 271 -252zM1483 1331v-71q-158 -8 -174 -121q-18 -115 -19 -285v-223q0 -354 -145 -508t-377 -154t-367 107q-170 131 -170 481v481q0 141 -27 176q-28 35 -145 46v71
h617v-71q-114 -10 -142 -46t-28 -176v-444q0 -234 84 -360t248 -125q350 0 350 526v219q0 162 -21 285q-8 55 -53 85t-145 36v71h514z" />
    <glyph glyph-name="Udieresis" unicode="&#xdc;" horiz-adv-x="1492" 
d="M571 1696q57 0 97 -39t41 -96q0 -57 -40 -97q-39 -40 -97 -41q-58 0 -99 40q-41 41 -41 97t41 96t98 40zM1001 1696q57 0 97 -39t41 -96q0 -57 -40 -97q-39 -40 -97 -41q-58 0 -99 40q-41 41 -41 97t41 96t98 40zM1483 1331v-71q-158 -8 -174 -121q-18 -115 -19 -285
v-223q0 -354 -145 -508t-377 -154t-367 107q-170 131 -170 481v481q0 141 -27 176q-28 35 -145 46v71h617v-71q-114 -10 -142 -46t-28 -176v-444q0 -234 84 -360t248 -125q350 0 350 526v219q0 162 -21 285q-8 55 -53 85t-145 36v71h514z" />
    <glyph glyph-name="Yacute" unicode="&#xdd;" horiz-adv-x="1341" 
d="M1042 1546l-6 -24l-422 -123l-30 57q297 211 354 250q28 -10 64 -64t40 -96zM1323 1331v-71q-96 -10 -142 -44q-94 -70 -333 -530q-37 -72 -37 -141v-262q0 -137 31 -169t168 -44v-70h-666v70q131 10 162 43t31 170v227q0 55 -27 111q-72 145 -254 464q-55 99 -96 131
t-127 44v71h585v-71q-96 -12 -112 -38t16 -81q18 -37 234 -445q186 367 213 434q31 60 9 88t-130 42v71h475z" />
    <glyph glyph-name="Thorn" unicode="&#xde;" horiz-adv-x="1214" 
d="M516 885v-465q87 -31 160 -4q174 60 174 274q0 141 -71 206t-173 65q-53 0 -74 -21q-16 -10 -16 -55zM676 1331v-71q-106 -12 -133 -46t-27 -172q57 2 170 2q221 0 341 -88t120 -263t-129 -281t-346 -107l-156 31v-92q0 -100 34 -130t155 -42v-72h-625v72q112 8 140 42
t28 146v815q0 113 -26 144t-130 41v71h584z" />
    <glyph glyph-name="germandbls" unicode="&#xdf;" horiz-adv-x="1171" 
d="M190 905v23q0 98 37 184q57 136 189 230t268 100q172 -2 266 -93t97 -227q0 -41 -21 -63q-182 -137 -182 -225q0 -74 63 -143q20 -22 72 -73q143 -135 143 -274t-129 -254t-272 -115q-72 0 -123 31t-31 84q12 35 43 55q23 20 43 2q82 -72 158 -71q33 0 61 28t27 84
q0 96 -106 209q-95 95 -137 157t-42 114t14 90q14 37 27 53q13 17 28 33t20 21l25 25l50 50q31 29 43 45t13 70q2 113 -64 199t-152 87q-86 0 -116 -75q-37 -91 -43 -186t-6 -222v-643q0 -90 13 -114t66 -33v-68h-469v68q86 10 107 33q20 24 20 112v588h-127l-10 26l56 78
h81z" />
    <glyph glyph-name="agrave" unicode="&#xe0;" horiz-adv-x="954" 
d="M489 1001q-247 302 -264 320l8 29q19 14 99 28t110 11q70 -220 111 -361zM334 293q0 -84 40 -124t81 -40t88 33v327q-22 -11 -113 -63q-96 -49 -96 -133zM338 -25q-125 0 -201 80q-76 81 -76 171t37 134t129 77q92 34 186 69q94 34 130 63v62q0 96 -34 148t-83 52
t-76 -36q-33 -39 -59 -142q-18 -70 -86 -69q-43 0 -85 32t-42 73q0 42 72 95q168 115 339 146q121 0 191 -54t94 -118q23 -64 23 -158v-338q0 -121 65 -121q25 0 70 17l20 -66l-223 -117q-127 0 -178 119q-180 -119 -213 -119z" />
    <glyph glyph-name="aacute" unicode="&#xe1;" horiz-adv-x="954" 
d="M444 1001l-63 27q84 282 100 338q13 10 105 19t119 4l12 -21zM334 293q0 -84 40 -124t81 -40t88 33v327q-22 -11 -113 -63q-96 -49 -96 -133zM338 -25q-125 0 -201 80q-76 81 -76 171t37 134t129 77q92 34 186 69q94 34 130 63v62q0 96 -34 148t-83 52t-76 -36
q-33 -39 -59 -142q-18 -70 -86 -69q-43 0 -85 32t-42 73q0 42 72 95q168 115 339 146q121 0 191 -54t94 -118q23 -64 23 -158v-338q0 -121 65 -121q25 0 70 17l20 -66l-223 -117q-127 0 -178 119q-180 -119 -213 -119z" />
    <glyph glyph-name="acircumflex" unicode="&#xe2;" horiz-adv-x="954" 
d="M664 991q-32 26 -203 189q-20 -18 -79 -78t-124 -111l-53 45q98 145 217 355h76q102 -181 221 -355zM334 293q0 -84 40 -124t81 -40t88 33v327q-22 -11 -113 -63q-96 -49 -96 -133zM338 -25q-125 0 -201 80q-76 81 -76 171t37 134t129 77q92 34 186 69q94 34 130 63v62
q0 96 -34 148t-83 52t-76 -36q-33 -39 -59 -142q-18 -70 -86 -69q-43 0 -85 32t-42 73q0 42 72 95q168 115 339 146q121 0 191 -54t94 -118q23 -64 23 -158v-338q0 -121 65 -121q25 0 70 17l20 -66l-223 -117q-127 0 -178 119q-180 -119 -213 -119z" />
    <glyph glyph-name="atilde" unicode="&#xe3;" horiz-adv-x="954" 
d="M602 1219q55 0 103 94l57 -29q-63 -217 -178 -217q-51 0 -138 45q-70 41 -114 41q-62 0 -107 -104l-59 38q70 215 190 216q41 0 125 -42t121 -42zM334 293q0 -84 40 -124t81 -40t88 33v327q-22 -11 -113 -63q-96 -49 -96 -133zM338 -25q-125 0 -201 80q-76 81 -76 171
t37 134t129 77q92 34 186 69q94 34 130 63v62q0 96 -34 148t-83 52t-76 -36q-33 -39 -59 -142q-18 -70 -86 -69q-43 0 -85 32t-42 73q0 42 72 95q168 115 339 146q121 0 191 -54t94 -118q23 -64 23 -158v-338q0 -121 65 -121q25 0 70 17l20 -66l-223 -117q-127 0 -178 119
q-180 -119 -213 -119z" />
    <glyph glyph-name="adieresis" unicode="&#xe4;" horiz-adv-x="954" 
d="M671 1063q-56 0 -98 40q-41 40 -41 96t41 96t99 40t97 -40q40 -40 40 -96t-41 -96t-97 -40zM250 1063q-57 0 -98 40t-41 96t42 96t99 40t97 -40t40 -96t-41 -96t-98 -40zM334 293q0 -84 40 -124t81 -40t88 33v327q-22 -11 -113 -63q-96 -49 -96 -133zM338 -25
q-125 0 -201 80q-76 81 -76 171t37 134t129 77q92 34 186 69q94 34 130 63v62q0 96 -34 148t-83 52t-76 -36q-33 -39 -59 -142q-18 -70 -86 -69q-43 0 -85 32t-42 73q0 42 72 95q168 115 339 146q121 0 191 -54t94 -118q23 -64 23 -158v-338q0 -121 65 -121q25 0 70 17
l20 -66l-223 -117q-127 0 -178 119q-180 -119 -213 -119z" />
    <glyph glyph-name="aring" unicode="&#xe5;" horiz-adv-x="954" 
d="M466 1102q40 0 64 30t25 76q0 46 -25 76q-26 29 -66 29t-67 -29t-27 -76q0 -46 28 -76t68 -30zM462 1022q-79 0 -137 52q-59 52 -59 135t60 134t137 51q78 0 137 -50q59 -52 59 -135t-59 -135t-138 -52zM334 293q0 -84 40 -124t81 -40t88 33v327q-22 -11 -113 -63
q-96 -49 -96 -133zM338 -25q-125 0 -201 80q-76 81 -76 171t37 134t129 77q92 34 186 69q94 34 130 63v62q0 96 -34 148t-83 52t-76 -36q-33 -39 -59 -142q-18 -70 -86 -69q-43 0 -85 32t-42 73q0 42 72 95q168 115 339 146q121 0 191 -54t94 -118q23 -64 23 -158v-338
q0 -121 65 -121q25 0 70 17l20 -66l-223 -117q-127 0 -178 119q-180 -119 -213 -119z" />
    <glyph glyph-name="ae" unicode="&#xe6;" horiz-adv-x="1374" 
d="M461 137q84 0 139 72q-47 111 -47 287q-4 -2 -125 -66q-94 -55 -94 -135t39 -119t88 -39zM957 844q-60 0 -106 -70t-56 -192q233 6 253 7t32 11t12 64t-38 118q-38 62 -97 62zM336 -25q-121 0 -197 79t-76 167t37 136t117 79q301 111 338 137v52q0 92 -41 148t-87 56
q-46 1 -74 -33t-56 -139q-18 -68 -86 -67q-41 0 -84 30t-43 74t74 92q162 109 336 144q94 0 157 -44t80 -85q57 59 132 94t141 35q141 0 239 -102t98 -230q0 -37 -11 -53t-44 -25q-74 -14 -502 -31q0 -163 80 -247t196 -84t230 86l39 -51q-82 -117 -184 -167t-176 -51
q-225 0 -334 172l-62 -51q-145 -121 -237 -121z" />
    <glyph glyph-name="ccedilla" unicode="&#xe7;" horiz-adv-x="864" 
d="M627 -281q0 -133 -252 -213l-29 60q125 63 125 123q0 29 -40 73t-46 70q-6 27 23 64l65 79q-188 13 -300 135t-112 302q0 111 56 215q55 104 153 176q172 127 344 127q117 0 185 -51q35 -27 30 -64q-1 -45 -31 -84t-52 -39t-50 23q-113 104 -209 104q-67 0 -117 -74
q-50 -73 -50 -239t94 -256t194 -90t213 90l37 -51q-127 -176 -303 -213l-29 -37q-14 -19 -8 -35t37 -49q72 -88 72 -146z" />
    <glyph glyph-name="egrave" unicode="&#xe8;" horiz-adv-x="894" 
d="M498 1001l-267 320l9 29q22 14 100 28t109 11q65 -205 112 -361zM483 848q-59 0 -105 -70t-54 -188q259 0 276 15q8 7 10 32q0 83 -34 147t-93 64zM61 414q0 223 152 370q145 146 299 146t252 -100t96 -230q0 -66 -59 -74q-182 -20 -488 -32q8 -158 85 -244t197 -86
t222 88l37 -49q-84 -125 -185 -176t-184 -52q-197 0 -311 127t-113 312z" />
    <glyph glyph-name="eacute" unicode="&#xe9;" horiz-adv-x="894" 
d="M477 1001l-63 27q84 282 100 338q14 10 106 19t117 4l13 -21zM483 848q-59 0 -105 -70t-54 -188q259 0 276 15q8 7 10 32q0 83 -34 147t-93 64zM61 414q0 223 152 370q145 146 299 146t252 -100t96 -230q0 -66 -59 -74q-182 -20 -488 -32q8 -158 85 -244t197 -86t222 88
l37 -49q-84 -125 -185 -176t-184 -52q-197 0 -311 127t-113 312z" />
    <glyph glyph-name="ecircumflex" unicode="&#xea;" horiz-adv-x="894" 
d="M678 991q-99 87 -201 189q-20 -18 -76 -76t-127 -113l-55 45q98 143 219 355h76q102 -181 221 -355zM483 848q-59 0 -105 -70t-54 -188q259 0 276 15q8 7 10 32q0 83 -34 147t-93 64zM61 414q0 223 152 370q145 146 299 146t252 -100t96 -230q0 -66 -59 -74
q-182 -20 -488 -32q8 -158 85 -244t197 -86t222 88l37 -49q-84 -125 -185 -176t-184 -52q-197 0 -311 127t-113 312z" />
    <glyph glyph-name="edieresis" unicode="&#xeb;" horiz-adv-x="894" 
d="M683 1063q-56 0 -97 40t-41 96t41 96t98 40t97 -40t40 -96t-41 -96t-97 -40zM262 1063q-57 0 -98 40t-41 96t42 96t99 40t97 -40t40 -96t-41 -96t-98 -40zM483 848q-59 0 -105 -70t-54 -188q259 0 276 15q8 7 10 32q0 83 -34 147t-93 64zM61 414q0 223 152 370
q145 146 299 146t252 -100t96 -230q0 -66 -59 -74q-182 -20 -488 -32q8 -158 85 -244t197 -86t222 88l37 -49q-84 -125 -185 -176t-184 -52q-197 0 -311 127t-113 312z" />
    <glyph glyph-name="igrave" unicode="&#xec;" horiz-adv-x="604" 
d="M313 1001q-247 302 -264 320l8 29q23 14 101 28t108 11q66 -205 113 -361zM582 0h-521v68q86 8 108 38t21 144v389q0 94 -17 119t-97 37v61q195 23 375 74v-680q0 -117 19 -144t112 -38v-68z" />
    <glyph glyph-name="iacute" unicode="&#xed;" horiz-adv-x="604" 
d="M301 1001l-63 27q84 282 100 338q14 10 105 19t118 4l12 -21zM582 0h-521v68q86 8 108 38t21 144v389q0 94 -17 119t-97 37v61q195 23 375 74v-680q0 -117 19 -144t112 -38v-68z" />
    <glyph glyph-name="icircumflex" unicode="&#xee;" horiz-adv-x="604" 
d="M502 991q-79 65 -203 189q-14 -12 -67 -67t-134 -122l-55 45q117 174 217 355h78q102 -181 221 -355zM582 0h-521v68q86 8 108 38t21 144v389q0 94 -17 119t-97 37v61q195 23 375 74v-680q0 -117 19 -144t112 -38v-68z" />
    <glyph glyph-name="idieresis" unicode="&#xef;" horiz-adv-x="604" 
d="M507 1063q-56 0 -97 40t-41 96t41 96t98 40t97 -40t40 -96t-41 -96t-97 -40zM86 1063q-57 0 -98 40t-41 96t42 96t99 40t97 -40t40 -96t-41 -96t-98 -40zM582 0h-521v68q86 8 108 38t21 144v389q0 94 -17 119t-97 37v61q195 23 375 74v-680q0 -117 19 -144t112 -38v-68z
" />
    <glyph glyph-name="eth" unicode="&#xf0;" horiz-adv-x="1069" 
d="M538 850q-79 0 -132 -92q-52 -92 -54 -276t51 -305q53 -120 146 -120q164 0 168 414q4 239 -48 309t-131 70zM995 551q0 -291 -135 -433t-345 -142t-334 138t-120 326q3 226 149 358t345 132q55 0 98 -19q-27 102 -112 217l-297 -149l-39 76l280 137q-147 143 -342 176
q-10 14 -4 39t23 33q250 -14 465 -164l286 145l39 -78l-252 -129q295 -272 295 -663z" />
    <glyph glyph-name="ntilde" unicode="&#xf1;" horiz-adv-x="1159" 
d="M719 1219q59 0 102 94l58 -29q-61 -217 -179 -217q-51 0 -137 45q-70 41 -114 41q-62 0 -107 -104l-59 38q70 215 190 216q43 0 126 -42t120 -42zM1124 0h-477v66q66 10 81 34t15 131v349q0 193 -141 192q-70 0 -151 -63v-496q0 -92 15 -115t81 -32v-66h-494v66
q98 14 118 35q19 22 19 122v424q0 90 -17 113t-93 37v59q176 23 371 78v-152q94 70 127 90q90 57 159 58q125 0 197 -87t72 -241v-387q0 -94 18 -116t100 -33v-66z" />
    <glyph glyph-name="ograve" unicode="&#xf2;" horiz-adv-x="1075" 
d="M547 1001q-157 192 -264 320l8 29q20 14 99 28t110 11q69 -220 110 -361zM522 850q-70 0 -119 -89t-49 -269t58 -309q58 -128 151 -128q160 0 160 353q-1 214 -53 328t-148 114zM61 432q0 230 150 364q151 134 349 134t327 -135t129 -326q0 -233 -140 -363t-351 -131
t-337 137t-127 320z" />
    <glyph glyph-name="oacute" unicode="&#xf3;" horiz-adv-x="1075" 
d="M532 1001l-63 27q84 282 100 338q13 10 105 19t119 4l12 -21zM522 850q-70 0 -119 -89t-49 -269t58 -309q58 -128 151 -128q160 0 160 353q-1 214 -53 328t-148 114zM61 432q0 230 150 364q151 134 349 134t327 -135t129 -326q0 -233 -140 -363t-351 -131t-337 137
t-127 320z" />
    <glyph glyph-name="ocircumflex" unicode="&#xf4;" horiz-adv-x="1075" 
d="M737 991q-123 108 -200 189q-20 -18 -76 -75t-127 -114l-55 45q117 174 217 355h77q103 -181 222 -355zM522 850q-70 0 -119 -89t-49 -269t58 -309q58 -128 151 -128q160 0 160 353q-1 214 -53 328t-148 114zM61 432q0 230 150 364q151 134 349 134t327 -135t129 -326
q0 -233 -140 -363t-351 -131t-337 137t-127 320z" />
    <glyph glyph-name="otilde" unicode="&#xf5;" horiz-adv-x="1075" 
d="M672 1219q59 0 102 94l57 -29q-61 -217 -178 -217q-51 0 -137 45q-70 41 -115 41q-61 0 -106 -104l-59 38q70 215 190 216q43 0 126 -42t120 -42zM522 850q-70 0 -119 -89t-49 -269t58 -309q58 -128 151 -128q160 0 160 353q-1 214 -53 328t-148 114zM61 432
q0 230 150 364q151 134 349 134t327 -135t129 -326q0 -233 -140 -363t-351 -131t-337 137t-127 320z" />
    <glyph glyph-name="odieresis" unicode="&#xf6;" horiz-adv-x="1075" 
d="M749 1063q-56 0 -98 40q-41 40 -41 96t41 96t99 40t97 -40q40 -40 40 -96t-41 -96t-97 -40zM328 1063q-57 0 -99 40q-41 40 -41 96t42 96t100 40t97 -40q40 -40 40 -96t-41 -96t-98 -40zM522 850q-70 0 -119 -89t-49 -269t58 -309q58 -128 151 -128q160 0 160 353
q-1 214 -53 328t-148 114zM61 432q0 230 150 364q151 134 349 134t327 -135t129 -326q0 -233 -140 -363t-351 -131t-337 137t-127 320z" />
    <glyph glyph-name="divide" unicode="&#xf7;" horiz-adv-x="1181" 
d="M591 326q50 0 87 -37t37 -86t-38 -87t-87 -38t-85 38t-36 88t36 86t86 36zM1087 453h-991v133h991v-133zM597 715q-48 0 -86 37t-38 86t38 87t86 38t85 -38t37 -88t-37 -86t-85 -36z" />
    <glyph glyph-name="oslash" unicode="&#xf8;" horiz-adv-x="1087" 
d="M561 57q195 0 195 373q0 136 -35 232l-315 -484q59 -121 155 -121zM332 483q0 -119 37 -223l311 479q-55 106 -154 107q-72 0 -133 -89t-61 -274zM1026 471q0 -234 -142 -365t-343 -131q-129 0 -240 56l-74 -105l-59 47l72 103q-88 63 -134 158q-45 95 -45 198
q0 226 152 362t342 136q123 0 223 -53l72 102l57 -43l-67 -100q186 -131 186 -365z" />
    <glyph glyph-name="ugrave" unicode="&#xf9;" horiz-adv-x="1136" 
d="M578 1001q-239 291 -265 320l9 29q22 14 100 28t108 11q66 -205 113 -361zM170 266v424q0 74 -17 93t-96 40v60q184 8 379 37q-6 -129 -6 -310v-297q0 -92 41 -136t115 -44t133 57v498q1 78 -19 98t-112 37v60q217 10 391 37v-666q0 -82 15 -106t71 -29l45 -4v-66
q-143 -18 -375 -74l-16 15v123q-82 -63 -103 -76q-94 -61 -178 -62q-128 0 -198 77t-70 214z" />
    <glyph glyph-name="uacute" unicode="&#xfa;" horiz-adv-x="1136" 
d="M553 1001l-64 27q14 47 55 182q40 135 46 156q14 10 105 19t118 4l12 -21zM170 266v424q0 74 -17 93t-96 40v60q184 8 379 37q-6 -129 -6 -310v-297q0 -92 41 -136t115 -44t133 57v498q1 78 -19 98t-112 37v60q217 10 391 37v-666q0 -82 15 -106t71 -29l45 -4v-66
q-143 -18 -375 -74l-16 15v123q-82 -63 -103 -76q-94 -61 -178 -62q-128 0 -198 77t-70 214z" />
    <glyph glyph-name="ucircumflex" unicode="&#xfb;" horiz-adv-x="1136" 
d="M817 1036l-55 -45q-50 42 -116 106t-87 83q-20 -18 -76 -76t-127 -113l-53 45q98 145 217 355h76q102 -181 221 -355zM170 266v424q0 74 -17 93t-96 40v60q184 8 379 37q-6 -129 -6 -310v-297q0 -92 41 -136t115 -44t133 57v498q1 78 -19 98t-112 37v60q217 10 391 37
v-666q0 -82 15 -106t71 -29l45 -4v-66q-143 -18 -375 -74l-16 15v123q-82 -63 -103 -76q-94 -61 -178 -62q-128 0 -198 77t-70 214z" />
    <glyph glyph-name="udieresis" unicode="&#xfc;" horiz-adv-x="1136" 
d="M761 1063q-56 0 -97 40t-41 96t41 96t98 40t97 -40t40 -96t-41 -96t-97 -40zM340 1063q-57 0 -98 40t-41 96t42 96t99 40t97 -40t40 -96t-41 -96t-98 -40zM170 266v424q0 74 -17 93t-96 40v60q184 8 379 37q-6 -129 -6 -310v-297q0 -92 41 -136t115 -44t133 57v498
q1 78 -19 98t-112 37v60q217 10 391 37v-666q0 -82 15 -106t71 -29l45 -4v-66q-143 -18 -375 -74l-16 15v123q-82 -63 -103 -76q-94 -61 -178 -62q-128 0 -198 77t-70 214z" />
    <glyph glyph-name="yacute" unicode="&#xfd;" horiz-adv-x="952" 
d="M512 1001l-63 27q84 282 100 338q14 10 105 19t118 4l12 -21zM989 905v-65q-75 -12 -103 -38t-59 -92t-207 -490q-176 -425 -253 -664q-19 -56 -71 -56t-100 39t-48 86t55 84q117 61 168 146q27 51 39 88t-9 92q-170 473 -258 678q-29 69 -57 93t-100 34v65h508v-65
q-68 -12 -83 -28t1 -67l153 -454q68 168 154 436q16 51 -4 75t-94 38v65h368z" />
    <glyph glyph-name="thorn" unicode="&#xfe;" horiz-adv-x="1101" 
d="M570 76q76 0 142 93q64 93 64 264t-74 258t-165 87q-49 0 -127 -35v-591q84 -76 160 -76zM1042 530q0 -213 -145 -361t-356 -194q-66 0 -131 25v-229q0 -109 28 -139t150 -38v-65h-574v65q90 8 112 34t21 134v1391q0 90 -20 117t-111 37v59q206 21 394 74v-621
q127 68 171 89t91 22q174 0 272 -121t98 -279z" />
    <glyph glyph-name="ydieresis" unicode="&#xff;" horiz-adv-x="952" 
d="M711 1063q-57 0 -99 40q-41 40 -41 96t41 96q42 40 100 40t97 -39t39 -96t-40 -97t-97 -40zM290 1063q-56 0 -97 40t-41 96t41 96t98 40t97 -40t40 -96t-41 -96t-97 -40zM989 905v-65q-75 -12 -103 -38t-59 -92t-207 -490q-176 -425 -253 -664q-19 -56 -71 -56t-100 39
t-48 86t55 84q117 61 168 146q27 51 39 88t-9 92q-170 473 -258 678q-29 69 -57 93t-100 34v65h508v-65q-68 -12 -83 -28t1 -67l153 -454q68 168 154 436q16 51 -4 75t-94 38v65h368z" />
    <glyph glyph-name="Amacron" unicode="&#x100;" horiz-adv-x="1445" 
d="M993 1456h-501v139h501v-139zM799 545l-152 442h-6q-53 -140 -99 -267q-45 -126 -63 -175h320zM1407 0h-586v72q88 14 107 40q18 26 -10 102t-80 222h-394q-51 -145 -73 -219q-27 -73 -4 -103t129 -42v-72h-459l2 72q102 12 139 47t88 164l420 1052l105 27
q362 -990 403 -1096t79 -144t134 -50v-72z" />
    <glyph glyph-name="amacron" unicode="&#x101;" horiz-adv-x="954" 
d="M702 1108h-509v149h509v-149zM334 293q0 -84 40 -124t81 -40t88 33v327q-22 -11 -113 -63q-96 -49 -96 -133zM338 -25q-125 0 -201 80q-76 81 -76 171t37 134t129 77q92 34 186 69q94 34 130 63v62q0 96 -34 148t-83 52t-76 -36q-33 -39 -59 -142q-18 -70 -86 -69
q-43 0 -85 32t-42 73q0 42 72 95q168 115 339 146q121 0 191 -54t94 -118q23 -64 23 -158v-338q0 -121 65 -121q25 0 70 17l20 -66l-223 -117q-127 0 -178 119q-180 -119 -213 -119z" />
    <glyph glyph-name="Abreve" unicode="&#x102;" horiz-adv-x="1445" 
d="M742 1415q-260 0 -261 281h62q29 -133 199 -133t200 133h62q-2 -281 -262 -281zM799 545l-152 442h-6q-53 -140 -99 -267q-45 -126 -63 -175h320zM1407 0h-586v72q88 14 107 40q18 26 -10 102t-80 222h-394q-51 -145 -73 -219q-27 -73 -4 -103t129 -42v-72h-459l2 72
q102 12 139 47t88 164l420 1052l105 27q362 -990 403 -1096t79 -144t134 -50v-72z" />
    <glyph glyph-name="abreve" unicode="&#x103;" horiz-adv-x="954" 
d="M702 1352q0 -315 -251 -316q-248 0 -248 316h65q36 -160 184 -160t185 160h65zM334 293q0 -84 40 -124t81 -40t88 33v327q-22 -11 -113 -63q-96 -49 -96 -133zM338 -25q-125 0 -201 80q-76 81 -76 171t37 134t129 77q92 34 186 69q94 34 130 63v62q0 96 -34 148t-83 52
t-76 -36q-33 -39 -59 -142q-18 -70 -86 -69q-43 0 -85 32t-42 73q0 42 72 95q168 115 339 146q121 0 191 -54t94 -118q23 -64 23 -158v-338q0 -121 65 -121q25 0 70 17l20 -66l-223 -117q-127 0 -178 119q-180 -119 -213 -119z" />
    <glyph glyph-name="Aogonek" unicode="&#x104;" horiz-adv-x="1445" 
d="M799 543l-152 444h-4q-156 -422 -164 -444h320zM1407 0h-420q-45 -38 -80 -106t-35 -124t33 -84t77 -28t87 16l18 -63l-131 -66q-35 -23 -73 -22q-88 0 -135 50q-48 49 -48 113q-1 146 149 290q24 24 79 77q28 27 18 59q-59 181 -112 324h-390q-68 -190 -73 -211
q-29 -81 -9 -111t132 -44v-70h-457l2 70q94 10 137 51t94 170q279 696 416 1044q24 5 60 15t45 12q240 -666 387 -1059q61 -141 100 -184t129 -56v-63z" />
    <glyph glyph-name="aogonek" unicode="&#x105;" horiz-adv-x="956" 
d="M334 293q0 -84 40 -123t82 -39t89 33v325q-12 -5 -51 -29t-64 -36q-96 -47 -96 -131zM725 -338q41 0 86 23l16 -62l-125 -72q-43 -27 -75 -26q-84 0 -131 44t-47 116q0 133 204 301q-27 12 -57 42t-43 66q-180 -119 -215 -119q-125 0 -201 80q-76 81 -76 171t37 132
t119 76q289 102 328 135v60q0 94 -34 148t-84 54q-50 -1 -77 -35t-57 -143q-16 -70 -84 -69q-43 0 -86 32t-43 73q0 42 72 95q168 115 342 146q115 0 198 -60q61 -48 84 -112t23 -158v-340q0 -121 65 -121q33 1 70 17l20 -62q-8 -4 -50 -24q-140 -66 -212 -151t-71 -165
q0 -92 104 -92z" />
    <glyph glyph-name="Cacute" unicode="&#x106;" horiz-adv-x="1384" 
d="M1106 1577l-8 -25l-420 -122l-31 57q297 209 354 250q29 -9 65 -65t40 -95zM84 649q0 317 224 515t589 198q123 0 373 -55q31 -186 47 -336l-76 -15q-88 315 -383 316q-213 0 -337 -171t-124 -431t135 -432t347 -172q241 0 401 315l72 -33q-55 -203 -115 -325
q-231 -53 -405 -53t-326 58q-152 60 -242 159q-180 198 -180 462z" />
    <glyph glyph-name="cacute" unicode="&#x107;" horiz-adv-x="864" 
d="M498 1001l-64 27q14 47 54 182t47 156q14 10 105 19t118 4l12 -21zM59 412q0 113 55 216q54 103 152 175q172 127 348 127q115 0 177 -51q37 -27 37 -72t-30 -80t-54 -35t-50 23q-125 106 -201 106q-77 -1 -127 -73t-50 -238t96 -257t186 -91q121 0 219 84l39 -49
q-72 -101 -166 -161t-186 -61q-201 0 -323 130t-122 307z" />
    <glyph glyph-name="Ccircumflex" unicode="&#x108;" horiz-adv-x="1384" 
d="M1108 1425q-47 18 -268 125q-225 -106 -271 -125l-32 54q102 82 272 252h61q99 -102 271 -252zM84 649q0 317 224 515t589 198q123 0 373 -55q31 -186 47 -336l-76 -15q-88 315 -383 316q-213 0 -337 -171t-124 -431t135 -432t347 -172q241 0 401 315l72 -33
q-55 -203 -115 -325q-231 -53 -405 -53t-326 58q-152 60 -242 159q-180 198 -180 462z" />
    <glyph glyph-name="ccircumflex" unicode="&#x109;" horiz-adv-x="864" 
d="M500 1180q-134 -134 -201 -189l-55 45q98 145 217 355h76q92 -165 223 -355l-58 -45q-24 20 -202 189zM59 412q0 113 55 216q54 103 152 175q172 127 348 127q115 0 177 -51q37 -27 37 -72t-30 -80t-54 -35t-50 23q-125 106 -201 106q-77 -1 -127 -73t-50 -238t96 -257
t186 -91q121 0 219 84l39 -49q-72 -101 -166 -161t-186 -61q-201 0 -323 130t-122 307z" />
    <glyph glyph-name="Cdotaccent" unicode="&#x10a;" horiz-adv-x="1384" 
d="M705 1586q0 58 43 100t103 43q60 0 102 -41q42 -42 42 -102t-43 -102t-102 -42t-102 43t-43 101zM84 649q0 317 224 515t589 198q123 0 373 -55q31 -186 47 -336l-76 -15q-88 315 -383 316q-213 0 -337 -171t-124 -431t135 -432t347 -172q241 0 401 315l72 -33
q-55 -203 -115 -325q-231 -53 -405 -53t-326 58q-152 60 -242 159q-180 198 -180 462z" />
    <glyph glyph-name="cdotaccent" unicode="&#x10b;" horiz-adv-x="864" 
d="M504 1059q-59 0 -103 43q-43 43 -43 102q0 58 43 100t103 42t103 -41q42 -41 42 -101t-43 -103q-43 -42 -102 -42zM59 412q0 113 55 216q54 103 152 175q172 127 348 127q115 0 177 -51q37 -27 37 -72t-30 -80t-54 -35t-50 23q-125 106 -201 106q-77 -1 -127 -73
t-50 -238t96 -257t186 -91q121 0 219 84l39 -49q-72 -101 -166 -161t-186 -61q-201 0 -323 130t-122 307z" />
    <glyph glyph-name="Ccaron" unicode="&#x10c;" horiz-adv-x="1384" 
d="M1102 1731l31 -54q-100 -78 -271 -252h-61q-133 143 -273 252l35 54q135 -55 268 -121q121 60 271 121zM84 649q0 317 224 515t589 198q123 0 373 -55q31 -186 47 -336l-76 -15q-88 315 -383 316q-213 0 -337 -171t-124 -431t135 -432t347 -172q241 0 401 315l72 -33
q-55 -203 -115 -325q-231 -53 -405 -53t-326 58q-152 60 -242 159q-180 198 -180 462z" />
    <glyph glyph-name="ccaron" unicode="&#x10d;" horiz-adv-x="864" 
d="M717 1411l57 -45q-88 -127 -217 -354h-78q-90 164 -221 354l55 45q55 -43 121 -107q66 -65 84 -81q170 165 199 188zM59 412q0 113 55 216q54 103 152 175q172 127 348 127q115 0 177 -51q37 -27 37 -72t-30 -80t-54 -35t-50 23q-125 106 -201 106q-77 -1 -127 -73
t-50 -238t96 -257t186 -91q121 0 219 84l39 -49q-72 -101 -166 -161t-186 -61q-201 0 -323 130t-122 307z" />
    <glyph glyph-name="Dcaron" unicode="&#x10e;" horiz-adv-x="1558" 
d="M1006 1700l32 -53q-111 -84 -270 -252h-63q-133 143 -273 252l35 53q150 -61 270 -121q115 58 269 121zM522 1106v-819q0 -115 35 -157t139 -42q209 0 336 160t127 440t-151 432q-131 127 -334 127q-100 1 -126 -25t-26 -116zM84 1331h616q400 0 584 -175t184 -437
q0 -350 -256 -549q-225 -170 -620 -170h-526v72q122 10 152 42t30 160v783q0 129 -27 161t-137 42v71z" />
    <glyph glyph-name="dcaron" unicode="&#x10f;" horiz-adv-x="1120" 
d="M1161 1454q63 0 109 -54t47 -142q-1 -88 -61 -150t-158 -88l-23 53q111 57 111 135t-82 105q-31 10 -31 51q-1 42 27 66t61 24zM580 131q74 0 125 33v573q-49 106 -148 107q-53 0 -121 -64q-38 -36 -62 -114t-24 -187q2 -172 79 -260t151 -88zM465 -25q-55 0 -127 28
q-166 65 -239 223q-40 89 -40 198q0 211 162 358t400 148q8 0 84 -10v247q0 82 -22 104t-116 32v63q258 33 400 74v-1182q0 -86 15 -106t81 -29l45 -4v-66q-301 -51 -403 -80v119l-123 -80q-61 -37 -117 -37z" />
    <glyph glyph-name="Dcroat" unicode="&#x110;" horiz-adv-x="1556" 
d="M545 645v-364q1 -111 31 -150t135 -39q197 0 325 161t127 443q0 282 -147 432q-115 115 -322 115q-106 0 -131 -29q-18 -18 -18 -100v-366h289v-103h-289zM106 1331h615q385 0 567 -175t182 -435q0 -360 -253 -549q-229 -172 -609 -172h-518v70q121 12 151 46t29 165v364
h-192v103h192v303q0 131 -26 165t-138 44v71z" />
    <glyph glyph-name="dcroat" unicode="&#x111;" horiz-adv-x="1122" 
d="M594 129q54 0 113 37v573q-47 104 -146 105q-53 0 -122 -65q-37 -35 -63 -113t-26 -187q2 -172 80 -261t164 -89zM479 -25q-94 1 -187 47t-163 152t-70 250q0 211 163 358t405 148q4 0 80 -10v157h-283v86h283v43q1 68 -19 82t-113 31v61q248 31 394 74v-291h161v-86
h-161v-811q0 -94 15 -114t83 -29l43 -4v-66q-301 -51 -403 -80v117l-125 -78q-61 -37 -103 -37z" />
    <glyph glyph-name="Emacron" unicode="&#x112;" horiz-adv-x="1189" 
d="M883 1458h-504v137h504v-137zM1047 1331q0 -42 20 -307l-74 -10q-37 129 -85 178t-203 49h-99q-57 0 -70 -11t-14 -61v-434h137q131 0 169 24t59 130h74v-414h-74q-19 109 -57 133t-171 23h-137v-355q0 -143 48 -165q48 -23 199 -23t214 66q56 65 115 200l71 -14
q-18 -141 -71 -340h-1045v72q133 10 164 41t31 159v787q0 131 -27 161t-139 40v71h965z" />
    <glyph glyph-name="emacron" unicode="&#x113;" horiz-adv-x="894" 
d="M737 1108h-510v149h510v-149zM483 848q-59 0 -105 -70t-54 -188q259 0 276 15q8 7 10 32q0 83 -34 147t-93 64zM61 414q0 223 152 370q145 146 299 146t252 -100t96 -230q0 -66 -59 -74q-182 -20 -488 -32q8 -158 85 -244t197 -86t222 88l37 -49q-84 -125 -185 -176
t-184 -52q-197 0 -311 127t-113 312z" />
    <glyph glyph-name="Ebreve" unicode="&#x114;" horiz-adv-x="1189" 
d="M632 1419q-259 0 -261 281h61q30 -133 200 -133t199 133h62q-2 -281 -261 -281zM1047 1331q0 -42 20 -307l-74 -10q-37 129 -85 178t-203 49h-99q-57 0 -70 -11t-14 -61v-434h137q131 0 169 24t59 130h74v-414h-74q-19 109 -57 133t-171 23h-137v-355q0 -143 48 -165
q48 -23 199 -23t214 66q56 65 115 200l71 -14q-18 -141 -71 -340h-1045v72q133 10 164 41t31 159v787q0 131 -27 161t-139 40v71h965z" />
    <glyph glyph-name="ebreve" unicode="&#x115;" horiz-adv-x="894" 
d="M735 1352q0 -315 -252 -316q-248 0 -247 316h65q37 -160 185 -160t184 160h65zM483 848q-59 0 -105 -70t-54 -188q259 0 276 15q8 7 10 32q0 83 -34 147t-93 64zM61 414q0 223 152 370q145 146 299 146t252 -100t96 -230q0 -66 -59 -74q-182 -20 -488 -32q8 -158 85 -244
t197 -86t222 88l37 -49q-84 -125 -185 -176t-184 -52q-197 0 -311 127t-113 312z" />
    <glyph glyph-name="Edotaccent" unicode="&#x116;" horiz-adv-x="1189" 
d="M626 1724q60 0 103 -42t43 -101t-43 -101t-103 -42t-104 43q-43 43 -43 101t43 100q44 42 104 42zM1047 1331q0 -42 20 -307l-74 -10q-37 129 -85 178t-203 49h-99q-57 0 -70 -11t-14 -61v-434h137q131 0 169 24t59 130h74v-414h-74q-19 109 -57 133t-171 23h-137v-355
q0 -143 48 -165q48 -23 199 -23t214 66q56 65 115 200l71 -14q-18 -141 -71 -340h-1045v72q133 10 164 41t31 159v787q0 131 -27 161t-139 40v71h965z" />
    <glyph glyph-name="edotaccent" unicode="&#x117;" horiz-adv-x="894" 
d="M340 1204q0 58 43 100t103 42t102 -41t43 -101t-43 -103q-44 -42 -103 -42t-102 43t-43 102zM483 848q-59 0 -105 -70t-54 -188q259 0 276 15q8 7 10 32q0 83 -34 147t-93 64zM61 414q0 223 152 370q145 146 299 146t252 -100t96 -230q0 -66 -59 -74q-182 -20 -488 -32
q8 -158 85 -244t197 -86t222 88l37 -49q-84 -125 -185 -176t-184 -52q-197 0 -311 127t-113 312z" />
    <glyph glyph-name="Eogonek" unicode="&#x118;" horiz-adv-x="1187" 
d="M1047 1331q0 -38 20 -303l-76 -10q-33 119 -84 170t-202 51h-95q-59 0 -73 -11t-15 -61v-428h127q137 0 177 26t61 128h74v-416h-74q-19 106 -59 132t-179 26h-127v-367q0 -136 46 -158t198 -22t212 66t120 206l71 -20q-18 -141 -71 -340h-101q-156 -137 -155 -264
q0 -39 28 -60q29 -20 72 -20t90 20l19 -61l-107 -66q-53 -31 -98 -30q-86 0 -129 46t-43 107q0 150 231 328h-852v72q133 10 164 41t31 159v787q0 129 -28 160t-138 41v71h965z" />
    <glyph glyph-name="eogonek" unicode="&#x119;" horiz-adv-x="894" 
d="M565 596q43 0 45 43q0 85 -36 147t-94 62t-103 -70t-55 -188q141 6 243 6zM59 431q1 202 149 350q148 149 302 149t254 -100q98 -100 96 -230q0 -66 -59 -74q-182 -20 -488 -32q6 -160 81 -246t197 -86t224 90l37 -47q-61 -76 -111 -117q-227 -219 -227 -340
q0 -40 28 -64t68 -24t95 25l18 -60l-123 -71q-37 -25 -82 -25q-88 0 -129 43t-41 109q0 67 62 149t153 156l-4 4q-35 -14 -74 -15q-199 0 -313 127t-113 329z" />
    <glyph glyph-name="Ecaron" unicode="&#x11a;" horiz-adv-x="1189" 
d="M893 1708l31 -53q-100 -78 -271 -252h-63q-119 131 -271 252l33 53q150 -61 271 -121q137 68 270 121zM1047 1331q0 -42 20 -307l-74 -10q-37 129 -85 178t-203 49h-99q-57 0 -70 -11t-14 -61v-434h137q131 0 169 24t59 130h74v-414h-74q-19 109 -57 133t-171 23h-137
v-355q0 -143 48 -165q48 -23 199 -23t214 66q56 65 115 200l71 -14q-18 -141 -71 -340h-1045v72q133 10 164 41t31 159v787q0 131 -27 161t-139 40v71h965z" />
    <glyph glyph-name="ecaron" unicode="&#x11b;" horiz-adv-x="894" 
d="M688 1411l55 -45q-88 -127 -217 -354h-77q-102 186 -222 354l58 45q14 -10 202 -188q164 157 201 188zM483 848q-59 0 -105 -70t-54 -188q259 0 276 15q8 7 10 32q0 83 -34 147t-93 64zM61 414q0 223 152 370q145 146 299 146t252 -100t96 -230q0 -66 -59 -74
q-182 -20 -488 -32q8 -158 85 -244t197 -86t222 88l37 -49q-84 -125 -185 -176t-184 -52q-197 0 -311 127t-113 312z" />
    <glyph glyph-name="Gcircumflex" unicode="&#x11c;" horiz-adv-x="1488" 
d="M1153 1470l-33 -53q-82 30 -161 72q-80 41 -109 53q-229 -109 -270 -125l-31 53q123 100 270 252h64q116 -123 270 -252zM1440 635v-70q-78 -16 -96 -41t-19 -125v-161q0 -129 12 -193q-303 -76 -467 -76q-356 1 -568 187t-212 493q0 225 114 390t295 244t402 79
q141 0 399 -57q8 -106 33 -340l-76 -15q-37 164 -141 245t-256 81q-194 0 -326 -161t-133 -429q0 -355 214 -535q114 -95 274 -96q80 0 115 25q47 29 47 113v194q0 61 -4 87t-29 48t-66 29q-41 6 -127 14v70h615z" />
    <glyph glyph-name="gcircumflex" unicode="&#x11d;" horiz-adv-x="1007" 
d="M694 991q-73 60 -202 189q-14 -12 -65 -65t-136 -124l-55 45q117 174 217 355h77q103 -181 222 -355zM484 -43q-118 0 -163 -47q-45 -46 -45 -112t74 -126t190 -59q116 0 182 54t66 138q0 104 -114 134q-72 18 -190 18zM625 602q0 108 -36 180q-37 72 -97 72t-96 -60
t-36 -170t37 -183t105 -72q123 0 123 233zM985 -80q0 -172 -169 -296q-170 -124 -366 -124t-295 77t-100 173q0 59 64 113q27 20 155 100q-102 37 -153 113q-35 51 -31 110q115 47 209 136q-92 30 -146 104t-55 168q0 160 121 248t277 88q111 0 219 -56q84 5 297 25l8 -14
q-33 -90 -88 -125l-117 8q55 -66 55 -156q0 -152 -114 -236t-277 -83q-25 0 -100 10q-29 -29 -29 -59t32 -54q32 -25 99 -22l189 2q315 0 315 -250z" />
    <glyph glyph-name="Gbreve" unicode="&#x11e;" horiz-adv-x="1488" 
d="M1081 1718q0 -281 -260 -280q-260 0 -260 280h60q31 -133 201 -133t198 133h61zM1440 635v-70q-78 -16 -96 -41t-19 -125v-161q0 -129 12 -193q-303 -76 -467 -76q-356 1 -568 187t-212 493q0 225 114 390t295 244t402 79q141 0 399 -57q8 -106 33 -340l-76 -15
q-37 164 -141 245t-256 81q-194 0 -326 -161t-133 -429q0 -355 214 -535q114 -95 274 -96q80 0 115 25q47 29 47 113v194q0 61 -4 87t-29 48t-66 29q-41 6 -127 14v70h615z" />
    <glyph glyph-name="gbreve" unicode="&#x11f;" horiz-adv-x="1007" 
d="M741 1352q0 -315 -252 -316q-248 0 -247 316h65q37 -160 185 -160t184 160h65zM484 -43q-118 0 -163 -47q-45 -46 -45 -112t74 -126t190 -59q116 0 182 54t66 138q0 104 -114 134q-72 18 -190 18zM625 602q0 108 -36 180q-37 72 -97 72t-96 -60t-36 -170t37 -183t105 -72
q123 0 123 233zM985 -80q0 -172 -169 -296q-170 -124 -366 -124t-295 77t-100 173q0 59 64 113q27 20 155 100q-102 37 -153 113q-35 51 -31 110q115 47 209 136q-92 30 -146 104t-55 168q0 160 121 248t277 88q111 0 219 -56q84 5 297 25l8 -14q-33 -90 -88 -125l-117 8
q55 -66 55 -156q0 -152 -114 -236t-277 -83q-25 0 -100 10q-29 -29 -29 -59t32 -54q32 -25 99 -22l189 2q315 0 315 -250z" />
    <glyph glyph-name="Gdotaccent" unicode="&#x120;" horiz-adv-x="1488" 
d="M719 1585q0 59 43 101t103 43q61 0 103 -42q42 -43 42 -103t-42 -101t-102 -41t-104 42q-43 42 -43 101zM1440 635v-70q-78 -16 -96 -41t-19 -125v-161q0 -129 12 -193q-303 -76 -467 -76q-356 1 -568 187t-212 493q0 225 114 390t295 244t402 79q141 0 399 -57
q8 -106 33 -340l-76 -15q-37 164 -141 245t-256 81q-194 0 -326 -161t-133 -429q0 -355 214 -535q114 -95 274 -96q80 0 115 25q47 29 47 113v194q0 61 -4 87t-29 48t-66 29q-41 6 -127 14v70h615z" />
    <glyph glyph-name="gdotaccent" unicode="&#x121;" horiz-adv-x="1007" 
d="M338 1204q0 58 43 100t103 42t102 -41t43 -101t-43 -103q-44 -42 -103 -42t-102 43t-43 102zM484 -43q-118 0 -163 -47q-45 -46 -45 -112t74 -126t190 -59q116 0 182 54t66 138q0 104 -114 134q-72 18 -190 18zM625 602q0 108 -36 180q-37 72 -97 72t-96 -60t-36 -170
t37 -183t105 -72q123 0 123 233zM985 -80q0 -172 -169 -296q-170 -124 -366 -124t-295 77t-100 173q0 59 64 113q27 20 155 100q-102 37 -153 113q-35 51 -31 110q115 47 209 136q-92 30 -146 104t-55 168q0 160 121 248t277 88q111 0 219 -56q84 5 297 25l8 -14
q-33 -90 -88 -125l-117 8q55 -66 55 -156q0 -152 -114 -236t-277 -83q-25 0 -100 10q-29 -29 -29 -59t32 -54q32 -25 99 -22l189 2q315 0 315 -250z" />
    <glyph glyph-name="uni0122" unicode="&#x122;" horiz-adv-x="1488" 
d="M813 -102q72 0 125 -54t53 -137q0 -180 -250 -244l-22 54q131 63 131 139t-102 102q-31 8 -31 52q-1 44 29 66t67 22zM1440 635v-70q-78 -16 -96 -41t-19 -125v-161q0 -129 12 -193q-303 -76 -467 -76q-356 1 -568 187t-212 493q0 225 114 390t295 244t402 79
q141 0 399 -57q8 -106 33 -340l-76 -15q-37 164 -141 245t-256 81q-194 0 -326 -161t-133 -429q0 -355 214 -535q114 -95 274 -96q80 0 115 25q47 29 47 113v194q0 61 -4 87t-29 48t-66 29q-41 6 -127 14v70h615z" />
    <glyph glyph-name="uni0123" unicode="&#x123;" horiz-adv-x="1007" 
d="M510 1034q-72 0 -125 54t-53 143q0 88 69 149q70 61 181 88l22 -53q-131 -59 -131 -136t102 -103q31 -10 31 -52t-30 -66t-66 -24zM484 -43q-118 0 -163 -47q-45 -46 -45 -112t74 -126t190 -59q116 0 182 54t66 138q0 104 -114 134q-72 18 -190 18zM625 602
q0 108 -36 180q-37 72 -97 72t-96 -60t-36 -170t37 -183t105 -72q123 0 123 233zM985 -80q0 -172 -169 -296q-170 -124 -366 -124t-295 77t-100 173q0 59 64 113q27 20 155 100q-102 37 -153 113q-35 51 -31 110q115 47 209 136q-92 30 -146 104t-55 168q0 160 121 248
t277 88q111 0 219 -56q84 5 297 25l8 -14q-33 -90 -88 -125l-117 8q55 -66 55 -156q0 -152 -114 -236t-277 -83q-25 0 -100 10q-29 -29 -29 -59t32 -54q32 -25 99 -22l189 2q315 0 315 -250z" />
    <glyph glyph-name="Hcircumflex" unicode="&#x124;" horiz-adv-x="1603" 
d="M1069 1401q-122 51 -270 125q-207 -100 -269 -125l-32 53q102 82 272 252h61q117 -123 271 -252zM1528 1331v-71q-121 -10 -147 -40t-25 -161v-789q0 -128 26 -158t146 -40v-72h-625v72q123 10 151 41t27 159v381h-559v-381q0 -130 27 -160t141 -40v-72h-610v72
q116 10 142 41t26 159v787q0 129 -28 160t-148 41v71h614v-71q-112 -10 -138 -41t-26 -160v-301h559v301q0 129 -26 160q-27 31 -142 41v71h615z" />
    <glyph glyph-name="hcircumflex" unicode="&#x125;" horiz-adv-x="1126" 
d="M569 1516l-32 -54q-78 29 -160 71t-111 54q-229 -109 -270 -125l-31 54q100 84 271 251h63q102 -110 270 -251zM1090 0h-484v66q72 10 88 32t17 109v360q0 211 -148 211q-90 0 -147 -57v-514q0 -84 15 -108t79 -33v-66h-485v66q88 10 108 32t21 117v954q0 91 -16 109
t-99 29v59q174 23 377 74v-643q129 133 268 133t213 -86t74 -254v-375q0 -95 17 -115t102 -34v-66z" />
    <glyph glyph-name="Hbar" unicode="&#x126;" horiz-adv-x="1603" 
d="M1081 719v233h-559v-233h559zM1516 952h-160v-682q0 -130 26 -160t146 -40v-70h-625v70q123 10 151 41t27 159v346h-559v-346q0 -130 27 -160t141 -40v-70h-610v70q116 10 142 41t26 159v682h-164v88h164v31q0 125 -27 152t-149 37v71h614v-71q-82 -6 -111 -18t-41 -46
q-12 -35 -12 -125v-31h559v29q0 90 -12 126t-42 47t-114 18v71h615v-71q-123 -10 -148 -36t-24 -153v-31h160v-88z" />
    <glyph glyph-name="hbar" unicode="&#x127;" horiz-adv-x="1128" 
d="M713 575q0 205 -157 205q-73 0 -142 -63v-510q0 -88 15 -110t83 -31v-66h-485v66q83 10 105 34t22 119v858h-144v88h144v105q0 39 -10 51t-58 22v56q211 31 328 55v-289h315v-88h-315v-278q131 131 273 131t214 -86t72 -250v-375q0 -94 20 -118t99 -35v-66h-484v66
q72 10 88 32t17 109v368z" />
    <glyph glyph-name="Itilde" unicode="&#x128;" horiz-adv-x="774" 
d="M276 1634q44 0 128 -36t132 -36t97 87l61 -31q-63 -201 -190 -201q-41 0 -144 43q-61 31 -112 31t-98 -90l-60 41q67 192 186 192zM692 0h-614v72q114 10 142 42t28 158v785q0 129 -28 161t-142 42v71h614v-71q-114 -10 -142 -42t-28 -161v-785q0 -126 28 -158t142 -42
v-72z" />
    <glyph glyph-name="itilde" unicode="&#x129;" horiz-adv-x="604" 
d="M440 1219q59 0 103 94l57 -29q-61 -217 -178 -217q-51 0 -137 45q-70 41 -115 41q-62 0 -107 -104l-59 38q70 215 191 216q43 0 126 -42t119 -42zM582 0h-521v68q86 8 108 38t21 144v389q0 94 -17 119t-97 37v61q195 23 375 74v-680q0 -117 19 -144t112 -38v-68z" />
    <glyph glyph-name="Imacron" unicode="&#x12a;" horiz-adv-x="774" 
d="M639 1456h-504v139h504v-139zM692 0h-614v72q114 10 142 42t28 158v785q0 129 -28 161t-142 42v71h614v-71q-114 -10 -142 -42t-28 -161v-785q0 -126 28 -158t142 -42v-72z" />
    <glyph glyph-name="imacron" unicode="&#x12b;" horiz-adv-x="604" 
d="M549 1108h-510v149h510v-149zM582 0h-521v68q86 8 108 38t21 144v389q0 94 -17 119t-97 37v61q195 23 375 74v-680q0 -117 19 -144t112 -38v-68z" />
    <glyph glyph-name="Ibreve" unicode="&#x12c;" horiz-adv-x="774" 
d="M386 1415q-259 0 -261 281h61q29 -133 200 -133t200 133h61q-2 -281 -261 -281zM692 0h-614v72q114 10 142 42t28 158v785q0 129 -28 161t-142 42v71h614v-71q-114 -10 -142 -42t-28 -161v-785q0 -126 28 -158t142 -42v-72z" />
    <glyph glyph-name="ibreve" unicode="&#x12d;" horiz-adv-x="604" 
d="M547 1352q0 -315 -252 -316q-248 0 -248 316h66q37 -160 184 -160t184 160h66zM582 0h-521v68q86 8 108 38t21 144v389q0 94 -17 119t-97 37v61q195 23 375 74v-680q0 -117 19 -144t112 -38v-68z" />
    <glyph glyph-name="Iogonek" unicode="&#x12e;" horiz-adv-x="774" 
d="M692 0h-256q-66 -104 -65 -238q-1 -50 31 -76t79 -26t88 18l19 -61l-123 -68q-43 -25 -86 -24q-84 0 -131 47q-47 48 -47 110t35 134t53 96t67 88h-278v70q114 10 142 42t28 158v789q0 129 -28 160t-142 41v71h614v-71q-114 -10 -142 -41t-28 -160v-789q0 -126 28 -158
t142 -42v-70z" />
    <glyph glyph-name="iogonek" unicode="&#x12f;" horiz-adv-x="606" 
d="M160 1204q0 58 43 100t103 42t102 -41t43 -101t-43 -103q-44 -42 -103 -42t-102 43t-43 102zM590 0h-223q-59 -100 -60 -229q0 -47 30 -76t76 -29t87 23l20 -64l-108 -69q-49 -27 -86 -27q-92 0 -139 47q-46 47 -46 109t24 119q27 64 101 167l21 29h-232v66q94 10 115 36
q20 27 20 138v399q0 92 -19 119t-99 39v59q209 25 379 74v-690q1 -109 23 -137t116 -37v-66z" />
    <glyph glyph-name="Idotaccent" unicode="&#x130;" horiz-adv-x="774" 
d="M388 1724q60 0 102 -42t42 -102t-43 -102t-102 -42t-102 43t-43 102t43 101t103 42zM692 0h-614v72q114 10 142 42t28 158v785q0 129 -28 161t-142 42v71h614v-71q-114 -10 -142 -42t-28 -161v-785q0 -126 28 -158t142 -42v-72z" />
    <glyph glyph-name="dotlessi" unicode="&#x131;" horiz-adv-x="604" 
d="M582 0h-521v68q86 8 108 38t21 144v389q0 94 -17 119t-97 37v61q195 23 375 74v-680q0 -117 19 -144t112 -38v-68z" />
    <glyph glyph-name="IJ" unicode="&#x132;" horiz-adv-x="1523" 
d="M1464 1331v-71q-108 -10 -134 -42t-25 -161v-676q0 -209 -40 -345t-171 -243q-106 -90 -248 -127l-31 76q84 35 130 93t66 176t19 378v668q0 129 -29 161t-147 42v71h610zM692 0h-614v72q114 10 142 42t28 158v785q0 129 -28 161t-142 42v71h614v-71q-114 -10 -142 -42
t-28 -161v-785q0 -126 28 -158t142 -42v-72z" />
    <glyph glyph-name="ij" unicode="&#x133;" horiz-adv-x="1193" 
d="M1044 264q0 -201 -56 -332q-56 -132 -147 -250t-141 -151q-38 -31 -66 -31t-56 34t-29 84q0 50 49 50q132 2 152 42t26 145q8 242 8 385v385q0 106 -19 131q-20 25 -108 39v61q152 18 387 74v-666zM899 1059q-59 0 -102 42t-43 102q0 59 42 101t102 42t102 -41t42 -101
t-42 -103q-42 -42 -101 -42zM584 0h-525v66q90 10 111 35q20 26 20 132v406q0 98 -18 122t-94 36v59q195 23 373 74v-697q0 -104 20 -130t113 -37v-66zM160 1204q0 58 43 100t103 42t102 -41t43 -101t-43 -103q-44 -42 -103 -42t-102 43t-43 102z" />
    <glyph glyph-name="Jcircumflex" unicode="&#x134;" horiz-adv-x="749" 
d="M692 1454l-33 -53q-82 30 -161 72q-80 41 -109 53q-229 -109 -270 -125l-31 53q123 100 270 252h64q116 -123 270 -252zM692 1331v-71q-110 -10 -136 -42t-26 -161v-676q0 -209 -40 -345t-158 -236t-260 -134l-31 76q164 70 192 248q23 139 23 399v668q0 129 -29 161
t-147 42v71h612z" />
    <glyph glyph-name="jcircumflex" unicode="&#x135;" horiz-adv-x="595" 
d="M504 991q-129 113 -201 189q-20 -18 -76 -76t-127 -113l-55 45q117 174 217 355h78q102 -181 221 -355zM455 254q-1 -195 -57 -327t-146 -250q-90 -117 -137 -151t-75 -34t-54 31t-27 80q0 49 47 49q128 0 150 38t28 150q8 238 9 391v394q0 109 -20 135t-110 37v59
q152 18 392 74v-676z" />
    <glyph glyph-name="uni0136" unicode="&#x136;" horiz-adv-x="1439" 
d="M760 -53q72 -1 125 -55t53 -136q0 -180 -250 -243l-22 53q131 63 131 139t-103 102q-30 7 -30 51t30 66t66 23zM1432 0h-412q-176 242 -404 571q-53 78 -100 72v-369q0 -128 29 -160t147 -42v-72h-612v72q112 10 140 42t28 160v783q0 129 -28 161t-144 42v71h602v-71
q-110 -10 -136 -42t-26 -161v-348q70 20 156 108q158 158 286 330q39 49 29 74t-80 32l-37 7v71h533v-71q-102 -10 -173 -40q-70 -30 -138 -92t-115 -110q-47 -49 -113 -119t-84 -88q201 -297 430 -588q62 -77 110 -109t112 -42v-72z" />
    <glyph glyph-name="uni0137" unicode="&#x137;" horiz-adv-x="1050" 
d="M545 -74q72 0 125 -54t53 -143t-69 -149t-181 -88l-22 53q131 63 131 142q0 72 -103 98q-31 8 -31 51t30 67q30 23 67 23zM426 440q-6 0 -14 -2v-217q0 -98 20 -121t113 -34v-66h-527v66q94 12 115 34q20 23 21 121v946q0 86 -20 109t-103 33v57q219 29 381 74v-940
q54 12 120 84t115 172q20 33 7 53t-68 29v61l442 19v-62q-180 -32 -255 -106t-144 -168q88 -147 297 -412q47 -54 82 -74t90 -30v-66l-361 -4q-72 90 -266 405q-25 39 -45 39z" />
    <glyph glyph-name="kgreenlandic" unicode="&#x138;" horiz-adv-x="1132" 
d="M1126 0h-378q-8 12 -94 165q-85 153 -121 213t-82 56v-201q0 -106 19 -132t105 -35v-66h-512v66q86 6 107 32q20 27 20 138v413q0 104 -20 134t-102 36v66q219 16 383 47v-434q47 6 92 47q102 92 170 192q51 80 -29 94l-41 9v65h444v-65q-82 -8 -134 -28t-99 -62
t-172 -175q274 -432 357 -485q34 -20 87 -24v-66z" />
    <glyph glyph-name="Lacute" unicode="&#x139;" horiz-adv-x="1128" 
d="M741 1546l-6 -24l-422 -123l-30 57q297 211 354 250q29 -10 65 -64t39 -96zM49 0v72q135 10 167 42t32 158v785q0 129 -29 161t-147 42v71h626v-71q-120 -10 -148 -41t-28 -162v-799q0 -76 10 -106t48 -48q38 -16 166 -16t189 68t116 213l71 -23q-49 -254 -75 -346h-998z
" />
    <glyph glyph-name="lacute" unicode="&#x13a;" horiz-adv-x="569" 
d="M571 1620l-8 -25l-422 -122l-28 57q297 209 354 250q29 -12 65 -66t39 -94zM551 0h-531v66q92 14 113 38q20 25 21 121v938q0 90 -18 112t-105 32v59q219 27 383 74v-1215q0 -102 22 -126t115 -33v-66z" />
    <glyph glyph-name="uni013B" unicode="&#x13b;" horiz-adv-x="1128" 
d="M621 -74q73 0 125 -54t53 -136q0 -180 -250 -244l-23 53q131 63 131 139t-102 103q-33 4 -33 49q0 46 31 68t68 22zM49 0v72q135 10 167 42t32 158v785q0 129 -29 161t-147 42v71h626v-71q-120 -10 -148 -41t-28 -162v-799q0 -76 10 -106t48 -48q38 -16 166 -16t189 68
t116 213l71 -23q-49 -254 -75 -346h-998z" />
    <glyph glyph-name="uni013C" unicode="&#x13c;" horiz-adv-x="569" 
d="M264 -70q72 0 125 -54t53 -136q0 -180 -249 -244l-23 53q131 63 131 139t-102 103q-31 4 -31 49q0 46 30 68t66 22zM551 0h-531v66q92 14 113 38q20 25 21 121v938q0 90 -18 112t-105 32v59q219 27 383 74v-1215q0 -102 22 -126t115 -33v-66z" />
    <glyph glyph-name="Lcaron" unicode="&#x13d;" horiz-adv-x="1128" 
d="M862 1337q64 0 110 -54t46 -142q0 -87 -60 -149t-159 -89l-23 53q111 58 111 136t-82 104q-31 10 -31 51t28 65t60 25zM49 0v72q135 10 167 42t32 158v785q0 129 -29 161t-147 42v71h626v-71q-120 -10 -148 -41t-28 -162v-799q0 -76 10 -106t48 -48q38 -16 166 -16
t189 68t116 213l71 -23q-49 -254 -75 -346h-998z" />
    <glyph glyph-name="lcaron" unicode="&#x13e;" horiz-adv-x="569" 
d="M590 1454q63 0 109 -54t46 -136q0 -180 -219 -244l-20 53q108 61 108 138t-82 104q-30 6 -30 49t27 67q28 23 61 23zM551 0h-531v66q92 14 113 38q20 25 21 121v938q0 90 -18 112t-105 32v59q219 27 383 74v-1215q0 -102 22 -126t115 -33v-66z" />
    <glyph glyph-name="Ldot" unicode="&#x13f;" horiz-adv-x="1128" 
d="M668 733q0 59 43 101t103 43q60 0 102 -42q42 -43 42 -103t-43 -102t-102 -42t-102 43t-43 102zM49 0v72q135 10 167 42t32 158v785q0 129 -29 161t-147 42v71h626v-71q-120 -10 -148 -41t-28 -162v-799q0 -76 10 -106t48 -48q38 -16 166 -16t189 68t116 213l71 -23
q-49 -254 -75 -346h-998z" />
    <glyph glyph-name="ldot" unicode="&#x140;" horiz-adv-x="686" 
d="M551 0h-531v66q92 14 113 38q20 25 21 121v938q0 90 -18 112t-105 32v59q219 27 383 74v-1215q0 -102 22 -126t115 -33v-66zM630 872q56 0 95 -40t39 -98t-39 -99t-95 -41t-95 41t-39 98t39 98t95 41z" />
    <glyph glyph-name="Lslash" unicode="&#x141;" horiz-adv-x="1153" 
d="M74 0v72q133 10 166 45t32 166v258l-204 -138v107l204 137v402q0 131 -28 165t-146 46v71h629l-4 -71q-119 -10 -148 -46t-28 -165v-230l272 182v-110l-272 -180v-445q0 -76 10 -112t44 -50t167 -14q134 0 190 66t111 211l78 -21q-49 -262 -76 -346h-997z" />
    <glyph glyph-name="lslash" unicode="&#x142;" horiz-adv-x="618" 
d="M440 246q0 -110 22 -138t118 -40v-68h-541v68q96 8 118 36t21 142v362l-145 -119v111l145 121v473q0 63 -21 85q-22 22 -112 42v57q231 31 395 74v-530l172 139v-111l-172 -141v-563z" />
    <glyph glyph-name="Nacute" unicode="&#x143;" horiz-adv-x="1515" 
d="M1079 1546l-6 -24l-422 -123l-30 57q297 211 354 250q29 -10 65 -64t39 -96zM1483 1331v-71q-84 -4 -120 -31t-44 -96q-18 -190 -19 -340v-813h-98l-852 1019h-6v-460q0 -168 16 -332q8 -72 48 -102t149 -33v-72h-502v72q86 6 125 34t45 95q20 168 21 338v428
q0 104 -7 144t-36 75q-47 61 -170 74v71h379l782 -899h8v361q0 98 -16 335q-8 68 -50 97t-153 35v71h500z" />
    <glyph glyph-name="nacute" unicode="&#x144;" horiz-adv-x="1159" 
d="M582 1001l-64 27q84 282 100 338q14 10 106 19t118 4l12 -21zM1124 0h-477v66q66 10 81 34t15 131v349q0 193 -141 192q-70 0 -151 -63v-496q0 -92 15 -115t81 -32v-66h-494v66q98 14 118 35q19 22 19 122v424q0 90 -17 113t-93 37v59q176 23 371 78v-152q94 70 127 90
q90 57 159 58q125 0 197 -87t72 -241v-387q0 -94 18 -116t100 -33v-66z" />
    <glyph glyph-name="uni0145" unicode="&#x145;" horiz-adv-x="1515" 
d="M774 -33q72 0 124 -54t52 -136q0 -184 -250 -244l-20 53q131 63 131 142q0 72 -104 98q-31 10 -31 52t30 66t68 23zM1483 1331v-71q-84 -4 -120 -31t-44 -96q-18 -190 -19 -340v-813h-98l-852 1019h-6v-460q0 -168 16 -332q8 -72 48 -102t149 -33v-72h-502v72
q86 6 125 34t45 95q20 168 21 338v428q0 104 -7 144t-36 75q-47 61 -170 74v71h379l782 -899h8v361q0 98 -16 335q-8 68 -50 97t-153 35v71h500z" />
    <glyph glyph-name="uni0146" unicode="&#x146;" horiz-adv-x="1159" 
d="M588 -84q72 0 125 -54t53 -143t-69 -149t-181 -88l-22 53q131 63 131 141q0 72 -103 99q-30 8 -30 51q0 42 30 66t66 24zM1124 0h-477v66q66 10 81 34t15 131v349q0 193 -141 192q-70 0 -151 -63v-496q0 -92 15 -115t81 -32v-66h-494v66q98 14 118 35q19 22 19 122v424
q0 90 -17 113t-93 37v59q176 23 371 78v-152q94 70 127 90q90 57 159 58q125 0 197 -87t72 -241v-387q0 -94 18 -116t100 -33v-66z" />
    <glyph glyph-name="Ncaron" unicode="&#x147;" horiz-adv-x="1515" 
d="M1042 1669l31 -53q-100 -78 -270 -252h-64q-119 131 -270 252l33 53q150 -61 270 -121q137 68 270 121zM1483 1331v-71q-84 -4 -120 -31t-44 -96q-18 -190 -19 -340v-813h-98l-852 1019h-6v-460q0 -168 16 -332q8 -72 48 -102t149 -33v-72h-502v72q86 6 125 34t45 95
q20 168 21 338v428q0 104 -7 144t-36 75q-47 61 -170 74v71h379l782 -899h8v361q0 98 -16 335q-8 68 -50 97t-153 35v71h500z" />
    <glyph glyph-name="ncaron" unicode="&#x148;" horiz-adv-x="1159" 
d="M778 1411l56 -45q-76 -111 -218 -354h-77q-100 180 -220 354l56 45q29 -25 205 -188q169 165 198 188zM1124 0h-477v66q66 10 81 34t15 131v349q0 193 -141 192q-70 0 -151 -63v-496q0 -92 15 -115t81 -32v-66h-494v66q98 14 118 35q19 22 19 122v424q0 90 -17 113
t-93 37v59q176 23 371 78v-152q94 70 127 90q90 57 159 58q125 0 197 -87t72 -241v-387q0 -94 18 -116t100 -33v-66z" />
    <glyph glyph-name="napostrophe" unicode="&#x149;" horiz-adv-x="1159" 
d="M1124 0h-477v66q66 10 81 34t15 131v349q0 193 -141 192q-70 0 -151 -63v-496q0 -92 15 -115t81 -32v-66h-494v66q98 14 118 35q19 22 19 122v424q0 90 -17 113t-93 37v59q176 23 371 78v-152q94 70 127 90q90 57 159 58q125 0 197 -87t72 -241v-387q0 -94 18 -116
t100 -33v-66zM109 1468q87 0 155 -59t68 -163t-86 -173q-86 -68 -217 -98l-23 57q156 68 156 166q0 92 -135 117q-8 2 -18 18q-9 16 -9 49q0 34 33 60t76 26z" />
    <glyph glyph-name="Eng" unicode="&#x14a;" horiz-adv-x="1515" 
d="M1483 1331v-69q-84 -4 -121 -32t-43 -95q-18 -143 -19 -344v-730q0 -231 -71 -352q-82 -133 -193 -133q-49 0 -86 35t-37 86t31 51q12 0 41 -8t55 -8q80 0 119 72t39 180l-846 1011h-8v-448q0 -197 14 -340q8 -72 50 -102t151 -35v-70h-504v70q86 6 125 36t47 93
q18 209 19 348v418q0 104 -7 146t-36 77q-47 61 -170 74v69h375l788 -897h6v359q0 133 -14 340q-8 67 -51 95t-154 34v69h500z" />
    <glyph glyph-name="eng" unicode="&#x14b;" horiz-adv-x="1142" 
d="M743 100v475q0 101 -40 149q-39 48 -103 48t-149 -65v-488q0 -94 19 -119t108 -34v-66h-523v66q94 10 115 34q20 25 20 125v426q0 86 -17 111t-93 39v57q162 23 371 76v-146q12 8 53 36t67 44q96 61 162 62q125 0 198 -84t73 -238v-313q0 -254 -74 -410
q-54 -113 -152 -211t-170 -98q-36 0 -66 35t-30 84t31 49l125 -35q47 0 61 55t14 336z" />
    <glyph glyph-name="Omacron" unicode="&#x14c;" horiz-adv-x="1568" 
d="M1032 1460h-502v137h502v-137zM778 1276q-170 0 -274 -157t-104 -423t113 -453q114 -187 304 -188q154 -1 253 147t99 435t-110 463q-111 176 -281 176zM805 1362q285 0 481 -192t197 -502q0 -312 -202 -506t-504 -193q-303 0 -497 199t-194 489q0 289 192 497t527 208z
" />
    <glyph glyph-name="omacron" unicode="&#x14d;" horiz-adv-x="1075" 
d="M795 1108h-512v149h512v-149zM522 850q-70 0 -119 -89t-49 -269t58 -309q58 -128 151 -128q160 0 160 353q-1 214 -53 328t-148 114zM61 432q0 230 150 364q151 134 349 134t327 -135t129 -326q0 -233 -140 -363t-351 -131t-337 137t-127 320z" />
    <glyph glyph-name="Obreve" unicode="&#x14e;" horiz-adv-x="1568" 
d="M1032 1708q0 -281 -260 -281t-260 281h61q29 -133 199 -133t199 133h61zM778 1276q-170 0 -274 -157t-104 -423t113 -453q114 -187 304 -188q154 -1 253 147t99 435t-110 463q-111 176 -281 176zM805 1362q285 0 481 -192t197 -502q0 -312 -202 -506t-504 -193
q-303 0 -497 199t-194 489q0 289 192 497t527 208z" />
    <glyph glyph-name="obreve" unicode="&#x14f;" horiz-adv-x="1075" 
d="M776 1352q0 -315 -252 -316q-248 0 -248 316h66q36 -160 184 -160t185 160h65zM522 850q-70 0 -119 -89t-49 -269t58 -309q58 -128 151 -128q160 0 160 353q-1 214 -53 328t-148 114zM61 432q0 230 150 364q151 134 349 134t327 -135t129 -326q0 -233 -140 -363
t-351 -131t-337 137t-127 320z" />
    <glyph glyph-name="Ohungarumlaut" unicode="&#x150;" horiz-adv-x="1568" 
d="M856 1647l-215 -238l-66 23q45 135 82 258q39 8 111 -2t88 -25v-16zM1182 1647l-217 -238l-66 23q4 12 84 258q39 8 110 -2t87 -25zM778 1276q-170 0 -274 -157t-104 -423t113 -453q114 -187 304 -188q154 -1 253 147t99 435t-110 463q-111 176 -281 176zM805 1362
q285 0 481 -192t197 -502q0 -312 -202 -506t-504 -193q-303 0 -497 199t-194 489q0 289 192 497t527 208z" />
    <glyph glyph-name="ohungarumlaut" unicode="&#x151;" horiz-adv-x="1075" 
d="M694 999l-61 23q42 182 74 344q14 10 92 19t104 6l10 -23zM381 999l-59 23q10 45 26 122q16 76 30 144t17 78q14 10 92 19t105 6l10 -23zM522 850q-70 0 -119 -89t-49 -269t58 -309q58 -128 151 -128q160 0 160 353q-1 214 -53 328t-148 114zM61 432q0 230 150 364
q151 134 349 134t327 -135t129 -326q0 -233 -140 -363t-351 -131t-337 137t-127 320z" />
    <glyph glyph-name="OE" unicode="&#x152;" horiz-adv-x="2031" 
d="M1087 205v936q0 76 -57 98q-61 27 -156 27q-215 0 -347 -159t-132 -425t127 -442t355 -177q159 0 195 63q15 26 15 79zM1532 1241h-94q-56 0 -68 -11t-12 -61v-434h143q131 0 170 25t60 129h73v-414h-73q-23 109 -60 133t-170 23h-143v-332q0 -102 9 -141q9 -38 45 -54
t190 -16t215 68q63 64 122 211l72 -17q-37 -199 -72 -350h-665q-122 0 -230 -11t-194 -12q-374 0 -570 193q-196 192 -196 490t220 496t583 198l395 -23h604q4 -82 23 -303l-76 -10q-33 119 -86 172q-45 51 -215 51z" />
    <glyph glyph-name="oe" unicode="&#x153;" horiz-adv-x="1576" 
d="M522 848q-68 0 -119 -90t-53 -265t56 -303t157 -131q39 0 72 25t61 110q29 85 29 222q1 212 -53 322t-150 110zM1153 844q-59 0 -109 -71t-59 -193q165 4 225 6t69 10t9 37q0 83 -38 147t-97 64zM511 -25q-202 -1 -329 139t-127 322q0 226 150 360q151 134 347 134
t318 -170q154 170 326 170q144 0 244 -100t100 -232q0 -61 -55 -74q-68 -18 -510 -35q2 -151 79 -241q78 -90 200 -90t233 86l37 -49q-78 -121 -178 -170t-177 -50q-205 0 -325 156q-131 -156 -333 -156z" />
    <glyph glyph-name="Racute" unicode="&#x154;" horiz-adv-x="1349" 
d="M958 1546l-8 -24l-422 -123l-28 57q297 211 354 250q28 -10 64 -66t40 -94zM516 653h53q139 0 201 56q98 81 98 237t-71 230q-72 74 -157 74t-104 -19q-19 -18 -20 -78v-500zM516 573v-299q0 -124 29 -158t145 -44v-72h-618v72q116 10 146 44t30 158v787q0 123 -28 156
t-140 43v71h575q254 0 365 -78q139 -90 139 -272q0 -227 -256 -334q57 -119 166 -291q117 -178 169 -234t114 -75l-13 -65l-61 2q-184 8 -269 52t-151 146l-168 301q-45 88 -135 90h-39z" />
    <glyph glyph-name="racute" unicode="&#x155;" horiz-adv-x="827" 
d="M440 1001l-63 27q84 282 100 338q13 10 105 19t118 4l13 -21zM451 715h6q125 215 229 215q59 0 98 -37t39 -90q-1 -53 -29 -94t-69 -57t-66 7q-51 43 -94 43q-68 0 -114 -106v-381q-1 -94 25 -117t145 -32v-66h-562v66q86 10 109 34t22 115v447q0 76 -18 96t-92 39v57
q207 27 371 78v-217z" />
    <glyph glyph-name="uni0156" unicode="&#x156;" horiz-adv-x="1349" 
d="M733 -55q72 -1 125 -55t53 -143q-1 -89 -69 -149t-180 -87l-23 53q131 63 131 141q0 72 -102 98q-31 7 -31 51q-1 44 29 68t67 23zM516 653h53q139 0 201 56q98 81 98 237t-71 230q-72 74 -157 74t-104 -19q-19 -18 -20 -78v-500zM516 573v-299q0 -124 29 -158t145 -44
v-72h-618v72q116 10 146 44t30 158v787q0 123 -28 156t-140 43v71h575q254 0 365 -78q139 -90 139 -272q0 -227 -256 -334q57 -119 166 -291q117 -178 169 -234t114 -75l-13 -65l-61 2q-184 8 -269 52t-151 146l-168 301q-45 88 -135 90h-39z" />
    <glyph glyph-name="uni0157" unicode="&#x157;" horiz-adv-x="827" 
d="M309 -84q72 0 124 -54t52 -136q0 -184 -249 -244l-21 53q131 63 131 141q0 72 -104 99q-31 10 -31 52q-1 41 29 65t69 24zM451 715h6q125 215 229 215q59 0 98 -37t39 -90q-1 -53 -29 -94t-69 -57t-66 7q-51 43 -94 43q-68 0 -114 -106v-381q-1 -94 25 -117t145 -32v-66
h-562v66q86 10 109 34t22 115v447q0 76 -18 96t-92 39v57q207 27 371 78v-217z" />
    <glyph glyph-name="Rcaron" unicode="&#x158;" horiz-adv-x="1349" 
d="M893 1700l31 -53q-100 -78 -271 -252h-61q-125 135 -273 252l35 53q135 -55 269 -121q137 68 270 121zM516 653h53q139 0 201 56q98 81 98 237t-71 230q-72 74 -157 74t-104 -19q-19 -18 -20 -78v-500zM516 573v-299q0 -124 29 -158t145 -44v-72h-618v72q116 10 146 44
t30 158v787q0 123 -28 156t-140 43v71h575q254 0 365 -78q139 -90 139 -272q0 -227 -256 -334q57 -119 166 -291q117 -178 169 -234t114 -75l-13 -65l-61 2q-184 8 -269 52t-151 146l-168 301q-45 88 -135 90h-39z" />
    <glyph glyph-name="rcaron" unicode="&#x159;" horiz-adv-x="827" 
d="M436 1223q125 125 201 188l55 -45q-76 -111 -217 -354h-78q-100 180 -219 354l55 45q51 -41 203 -188zM451 715h6q125 215 229 215q59 0 98 -37t39 -90q-1 -53 -29 -94t-69 -57t-66 7q-51 43 -94 43q-68 0 -114 -106v-381q-1 -94 25 -117t145 -32v-66h-562v66
q86 10 109 34t22 115v447q0 76 -18 96t-92 39v57q207 27 371 78v-217z" />
    <glyph glyph-name="Sacute" unicode="&#x15a;" horiz-adv-x="1034" 
d="M842 1565l-8 -25l-420 -123l-31 58q297 211 354 249q29 -12 65 -66t40 -93zM549 1278q-86 0 -142 -57q-57 -57 -57 -143t58 -143q58 -58 216 -136t250 -175t93 -239q-1 -178 -139 -297t-359 -119q-111 1 -189 23t-143 51q-29 80 -59 348l72 23q24 -78 66 -154t122 -142
t172 -65q92 -1 147 59t55 151t-58 155q-60 64 -185 129q-178 90 -267 183t-89 231q0 173 128 287t341 114q143 0 284 -55q4 -43 18 -143l21 -150l-69 -17q-94 281 -287 281z" />
    <glyph glyph-name="sacute" unicode="&#x15b;" horiz-adv-x="784" 
d="M408 1001l-64 27q84 282 100 338q14 10 106 19t118 4l12 -21zM414 850q-41 0 -73 -32t-32 -79q1 -90 147 -154t214 -130t67 -176q0 -141 -111 -223q-112 -81 -255 -81q-76 0 -150 22t-108 48q-10 25 -21 114q-10 89 -12 160l61 7q39 -111 109 -191t156 -80q48 0 80 32
t32 80t-33 88t-105 74t-100 51q-178 102 -178 258q0 124 94 208t250 84q113 0 197 -37q33 -78 49 -234l-61 -18q-92 209 -217 209z" />
    <glyph glyph-name="Scircumflex" unicode="&#x15c;" horiz-adv-x="1034" 
d="M844 1464l-33 -53q-10 4 -270 125q-236 -113 -269 -125l-32 53q113 90 270 252h63q117 -123 271 -252zM549 1278q-86 0 -142 -57q-57 -57 -57 -143t58 -143q58 -58 216 -136t250 -175t93 -239q-1 -178 -139 -297t-359 -119q-111 1 -189 23t-143 51q-29 80 -59 348l72 23
q24 -78 66 -154t122 -142t172 -65q92 -1 147 59t55 151t-58 155q-60 64 -185 129q-178 90 -267 183t-89 231q0 173 128 287t341 114q143 0 284 -55q4 -43 18 -143l21 -150l-69 -17q-94 281 -287 281z" />
    <glyph glyph-name="scircumflex" unicode="&#x15d;" horiz-adv-x="784" 
d="M602 991q-99 87 -201 189q-20 -18 -74 -74t-128 -115l-56 45q117 174 217 355h78q102 -181 221 -355zM414 850q-41 0 -73 -32t-32 -79q1 -90 147 -154t214 -130t67 -176q0 -141 -111 -223q-112 -81 -255 -81q-76 0 -150 22t-108 48q-10 25 -21 114q-10 89 -12 160l61 7
q39 -111 109 -191t156 -80q48 0 80 32t32 80t-33 88t-105 74t-100 51q-178 102 -178 258q0 124 94 208t250 84q113 0 197 -37q33 -78 49 -234l-61 -18q-92 209 -217 209z" />
    <glyph glyph-name="uni015E" unicode="&#x15e;" horiz-adv-x="1034" 
d="M553 1276q-90 0 -144 -58q-55 -58 -55 -140t58 -142q58 -59 216 -132q156 -73 248 -172t93 -246q1 -148 -97 -258t-262 -140l-43 -47q-16 -21 -11 -37t32 -41q82 -82 82 -142q0 -137 -256 -204l-23 53q55 24 89 58t34 64t-47 66q-43 39 -48 70t32 76l61 69q-12 -4 -39 -4
q-109 0 -217 33q-4 0 -121 43q-31 74 -61 346l71 25q27 -104 123 -229q104 -134 258 -134q80 -1 138 59t57 152t-63 160t-187 131q-172 82 -263 177t-91 231q0 171 127 285t338 114q137 0 286 -55q10 -92 39 -295l-65 -15q-96 279 -289 279z" />
    <glyph glyph-name="uni015F" unicode="&#x15f;" horiz-adv-x="792" 
d="M420 850q-45 0 -77 -32t-32 -81q-1 -90 147 -152t217 -130t69 -182q0 -115 -76 -187q-74 -72 -181 -94l-43 -49q-29 -31 19 -78q82 -75 82 -141t-66 -121t-182 -88l-27 59q55 24 90 58t35 62t-45 68t-50 70q-5 31 34 76l61 69q-15 -2 -59 -2t-118 23t-112 49
q-10 27 -21 120t-9 167l61 4q39 -113 113 -199t160 -86q49 0 83 33q33 33 33 81t-34 86q-36 38 -106 74t-86 44t-64 41q-49 33 -70 59q-60 81 -62 168q0 125 94 208t232 83t221 -37q33 -74 49 -234l-63 -20q-94 211 -217 211z" />
    <glyph glyph-name="Scaron" unicode="&#x160;" horiz-adv-x="1034" 
d="M805 1726l31 -53q-100 -78 -271 -252h-61q-135 141 -273 252l35 53q135 -55 269 -120q120 59 270 120zM549 1278q-86 0 -142 -57q-57 -57 -57 -143t58 -143q58 -58 216 -136t250 -175t93 -239q-1 -178 -139 -297t-359 -119q-111 1 -189 23t-143 51q-29 80 -59 348l72 23
q24 -78 66 -154t122 -142t172 -65q92 -1 147 59t55 151t-58 155q-60 64 -185 129q-178 90 -267 183t-89 231q0 173 128 287t341 114q143 0 284 -55q4 -43 18 -143l21 -150l-69 -17q-94 281 -287 281z" />
    <glyph glyph-name="scaron" unicode="&#x161;" horiz-adv-x="784" 
d="M614 1411l56 -45q-88 -127 -217 -354h-78q-90 164 -221 354l55 45q60 -47 123 -110q63 -62 82 -78q163 157 200 188zM414 850q-41 0 -73 -32t-32 -79q1 -90 147 -154t214 -130t67 -176q0 -141 -111 -223q-112 -81 -255 -81q-76 0 -150 22t-108 48q-10 25 -21 114
q-10 89 -12 160l61 7q39 -111 109 -191t156 -80q48 0 80 32t32 80t-33 88t-105 74t-100 51q-178 102 -178 258q0 124 94 208t250 84q113 0 197 -37q33 -78 49 -234l-61 -18q-92 209 -217 209z" />
    <glyph glyph-name="uni0162" unicode="&#x162;" horiz-adv-x="1312" 
d="M248 1331h823q74 0 119 51h49q4 -158 23 -397l-74 -4q-37 158 -87 209t-210 51h-94v-969q-1 -130 31 -160t169 -40v-72h-249l-52 -53q-18 -21 -15 -37t32 -45q84 -84 84 -146q0 -143 -265 -213l-26 54q59 26 94 62t35 67t-47 67q-45 41 -49 74t34 78l78 92h-321v72
q131 10 162 41t30 159v969h-69q-115 0 -162 -13t-74 -42q-45 -47 -86 -207h-74q24 382 25 403h49q23 -33 47 -42t70 -9z" />
    <glyph glyph-name="uni0163" unicode="&#x163;" horiz-adv-x="694" 
d="M375 -305q0 31 -45 67q-43 39 -47 72t34 78l58 65q-201 27 -201 256v574h-129l-10 24l57 74h82v150l232 159l28 -12v-297h201q18 -16 15 -51t-27 -47h-189v-506q0 -178 117 -178q51 0 102 24l21 -71l-166 -78l-35 -12l-35 -37q-33 -35 15 -82q80 -80 79 -141
q0 -135 -253 -207l-27 51q57 26 90 60t33 65z" />
    <glyph glyph-name="Tcaron" unicode="&#x164;" horiz-adv-x="1312" 
d="M928 1700l30 -53q-100 -78 -270 -252h-61q-133 143 -273 252l35 53q135 -55 268 -121q121 60 271 121zM248 1331h823q74 0 119 51h49q5 -157 23 -397l-74 -4q-37 158 -87 209t-210 51h-94v-969q-1 -130 31 -160t169 -40v-72h-667v72q131 10 162 41t30 159v969h-69
q-115 0 -162 -13t-74 -42q-45 -47 -86 -207h-74q24 382 25 403h49q23 -33 47 -42t70 -9z" />
    <glyph glyph-name="tcaron" unicode="&#x165;" horiz-adv-x="694" 
d="M631 1466q63 0 109 -54t46 -142t-61 -150t-158 -88l-22 53q111 57 111 135t-83 105q-31 10 -31 51t28 66q28 24 61 24zM424 -25q-250 0 -250 258v574h-129l-10 24l57 74h82v150l232 159l28 -12v-297h201q18 -16 15 -51t-27 -47h-189v-506q0 -178 117 -178q51 0 102 24
l21 -71l-166 -78q-57 -23 -84 -23z" />
    <glyph glyph-name="Tbar" unicode="&#x166;" horiz-adv-x="1304" 
d="M246 1331h819q74 0 119 51h47q4 -147 22 -387l-71 -6q-35 156 -84 209q-45 45 -226 45h-79v-518h288v-92h-288v-361q-1 -130 31 -160t169 -40v-72h-669v72q132 10 162 41t30 159v361h-289v92h289v518h-57q-197 0 -242 -55q-51 -57 -88 -199h-72l25 393h47q23 -33 47 -42
t70 -9z" />
    <glyph glyph-name="tbar" unicode="&#x167;" horiz-adv-x="688" 
d="M420 -25q-250 0 -250 258v226h-135v88h135v256h-129l-12 24l59 78h82v150l231 159l29 -12v-297h203q18 -16 14 -53t-26 -49h-191v-256h197v-88h-197v-154q0 -74 23 -118t45 -55t62 -11t91 22l19 -67l-166 -78q-57 -23 -84 -23z" />
    <glyph glyph-name="Utilde" unicode="&#x168;" horiz-adv-x="1492" 
d="M707 1634q45 0 130 -36t126 -35q57 0 100 86l61 -31q-63 -201 -188 -201q-41 0 -143 43q-61 31 -113 31t-98 -90l-62 41q68 192 187 192zM1483 1331v-71q-158 -8 -174 -121q-18 -115 -19 -285v-223q0 -354 -145 -508t-377 -154t-367 107q-170 131 -170 481v481
q0 141 -27 176q-28 35 -145 46v71h617v-71q-114 -10 -142 -46t-28 -176v-444q0 -234 84 -360t248 -125q350 0 350 526v219q0 162 -21 285q-8 55 -53 85t-145 36v71h514z" />
    <glyph glyph-name="utilde" unicode="&#x169;" horiz-adv-x="1136" 
d="M702 1219q59 0 103 94l57 -29q-61 -217 -178 -217q-51 0 -137 45q-70 41 -115 41q-61 0 -106 -104l-60 38q70 215 191 216q43 0 126 -42t119 -42zM170 266v424q0 74 -17 93t-96 40v60q184 8 379 37q-6 -129 -6 -310v-297q0 -92 41 -136t115 -44t133 57v498q1 78 -19 98
t-112 37v60q217 10 391 37v-666q0 -82 15 -106t71 -29l45 -4v-66q-143 -18 -375 -74l-16 15v123q-82 -63 -103 -76q-94 -61 -178 -62q-128 0 -198 77t-70 214z" />
    <glyph glyph-name="Umacron" unicode="&#x16a;" horiz-adv-x="1492" 
d="M1038 1460h-503v137h503v-137zM1483 1331v-71q-158 -8 -174 -121q-18 -115 -19 -285v-223q0 -354 -145 -508t-377 -154t-367 107q-170 131 -170 481v481q0 141 -27 176q-28 35 -145 46v71h617v-71q-114 -10 -142 -46t-28 -176v-444q0 -234 84 -360t248 -125
q350 0 350 526v219q0 162 -21 285q-8 55 -53 85t-145 36v71h514z" />
    <glyph glyph-name="umacron" unicode="&#x16b;" horiz-adv-x="1136" 
d="M817 1108h-512v149h512v-149zM170 266v424q0 74 -17 93t-96 40v60q184 8 379 37q-6 -129 -6 -310v-297q0 -92 41 -136t115 -44t133 57v498q1 78 -19 98t-112 37v60q217 10 391 37v-666q0 -82 15 -106t71 -29l45 -4v-66q-143 -18 -375 -74l-16 15v123q-82 -63 -103 -76
q-94 -61 -178 -62q-128 0 -198 77t-70 214z" />
    <glyph glyph-name="Ubreve" unicode="&#x16c;" horiz-adv-x="1492" 
d="M1077 1686q0 -281 -260 -281t-260 281h59q31 -133 201 -133t199 133h61zM1483 1331v-71q-158 -8 -174 -121q-18 -115 -19 -285v-223q0 -354 -145 -508t-377 -154t-367 107q-170 131 -170 481v481q0 141 -27 176q-28 35 -145 46v71h617v-71q-114 -10 -142 -46t-28 -176
v-444q0 -234 84 -360t248 -125q350 0 350 526v219q0 162 -21 285q-8 55 -53 85t-145 36v71h514z" />
    <glyph glyph-name="ubreve" unicode="&#x16d;" horiz-adv-x="1136" 
d="M811 1352q0 -315 -252 -316q-248 0 -248 316h66q37 -160 184 -160t184 160h66zM170 266v424q0 74 -17 93t-96 40v60q184 8 379 37q-6 -129 -6 -310v-297q0 -92 41 -136t115 -44t133 57v498q1 78 -19 98t-112 37v60q217 10 391 37v-666q0 -82 15 -106t71 -29l45 -4v-66
q-143 -18 -375 -74l-16 15v123q-82 -63 -103 -76q-94 -61 -178 -62q-128 0 -198 77t-70 214z" />
    <glyph glyph-name="Uring" unicode="&#x16e;" horiz-adv-x="1492" 
d="M807 1671q-41 0 -68 -30q-27 -29 -27 -75t28 -77q26 -31 67 -31t67 30t25 77q1 47 -25 77t-67 29zM804 1749q77 0 137 -51t60 -133t-59 -134q-59 -53 -137 -53t-135 52q-58 52 -58 136q0 83 58 133t134 50zM1483 1331v-71q-158 -8 -174 -121q-18 -115 -19 -285v-223
q0 -354 -145 -508t-377 -154t-367 107q-170 131 -170 481v481q0 141 -27 176q-28 35 -145 46v71h617v-71q-114 -10 -142 -46t-28 -176v-444q0 -234 84 -360t248 -125q350 0 350 526v219q0 162 -21 285q-8 55 -53 85t-145 36v71h514z" />
    <glyph glyph-name="uring" unicode="&#x16f;" horiz-adv-x="1136" 
d="M569 1313q-41 0 -67 -29t-27 -76q-1 -46 27 -76t68 -30t65 30t25 76t-25 76q-25 29 -66 29zM567 1022q-78 0 -136 52t-58 135t58 134t136 51q77 0 137 -50q60 -52 60 -135t-60 -135t-137 -52zM170 266v424q0 74 -17 93t-96 40v60q184 8 379 37q-6 -129 -6 -310v-297
q0 -92 41 -136t115 -44t133 57v498q1 78 -19 98t-112 37v60q217 10 391 37v-666q0 -82 15 -106t71 -29l45 -4v-66q-143 -18 -375 -74l-16 15v123q-82 -63 -103 -76q-94 -61 -178 -62q-128 0 -198 77t-70 214z" />
    <glyph glyph-name="Uhungarumlaut" unicode="&#x170;" horiz-adv-x="1492" 
d="M842 1638l-215 -237l-66 20q39 117 82 260q39 8 111 -2t88 -24v-17zM1167 1638l-217 -237l-65 20q16 49 46 143t38 117q39 8 109 -2t87 -24zM1483 1331v-71q-158 -8 -174 -121q-18 -115 -19 -285v-223q0 -354 -145 -508t-377 -154t-367 107q-170 131 -170 481v481
q0 141 -27 176q-28 35 -145 46v71h617v-71q-114 -10 -142 -46t-28 -176v-444q0 -234 84 -360t248 -125q350 0 350 526v219q0 162 -21 285q-8 55 -53 85t-145 36v71h514z" />
    <glyph glyph-name="uhungarumlaut" unicode="&#x171;" horiz-adv-x="1136" 
d="M721 999l-62 23q42 182 74 344q16 10 94 19t103 6l12 -23zM410 999l-62 23q10 45 27 122q17 76 31 144t16 78q14 10 92 19t104 6l11 -23zM170 266v424q0 74 -17 93t-96 40v60q184 8 379 37q-6 -129 -6 -310v-297q0 -92 41 -136t115 -44t133 57v498q1 78 -19 98t-112 37
v60q217 10 391 37v-666q0 -82 15 -106t71 -29l45 -4v-66q-143 -18 -375 -74l-16 15v123q-82 -63 -103 -76q-94 -61 -178 -62q-128 0 -198 77t-70 214z" />
    <glyph glyph-name="Uogonek" unicode="&#x172;" horiz-adv-x="1492" 
d="M1483 1331v-71q-158 -8 -174 -121q-18 -115 -19 -285v-223q0 -354 -147 -512q-86 -92 -238 -129q-125 -131 -125 -240q0 -46 30 -68t74 -22t89 18l16 -59l-125 -74q-34 -20 -100 -20t-110 45t-44 108q0 135 199 297q-258 -16 -408 101q-170 131 -170 481v481
q0 141 -27 176q-28 35 -145 46v71h617v-71q-114 -10 -142 -46t-28 -176v-442q0 -233 83 -358t247 -125q352 0 352 526v215q0 174 -19 285q-10 57 -55 86t-147 35v71h516z" />
    <glyph glyph-name="uogonek" unicode="&#x173;" horiz-adv-x="1136" 
d="M887 -336q41 0 94 23l16 -60l-137 -76q-41 -25 -78 -24q-84 0 -128 43t-44 118t69 164t148 144q-78 -16 -92 -21l-16 15v123q-82 -63 -103 -76q-94 -61 -178 -62q-128 0 -198 77t-70 214v424q0 74 -17 93t-96 40v60q184 8 379 37q-6 -129 -6 -310v-297q0 -92 41 -136
t115 -44t133 57v498q1 78 -19 98t-112 37v60q217 10 391 37v-666q0 -82 15 -106t71 -29l45 -4v-66q-43 -4 -160 -26q-70 -53 -116 -133t-48 -136q0 -90 101 -90z" />
    <glyph glyph-name="Wcircumflex" unicode="&#x174;" horiz-adv-x="2004" 
d="M1362 1438l-33 -54q-68 27 -270 125q-182 -92 -271 -125l-30 54q102 84 270 252h62q108 -115 272 -252zM1985 1331v-71q-105 -16 -145 -56t-81 -166q-131 -367 -340 -1061h-106q-72 197 -334 910h-4q-199 -580 -307 -910h-109q-229 762 -328 1076q-37 119 -75 155
t-129 52v71h606v-71q-111 -12 -133 -43t4 -109q113 -397 209 -705h4q199 602 295 916h98q172 -469 344 -924h4q109 342 193 690q23 96 -2 129t-146 46v71h482z" />
    <glyph glyph-name="wcircumflex" unicode="&#x175;" horiz-adv-x="1398" 
d="M967 991q-32 26 -203 189q-20 -18 -76 -76t-127 -113l-53 45q98 145 217 355h76q102 -181 221 -355zM6 905h506v-65q-86 -14 -105 -34t-7 -64t124 -408h4q6 14 213 561h80q78 -201 232 -565h4q86 254 107 352t1 121t-112 37v65h379v-65q-72 -12 -98 -35t-80 -159
t-240 -669h-78q-31 76 -114 272t-126 300l-227 -572h-78q-100 309 -244 726q-29 85 -53 107t-88 30v65z" />
    <glyph glyph-name="Ycircumflex" unicode="&#x176;" horiz-adv-x="1341" 
d="M981 1401q-47 18 -268 125q-225 -106 -271 -125l-32 53q102 82 272 252h61q123 -129 273 -252zM1323 1331v-71q-96 -10 -142 -44q-94 -70 -333 -530q-37 -72 -37 -141v-262q0 -137 31 -169t168 -44v-70h-666v70q131 10 162 43t31 170v227q0 55 -27 111q-72 145 -254 464
q-55 99 -96 131t-127 44v71h585v-71q-96 -12 -112 -38t16 -81q18 -37 234 -445q186 367 213 434q31 60 9 88t-130 42v71h475z" />
    <glyph glyph-name="ycircumflex" unicode="&#x177;" horiz-adv-x="952" 
d="M516 1180q-134 -134 -201 -189l-55 45q98 145 217 355h76q92 -165 223 -355l-57 -45q-50 42 -116 106t-87 83zM989 905v-65q-75 -12 -103 -38t-59 -92t-207 -490q-176 -425 -253 -664q-19 -56 -71 -56t-100 39t-48 86t55 84q117 61 168 146q27 51 39 88t-9 92
q-170 473 -258 678q-29 69 -57 93t-100 34v65h508v-65q-68 -12 -83 -28t1 -67l153 -454q68 168 154 436q16 51 -4 75t-94 38v65h368z" />
    <glyph glyph-name="Ydieresis" unicode="&#x178;" horiz-adv-x="1341" 
d="M489 1696q57 0 97 -40t41 -96q0 -56 -41 -96q-42 -40 -98 -41q-56 0 -97 40q-41 41 -41 97t41 96t98 40zM920 1696q57 0 97 -39t40 -96t-40 -97t-97 -41q-57 0 -99 40q-41 41 -41 97t41 96q42 40 99 40zM1323 1331v-71q-96 -10 -142 -44q-94 -70 -333 -530
q-37 -72 -37 -141v-262q0 -137 31 -169t168 -44v-70h-666v70q131 10 162 43t31 170v227q0 55 -27 111q-72 145 -254 464q-55 99 -96 131t-127 44v71h585v-71q-96 -12 -112 -38t16 -81q18 -37 234 -445q186 367 213 434q31 60 9 88t-130 42v71h475z" />
    <glyph glyph-name="Zacute" unicode="&#x179;" horiz-adv-x="1267" 
d="M1028 1546l-8 -24l-422 -123l-29 57q135 98 355 250q28 -10 64 -66t40 -94zM346 1331h834l16 -31q-526 -815 -766 -1196q102 -12 254 -12q291 0 362 68t128 235l69 -16q-47 -287 -76 -379h-1085l-25 35q256 385 783 1204h-258q-146 0 -200 -16t-81 -56q-51 -70 -80 -194
l-69 2l24 407h53q23 -35 45 -43t72 -8z" />
    <glyph glyph-name="zacute" unicode="&#x17a;" horiz-adv-x="911" 
d="M463 1001l-64 27q14 47 55 182q40 135 46 156q14 10 105 19t118 4l12 -21zM403 817q-102 0 -151 -30t-94 -115l-35 -68l-64 27q47 154 84 319h45q23 -45 125 -45h502l19 -28q-68 -115 -451 -787h131q113 0 174 33t117 131l35 57l59 -28q-94 -274 -96 -283h-727l-27 33
q147 236 463 784h-109z" />
    <glyph glyph-name="Zdotaccent" unicode="&#x17b;" horiz-adv-x="1267" 
d="M679 1726q60 0 102 -42t42 -101t-43 -101t-102 -42t-103 43q-43 43 -43 101t43 100q44 42 104 42zM346 1331h834l16 -31q-526 -815 -766 -1196q102 -12 254 -12q291 0 362 68t128 235l69 -16q-47 -287 -76 -379h-1085l-25 35q256 385 783 1204h-258q-146 0 -200 -16
t-81 -56q-51 -70 -80 -194l-69 2l24 407h53q23 -35 45 -43t72 -8z" />
    <glyph glyph-name="zdotaccent" unicode="&#x17c;" horiz-adv-x="911" 
d="M334 1204q0 58 43 100t103 42t102 -41t43 -101t-43 -103q-44 -42 -103 -42t-102 43t-43 102zM403 817q-102 0 -151 -30t-94 -115l-35 -68l-64 27q47 154 84 319h45q23 -45 125 -45h502l19 -28q-68 -115 -451 -787h131q113 0 174 33t117 131l35 57l59 -28
q-94 -274 -96 -283h-727l-27 33q147 236 463 784h-109z" />
    <glyph glyph-name="Zcaron" unicode="&#x17d;" horiz-adv-x="1267" 
d="M940 1700l31 -53q-100 -78 -271 -252h-63q-119 131 -270 252l32 53q150 -61 271 -121q137 68 270 121zM346 1331h834l16 -31q-526 -815 -766 -1196q102 -12 254 -12q291 0 362 68t128 235l69 -16q-47 -287 -76 -379h-1085l-25 35q256 385 783 1204h-258q-146 0 -200 -16
t-81 -56q-51 -70 -80 -194l-69 2l24 407h53q23 -35 45 -43t72 -8z" />
    <glyph glyph-name="zcaron" unicode="&#x17e;" horiz-adv-x="911" 
d="M668 1411l55 -45q-88 -127 -217 -354h-78q-90 164 -221 354l55 45q55 -43 121 -107q66 -65 84 -81q164 157 201 188zM403 817q-102 0 -151 -30t-94 -115l-35 -68l-64 27q47 154 84 319h45q23 -45 125 -45h502l19 -28q-68 -115 -451 -787h131q113 0 174 33t117 131l35 57
l59 -28q-94 -274 -96 -283h-727l-27 33q147 236 463 784h-109z" />
    <glyph glyph-name="longs" unicode="&#x17f;" horiz-adv-x="606" 
d="M451 225q0 -98 19 -122t105 -37v-66h-507v66q84 12 103 36t19 117v588h-133l-8 24l60 74h81v35q0 59 25 139q49 145 178 250q106 92 236 111q125 -6 182 -64q43 -39 16 -92q-14 -39 -57 -72t-74 -4q-102 111 -178 111q-55 0 -69 -80q-4 -53 -5 -86l7 -309v-619z" />
    <glyph glyph-name="florin" unicode="&#x192;" horiz-adv-x="1024" 
d="M846 1335q51 1 98 -29t45 -71t-33 -80t-57 -41q-15 0 -73 55t-93 56q-35 0 -57 -65t-64 -390h219v-94h-233l-45 -291q-49 -321 -176 -469q-43 -49 -74 -74q-155 -125 -274 -125q-47 0 -86 28t-39 68q0 41 37 79t65 38q10 0 64 -45t87 -45q34 0 46 45q23 74 47 289l69 502
h-180v94h195l14 76q45 229 206 359t292 130z" />
    <glyph glyph-name="Ohorn" unicode="&#x1a0;" horiz-adv-x="1568" 
d="M807 1360q231 0 407 -129q38 -21 90 -21t78 24t27 48q0 24 -15 35q-15 10 -46 15q-32 6 -52 24t-20 54t30 64t84 28t94 -45q40 -44 40 -126t-58 -133t-155 -57q172 -182 172 -461q0 -324 -202 -518t-504 -193q-303 0 -497 199t-194 486t182 489q88 97 228 157t311 60z
M777 1276q-169 0 -273 -157t-104 -423t113 -453q114 -187 304 -188q154 -1 253 147t99 435t-111 463q-112 176 -281 176z" />
    <glyph glyph-name="ohorn" unicode="&#x1a1;" horiz-adv-x="1103" 
d="M551 930q135 0 258 -68q37 -18 82 -18t72 17t27 37t-14 32q-13 10 -48 18q-58 14 -58 60t30 72t78 26t83 -39t35 -113t-54 -120t-143 -56q117 -127 117 -309q0 -233 -140 -363t-351 -131t-337 137t-127 320q0 230 150 364t340 134zM520 850q-68 0 -117 -89t-49 -269
t58 -309q58 -128 151 -128q160 0 160 353q-1 214 -53 328t-150 114z" />
    <glyph glyph-name="Uhorn" unicode="&#x1af;" horiz-adv-x="1492" 
d="M969 1331h374q61 1 97 19t37 47q1 39 -65 55t-66 74q0 42 28 68t81 26q52 0 90 -43t38 -119t-40 -125q-41 -49 -105 -69t-94 -49q-30 -28 -41 -104q-12 -76 -13 -257v-223q0 -354 -145 -508t-377 -154t-367 107q-170 131 -170 481v481q0 141 -27 176q-28 35 -145 46v71
h617v-71q-114 -10 -142 -46t-28 -176v-444q0 -234 84 -360t248 -125q350 0 350 526v219q0 162 -21 285q-8 55 -53 85t-145 36v71z" />
    <glyph glyph-name="uhorn" unicode="&#x1b0;" horiz-adv-x="1165" 
d="M170 266v424q0 74 -17 94t-96 39v60q184 8 379 37q-6 -129 -6 -310v-297q0 -92 41 -136t115 -44t133 57v498q-1 76 -19 98t-112 37v60q276 10 356 28q109 20 109 72q0 41 -68 49q-57 12 -57 70q0 40 28 66t78 26q49 0 86 -39t37 -117t-53 -124t-125 -66v-594
q0 -82 15 -106t71 -29l45 -4v-66q-152 -20 -375 -74l-16 15v123q-82 -63 -103 -76q-94 -61 -178 -62q-128 0 -198 77t-70 214z" />
    <glyph glyph-name="Aringacute" unicode="&#x1fa;" horiz-adv-x="1445" 
d="M1034 1937l-6 -24l-422 -123l-31 57q297 209 355 250q28 -11 64 -65t40 -95zM725 1690q-41 0 -69 -30t-28 -76t28 -77t69 -31t66 30t24 77q0 47 -24 77q-25 30 -66 30zM722 1767q77 0 136 -51q60 -51 60 -133t-60 -134t-136 -52q-77 0 -135 52q-59 52 -59 135t58 133
t136 50zM799 545l-152 442h-6q-53 -140 -99 -267q-45 -126 -63 -175h320zM1407 0h-586v72q88 14 107 40q18 26 -10 102t-80 222h-394q-51 -145 -73 -219q-27 -73 -4 -103t129 -42v-72h-459l2 72q102 12 139 47t88 164l420 1052l105 27q362 -990 403 -1096t79 -144t134 -50
v-72z" />
    <glyph glyph-name="aringacute" unicode="&#x1fb;" horiz-adv-x="954" 
d="M485 1448l-65 27q14 43 54 179t48 156q14 12 106 22t117 3l11 -23zM479 1102q41 0 66 30t25 76t-25 76q-25 29 -66 29t-67 -29t-27 -76q1 -46 27 -76t67 -30zM476 1022q-79 0 -137 52t-58 135t59 134t137 51t137 -50q60 -52 60 -135t-60 -135t-138 -52zM334 293
q0 -84 40 -124t81 -40t88 33v327q-22 -11 -113 -63q-96 -49 -96 -133zM338 -25q-125 0 -201 80q-76 81 -76 171t37 134t129 77q92 34 186 69q94 34 130 63v62q0 96 -34 148t-83 52t-76 -36q-33 -39 -59 -142q-18 -70 -86 -69q-43 0 -85 32t-42 73q0 42 72 95
q168 115 339 146q121 0 191 -54t94 -118q23 -64 23 -158v-338q0 -121 65 -121q25 0 70 17l20 -66l-223 -117q-127 0 -178 119q-180 -119 -213 -119z" />
    <glyph glyph-name="AEacute" unicode="&#x1fc;" horiz-adv-x="1806" 
d="M1452 1546l-8 -24l-420 -123l-31 57q297 211 355 250q28 -10 64 -66t40 -94zM868 696v529q-23 0 -45 -8q-250 -510 -254 -521h299zM684 0v72q125 10 155 47t29 178v301h-344q-33 -66 -168 -360q-38 -88 -18 -120t133 -46v-72h-500v72q96 12 147 50q50 38 107 142
q195 354 463 887q25 49 19 69t-54 25l-123 15v71h1133q10 -184 20 -301l-71 -10q-35 127 -81 174t-206 47h-106q-55 0 -69 -11t-13 -61v-475h133q135 0 175 25t56 127h76v-412h-76q-16 110 -55 136t-176 26l-133 2v-313q0 -90 10 -127t41 -52q42 -16 196 -16t211 66
q74 77 121 202l70 -18q-41 -215 -76 -340h-1026z" />
    <glyph glyph-name="aeacute" unicode="&#x1fd;" horiz-adv-x="1374" 
d="M702 1001l-63 27q84 282 100 338q13 10 105 19t119 4l12 -21zM461 137q84 0 139 72q-47 111 -47 287q-4 -2 -125 -66q-94 -55 -94 -135t39 -119t88 -39zM957 844q-60 0 -106 -70t-56 -192q233 6 253 7t32 11t12 64t-38 118q-38 62 -97 62zM336 -25q-121 0 -197 79
t-76 167t37 136t117 79q301 111 338 137v52q0 92 -41 148t-87 56q-46 1 -74 -33t-56 -139q-18 -68 -86 -67q-41 0 -84 30t-43 74t74 92q162 109 336 144q94 0 157 -44t80 -85q57 59 132 94t141 35q141 0 239 -102t98 -230q0 -37 -11 -53t-44 -25q-74 -14 -502 -31
q0 -163 80 -247t196 -84t230 86l39 -51q-82 -117 -184 -167t-176 -51q-225 0 -334 172l-62 -51q-145 -121 -237 -121z" />
    <glyph glyph-name="Oslashacute" unicode="&#x1fe;" horiz-adv-x="1579" 
d="M1102 1559l-8 -23l-422 -123l-29 55q135 98 354 250q29 -10 65 -64t40 -95zM813 55q164 0 269 151q106 150 106 412t-86 424l-567 -833q47 -74 121 -114t157 -40zM782 1276q-170 0 -282 -159t-111 -409q0 -250 96 -419l570 829q-103 158 -273 158zM1493 686
q0 -319 -204 -518t-513 -199q-199 0 -352 92l-117 -167l-63 53l108 157q-122 94 -194 240t-72 295q0 280 177 494q85 102 227 165q142 64 330 64t343 -90l105 155l67 -47l-102 -157q119 -97 189 -235t71 -302z" />
    <glyph glyph-name="oslashacute" unicode="&#x1ff;" horiz-adv-x="1087" 
d="M528 1001l-63 27q84 282 100 338q13 10 105 19t118 4l13 -21zM561 57q195 0 195 373q0 136 -35 232l-315 -484q59 -121 155 -121zM332 483q0 -119 37 -223l311 479q-55 106 -154 107q-72 0 -133 -89t-61 -274zM1026 471q0 -234 -142 -365t-343 -131q-129 0 -240 56
l-74 -105l-59 47l72 103q-88 63 -134 158q-45 95 -45 198q0 226 152 362t342 136q123 0 223 -53l72 102l57 -43l-67 -100q186 -131 186 -365z" />
    <glyph glyph-name="uni0218" unicode="&#x218;" horiz-adv-x="1034" 
d="M504 -111q72 0 125 -54t53 -136q0 -180 -250 -244l-22 53q131 63 131 142q0 74 -103 100q-32 10 -32 52t29 65q30 22 69 22zM549 1278q-86 0 -142 -57q-57 -57 -57 -143t58 -143q58 -58 216 -136t250 -175t93 -239q-1 -178 -139 -297t-359 -119q-111 1 -189 23t-143 51
q-29 80 -59 348l72 23q24 -78 66 -154t122 -142t172 -65q92 -1 147 59t55 151t-58 155q-60 64 -185 129q-178 90 -267 183t-89 231q0 173 128 287t341 114q143 0 284 -55q4 -43 18 -143l21 -150l-69 -17q-94 281 -287 281z" />
    <glyph glyph-name="uni0219" unicode="&#x219;" horiz-adv-x="784" 
d="M381 -96q72 0 124 -54t52 -137q0 -180 -250 -243l-20 55q131 61 131 137t-105 102q-31 10 -31 52t30 66q30 22 69 22zM414 850q-41 0 -73 -32t-32 -79q1 -90 147 -154t214 -130t67 -176q0 -141 -111 -223q-112 -81 -255 -81q-76 0 -150 22t-108 48q-10 25 -21 114
q-10 89 -12 160l61 7q39 -111 109 -191t156 -80q48 0 80 32t32 80t-33 88t-105 74t-100 51q-178 102 -178 258q0 124 94 208t250 84q113 0 197 -37q33 -78 49 -234l-61 -18q-92 209 -217 209z" />
    <glyph glyph-name="uni021A" unicode="&#x21a;" horiz-adv-x="1312" 
d="M635 -74q72 0 125 -54t53 -136q0 -180 -252 -244l-20 53q131 63 131 142q0 74 -105 100q-31 10 -31 52t30 65q30 22 69 22zM248 1331h823q74 0 119 51h49q5 -157 23 -397l-74 -4q-37 158 -87 209t-210 51h-94v-969q-1 -130 31 -160t169 -40v-72h-667v72q131 10 162 41
t30 159v969h-69q-115 0 -162 -13t-74 -42q-45 -47 -86 -207h-74q24 382 25 403h49q23 -33 47 -42t70 -9z" />
    <glyph glyph-name="uni021B" unicode="&#x21b;" horiz-adv-x="694" 
d="M362 -98q72 0 124 -54t52 -144q0 -89 -68 -149q-69 -60 -181 -87l-21 53q131 63 131 141q0 72 -104 98q-31 8 -31 52t30 66q30 24 68 24zM424 -25q-250 0 -250 258v574h-129l-10 24l57 74h82v150l232 159l28 -12v-297h201q18 -16 15 -51t-27 -47h-189v-506
q0 -178 117 -178q51 0 102 24l21 -71l-166 -78q-57 -23 -84 -23z" />
    <glyph glyph-name="uni021C" unicode="&#x21c;" horiz-adv-x="1110" 
d="M643 1004q0 128 -56 196q-56 66 -141 66q-174 0 -280 -305l-78 14q35 188 49 303q31 8 93 26q186 56 333 56t259 -78t114 -207q0 -186 -266 -332v-4q160 -29 261 -128t101 -253q0 -233 -225 -404t-590 -212l-147 108l22 52q135 -35 221 -35q180 0 298 104
q118 103 118 275t-86 252t-172 80t-217 -48l-29 82q223 84 321 174q97 90 97 218z" />
    <glyph glyph-name="uni021D" unicode="&#x21d;" horiz-adv-x="831" 
d="M426 587q0 89 -42 133t-118 44t-196 -107l-50 54q176 219 369 219q127 0 213 -70t86 -184t-113 -205q-23 -18 -79 -53v-6q120 -29 200 -114t80 -206q0 -206 -190 -360t-471 -191l-119 86l20 47q82 -20 144 -20q150 0 242 91t94 237q0 146 -60 203q-60 59 -131 59
q-70 0 -162 -29l-24 68q167 67 237 141t70 163z" />
    <glyph glyph-name="uni0232" unicode="&#x232;" horiz-adv-x="1341" 
d="M975 1460h-502v137h502v-137zM1323 1331v-71q-96 -10 -142 -44q-94 -70 -333 -530q-37 -72 -37 -141v-262q0 -137 31 -169t168 -44v-70h-666v70q131 10 162 43t31 170v227q0 55 -27 111q-72 145 -254 464q-55 99 -96 131t-127 44v71h585v-71q-96 -12 -112 -38t16 -81
q18 -37 234 -445q186 367 213 434q31 60 9 88t-130 42v71h475z" />
    <glyph glyph-name="uni0233" unicode="&#x233;" horiz-adv-x="952" 
d="M780 1108h-512v149h512v-149zM989 905v-65q-75 -12 -103 -38t-59 -92t-207 -490q-176 -425 -253 -664q-19 -56 -71 -56t-100 39t-48 86t55 84q117 61 168 146q27 51 39 88t-9 92q-170 473 -258 678q-29 69 -57 93t-100 34v65h508v-65q-68 -12 -83 -28t1 -67l153 -454
q68 168 154 436q16 51 -4 75t-94 38v65h368z" />
    <glyph glyph-name="uni0237" unicode="&#x237;" horiz-adv-x="589" 
d="M40 -500q-28 0 -56 34t-29 84q0 50 49 50q132 2 152 40t26 147q8 242 8 385v385q0 106 -19 131q-20 25 -108 39v61q150 16 388 74v-666q0 -201 -58 -332q-53 -130 -144 -248t-136 -151t-73 -33z" />
    <glyph glyph-name="circumflex" unicode="&#x2c6;" 
d="M408 1180q-134 -134 -201 -189l-55 45q98 145 217 355h75q93 -165 224 -355l-58 -45q-24 20 -202 189z" />
    <glyph glyph-name="caron" unicode="&#x2c7;" 
d="M612 1411l56 -45q-88 -127 -217 -354h-78q-90 164 -221 354l55 45q50 -39 118 -105q68 -67 87 -83q163 157 200 188z" />
    <glyph glyph-name="uni02C9" unicode="&#x2c9;" 
d="M666 1108h-512v149h512v-149z" />
    <glyph glyph-name="breve" unicode="&#x2d8;" 
d="M659 1352q0 -315 -251 -316q-248 0 -248 316h65q37 -160 185 -160t184 160h65z" />
    <glyph glyph-name="dotaccent" unicode="&#x2d9;" 
d="M410 1059q-59 0 -103 43q-43 43 -43 102q0 58 43 100t103 42t103 -41q42 -41 42 -101t-43 -103q-43 -42 -102 -42z" />
    <glyph glyph-name="ring" unicode="&#x2da;" 
d="M317 1208q0 -46 28 -76t68 -30q41 0 65 30t24 76t-25 76q-25 29 -65 29t-68 -29q-27 -29 -27 -76zM409 1022q-79 0 -138 52q-58 52 -58 135t59 134q60 51 138 51t137 -50q59 -52 59 -135t-59 -135t-138 -52z" />
    <glyph glyph-name="ogonek" unicode="&#x2db;" 
d="M388 -465q-60 0 -107 47t-48 111q0 106 162 307h78q-82 -139 -82 -242q0 -52 28 -76q29 -24 67 -24t83 20l17 -59l-103 -61q-35 -23 -95 -23z" />
    <glyph glyph-name="tilde" unicode="&#x2dc;" 
d="M543 1219q59 0 102 94l57 -29q-61 -217 -178 -217q-51 0 -137 45q-70 41 -115 41q-61 0 -106 -104l-60 38q70 215 191 216q43 0 126 -42t120 -42z" />
    <glyph glyph-name="hungarumlaut" unicode="&#x2dd;" 
d="M575 999l-61 23q10 49 28 131q17 82 29 140t17 73q14 10 92 19t104 6l11 -23zM262 999l-61 23q10 45 26 122q17 76 31 144t16 78q16 10 94 19t103 6l10 -23z" />
    <glyph glyph-name="uni0374" unicode="&#x374;" horiz-adv-x="540" 
d="M500 1321l8 -39q-106 -195 -297 -524l-64 10q57 276 105 563q23 14 121 10t127 -20z" />
    <glyph glyph-name="uni0375" unicode="&#x375;" horiz-adv-x="540" 
d="M426 287l8 -39q-180 -330 -297 -524l-65 10q55 252 106 563q23 14 122 10t126 -20z" />
    <glyph glyph-name="uni037E" unicode="&#x37e;" horiz-adv-x="540" 
d="M106 -276l-65 14q74 340 113 559q20 14 119 10t126 -20l11 -39q-150 -268 -304 -524zM284 510q-73 0 -121 49t-48 125t48 125t121 49t122 -49t49 -125t-49 -125t-122 -49z" />
    <glyph glyph-name="tonos" unicode="&#x384;" 
d="M594 1389l-154 -371l-65 -2q6 354 6 366q10 14 91 26t106 5z" />
    <glyph glyph-name="dieresistonos" unicode="&#x385;" 
d="M161 1038q-50 0 -83 33t-33 82t34 87t82 38t82 -38q33 -38 33 -87t-32 -82t-83 -33zM532 1362l-112 -373h-62q-20 291 -24 371q12 8 90 19t96 7zM660 1278q50 0 82 -37t32 -86t-32 -83t-82 -34q-51 0 -85 33q-33 33 -33 82t35 87q34 38 83 38z" />
    <glyph glyph-name="Alphatonos" unicode="&#x386;" horiz-adv-x="1445" 
d="M461 1450l-154 -371l-67 -2q10 283 8 367q10 14 91 26t105 5zM799 545l-152 442h-6q-53 -140 -99 -267q-45 -126 -63 -175h320zM1407 0h-586v72q88 14 107 40q18 26 -10 102t-80 222h-394q-51 -145 -73 -219q-27 -73 -4 -103t129 -42v-72h-459l2 72q102 12 139 47t88 164
l420 1052l105 27q362 -990 403 -1096t79 -144t134 -50v-72z" />
    <glyph glyph-name="anoteleia" unicode="&#x387;" horiz-adv-x="540" 
d="M269 381q-73 0 -121 48t-48 124t48 125t121 49t122 -48t49 -125t-49 -125t-122 -48z" />
    <glyph glyph-name="Epsilontonos" unicode="&#x388;" horiz-adv-x="1189" 
d="M20 1450l-151 -371l-68 -2q6 358 6 367q13 14 93 26t106 5zM1047 1331q0 -42 20 -307l-74 -10q-37 129 -85 178t-203 49h-99q-57 0 -70 -11t-14 -61v-434h137q131 0 169 24t59 130h74v-414h-74q-19 109 -57 133t-171 23h-137v-355q0 -143 48 -165q48 -23 199 -23t214 66
q56 65 115 200l71 -14q-18 -141 -71 -340h-1045v72q133 10 164 41t31 159v787q0 131 -27 161t-139 40v71h965z" />
    <glyph glyph-name="Etatonos" unicode="&#x389;" horiz-adv-x="1603" 
d="M12 1450l-153 -371l-66 -2q6 354 6 367q10 14 91 26t108 5zM1528 1331v-71q-121 -10 -147 -40t-25 -161v-789q0 -128 26 -158t146 -40v-72h-625v72q123 10 151 41t27 159v381h-559v-381q0 -130 27 -160t141 -40v-72h-610v72q116 10 142 41t26 159v787q0 129 -28 160
t-148 41v71h614v-71q-112 -10 -138 -41t-26 -160v-301h559v301q0 129 -26 160q-27 31 -142 41v71h615z" />
    <glyph glyph-name="Iotatonos" unicode="&#x38a;" horiz-adv-x="774" 
d="M16 1450l-153 -371l-66 -2q6 354 6 367q9 14 91 26t106 5zM692 0h-614v72q114 10 142 42t28 158v785q0 129 -28 161t-142 42v71h614v-71q-114 -10 -142 -42t-28 -161v-785q0 -126 28 -158t142 -42v-72z" />
    <glyph glyph-name="Omicrontonos" unicode="&#x38c;" horiz-adv-x="1568" 
d="M172 1430l-152 -371l-67 -2q6 358 6 366q12 15 92 27t107 4zM778 1276q-170 0 -274 -157t-104 -423t113 -453q114 -187 304 -188q154 -1 253 147t99 435t-110 463q-111 176 -281 176zM805 1362q285 0 481 -192t197 -502q0 -312 -202 -506t-504 -193q-303 0 -497 199
t-194 489q0 289 192 497t527 208z" />
    <glyph glyph-name="Upsilontonos" unicode="&#x38e;" horiz-adv-x="1363" 
d="M-27 1450l-151 -371l-68 -2q6 358 6 367q12 14 92 26t107 5zM1006 0h-652v74q131 10 161 38t30 152v139q0 301 -74 482q-133 330 -401 329q-25 0 -58 -6l-12 64q59 34 146 62t157 28q190 0 293 -139q53 -72 85 -192q32 -121 39 -195t15 -207h17q18 153 76 311t149 268
q129 154 266 154q39 0 71 -40t44 -87l-4 -18h-29q-76 1 -168 -59t-172 -187q-166 -266 -166 -570v-137q0 -70 3 -102t28 -52q26 -22 54 -26t102 -10v-74z" />
    <glyph glyph-name="Omegatonos" unicode="&#x38f;" horiz-adv-x="1576" 
d="M182 1430l-151 -371l-68 -2q6 358 6 366q12 15 92 27t107 4zM795 1276q-170 0 -260 -141t-93 -404q0 -200 77 -382t151 -318l-15 -31h-532l-33 336h64q32 -78 62 -97t103 -20h152q-332 240 -332 519q-1 280 185 452t473 172t469 -170t182 -440q0 -186 -129 -332
q-69 -76 -101 -106t-112 -95h176q68 -1 96 19t60 98h63l-45 -336h-522l-19 29q231 422 232 723q0 250 -91 387t-261 137z" />
    <glyph glyph-name="iotadieresistonos" unicode="&#x390;" horiz-adv-x="571" 
d="M38 1071q-50 0 -83 33t-33 82t34 87t82 38t82 -38t34 -87t-33 -82t-83 -33zM442 1384l-186 -368l-66 16q37 236 50 354q12 8 92 18t98 7zM537 1311q49 0 81 -37t33 -87t-31 -83t-83 -33t-84 33t-33 82t34 87t83 38zM324 -25q-80 1 -132 55t-53 181v672l262 49v-672
q0 -129 76 -129q41 0 76 16l20 -59q-133 -113 -249 -113z" />
    <glyph glyph-name="Alpha" unicode="&#x391;" horiz-adv-x="1445" 
d="M799 545l-152 442h-6q-53 -140 -99 -267q-45 -126 -63 -175h320zM1407 0h-586v72q88 14 107 40q18 26 -10 102t-80 222h-394q-51 -145 -73 -219q-27 -73 -4 -103t129 -42v-72h-459l2 72q102 12 139 47t88 164l420 1052l105 27q362 -990 403 -1096t79 -144t134 -50v-72z
" />
    <glyph glyph-name="Beta" unicode="&#x392;" horiz-adv-x="1304" 
d="M518 662v-383q0 -113 34 -154t124 -39t163 75t72 212q0 289 -352 289h-41zM518 743h47q147 1 216 61t69 188t-65 190t-145 63q-80 0 -100 -21q-21 -21 -22 -91v-390zM682 1331q459 0 459 -305q0 -133 -93 -205q-94 -71 -227 -98v-8q395 -47 396 -320q0 -203 -193 -307
q-156 -88 -432 -88h-520v72q120 10 148 42t28 160v783q0 129 -27 161t-137 42v71h598z" />
    <glyph glyph-name="Gamma" unicode="&#x393;" horiz-adv-x="1107" 
d="M711 1241h-107q-53 0 -66 -12t-14 -62v-876q0 -143 29 -176t160 -43v-72h-635v72q116 10 144 43t28 176v756q0 135 -28 169t-144 44v71h960q11 -176 23 -319l-74 -13q-41 129 -74 172q-47 70 -202 70z" />
    <glyph glyph-name="uni0394" unicode="&#x394;" horiz-adv-x="1355" 
d="M946 119l-352 878l-350 -878h702zM1274 0h-1194v59l555 1282l82 21l557 -1303v-59z" />
    <glyph glyph-name="Epsilon" unicode="&#x395;" horiz-adv-x="1189" 
d="M1047 1331q0 -42 20 -307l-74 -10q-37 129 -85 178t-203 49h-99q-57 0 -70 -11t-14 -61v-434h137q131 0 169 24t59 130h74v-414h-74q-19 109 -57 133t-171 23h-137v-355q0 -143 48 -165q48 -23 199 -23t214 66q56 65 115 200l71 -14q-18 -141 -71 -340h-1045v72
q133 10 164 41t31 159v787q0 131 -27 161t-139 40v71h965z" />
    <glyph glyph-name="Zeta" unicode="&#x396;" horiz-adv-x="1267" 
d="M346 1331h834l16 -31q-526 -815 -766 -1196q102 -12 254 -12q291 0 362 68t128 235l69 -16q-47 -287 -76 -379h-1085l-25 35q256 385 783 1204h-258q-146 0 -200 -16t-81 -56q-51 -70 -80 -194l-69 2l24 407h53q23 -35 45 -43t72 -8z" />
    <glyph glyph-name="Eta" unicode="&#x397;" horiz-adv-x="1603" 
d="M1528 1331v-71q-121 -10 -147 -40t-25 -161v-789q0 -128 26 -158t146 -40v-72h-625v72q123 10 151 41t27 159v381h-559v-381q0 -130 27 -160t141 -40v-72h-610v72q116 10 142 41t26 159v787q0 129 -28 160t-148 41v71h614v-71q-112 -10 -138 -41t-26 -160v-301h559v301
q0 129 -26 160q-27 31 -142 41v71h615z" />
    <glyph glyph-name="Theta" unicode="&#x398;" horiz-adv-x="1556" 
d="M1012 455h-70q-12 85 -30 107t-78 22h-113q-59 0 -79 -22t-30 -107h-71v469h71q10 -84 30 -106t81 -21h113q59 0 76 20t30 107h70v-469zM773 1272q-171 0 -272 -155t-101 -424t110 -451q111 -182 303 -183q156 -1 250 141t94 432t-106 466q-107 174 -278 174zM793 1362
q285 0 481 -193t196 -499t-200 -503q-200 -198 -501 -198q-300 0 -491 197q-192 197 -192 476t177 493q85 103 223 165t307 62z" />
    <glyph glyph-name="Iota" unicode="&#x399;" horiz-adv-x="774" 
d="M692 0h-614v72q114 10 142 42t28 158v785q0 129 -28 161t-142 42v71h614v-71q-114 -10 -142 -42t-28 -161v-785q0 -126 28 -158t142 -42v-72z" />
    <glyph glyph-name="Kappa" unicode="&#x39a;" horiz-adv-x="1439" 
d="M1432 0h-412q-176 242 -404 571q-53 78 -100 72v-369q0 -128 29 -160t147 -42v-72h-612v72q112 10 140 42t28 160v783q0 129 -28 161t-144 42v71h602v-71q-110 -10 -136 -42t-26 -161v-348q70 20 156 108q158 158 286 330q39 49 29 74t-80 32l-37 7v71h533v-71
q-102 -10 -173 -40q-70 -30 -138 -92t-115 -110q-47 -49 -113 -119t-84 -88q201 -297 430 -588q62 -77 110 -109t112 -42v-72z" />
    <glyph glyph-name="Lambda" unicode="&#x39b;" horiz-adv-x="1431" 
d="M1397 0h-588v72q94 14 113 44q18 30 -11 101q-43 134 -274 768h-6q-205 -571 -264 -758q-29 -81 -9 -109t131 -46v-72h-456l2 72q94 12 135 52t84 148t192 483q150 374 228 578l106 29q332 -910 387 -1052t99 -185t131 -53v-72z" />
    <glyph glyph-name="Mu" unicode="&#x39c;" horiz-adv-x="1818" 
d="M1761 0h-606v72q115 12 141 45t23 174l-4 788h-10l-453 -1065h-57l-418 1045h-8l-25 -535q-12 -240 -3 -318t46 -102q37 -23 141 -32v-72h-491v72q84 8 120 36t46 82q27 143 43 388l33 403q12 176 -16 221t-159 58v71h424l396 -897l401 897h412v-71q-121 -12 -147 -43
t-21 -160l18 -766q4 -141 30 -174t144 -45v-72z" />
    <glyph glyph-name="Nu" unicode="&#x39d;" horiz-adv-x="1515" 
d="M1483 1331v-71q-84 -4 -120 -31t-44 -96q-18 -190 -19 -340v-813h-98l-852 1019h-6v-460q0 -168 16 -332q8 -72 48 -102t149 -33v-72h-502v72q86 6 125 34t45 95q20 168 21 338v428q0 104 -7 144t-36 75q-47 61 -170 74v71h379l782 -899h8v361q0 98 -16 335q-8 68 -50 97
t-153 35v71h500z" />
    <glyph glyph-name="Xi" unicode="&#x39e;" horiz-adv-x="1318" 
d="M918 219q91 1 119 19t44 27t32 50q17 41 38 93h68l-25 -408h-1063l-27 408h70q58 -149 95 -164q59 -25 139 -25h510zM807 590h-291q-86 0 -108 -22t-39 -111h-68v467h68q16 -86 39 -106t110 -21h289q81 -1 105 21t38 106h70l2 -463h-72q-14 85 -38 107t-105 22zM393 1124
q-87 0 -113 -30t-55 -133h-67l14 370h979l16 -370h-69q-27 106 -51 135q-25 29 -113 28h-541z" />
    <glyph glyph-name="Omicron" unicode="&#x39f;" horiz-adv-x="1568" 
d="M778 1276q-170 0 -274 -157t-104 -423t113 -453q114 -187 304 -188q154 -1 253 147t99 435t-110 463q-111 176 -281 176zM805 1362q285 0 481 -192t197 -502q0 -312 -202 -506t-504 -193q-303 0 -497 199t-194 489q0 289 192 497t527 208z" />
    <glyph glyph-name="Pi" unicode="&#x3a0;" horiz-adv-x="1558" 
d="M1489 1331v-71q-125 -10 -152 -41t-26 -162v-785q-1 -130 27 -160t151 -40v-72h-617v72q113 10 139 42t25 158v899q0 47 -12 59t-59 11h-371q-47 0 -59 -12t-13 -62v-895q0 -126 25 -158t129 -42v-72h-604v72q120 10 148 42t28 158v785q0 129 -29 161t-153 42v71h1423z
" />
    <glyph glyph-name="Rho" unicode="&#x3a1;" horiz-adv-x="1226" 
d="M518 1167v-532q98 -40 181 -7q172 62 169 316q0 160 -74 234q-75 74 -182 73q-50 1 -72 -19t-22 -65zM88 1331h563q248 0 359 -80q152 -102 152 -298t-120 -301q-150 -132 -385 -132l-139 33v-281q0 -128 31 -160t164 -42v-70h-637v70q116 10 144 42t28 160v785
q0 129 -26 160t-134 43v71z" />
    <glyph glyph-name="Sigma" unicode="&#x3a3;" horiz-adv-x="1253" 
d="M61 0v51l512 570l-487 657v53h1001q6 -88 23 -338l-72 -10q-23 82 -71 170q-27 49 -71 69t-136 19h-303l362 -491l-465 -529h516q113 0 162 38t103 159l71 -15l-80 -403h-1065z" />
    <glyph glyph-name="Tau" unicode="&#x3a4;" horiz-adv-x="1312" 
d="M248 1331h823q74 0 119 51h49q5 -157 23 -397l-74 -4q-37 158 -87 209t-210 51h-94v-969q-1 -130 31 -160t169 -40v-72h-667v72q131 10 162 41t30 159v969h-69q-115 0 -162 -13t-74 -42q-45 -47 -86 -207h-74q24 382 25 403h49q23 -33 47 -42t70 -9z" />
    <glyph glyph-name="Upsilon" unicode="&#x3a5;" horiz-adv-x="1363" 
d="M1006 0h-652v74q131 10 161 38t30 152v139q0 301 -74 482q-133 330 -401 329q-25 0 -58 -6l-12 64q59 34 146 62t157 28q190 0 293 -139q53 -72 85 -192q32 -121 39 -195t15 -207h17q18 153 76 311t149 268q129 154 266 154q39 0 71 -40t44 -87l-4 -18h-29
q-76 1 -168 -59t-172 -187q-166 -266 -166 -570v-137q0 -70 3 -102t28 -52q26 -22 54 -26t102 -10v-74z" />
    <glyph glyph-name="Phi" unicode="&#x3a6;" horiz-adv-x="1611" 
d="M938 1098v-838q157 29 237 138t78 282q0 284 -211 385q-51 25 -104 33zM360 688q0 -202 96 -306t218 -122v838q-109 -17 -202 -101q-50 -45 -81 -125t-31 -184zM1067 1348v-70q-86 -8 -108 -24t-21 -78q194 -8 378 -112q95 -54 154 -152q60 -98 60 -216q1 -304 -288 -439
q-146 -68 -304 -75q0 -66 22 -85t107 -27v-70h-522v70q85 8 107 27t22 85q-193 4 -377 110q-94 54 -155 152q-60 98 -60 226t60 229t154 157q188 112 378 120q0 59 -20 76t-99 26v70h512z" />
    <glyph glyph-name="Chi" unicode="&#x3a7;" horiz-adv-x="1419" 
d="M1432 0h-658v72q94 16 110 44q15 28 -20 77q-6 8 -217 366q-145 -215 -225 -360q-34 -67 -16 -89t124 -38v-72h-514v72q160 18 244 112q213 270 334 455q-220 365 -278 456t-111 123t-154 42v71h619v-71q-80 -18 -96 -41t10 -58q33 -61 184 -309q100 133 184 287
q33 55 16 79t-114 42v71h494v-71q-102 -14 -156 -41t-114 -99q-62 -72 -257 -340q178 -287 340 -538q61 -96 111 -128t160 -42v-72z" />
    <glyph glyph-name="Psi" unicode="&#x3a8;" horiz-adv-x="1613" 
d="M940 268q0 -122 28 -154t140 -44v-70h-610v70q112 12 140 44t28 154v271q-333 18 -451 217q-39 66 -55 186l-19 129q-16 125 -38 157t-74 52l18 70q227 -16 303 -105q27 -31 42 -73t32 -138l20 -123q27 -160 69 -216t153 -70v436q0 123 -27 155t-131 44v71h588v-71
q-104 -12 -130 -44t-26 -155v-436q109 14 151 71t72 226l21 110q16 92 36 138q66 159 347 180l16 -70q-61 -25 -85 -68t-40 -141l-24 -139q-20 -118 -60 -182q-119 -194 -434 -211v-271z" />
    <glyph glyph-name="uni03A9" unicode="&#x3a9;" horiz-adv-x="1576" 
d="M795 1276q-170 0 -260 -141t-93 -404q0 -200 77 -382t151 -318l-15 -31h-532l-33 336h64q32 -78 62 -97t103 -20h152q-332 240 -332 519q-1 280 185 452t473 172t469 -170t182 -440q0 -186 -129 -332q-69 -76 -101 -106t-112 -95h176q68 -1 96 19t60 98h63l-45 -336h-522
l-19 29q231 422 232 723q0 250 -91 387t-261 137z" />
    <glyph glyph-name="Iotadieresis" unicode="&#x3aa;" horiz-adv-x="774" 
d="M172 1696q57 0 97 -40t40 -96t-41 -96t-97 -41q-56 0 -97 40q-41 41 -41 97t41 96t98 40zM602 1696q57 0 97 -39t40 -96t-40 -97t-97 -41q-57 0 -98 40q-41 41 -41 97t41 96t98 40zM692 0h-614v72q114 10 142 42t28 158v785q0 129 -28 161t-142 42v71h614v-71
q-114 -10 -142 -42t-28 -161v-785q0 -126 28 -158t142 -42v-72z" />
    <glyph glyph-name="Upsilondieresis" unicode="&#x3ab;" horiz-adv-x="1363" 
d="M516 1696q57 0 98 -40t41 -96t-41 -96t-98 -41q-57 0 -98 40q-41 41 -41 97t41 96t98 40zM946 1696q57 0 98 -40t41 -96t-41 -96t-97 -41q-56 0 -97 40q-41 41 -41 97t40 96t97 40zM1006 0h-652v74q131 10 161 38t30 152v139q0 301 -74 482q-133 330 -401 329
q-25 0 -58 -6l-12 64q59 34 146 62t157 28q190 0 293 -139q53 -72 85 -192q32 -121 39 -195t15 -207h17q18 153 76 311t149 268q129 154 266 154q39 0 71 -40t44 -87l-4 -18h-29q-76 1 -168 -59t-172 -187q-166 -266 -166 -570v-137q0 -70 3 -102t28 -52q26 -22 54 -26
t102 -10v-74z" />
    <glyph glyph-name="alphatonos" unicode="&#x3ac;" horiz-adv-x="1099" 
d="M698 1389l-153 -371l-68 -2q6 358 6 366q12 14 92 26t107 5zM453 815q-53 0 -95 -91q-42 -92 -43 -230t57 -238t125 -100t117 76t52 202v53q0 143 -66 235t-147 93zM877 -25q-162 0 -203 215h-4q-125 -215 -287 -215q-119 0 -220 125t-101 286t72 283q73 121 188 195
t177 74t112 -50t81 -130h6q8 49 23 82q31 26 97 54t116 38l33 -21q-23 -63 -47 -216t-23 -281q0 -128 29 -192q28 -62 70 -62t79 28l33 -51q-32 -76 -98 -119t-133 -43z" />
    <glyph glyph-name="epsilontonos" unicode="&#x3ad;" horiz-adv-x="874" 
d="M635 1389l-154 -371l-67 -2q10 283 8 366q10 14 91 26t105 5zM506 426q-145 0 -146 -111q0 -80 56 -128t139 -48q141 0 254 129l49 -53q-147 -240 -416 -240q-162 0 -267 75t-105 202q0 96 66 143q67 47 188 80v4q-109 19 -163 67t-55 132q0 116 115 184t273 68t236 -47
q77 -47 77 -115q0 -37 -35 -68t-74 -28q-35 -2 -53 39q-29 69 -59 103t-83 34q-54 0 -89 -43t-35 -109t36 -101q36 -36 105 -36l142 8l10 -18l-51 -131q-70 8 -115 8z" />
    <glyph glyph-name="etatonos" unicode="&#x3ae;" horiz-adv-x="1085" 
d="M709 1389l-154 -371l-66 -2q6 354 7 366q10 14 91 26t105 5zM694 565q0 205 -141 205q-28 0 -45 -6l-24 -9t-21 -11q-11 -8 -25 -18q-13 -9 -22 -17v-709q-88 -8 -269 -25q8 131 9 271v385q0 89 -16 111t-93 42v60q31 16 150 48t184 38q35 -41 35 -142q28 22 114 82
t158 60q258 0 258 -352v-246l10 -813l-16 -19q-47 0 -131 28t-129 62q14 770 14 975z" />
    <glyph glyph-name="iotatonos" unicode="&#x3af;" horiz-adv-x="571" 
d="M438 1389l-153 -371l-68 -2q10 283 8 366q10 14 91 26t106 5zM324 -25q-80 1 -132 55t-53 181v672l262 49v-672q0 -129 76 -129q41 0 76 16l20 -59q-133 -113 -249 -113z" />
    <glyph glyph-name="upsilondieresistonos" unicode="&#x3b0;" horiz-adv-x="980" 
d="M231 1071q-51 0 -83 32t-32 83t34 88t82 37t81 -38t33 -87t-32 -82t-83 -33zM635 1384l-186 -368l-64 16q18 125 49 354q12 8 92 18t99 7zM730 1071q-50 0 -83 33t-33 82t34 87t82 38t82 -37t34 -87t-33 -83t-83 -33zM563 121q88 0 132 85t44 283q1 277 -151 379v25
q8 10 53 23t74 14q71 0 137 -97t66 -272q0 -231 -138 -408t-325 -178q-129 0 -211 76t-82 228l2 350q0 133 -86 133q-33 0 -58 -8l-18 63q45 35 127 74t152 39q143 0 143 -228l-2 -411q0 -78 41 -124t100 -46z" />
    <glyph glyph-name="alpha" unicode="&#x3b1;" horiz-adv-x="1099" 
d="M453 815q-53 0 -95 -91q-42 -92 -43 -230t57 -238t125 -100t117 76t52 202v53q0 143 -66 235t-147 93zM877 -25q-162 0 -203 215h-4q-125 -215 -287 -215q-119 0 -220 125t-101 286t72 283q73 121 188 195t177 74t112 -50t81 -130h6q8 49 23 82q31 26 97 54t116 38
l33 -21q-23 -63 -47 -216t-23 -281q0 -128 29 -192q28 -62 70 -62t79 28l33 -51q-32 -76 -98 -119t-133 -43z" />
    <glyph glyph-name="beta" unicode="&#x3b2;" horiz-adv-x="1095" 
d="M139 735q0 207 38 337t126 222q137 146 295 146t245 -85t87 -210t-81 -205q-53 -52 -140 -115q123 -20 211 -94q115 -94 114 -264q0 -115 -61 -215t-147 -158t-167 -90q-81 -33 -139 -33t-137 74q1 -62 27 -522l-27 -23q-67 2 -141 29t-103 74v1132zM516 1333
q-96 0 -122 -121q-26 -120 -26 -444t15 -606q101 -68 197 -68t145 56t49 210t-80 243t-188 89h-19q-15 2 -16 0l39 133q90 12 137 47q57 54 57 182t-56 204t-132 75z" />
    <glyph glyph-name="gamma" unicode="&#x3b3;" horiz-adv-x="1032" 
d="M309 930q133 0 221 -250q74 -195 109 -514h8q41 76 99 247t59 287q0 49 -33 125q-13 43 68 85q40 22 74 22t54 -40t21 -106q0 -113 -93 -311q-30 -61 -116 -224t-123 -265q25 -199 31 -381q-37 -31 -123 -67t-141 -38l-35 31q3 56 42 217q40 162 46 195q2 131 -50 327
t-151 348q-57 88 -103 116t-136 16l-14 55q174 125 286 125z" />
    <glyph glyph-name="delta" unicode="&#x3b4;" horiz-adv-x="1042" 
d="M721 344q0 118 -23 188q-22 70 -68 130t-71 87q-25 26 -72 68q-141 -74 -141 -375q0 -166 60 -276t144 -109q85 0 128 85t43 202zM410 1260q0 -27 194 -207q27 -27 41 -39q180 -160 258 -281t78 -276q0 -225 -137 -353t-339 -129q-202 1 -323 135t-121 311
q-1 177 101 287t270 160q-182 186 -182 288t107 193q108 91 240 91t225 -82t116 -176l-23 -43q-188 162 -415 161q-90 0 -90 -40z" />
    <glyph glyph-name="epsilon" unicode="&#x3b5;" horiz-adv-x="874" 
d="M506 426q-145 0 -146 -111q0 -80 56 -128t139 -48q141 0 254 129l49 -53q-147 -240 -416 -240q-162 0 -267 75t-105 202q0 96 66 143q67 47 188 80v4q-109 19 -163 67t-55 132q0 116 115 184t273 68t236 -47q77 -47 77 -115q0 -37 -35 -68t-74 -28q-35 -2 -53 39
q-29 69 -59 103t-83 34q-54 0 -89 -43t-35 -109t36 -101q36 -36 105 -36l142 8l10 -18l-51 -131q-70 8 -115 8z" />
    <glyph glyph-name="zeta" unicode="&#x3b6;" horiz-adv-x="784" 
d="M745 1409q43 0 46 -35q0 -39 -25 -92t-57 -72q-84 -53 -195 -55q-94 -104 -146 -271q-52 -166 -54 -320t37 -226q38 -72 126 -100l99 -33q82 -27 130 -77t48 -153q0 -154 -172 -325l-60 35q41 90 41 152t-33 98t-114 61q-23 8 -63 21t-58 20q-225 80 -225 401
q0 206 99 396t243 329q-117 13 -186 61t-79 113q0 29 31 73t74 77l51 -19q-12 -90 50 -150t134 -65q170 156 258 156z" />
    <glyph glyph-name="eta" unicode="&#x3b7;" horiz-adv-x="1085" 
d="M694 565q0 205 -141 205q-28 0 -45 -6l-24 -9t-21 -11q-11 -8 -25 -18q-13 -9 -22 -17v-709q-88 -8 -269 -25q8 131 9 271v385q0 89 -16 111t-93 42v60q31 16 150 48t184 38q35 -41 35 -142q28 22 114 82t158 60q258 0 258 -352v-246l10 -813l-16 -19q-47 0 -131 28
t-129 62q14 770 14 975z" />
    <glyph glyph-name="theta" unicode="&#x3b8;" horiz-adv-x="1042" 
d="M530 55q175 0 179 625h-373q2 -270 55 -448t139 -177zM524 1360q-84 0 -134 -165t-54 -398h371q-16 563 -183 563zM781 1337q196 -194 196 -630t-204 -629q-108 -102 -258 -102q-149 0 -253 102q-196 194 -196 627q0 311 123 523q124 212 339 212q150 0 253 -103z" />
    <glyph glyph-name="iota" unicode="&#x3b9;" horiz-adv-x="571" 
d="M324 -25q-80 1 -132 55t-53 181v672l262 49v-672q0 -129 76 -129q41 0 76 16l20 -59q-133 -113 -249 -113z" />
    <glyph glyph-name="kappa" unicode="&#x3ba;" horiz-adv-x="1040" 
d="M147 279v378q0 70 -16 87t-94 38v58q33 14 157 49t181 41q25 -33 24 -185v-282q159 217 269 342t190 125q53 0 84 -33t31 -85t-41 -89q-18 -14 -51 -1t-72 13q-100 0 -197 -129q37 -80 107 -202t124 -196t95 -72q41 0 78 16l24 -56q-96 -121 -243 -121q-59 0 -106 29
q-46 29 -95 109q-4 8 -154 297l-43 -58v-352l-258 -25q6 92 6 304z" />
    <glyph glyph-name="lambda" unicode="&#x3bb;" horiz-adv-x="1048" 
d="M160 1282q-45 0 -80 -14l-19 55q123 117 236 117t181 -117t178 -505t166 -544t132 -157q37 0 60 8l22 -59q-111 -90 -260 -91q-92 0 -141 78t-121 338t-82 295q-147 -487 -213 -668l-168 -43l-20 29q229 455 358 850q-39 140 -71 240t-73 144q-40 44 -85 44z" />
    <glyph glyph-name="uni03BC" unicode="&#x3bc;" horiz-adv-x="1101" 
d="M141 676q0 117 -8 207l262 49q6 -59 6 -234v-352q0 -104 44 -156t109 -51q65 0 124 66v678l260 49v-674q0 -133 78 -133q30 0 63 16l25 -57q-33 -45 -95 -77t-141 -32q-150 0 -184 142h-4q-117 -141 -226 -141t-163 87h-4v-30q1 -102 25 -264t46 -242l-30 -27
q-46 4 -102 29t-85 57q-4 20 -4 102l4 453v535z" />
    <glyph glyph-name="nu" unicode="&#x3bd;" horiz-adv-x="993" 
d="M319 930q55 0 95 -48t81 -165q40 -117 90 -279t54 -174q135 244 135 395q0 76 -45 144q-16 20 -8 45q16 34 50 58t75 24t72 -46q89 -133 -112 -495q-50 -90 -149 -250l-96 -164h-76q-170 493 -215 603t-77 144q-33 34 -73 34t-77 -6l-16 61q65 47 151 83t141 36z" />
    <glyph glyph-name="xi" unicode="&#x3be;" horiz-adv-x="870" 
d="M537 680q-115 0 -167 -57t-53 -150q0 -180 194 -225t260 -108q66 -62 67 -171q-2 -172 -185 -327l-63 32q49 102 49 168q0 123 -133 156q-76 23 -148 37q-293 68 -292 319q0 221 278 351q-98 27 -153 90q-54 63 -54 143t51 152t144 122q-57 10 -123 50t-78 94q0 35 33 82
t69 67l54 -24q-12 -74 35 -128t104 -61q72 45 159 78t133 33t58 -9t7 -42t-33 -73t-56 -54q-104 -45 -266 -33q-68 -58 -68 -152t54 -150t156 -56t159 6l14 -29l-94 -141q-78 10 -112 10z" />
    <glyph glyph-name="omicron" unicode="&#x3bf;" horiz-adv-x="1075" 
d="M522 850q-70 0 -119 -89t-49 -269t58 -309q58 -128 151 -128q160 0 160 353q-1 214 -53 328t-148 114zM61 432q0 230 150 364q151 134 349 134t327 -135t129 -326q0 -233 -140 -363t-351 -131t-337 137t-127 320z" />
    <glyph glyph-name="pi" unicode="&#x3c0;" horiz-adv-x="1126" 
d="M954 147q39 0 88 21l25 -55q-37 -55 -105 -97t-128 -41q-176 1 -176 263t16 481q-127 4 -238 4v-12q0 -203 -34 -426t-85 -273q-78 -33 -151 -37l-19 41q84 129 128 344t44 367q-160 0 -262 -63l-34 53q29 39 48 59t66 60q95 80 273 75q449 -6 504 -6q56 1 76 11t38 51
l62 -11q-4 -68 -20 -138t-34 -93q-37 -16 -149 -10q-12 -139 -8 -414q2 -154 75 -154z" />
    <glyph glyph-name="rho" unicode="&#x3c1;" horiz-adv-x="1064" 
d="M745 414q-1 168 -71 284t-172 117q-70 0 -94 -62q-24 -61 -22 -223q1 -162 9 -350q84 -96 161 -96t133 81t56 249zM606 930q184 0 290 -123t108 -295q0 -98 -35 -185q-63 -156 -201 -248t-256 -104q-63 0 -117 37q14 -367 6 -405q-19 -33 -109 -68t-153 -39l-10 27
q12 53 12 328l-4 536q0 283 189 426q141 113 280 113z" />
    <glyph glyph-name="uni03C2" unicode="&#x3c2;" horiz-adv-x="841" 
d="M451 799q-166 -1 -166 -265q0 -128 50 -194t154 -92q39 -8 99 -27q106 -29 158 -83t52 -156t-64 -190t-130 -130l-53 39q59 74 59 166q0 47 -44 85t-132 56l-131 33q-242 68 -242 365q0 250 226 413q160 111 309 111q92 0 160 -41q45 -31 45 -81t-33 -86t-61 -35t-68 36
q-106 76 -188 76z" />
    <glyph glyph-name="sigma" unicode="&#x3c3;" horiz-adv-x="1081" 
d="M553 778q-97 0 -157 -88t-60 -251t55 -273t135 -109q80 0 134 87q52 87 52 296t-63 287q-43 51 -96 51zM906 907q38 1 63 11t57 47l57 -25q-31 -164 -94 -201q-88 -4 -244 25l-4 -4q223 -113 223 -327t-129 -336q-130 -122 -334 -122q-204 -1 -322 137t-118 320
q0 238 159 365t403 121q45 -2 104 -4t100 -5q41 -2 79 -2z" />
    <glyph glyph-name="tau" unicode="&#x3c4;" horiz-adv-x="944" 
d="M678 145q43 0 88 21l25 -57q-37 -53 -106 -93t-136 -41q-191 0 -191 275t19 479q-129 4 -198 -9t-128 -61l-35 54q33 57 65 95q33 38 107 71t161 31q319 -6 382 -6q61 0 83 10t40 49l59 -9q-29 -186 -49 -225q-25 -10 -149 -10q-46 4 -127 4q-12 -139 -8 -428
q2 -90 28 -120t70 -30z" />
    <glyph glyph-name="upsilon" unicode="&#x3c5;" horiz-adv-x="980" 
d="M563 121q88 0 132 85t44 283q1 277 -151 379v25q8 10 53 23t74 14q71 0 137 -97t66 -272q0 -231 -138 -408t-325 -178q-129 0 -211 76t-82 228l2 350q0 133 -86 133q-33 0 -58 -8l-18 63q45 35 127 74t152 39q143 0 143 -228l-2 -411q0 -78 41 -124t100 -46z" />
    <glyph glyph-name="phi" unicode="&#x3c6;" horiz-adv-x="1249" 
d="M975 464q-1 174 -61 276q-60 100 -115 100q-29 0 -38 -26t-9 -101q8 -408 8 -629q82 8 148 107t67 273zM191 117q-130 127 -130 330t148 334q124 109 301 173l29 -63q-205 -123 -205 -381q0 -166 59 -272t142 -136q-9 268 -7 452t92 280t224 96q135 0 239 -122
q105 -122 105 -324t-126 -327q-126 -126 -300 -165l4 -381q-10 -39 -82 -74t-137 -37l-17 21q8 88 5 459q-213 10 -344 137z" />
    <glyph glyph-name="chi" unicode="&#x3c7;" horiz-adv-x="987" 
d="M146 758q-44 0 -95 -21l-20 60q147 133 270 133q70 0 120 -58t97 -182q16 -37 44 -125t32 -96q47 96 188 416l164 45l23 -21q-164 -238 -334 -563q137 -410 193 -530t96 -150t114 -16l15 -60q-104 -90 -242 -90q-70 0 -121 45t-100 174q-23 57 -61 175t-62 188
q-88 -188 -270 -617l-31 -2q-74 33 -88 138l344 620q-140 440 -200 503q-32 34 -76 34z" />
    <glyph glyph-name="psi" unicode="&#x3c8;" horiz-adv-x="1243" 
d="M86 764q-26 0 -59 -4l-17 61q53 49 120 79t120 30q147 0 166 -223q12 -141 24 -289t50 -226t126 -102l-14 918l137 61l23 -8l-17 -981q88 8 121 66t44 146q26 208 39 347q13 140 48 172q88 88 199 119l33 -62q-80 -59 -103 -192q-49 -262 -75 -365q-47 -180 -187 -276
q-68 -41 -121 -49l-4 -473l-24 -13q-27 4 -45 18q-48 36 -54 201l-4 258q-188 7 -283 89t-128 270q-8 53 -17 110q-8 57 -18 157t-32 130q-22 31 -48 31z" />
    <glyph glyph-name="omega" unicode="&#x3c9;" horiz-adv-x="1323" 
d="M1016 930q80 0 163 -113t83 -282q0 -244 -146 -402t-287 -158q-76 0 -134 42t-87 116q-125 -158 -227 -158q-133 0 -226 123t-94 303q0 348 357 537l41 -49q-131 -152 -131 -412q0 -160 52 -244t120 -83q40 0 68 40t26 123q0 12 -27 355l250 53l25 -19q-23 -369 -23 -395
q-2 -80 29 -130t92 -50q147 0 147 309q0 170 -61 280t-131 154v27q10 9 48 21t73 12z" />
    <glyph glyph-name="iotadieresis" unicode="&#x3ca;" horiz-adv-x="571" 
d="M501 1063q-56 0 -98 40q-41 40 -41 96t41 96t99 40t97 -40q40 -40 40 -96t-41 -96t-97 -40zM80 1063q-57 0 -98 40t-41 96t41 96t99 40t97 -39t39 -96t-40 -97t-97 -40zM324 -25q-80 1 -132 55t-53 181v672l262 49v-672q0 -129 76 -129q41 0 76 16l20 -59
q-133 -113 -249 -113z" />
    <glyph glyph-name="upsilondieresis" unicode="&#x3cb;" horiz-adv-x="980" 
d="M702 1335q58 0 98 -40t40 -96t-42 -96t-97 -40q-56 0 -97 40t-41 96t41 96t98 40zM280 1063q-56 0 -98 40q-41 40 -41 96t41 96q40 40 98 40t98 -40t40 -96t-41 -96t-97 -40zM563 121q88 0 132 85t44 283q1 277 -151 379v25q8 10 53 23t74 14q71 0 137 -97t66 -272
q0 -231 -138 -408t-325 -178q-129 0 -211 76t-82 228l2 350q0 133 -86 133q-33 0 -58 -8l-18 63q45 35 127 74t152 39q143 0 143 -228l-2 -411q0 -78 41 -124t100 -46z" />
    <glyph glyph-name="omicrontonos" unicode="&#x3cc;" horiz-adv-x="1075" 
d="M700 1389l-151 -371l-68 -2q6 358 6 366q13 14 93 26t106 5zM522 850q-70 0 -119 -89t-49 -269t58 -309q58 -128 151 -128q160 0 160 353q-1 214 -53 328t-148 114zM61 432q0 230 150 364q151 134 349 134t327 -135t129 -326q0 -233 -140 -363t-351 -131t-337 137
t-127 320z" />
    <glyph glyph-name="upsilontonos" unicode="&#x3cd;" horiz-adv-x="980" 
d="M657 1389l-153 -371l-66 -2q6 354 6 366q10 14 92 26t105 5zM563 121q88 0 132 85t44 283q1 277 -151 379v25q8 10 53 23t74 14q71 0 137 -97t66 -272q0 -231 -138 -408t-325 -178q-129 0 -211 76t-82 228l2 350q0 133 -86 133q-33 0 -58 -8l-18 63q45 35 127 74t152 39
q143 0 143 -228l-2 -411q0 -78 41 -124t100 -46z" />
    <glyph glyph-name="omegatonos" unicode="&#x3ce;" horiz-adv-x="1323" 
d="M860 1389l-153 -371l-66 -2q6 354 6 366q12 14 92 26t107 5zM1016 930q80 0 163 -113t83 -282q0 -244 -146 -402t-287 -158q-76 0 -134 42t-87 116q-125 -158 -227 -158q-133 0 -226 123t-94 303q0 348 357 537l41 -49q-131 -152 -131 -412q0 -160 52 -244t120 -83
q40 0 68 40t26 123q0 12 -27 355l250 53l25 -19q-23 -369 -23 -395q-2 -80 29 -130t92 -50q147 0 147 309q0 170 -61 280t-131 154v27q10 9 48 21t73 12z" />
    <glyph glyph-name="uni03D0" unicode="&#x3d0;" horiz-adv-x="1060" 
d="M717 397q1 181 -59 271t-160 90t-166 -84q2 -248 64 -430t167 -183q154 0 154 336zM682 1137q0 88 -37 146t-98 58t-105 -53t-76 -179q-31 -126 -36 -329q33 14 93 45t89 45q170 85 170 267zM999 455q0 -223 -142 -351t-316 -129q-109 0 -194 38q-85 37 -137 99
q-144 170 -147 506q0 424 242 670q154 152 320 152q127 0 205 -67t79 -183t-69 -186t-205 -148q184 -25 274 -130t90 -271z" />
    <glyph glyph-name="uni03D1" unicode="&#x3d1;" horiz-adv-x="1015" 
d="M430 1346q-129 0 -129 -197q0 -147 75 -237t191 -91q72 0 135 25q-35 248 -112 374q-78 126 -160 126zM242 573q106 0 144 -48t50 -134q2 -6 14 -82q12 -75 20 -109q9 -34 36 -65t72 -31q147 0 151 420q4 127 -16 250q-129 -106 -250 -106q-174 0 -274 98q-99 98 -99 271
t127 288t285 115q200 0 326 -184t126 -531q0 -195 -59 -372t-181 -277t-235 -101q-229 0 -284 256q-7 25 -13 62t-10 57q-14 99 -135 74l-17 61q116 88 222 88z" />
    <glyph glyph-name="uni03D5" unicode="&#x3d5;" horiz-adv-x="1236" 
d="M946 431q0 312 -233 390l-8 -739q97 14 169 100t72 249zM1176 465q0 -109 -41 -196t-111 -142q-138 -108 -322 -137l-6 -492l-14 -6q-36 4 -58 16t-44 68t-21 158l-2 250q-221 10 -358 135t-137 333t174 341q96 76 223 114l28 -65q-143 -100 -143 -369q0 -156 57 -257
t152 -128l2 842l-2 368l149 70l23 -10l-8 -424q205 -29 332 -154t127 -315z" />
    <glyph glyph-name="uni03D6" unicode="&#x3d6;" horiz-adv-x="1368" 
d="M725 1200q155 0 273 -50q214 -91 285 -328q32 -103 32 -235t-47 -256q-82 -218 -263 -315q-77 -41 -149 -41t-133 44t-92 118q-49 -63 -119 -112t-133 -50q-133 0 -224 124t-92 304q0 342 361 535l41 -57q-137 -156 -137 -404q0 -159 54 -241t122 -82q45 0 80 40t32 121
q0 41 -24 353l250 53l24 -19q-23 -371 -22 -393q-2 -76 36 -126t99 -50q162 0 162 332q0 260 -135 433t-404 173q-163 0 -315 -72l-27 64q227 137 465 137z" />
    <glyph glyph-name="uni03D9" unicode="&#x3d9;" horiz-adv-x="1085" 
d="M526 844q-72 0 -122 -86t-50 -263t58 -305t153 -129q166 0 166 347q-1 208 -55 322t-150 114zM562 930q200 0 331 -135t131 -325t-97 -314q-97 -123 -251 -160v-150q0 -102 -23 -149q-47 -102 -198 -162l-31 21q6 178 6 225v207q-176 34 -272 160t-97 282q0 232 151 366
q150 134 350 134z" />
    <glyph glyph-name="uni03DB" unicode="&#x3db;" horiz-adv-x="858" 
d="M702 711q-50 1 -136 33t-150 32t-106 -59t-42 -182q0 -232 230 -287q196 -43 253 -102q56 -60 56 -174t-94 -212q-94 -96 -187 -96q-38 0 -64 24t-26 66t43 82q14 14 44 -1t69 -15q84 0 84 61q0 73 -211 119q-115 26 -156 37q-244 70 -243 362q0 129 62 241t167 185
q147 104 272 105q49 0 127 -12q64 -6 99 49l55 -19q-18 -127 -57 -182t-89 -55z" />
    <glyph glyph-name="uni03DD" unicode="&#x3dd;" horiz-adv-x="962" 
d="M465 805h-45v-529q172 0 401 21l10 -29l-75 -106q-76 10 -338 18v-200q0 -236 -69 -346t-249 -156l-12 16q70 115 70 463v948h377q276 0 356 51l27 -14l-80 -162q-123 25 -373 25z" />
    <glyph glyph-name="uni03E1" unicode="&#x3e1;" horiz-adv-x="1421" 
d="M424 1366q188 0 343 -51q284 -94 426 -325q142 -232 142 -503q0 -270 -98 -467t-254 -362l-53 41q84 131 145 323t62 402q0 31 -4 104q-299 -145 -496 -346q-96 -96 -96 -188l-2 -17q-23 -6 -49 -6q-26 -1 -51 17q-50 36 -43 125t114 184q78 73 190 145t195 115
q82 43 217 109q-24 110 -66 190t-75 111q-162 -113 -392 -233t-297 -139t-123 9t-77 68l4 26q465 125 817 353q-213 205 -577 204q-99 0 -160 -10l-10 51l94 37q92 33 174 33z" />
    <glyph glyph-name="uni03F0" unicode="&#x3f0;" horiz-adv-x="1128" 
d="M672 213q0 127 71 309l-10 8q-43 -49 -132 -152t-185 -213t-193 -188l-41 -2q-66 17 -98 73t-27 112q59 25 160 104q59 90 59 223t-39 196q-39 62 -95 62t-99 -22l-25 53q143 154 273 154q76 0 120 -53t44 -156t-49 -232q-14 -37 -50 -122l11 -2q136 143 237 275t135 173
q35 41 44 52q42 52 85 65q111 4 154 -113q14 -31 2 -57q-139 -104 -147 -113q-49 -102 -49 -226q0 -125 35 -187q37 -62 93 -62t113 47l33 -57q-39 -78 -105 -132t-147 -55q-178 0 -178 238z" />
    <glyph glyph-name="uni0401" unicode="&#x401;" horiz-adv-x="1189" 
d="M391 1696q57 0 98 -40t41 -96t-41 -96t-97 -41q-56 0 -97 40q-41 41 -41 97t40 96t97 40zM821 1696q57 0 99 -40t41 -96q0 -56 -41 -96q-42 -40 -98 -41q-56 0 -97 40q-41 41 -41 97t40 96t97 40zM1047 1331q0 -42 20 -307l-74 -10q-37 129 -85 178t-203 49h-99
q-57 0 -70 -11t-14 -61v-434h137q131 0 169 24t59 130h74v-414h-74q-19 109 -57 133t-171 23h-137v-355q0 -143 48 -165q48 -23 199 -23t214 66q56 65 115 200l71 -14q-18 -141 -71 -340h-1045v72q133 10 164 41t31 159v787q0 131 -27 161t-139 40v71h965z" />
    <glyph glyph-name="uni0402" unicode="&#x402;" horiz-adv-x="1497" 
d="M49 995l23 387h53q27 -33 49 -42t70 -9h813q68 0 117 51h53q10 -225 22 -378l-78 -7q-27 137 -75 193q-27 31 -67 41t-138 10h-123v-491q141 70 248 69q156 0 278 -127q122 -126 123 -364q0 -238 -142 -404t-357 -256l-39 68q88 53 163 164q101 148 101 401
q0 179 -73 285t-202 106q-45 0 -100 -18v-363q0 -113 13 -157t46 -60q33 -14 123 -20v-74h-645v74q74 6 104 11q29 5 53 32t28 67t4 127v930h-62q-119 0 -166 -12q-46 -12 -78 -63t-61 -171h-78z" />
    <glyph glyph-name="uni0403" unicode="&#x403;" horiz-adv-x="1093" 
d="M889 1546l-6 -24l-422 -123l-31 57q297 211 354 250q29 -10 65 -64t40 -96zM727 1241h-121q-61 0 -71 -9t-11 -67v-880q0 -141 29 -174t164 -41v-70h-637v70q116 10 142 43t26 172v766q0 137 -26 168t-142 41v71h950q1 -161 19 -315l-78 -15q-51 154 -72 185t-55 43
t-117 12z" />
    <glyph glyph-name="uni0404" unicode="&#x404;" horiz-adv-x="1353" 
d="M1245 354q27 0 45 -19t19 -52q0 -84 -105 -177q-147 -137 -405 -137q-181 -1 -323 59t-225 158q-167 197 -167 463q0 317 217 515t553 198q199 0 377 -72q16 -106 37 -315l-70 -14q-47 159 -134 237t-233 78q-186 0 -305 -142t-127 -391l721 19v-137l-723 16
q10 -258 133 -418t297 -162q207 0 320 205q49 88 98 88z" />
    <glyph glyph-name="uni0405" unicode="&#x405;" horiz-adv-x="1034" 
d="M549 1278q-86 0 -142 -57q-57 -57 -57 -143t58 -143q58 -58 216 -136t250 -175t93 -239q-1 -178 -139 -297t-359 -119q-111 1 -189 23t-143 51q-29 80 -59 348l72 23q24 -78 66 -154t122 -142t172 -65q92 -1 147 59t55 151t-58 155q-60 64 -185 129q-178 90 -267 183
t-89 231q0 173 128 287t341 114q143 0 284 -55q4 -43 18 -143l21 -150l-69 -17q-94 281 -287 281z" />
    <glyph glyph-name="uni0406" unicode="&#x406;" horiz-adv-x="774" 
d="M692 0h-614v72q114 10 142 42t28 158v785q0 129 -28 161t-142 42v71h614v-71q-114 -10 -142 -42t-28 -161v-785q0 -126 28 -158t142 -42v-72z" />
    <glyph glyph-name="uni0407" unicode="&#x407;" horiz-adv-x="774" 
d="M172 1696q57 0 97 -40t40 -96t-41 -96t-97 -41q-56 0 -97 40q-41 41 -41 97t41 96t98 40zM602 1696q57 0 97 -39t40 -96t-40 -97t-97 -41q-57 0 -98 40q-41 41 -41 97t41 96t98 40zM692 0h-614v72q114 10 142 42t28 158v785q0 129 -28 161t-142 42v71h614v-71
q-114 -10 -142 -42t-28 -161v-785q0 -126 28 -158t142 -42v-72z" />
    <glyph glyph-name="uni0408" unicode="&#x408;" horiz-adv-x="749" 
d="M692 1331v-71q-110 -10 -136 -42t-26 -161v-676q0 -209 -40 -345t-158 -236t-260 -134l-31 76q164 70 192 248q23 139 23 399v668q0 129 -29 161t-147 42v71h612z" />
    <glyph glyph-name="uni0409" unicode="&#x409;" horiz-adv-x="1855" 
d="M1081 283q0 -113 28 -155q29 -42 119 -42t173 77q82 77 82 248t-79 245t-224 73q-25 0 -99 -6v-440zM1159 0h-520v70q84 6 115 21t44 61t13 157v821q0 80 -9 96t-61 15h-211q-43 0 -54 -10t-11 -57q0 -827 -176 -1100q-70 -104 -148 -104t-125 18v41q76 49 123 107
q211 260 211 999q0 69 -35 93t-155 32v71h1093v-71q-87 -6 -117 -20t-42 -56q-12 -41 -13 -150v-229q123 10 199 10q240 0 371 -100t131 -289q0 -227 -195 -342q-145 -84 -428 -84z" />
    <glyph glyph-name="uni040A" unicode="&#x40a;" horiz-adv-x="2019" 
d="M1255 680v-408q0 -116 27 -152t122 -35t172 73t77 227t-78 225t-209 70h-111zM688 0h-610v72q120 10 146 42t26 173v760q0 100 -12 139t-45 53t-121 21v71h608v-71q-112 -12 -136 -44t-24 -165v-273h465v264q0 143 -23 176q-24 32 -126 42v71h591v-71q-119 -10 -145 -42
t-27 -171v-269h218q219 0 348 -98t129 -268q0 -223 -187 -332q-139 -80 -403 -80h-537v72q82 6 111 19t40 52t11 142v395h-465v-395q0 -139 26 -171t142 -42v-72z" />
    <glyph glyph-name="uni040B" unicode="&#x40b;" horiz-adv-x="1613" 
d="M1548 0h-536v72q74 8 92 36t18 125v216q0 97 -35 162q-42 85 -190 83q-74 0 -135 -26v-359q0 -111 10 -155t36 -60t93 -22v-72h-590v72q86 6 119 22t45 60t12 155v932h-92q-121 0 -162 -16q-41 -15 -67 -67t-51 -154h-76q23 285 27 378h40q27 -33 53 -42t74 -9h818
q66 0 114 51h49q4 -150 23 -372l-74 -6q-41 133 -67 173t-68 52q-43 12 -143 12h-123v-493q170 66 285 65q186 0 276 -98q74 -80 74 -244v-231q0 -106 22 -134q23 -27 129 -34v-72z" />
    <glyph glyph-name="uni040C" unicode="&#x40c;" horiz-adv-x="1415" 
d="M1059 1546l-8 -24l-422 -123l-29 57q297 211 354 250q29 -10 65 -66t40 -94zM1384 0h-233q-109 0 -166 44t-108 156t-109 273q-74 207 -246 203v-385q0 -80 3 -117q3 -38 25 -62t48 -29t92 -11v-72h-614v72q86 6 117 20t43 54t12 141v753q0 104 -12 144t-43 55
q-31 14 -117 21v71h614v-71q-84 -6 -115 -20t-41 -55q-10 -40 -12 -145v-284q164 4 243 83t175 306q98 217 242 217q57 0 91 -30t34 -68t-27 -58q-27 -18 -61 -20h-37q-60 0 -104 -43t-109 -174q-88 -176 -199 -232v-6q86 -20 150 -69t112 -144q16 -31 64 -136t84 -175
q35 -71 80 -99t124 -36v-72z" />
    <glyph glyph-name="uni040E" unicode="&#x40e;" horiz-adv-x="1353" 
d="M981 1608q1 -92 -73 -144t-202 -51q-128 0 -202 51t-74 144q0 36 24 64t66 28t60 -30q20 -30 19 -70t25 -74q26 -33 81 -33q109 0 108 111q-4 36 16 66q19 30 63 30t66 -28t23 -64zM1341 1331v-71q-104 -16 -143 -52t-84 -131q-45 -96 -181 -403t-173 -389
q-88 -193 -178 -265t-191 -71q-66 0 -115 36t-48 94t53 87q53 29 117 -12t110 -41t80 42q35 42 35 92q0 49 -31 115t-186 386t-189 386q-35 66 -67 90q-33 24 -127 36v71h571v-71l-62 -17q-57 -14 -20 -90l276 -598q162 385 204 502t34 145t-57 39l-74 19v71h446z" />
    <glyph glyph-name="uni040F" unicode="&#x40f;" horiz-adv-x="1599" 
d="M1530 0h-514q-70 0 -94 -25t-40 -93q-15 -68 -42 -304h-82q-27 236 -43 304t-44 93t-100 25h-508v74q92 6 126 21q33 15 47 57t14 147v741q0 141 -29 173t-151 42v76h614v-76q-61 -6 -88 -11t-46 -30q-18 -24 -22 -60t-4 -114v-874q0 -58 12 -68t72 -10h381q57 0 71 11
q13 11 13 69v872q0 102 -12 142t-42 54q-30 13 -114 19v76h621v-76q-88 -6 -120 -19t-45 -53t-13 -143v-741q0 -106 13 -148q13 -43 46 -57t123 -20v-74z" />
    <glyph glyph-name="uni0410" unicode="&#x410;" horiz-adv-x="1445" 
d="M799 545l-152 442h-6q-53 -140 -99 -267q-45 -126 -63 -175h320zM1407 0h-586v72q88 14 107 40q18 26 -10 102t-80 222h-394q-51 -145 -73 -219q-27 -73 -4 -103t129 -42v-72h-459l2 72q102 12 139 47t88 164l420 1052l105 27q362 -990 403 -1096t79 -144t134 -50v-72z
" />
    <glyph glyph-name="uni0411" unicode="&#x411;" horiz-adv-x="1282" 
d="M520 281q0 -117 30 -156t116 -39t165 76q80 76 80 235q0 297 -299 297q-31 0 -92 -4v-409zM602 0h-528v70q120 10 148 45t28 184v735q0 106 -13 148t-43 57q-30 14 -114 21v71h979q8 -180 18 -323l-78 -11q-35 119 -77 183q-25 35 -65 48t-130 13h-129q-58 0 -68 -10
t-10 -68v-387q94 6 213 6q223 0 350 -96t127 -268q0 -227 -186 -336q-135 -82 -422 -82z" />
    <glyph glyph-name="uni0412" unicode="&#x412;" horiz-adv-x="1304" 
d="M518 662v-383q0 -113 34 -154t124 -39t163 75t72 212q0 289 -352 289h-41zM518 743h47q147 1 216 61t69 188t-65 190t-145 63q-80 0 -100 -21q-21 -21 -22 -91v-390zM682 1331q459 0 459 -305q0 -133 -93 -205q-94 -71 -227 -98v-8q395 -47 396 -320q0 -203 -193 -307
q-156 -88 -432 -88h-520v72q120 10 148 42t28 160v783q0 129 -27 161t-137 42v71h598z" />
    <glyph glyph-name="uni0413" unicode="&#x413;" horiz-adv-x="1093" 
d="M727 1241h-121q-61 0 -71 -9t-11 -67v-880q0 -141 29 -174t164 -41v-70h-637v70q116 10 142 43t26 172v766q0 137 -26 168t-142 41v71h950q1 -161 19 -315l-78 -15q-51 154 -72 185t-55 43t-117 12z" />
    <glyph glyph-name="uni0414" unicode="&#x414;" horiz-adv-x="1390" 
d="M866 221v905q0 82 -10 98t-70 17h-215q-61 0 -72 -12t-12 -74q-1 -237 -25 -519t-77 -482q-10 -36 -2 -50t49 -14h307q79 0 103 24t24 107zM1016 0h-676q-68 0 -98 -35t-56 -141l-53 -191h-82l10 457h117q39 0 58 41q57 123 98 375t41 614q-1 70 -21 94t-102 35l-76 11
v71h1143v-71q-125 -10 -151 -42t-25 -182v-839q0 -72 10 -89t53 -18h131l-55 -457h-82l-33 215q-14 94 -43 123t-108 29z" />
    <glyph glyph-name="uni0415" unicode="&#x415;" horiz-adv-x="1189" 
d="M1047 1331q0 -42 20 -307l-74 -10q-37 129 -85 178t-203 49h-99q-57 0 -70 -11t-14 -61v-434h137q131 0 169 24t59 130h74v-414h-74q-19 109 -57 133t-171 23h-137v-355q0 -143 48 -165q48 -23 199 -23t214 66q56 65 115 200l71 -14q-18 -141 -71 -340h-1045v72
q133 10 164 41t31 159v787q0 131 -27 161t-139 40v71h965z" />
    <glyph glyph-name="uni0416" unicode="&#x416;" horiz-adv-x="2039" 
d="M2011 0h-235q-109 0 -165 44q-57 44 -99 133t-117 300q-43 119 -99 161t-141 40v-381q0 -106 11 -147q11 -40 43 -56t116 -22v-72h-610v72q117 10 143 44t27 181v381q-85 2 -145 -41t-103 -160q-102 -276 -109 -289q-45 -100 -101 -144t-165 -44h-231v72q76 8 123 40
t84 104t83 174t62 132q51 96 113 144t149 69v6q-113 45 -221 257q-52 102 -91 145q-40 43 -100 43h-36q-37 0 -62 20t-25 60t36 68q34 26 102 26q137 0 225 -209q96 -231 174 -303q53 -50 105 -68t133 -20v289q0 137 -28 169t-144 42v71h612v-71q-117 -10 -143 -42t-27 -169
v-289q158 2 242 88q43 41 78 104t90 193q94 215 235 215q59 0 94 -28t35 -70q0 -72 -86 -76h-41q-57 0 -98 -44t-105 -173q-86 -172 -202 -228v-6q88 -23 149 -71t111 -142q14 -27 61 -128t85 -176q38 -74 84 -106t124 -40v-72z" />
    <glyph glyph-name="uni0417" unicode="&#x417;" horiz-adv-x="1122" 
d="M518 670q-27 0 -82 -12t-93 -13q-39 0 -63 23q-24 24 -24 56t26 56t64 23q38 0 92 -12q55 -12 84 -13q64 2 118 62t54 176t-58 188t-158 72t-172 -87q-71 -87 -109 -216l-74 20q14 63 37 291q98 31 125 39q143 39 252 39q215 0 329 -87t115 -233q0 -70 -34 -128t-83 -91
q-86 -55 -192 -84v-10q168 -23 271 -107t104 -241q0 -203 -165 -307q-164 -104 -388 -104t-344 89q-94 72 -95 156q0 41 26 68t56 26q51 0 101 -76q86 -176 254 -180q98 -2 172 74t74 224t-65 234q-65 85 -155 85z" />
    <glyph glyph-name="uni0418" unicode="&#x418;" horiz-adv-x="1601" 
d="M1530 0h-625v72q123 10 151 44t27 175v481q0 162 11 361h-7l-524 -1024q-18 -35 -18 -80v-29h-473v72q122 10 150 46t28 181v733q0 80 -4 119t-26 65t-52 32q-30 7 -96 12v71h610v-71q-61 -6 -89 -12t-47 -30q-20 -26 -24 -63t-4 -115v-417q0 -190 -12 -408h4l528 1018
q23 37 23 70v28h469v-71q-119 -8 -148 -43t-28 -175v-751q0 -141 28 -175t148 -44v-72z" />
    <glyph glyph-name="uni0419" unicode="&#x419;" horiz-adv-x="1601" 
d="M821 1413q-129 0 -203 51t-73 144q-1 36 23 64t66 28t62 -30t18 -70t26 -74q26 -33 81 -33q106 0 107 111q-2 36 18 66t62 30t66 -28q22 -28 22 -64q0 -92 -73 -144t-202 -51zM1530 0h-625v72q123 10 151 44t27 175v481q0 162 11 361h-7l-524 -1024q-18 -35 -18 -80v-29
h-473v72q122 10 150 46t28 181v733q0 80 -4 119t-26 65t-52 32q-30 7 -96 12v71h610v-71q-61 -6 -89 -12t-47 -30q-20 -26 -24 -63t-4 -115v-417q0 -190 -12 -408h4l528 1018q23 37 23 70v28h469v-71q-119 -8 -148 -43t-28 -175v-751q0 -141 28 -175t148 -44v-72z" />
    <glyph glyph-name="uni041A" unicode="&#x41a;" horiz-adv-x="1415" 
d="M1384 0h-233q-109 0 -166 44t-108 156t-109 273q-74 207 -246 203v-385q0 -80 3 -117q3 -38 25 -62t48 -29t92 -11v-72h-614v72q86 6 117 20t43 54t12 141v753q0 104 -12 144t-43 55q-31 14 -117 21v71h614v-71q-84 -6 -115 -20t-41 -55q-10 -40 -12 -145v-284
q164 4 243 83t175 306q98 217 242 217q57 0 91 -30t34 -68t-27 -58q-27 -18 -61 -20h-37q-60 0 -104 -43t-109 -174q-88 -176 -199 -232v-6q86 -20 150 -69t112 -144q16 -31 64 -136t84 -175q35 -71 80 -99t124 -36v-72z" />
    <glyph glyph-name="uni041B" unicode="&#x41b;" horiz-adv-x="1372" 
d="M1294 0h-618v72q84 6 116 22t44 58t12 147v831q0 80 -10 96t-62 15h-221q-43 0 -55 -15t-13 -65q0 -809 -182 -1091q-67 -100 -145 -100t-129 18v47q78 53 125 108t86 144q131 289 131 848q0 69 -36 93t-151 32v71h1108v-71q-118 -8 -144 -38t-26 -143v-780
q0 -106 12 -147q12 -42 43 -58q32 -16 115 -22v-72z" />
    <glyph glyph-name="uni041C" unicode="&#x41c;" horiz-adv-x="1818" 
d="M1761 0h-606v72q115 12 141 45t23 174l-4 788h-10l-453 -1065h-57l-418 1045h-8l-25 -535q-12 -240 -3 -318t46 -102q37 -23 141 -32v-72h-491v72q84 8 120 36t46 82q27 143 43 388l33 403q12 176 -16 221t-159 58v71h424l396 -897l401 897h412v-71q-121 -12 -147 -43
t-21 -160l18 -766q4 -141 30 -174t144 -45v-72z" />
    <glyph glyph-name="uni041D" unicode="&#x41d;" horiz-adv-x="1603" 
d="M1528 1331v-71q-121 -10 -147 -40t-25 -161v-789q0 -128 26 -158t146 -40v-72h-625v72q123 10 151 41t27 159v381h-559v-381q0 -130 27 -160t141 -40v-72h-610v72q116 10 142 41t26 159v787q0 129 -28 160t-148 41v71h614v-71q-112 -10 -138 -41t-26 -160v-301h559v301
q0 129 -26 160q-27 31 -142 41v71h615z" />
    <glyph glyph-name="uni041E" unicode="&#x41e;" horiz-adv-x="1568" 
d="M778 1276q-170 0 -274 -157t-104 -423t113 -453q114 -187 304 -188q154 -1 253 147t99 435t-110 463q-111 176 -281 176zM805 1362q285 0 481 -192t197 -502q0 -312 -202 -506t-504 -193q-303 0 -497 199t-194 489q0 289 192 497t527 208z" />
    <glyph glyph-name="uni041F" unicode="&#x41f;" horiz-adv-x="1568" 
d="M1497 0h-623v72q119 10 146 44t27 183v864q1 57 -11 67t-71 11h-359q-59 0 -70 -10t-12 -62v-870q0 -106 12 -148q12 -41 43 -57q30 -16 111 -22v-72h-618v72q86 6 118 21t46 57q12 42 12 149v739q0 144 -29 178t-156 44v71h1438v-71q-125 -10 -153 -44t-27 -182v-735
q0 -106 12 -148q12 -41 45 -57t119 -22v-72z" />
    <glyph glyph-name="uni0420" unicode="&#x420;" horiz-adv-x="1226" 
d="M518 1167v-532q98 -40 181 -7q172 62 169 316q0 160 -74 234q-75 74 -182 73q-50 1 -72 -19t-22 -65zM88 1331h563q248 0 359 -80q152 -102 152 -298t-120 -301q-150 -132 -385 -132l-139 33v-281q0 -128 31 -160t164 -42v-70h-637v70q116 10 144 42t28 160v785
q0 129 -26 160t-134 43v71z" />
    <glyph glyph-name="uni0421" unicode="&#x421;" horiz-adv-x="1384" 
d="M84 649q0 317 224 515t589 198q123 0 373 -55q31 -186 47 -336l-76 -15q-88 315 -383 316q-213 0 -337 -171t-124 -431t135 -432t347 -172q241 0 401 315l72 -33q-55 -203 -115 -325q-231 -53 -405 -53t-326 58q-152 60 -242 159q-180 198 -180 462z" />
    <glyph glyph-name="uni0422" unicode="&#x422;" horiz-adv-x="1312" 
d="M248 1331h823q74 0 119 51h49q5 -157 23 -397l-74 -4q-37 158 -87 209t-210 51h-94v-969q-1 -130 31 -160t169 -40v-72h-667v72q131 10 162 41t30 159v969h-69q-115 0 -162 -13t-74 -42q-45 -47 -86 -207h-74q24 382 25 403h49q23 -33 47 -42t70 -9z" />
    <glyph glyph-name="uni0423" unicode="&#x423;" horiz-adv-x="1353" 
d="M1341 1331v-71q-104 -16 -143 -52t-84 -131q-45 -96 -181 -403t-173 -389q-88 -193 -178 -265t-191 -71q-66 0 -115 36t-48 94t53 87q53 29 117 -12t110 -41t80 42q35 42 35 92q0 49 -31 115t-186 386t-189 386q-35 66 -67 90q-33 24 -127 36v71h571v-71l-62 -17
q-57 -14 -20 -90l276 -598q162 385 204 502t34 145t-57 39l-74 19v71h446z" />
    <glyph glyph-name="uni0424" unicode="&#x424;" horiz-adv-x="1619" 
d="M1262 678q0 379 -324 409v-811q154 16 239 106t85 296zM674 981q0 49 -2 109q-154 -16 -236 -110t-82 -301q0 -208 86 -295t234 -105v702zM1077 1348v-70q-96 -6 -118 -24t-19 -89q241 -12 409 -103q189 -104 189 -380q0 -113 -36 -197t-91 -134q-142 -129 -473 -150
q2 -83 24 -103t121 -28v-70h-563v70q106 8 130 28t24 103q-598 27 -598 479t596 487q2 74 -18 89t-128 22v70h551z" />
    <glyph glyph-name="uni0425" unicode="&#x425;" horiz-adv-x="1419" 
d="M1432 0h-658v72q94 16 110 44q15 28 -20 77q-6 8 -217 366q-145 -215 -225 -360q-34 -67 -16 -89t124 -38v-72h-514v72q160 18 244 112q213 270 334 455q-220 365 -278 456t-111 123t-154 42v71h619v-71q-80 -18 -96 -41t10 -58q33 -61 184 -309q100 133 184 287
q33 55 16 79t-114 42v71h494v-71q-102 -14 -156 -41t-114 -99q-62 -72 -257 -340q178 -287 340 -538q61 -96 111 -128t160 -42v-72z" />
    <glyph glyph-name="uni0426" unicode="&#x426;" horiz-adv-x="1597" 
d="M1204 0h-1136v72q90 6 122 21t46 59t14 157v748q0 131 -28 162t-146 41v71h616v-71q-63 -6 -91 -12t-48 -28q-21 -24 -25 -58t-4 -105v-889q0 -58 10 -68t70 -10h371q59 0 71 10q11 10 11 66v856q0 86 -3 126t-25 66q-23 26 -51 33q-28 6 -95 13v71h620v-71
q-86 -6 -117 -22t-43 -59q-12 -44 -12 -157v-825q0 -72 10 -86t54 -15h131l-56 -463h-79l-35 215q-14 94 -43 123t-109 29z" />
    <glyph glyph-name="uni0427" unicode="&#x427;" horiz-adv-x="1458" 
d="M479 942q0 -283 264 -283q111 0 193 46v360q0 125 -25 155t-129 40v71h592v-71q-112 -10 -138 -41t-26 -154v-774q0 -103 12 -143t41 -55q30 -15 111 -21v-72h-622v72q128 10 156 43t28 176v330l-180 -64q-76 -27 -154 -27q-238 0 -338 132q-59 82 -59 256v167
q0 105 -29 135t-143 40v71h588v-71q-96 -8 -119 -40t-23 -155v-123z" />
    <glyph glyph-name="uni0428" unicode="&#x428;" horiz-adv-x="2045" 
d="M1978 0h-1908v72q122 10 150 39t28 159v789q0 131 -26 161t-140 40v71h561v-71q-84 -10 -103 -39t-20 -154v-901q0 -56 11 -66t73 -10h199q61 0 73 10q11 10 11 66v901q-1 121 -21 151t-98 42v71h514v-71q-82 -12 -102 -42t-21 -151v-901q0 -56 12 -66t74 -10h203
q53 0 65 12t13 64v901q0 123 -20 152t-107 41v71h567v-71q-116 -10 -142 -39t-26 -154v-801q0 -128 28 -156t152 -38v-72z" />
    <glyph glyph-name="uni0429" unicode="&#x429;" horiz-adv-x="2050" 
d="M1673 0h-1603v72q122 10 150 39t28 159v789q0 131 -26 161t-140 40v71h561v-71q-84 -10 -103 -39t-20 -154v-901q0 -56 11 -66t73 -10h199q61 0 73 10q11 10 11 66v901q-1 121 -21 151t-98 42v71h514v-71q-82 -12 -102 -42t-21 -151v-901q0 -56 12 -66t74 -10h203
q53 0 65 12t13 64v901q0 123 -20 152t-107 41v71h567v-71q-116 -10 -142 -39t-26 -154v-862q0 -72 11 -91t55 -20h131l-56 -461h-81l-33 215q-14 96 -40 124t-112 28z" />
    <glyph glyph-name="uni042A" unicode="&#x42a;" horiz-adv-x="1546" 
d="M793 238q-1 -82 31 -116t115 -34t161 75t78 245q0 315 -285 315q-59 0 -100 -8v-477zM870 0h-522v70q86 6 118 20t44 54t12 141v880q0 53 -10 65t-61 11h-89q-84 0 -118 -16t-64 -68q-33 -49 -71 -178l-70 6q10 127 22 346h904v-71q-119 -10 -146 -42t-26 -178v-239
q104 12 202 12q227 0 353 -99t127 -284q0 -238 -193 -346q-146 -84 -412 -84z" />
    <glyph glyph-name="uni042B" unicode="&#x42b;" horiz-adv-x="1896" 
d="M518 281q0 -105 31 -151t96 -46q98 0 176 78t78 254q0 309 -293 309q-41 0 -88 -6v-438zM1819 0h-613v72q115 10 143 43t27 168v778q0 127 -27 158q-28 31 -143 41v71h613v-71q-115 -10 -142 -41t-26 -162v-778q1 -131 27 -164t141 -43v-72zM582 0h-508v72q118 10 146 44
t28 175v753q0 138 -27 172t-141 44v71h620v-71q-126 -10 -154 -43t-28 -177v-233q92 8 205 8q219 0 345 -99t126 -282q0 -240 -195 -348q-145 -86 -417 -86z" />
    <glyph glyph-name="uni042C" unicode="&#x42c;" horiz-adv-x="1275" 
d="M518 272q0 -110 30 -148t97 -38q102 0 181 79t79 249t-80 240t-204 71q-56 0 -103 -6v-447zM1202 434q0 -434 -618 -434h-510v72q118 10 146 43t28 172v753q0 139 -28 174t-140 46v71h614v-71q-120 -10 -148 -44t-28 -180v-231q117 10 213 10q219 0 345 -99t126 -282z
" />
    <glyph glyph-name="uni042D" unicode="&#x42d;" horiz-adv-x="1359" 
d="M637 1360q117 0 237 -42t195 -109q74 -67 124 -155q89 -156 89 -337t-50 -317t-125 -215t-174 -129q-164 -83 -360 -85q-285 0 -430 156q-94 98 -94 184q0 35 24 60t54 24q55 0 98 -84q119 -256 346 -256q172 0 289 160t119 430l-684 -18v131l680 -19q-6 151 -46 261
q-39 110 -101 167q-118 109 -261 109q-190 0 -282 -126q-73 -97 -117 -235l-72 15q8 66 26 178t25 152q13 4 115 36t180 48t195 16z" />
    <glyph glyph-name="uni042E" unicode="&#x42e;" horiz-adv-x="2080" 
d="M1407 53q125 1 206 141t81 438t-94 472t-232 174q-137 0 -222 -156t-84 -434t96 -456q95 -179 249 -179zM688 0h-610v72q118 10 144 41t26 161v783q0 129 -27 161t-143 42v71h610v-71q-116 -10 -142 -41t-26 -162v-301h242q29 258 189 432q161 174 428 174t445 -192
t179 -504q0 -314 -171 -505t-448 -191q-276 0 -452 194q-176 195 -178 487h-234v-377q0 -128 27 -160t141 -42v-72z" />
    <glyph glyph-name="uni042F" unicode="&#x42f;" horiz-adv-x="1378" 
d="M862 684v467q0 57 -23 76q-24 18 -89 18q-102 0 -181 -68q-78 -69 -77 -212q0 -281 319 -281h51zM1298 1331v-71q-116 -10 -142 -46t-26 -184v-727q0 -147 29 -184t148 -47v-72h-609v72q111 10 138 47t26 184v299h-43q-92 0 -151 -110q-31 -54 -87 -176t-69 -146
q-49 -94 -115 -132t-194 -38h-180v68q102 12 141 59q26 29 145 262q66 119 121 174t129 74v2q-168 16 -260 106t-92 226q0 178 129 269t366 91h596z" />
    <glyph glyph-name="uni0430" unicode="&#x430;" horiz-adv-x="954" 
d="M334 293q0 -84 40 -124t81 -40t88 33v327q-22 -11 -113 -63q-96 -49 -96 -133zM338 -25q-125 0 -201 80q-76 81 -76 171t37 134t129 77q92 34 186 69q94 34 130 63v62q0 96 -34 148t-83 52t-76 -36q-33 -39 -59 -142q-18 -70 -86 -69q-43 0 -85 32t-42 73q0 42 72 95
q168 115 339 146q121 0 191 -54t94 -118q23 -64 23 -158v-338q0 -121 65 -121q25 0 70 17l20 -66l-223 -117q-127 0 -178 119q-180 -119 -213 -119z" />
    <glyph glyph-name="uni0431" unicode="&#x431;" horiz-adv-x="1048" 
d="M514 844q-55 0 -119 -68q-55 -66 -55 -229q2 -227 57 -359t135 -131q80 0 122 78q42 79 42 285t-51 315t-131 109zM571 930q195 0 306 -129t110 -316q0 -245 -137 -377t-339 -132t-326 155q-124 156 -122 404q0 297 181 532q125 164 280 231q80 43 201 78t166 68
q27 20 27 -10q0 -76 -32 -145t-93 -105q-84 -47 -255 -73q-171 -27 -218 -93t-23 -203l4 -4q135 119 270 119z" />
    <glyph glyph-name="uni0432" unicode="&#x432;" horiz-adv-x="1069" 
d="M444 449v-242q0 -78 23 -105q23 -26 87 -26t120 49q55 49 55 143q0 180 -233 181h-52zM444 522h39q102 0 150 37q47 37 47 117q0 156 -160 155q-43 0 -59 -14t-17 -55v-240zM1008 276q0 -98 -69 -161q-126 -115 -425 -115h-465v66q96 8 119 36t22 129v471q0 84 -21 110
q-22 26 -103 32v61h577q303 0 303 -200q0 -156 -233 -203v-4q295 -31 295 -222z" />
    <glyph glyph-name="uni0433" unicode="&#x433;" horiz-adv-x="845" 
d="M582 823h-78q-37 0 -45 -9t-8 -50v-559q1 -82 25 -107t128 -32v-66h-547v66q90 8 112 32t21 107v500q0 83 -22 105t-115 30v65h760q0 -133 8 -299l-67 -6q-27 96 -55 160t-117 63z" />
    <glyph glyph-name="uni0434" unicode="&#x434;" horiz-adv-x="1032" 
d="M578 207v543q0 53 -14 63t-70 10h-70q-43 0 -55 -13t-13 -54q-4 -403 -69 -639q-4 -19 2 -27t33 -8h155q73 0 87 18t14 107zM979 905v-65q-96 -8 -118 -28t-21 -95v-504q0 -84 13 -107t58 -22h82l-45 -399h-78l-22 165q-12 92 -38 121t-95 29h-434q-55 0 -75 -27
t-46 -118l-43 -170h-72l-2 399h68q35 2 49 33q30 75 62 233t32 387q0 47 -16 67t-70 25l-64 11v65h875z" />
    <glyph glyph-name="uni0435" unicode="&#x435;" horiz-adv-x="894" 
d="M483 848q-59 0 -105 -70t-54 -188q259 0 276 15q8 7 10 32q0 83 -34 147t-93 64zM61 414q0 223 152 370q145 146 299 146t252 -100t96 -230q0 -66 -59 -74q-182 -20 -488 -32q8 -158 85 -244t197 -86t222 88l37 -49q-84 -125 -185 -176t-184 -52q-197 0 -311 127
t-113 312z" />
    <glyph glyph-name="uni0436" unicode="&#x436;" horiz-adv-x="1556" 
d="M1538 0h-182q-84 0 -136 23t-94 98q-12 20 -104 229q-49 106 -117 101v-250q-1 -82 19 -105t102 -30v-66h-496v66q82 8 103 30q20 23 20 105v250q-82 6 -131 -101q-18 -39 -53 -121t-47 -108q-37 -77 -88 -99t-137 -22h-177v66q57 2 90 29q32 28 78 112q90 172 129 219
q49 70 154 96v10q-49 37 -100 113q-88 129 -174 129h-39q-78 0 -78 68q0 34 31 60t73 26t80 -25q39 -25 58 -46q18 -22 47 -60q113 -168 139 -199q78 -76 145 -78v185q0 83 -19 105t-95 30v65h477v-65q-76 -8 -93 -31t-18 -104v-185q74 4 144 74q25 23 143 199
q92 135 182 135q49 0 76 -26t27 -66q0 -66 -72 -66h-47q-84 0 -174 -129q-53 -76 -97 -109v-10q101 -27 147 -88t114 -186t99 -153q32 -28 91 -29v-66z" />
    <glyph glyph-name="uni0437" unicode="&#x437;" horiz-adv-x="878" 
d="M770 692q0 -131 -233 -188v-4q281 -41 280 -234q0 -135 -126 -213t-306 -78t-285 88q-59 51 -59 103t25 76q25 23 51 22q47 0 102 -86q68 -121 166 -121q63 3 101 53t38 142q0 182 -129 182l-114 -18q-33 0 -58 18t-25 48t27 48t62 19l116 -14q94 0 95 135q0 80 -37 128
t-101 48q-131 0 -206 -230l-70 19l31 211q145 84 310 84t255 -64t90 -174z" />
    </font>
</defs>
</svg>
