<?xml version="1.0" encoding="utf-8"?>
<!-- Generator: Adobe Illustrator 17.0.0, SVG Export Plug-In . SVG Version: 6.00 Build 0)  -->
<!DOCTYPE svg PUBLIC "-//W3C//DTD SVG 1.1//EN" "http://www.w3.org/Graphics/SVG/1.1/DTD/svg11.dtd">
<svg version="1.1" id="Layer_1" xmlns="http://www.w3.org/2000/svg" xmlns:xlink="http://www.w3.org/1999/xlink" x="0px" y="0px"
	 width="200.092px" height="122.896px" viewBox="0 0 200.092 122.896" enable-background="new 0 0 200.092 122.896"
	 xml:space="preserve">
<g>
	<g>
		<path fill="#FFFFFF" d="M61.877,119.879c-0.765,1.884-2.549,3.017-4.673,3.017c-2.903,0-5.098-2.053-5.098-5.169
			c0-3.073,2.181-5.127,5.112-5.127c2.28,0,3.894,1.246,4.546,2.761l-1.543,0.411c-0.411-0.709-1.331-1.7-3.059-1.7
			c-2.068,0-3.484,1.431-3.484,3.668c0,2.266,1.487,3.683,3.455,3.683c1.516,0,2.663-0.793,3.215-1.955L61.877,119.879z"/>
		<path fill="#FFFFFF" d="M73.132,112.6c2.945,0,5.184,2.082,5.184,5.155c0,3.059-2.238,5.14-5.184,5.14
			c-2.932,0-5.155-2.081-5.155-5.14C67.977,114.682,70.2,112.6,73.132,112.6z M73.132,121.423c2.039,0,3.611-1.403,3.611-3.668
			c0-2.281-1.572-3.683-3.611-3.683c-2.025,0-3.584,1.416-3.584,3.683C69.549,120.006,71.107,121.423,73.132,121.423z"/>
		<path fill="#FFFFFF" d="M85.079,112.798h1.558v8.455h4.971v1.458h-6.529V112.798z"/>
		<path fill="#FFFFFF" d="M98.08,112.798h1.557v8.455h4.971v1.458H98.08V112.798z"/>
		<path fill="#FFFFFF" d="M111.08,112.798h6.854v1.458h-5.297v2.592h4.064v1.458h-4.064v2.946h5.34v1.458h-6.897V112.798z"/>
		<path fill="#FFFFFF" d="M132.326,122.712c0-0.949,0.014-1.077,0.014-1.189h-0.027c-0.512,0.538-1.688,1.373-3.371,1.373
			c-2.805,0-5.084-2.053-5.084-5.155c0-3.087,2.193-5.141,5.125-5.141c2.266,0,3.91,1.246,4.533,2.761l-1.531,0.411
			c-0.34-0.623-1.217-1.7-3.059-1.7c-2.066,0-3.498,1.431-3.498,3.668c0,2.252,1.531,3.683,3.627,3.683
			c1.699,0,2.846-0.907,3.215-1.53v-1.104h-2.791v-1.444h4.25v5.368H132.326z"/>
		<path fill="#FFFFFF" d="M140.855,112.798h6.854v1.458h-5.295v2.592h4.063v1.458h-4.063v2.946h5.34v1.458h-6.898V112.798z"/>
	</g>
	<g>
		<g>
			<g>
				<path fill="#FFFFFF" d="M134.004,48.167l-2.953,0.54l-0.014-0.021l-1.49-2.001l-0.637-0.853l-0.332,0.684
					c-0.359,0.749-0.893,1.487-1.576,2.2l-2.508-1.526l-0.256,0.218c-0.105,0.092-0.217,0.183-0.33,0.276h-0.002
					c-0.613,0.489-1.355,0.986-2.209,1.463c-1.135,0.637-2.471,1.243-3.971,1.788c-2,0.726-4.289,1.346-6.785,1.811
					c-3.322,0.618-7.014,0.966-10.897,0.969h-0.076c-3.878-0.003-7.563-0.351-10.881-0.969c-2.498-0.465-4.786-1.084-6.785-1.811
					c-1.5-0.545-2.838-1.151-3.974-1.788c-0.853-0.477-1.592-0.974-2.208-1.463c-0.116-0.093-0.228-0.184-0.333-0.276l-0.253-0.218
					l-2.509,1.526c-0.684-0.713-1.216-1.451-1.576-2.2l-0.331-0.684l-0.639,0.854l-1.489,1.999l-0.017,0.021l-2.949-0.54
					l-1.185-0.214l0.326,0.781c0.362,0.873,0.815,1.691,1.325,2.443c0.772,1.146,1.683,2.156,2.675,3.059l0.001,0
					c0.079,0.074,0.16,0.145,0.239,0.216l0.253,0.223l0.474-0.284l2.127-1.293c0.901,0.692,1.887,1.327,2.947,1.915l0,0
					c3.083,1.703,6.814,3.017,11.012,3.931v0.001c4.2,0.911,8.868,1.413,13.79,1.413h0.032c4.916-0.003,9.574-0.505,13.768-1.413
					v-0.001c4.199-0.914,7.932-2.229,11.012-3.931h0.002c1.059-0.588,2.045-1.222,2.945-1.915l2.133,1.295l0.467,0.283l0.254-0.223
					c0.082-0.071,0.16-0.142,0.242-0.216v0c0.992-0.903,1.902-1.913,2.676-3.059c0.508-0.752,0.959-1.57,1.322-2.443l0.326-0.781
					L134.004,48.167z M69.765,53.535c-0.94-0.857-1.79-1.805-2.512-2.874c-0.32-0.472-0.615-0.97-0.874-1.492l2.992,0.55l0.36-0.485
					l1.24-1.665c0.34,0.565,0.759,1.11,1.247,1.637l-1.698,1.035l-0.799,0.485l0.381,0.414c0.433,0.469,0.9,0.916,1.397,1.34
					L69.765,53.535z M124.373,54.207l0.002-0.001c-2.98,1.648-6.635,2.939-10.764,3.838c-4.121,0.895-8.718,1.39-13.57,1.393h-0.032
					c-4.86,0-9.465-0.497-13.595-1.393c-4.129-0.899-7.78-2.189-10.761-3.838v0.001c-1.736-0.964-3.245-2.044-4.48-3.282
					l4.273-2.602c0.033,0.028,0.066,0.055,0.1,0.082c0.66,0.527,1.44,1.049,2.333,1.548c1.186,0.665,2.566,1.29,4.107,1.85
					c2.054,0.745,4.39,1.377,6.933,1.849c3.378,0.631,7.117,0.983,11.05,0.985h0.076l0,0c3.938-0.002,7.683-0.354,11.063-0.985
					c2.545-0.472,4.879-1.104,6.934-1.849c1.541-0.561,2.922-1.186,4.109-1.85c0.891-0.5,1.672-1.022,2.332-1.548l0,0
					c0.033-0.027,0.068-0.054,0.102-0.082l4.271,2.602C127.621,52.163,126.111,53.243,124.373,54.207z M132.773,50.661
					L132.773,50.661c-0.721,1.069-1.572,2.016-2.51,2.874l-1.736-1.053c0.498-0.424,0.963-0.871,1.398-1.34l0.381-0.414
					l-0.799-0.485l-1.697-1.035c0.486-0.525,0.904-1.072,1.244-1.637l1.24,1.665l0.361,0.485l2.992-0.55
					C133.389,49.691,133.094,50.189,132.773,50.661z"/>
			</g>
			<path fill="#FFFFFF" d="M76.522,50.846c-0.188,0-0.347,0.088-0.456,0.275c-0.202,0.35,0.027,0.614,0.223,0.799
				c0.18,0.17,0.407,0.297,0.292,0.497c-0.044,0.075-0.109,0.111-0.188,0.111c-0.067,0-0.144-0.025-0.228-0.073
				c-0.205-0.119-0.3-0.289-0.232-0.471l-0.367-0.097c-0.133,0.416,0.145,0.694,0.432,0.86c0.169,0.097,0.327,0.148,0.466,0.148
				c0.188,0,0.344-0.093,0.455-0.283c0.212-0.367-0.016-0.626-0.238-0.817c-0.207-0.184-0.367-0.318-0.271-0.484
				c0.039-0.067,0.097-0.103,0.17-0.103c0.057,0,0.126,0.021,0.206,0.066c0.193,0.111,0.261,0.256,0.22,0.422l0.368,0.101
				c0.08-0.346-0.08-0.62-0.411-0.813C76.809,50.893,76.659,50.846,76.522,50.846"/>
			<polyline fill="#FFFFFF" points="78.035,51.618 77.882,51.942 78.44,52.205 77.765,53.634 78.112,53.8 78.789,52.369 
				79.345,52.634 79.499,52.311 78.035,51.618 			"/>
			<path fill="#FFFFFF" d="M80.02,52.533l-0.396,1.02c-0.207,0.531-0.028,0.933,0.448,1.117c0.12,0.047,0.236,0.071,0.345,0.071
				c0.319,0,0.583-0.198,0.737-0.594l0.396-1.019l-0.356-0.139L80.802,54c-0.101,0.252-0.234,0.373-0.408,0.373
				c-0.058,0-0.122-0.013-0.188-0.04c-0.272-0.104-0.345-0.312-0.214-0.648l0.393-1.009L80.02,52.533"/>
			<path fill="#FFFFFF" d="M82.65,55.117c-0.081,0-0.168-0.014-0.25-0.04l-0.357-0.114l0.372-1.166l0.35,0.111
				c0.328,0.105,0.564,0.39,0.438,0.79C83.108,54.998,82.889,55.117,82.65,55.117 M82.157,53.339l-0.587,1.848l0.743,0.235
				c0.124,0.042,0.248,0.06,0.366,0.06c0.406,0,0.755-0.229,0.894-0.666c0.18-0.563-0.12-1.065-0.677-1.241L82.157,53.339"/>
			<polyline fill="#FFFFFF" points="84.426,54.036 83.913,55.904 84.284,56.007 84.799,54.138 84.426,54.036 			"/>
			<path fill="#FFFFFF" d="M86.101,56.106c-0.055,0-0.109-0.007-0.165-0.02c-0.348-0.08-0.554-0.386-0.464-0.769
				c0.076-0.324,0.314-0.503,0.597-0.503c0.052,0,0.107,0.006,0.163,0.02c0.347,0.082,0.553,0.386,0.463,0.771
				C86.619,55.929,86.381,56.106,86.101,56.106 M86.05,54.449c-0.458,0-0.839,0.289-0.954,0.779c-0.137,0.58,0.189,1.078,0.756,1.21
				c0.092,0.022,0.18,0.032,0.267,0.032c0.457,0,0.839-0.29,0.954-0.776c0.137-0.583-0.19-1.082-0.759-1.214
				C86.225,54.46,86.134,54.449,86.05,54.449"/>
			<path fill="#FFFFFF" d="M88.845,55.76c-0.136,0-0.242,0.084-0.267,0.219c-0.029,0.161,0.069,0.29,0.235,0.321
				c0.02,0.003,0.04,0.006,0.06,0.006c0.134,0,0.243-0.086,0.27-0.226c0.026-0.155-0.072-0.286-0.234-0.313
				C88.887,55.762,88.867,55.76,88.845,55.76"/>
			<path fill="#FFFFFF" d="M91.384,55.422c-0.336,0-0.571,0.16-0.615,0.483c-0.053,0.401,0.258,0.558,0.51,0.652
				c0.231,0.09,0.491,0.122,0.459,0.35c-0.017,0.134-0.12,0.2-0.278,0.2c-0.028,0-0.059-0.001-0.09-0.007
				c-0.237-0.031-0.391-0.153-0.395-0.346l-0.379,0.051c0.037,0.435,0.399,0.586,0.728,0.63c0.063,0.01,0.124,0.013,0.181,0.013
				c0.35,0,0.577-0.162,0.62-0.489c0.055-0.419-0.254-0.572-0.532-0.666c-0.261-0.091-0.46-0.152-0.434-0.345
				c0.015-0.116,0.094-0.181,0.249-0.181c0.024,0,0.054,0.001,0.085,0.004c0.222,0.03,0.335,0.138,0.363,0.306l0.377-0.047
				c-0.055-0.352-0.309-0.543-0.688-0.595C91.49,55.428,91.437,55.422,91.384,55.422"/>
			<path fill="#FFFFFF" d="M93.855,56.943l-0.602-0.059l0.205-0.409c0.082-0.162,0.165-0.323,0.166-0.326l0.01,0.001
				c0.003,0.003,0.052,0.18,0.102,0.351L93.855,56.943 M93.459,55.698L92.5,57.551l0.405,0.04l0.183-0.372l0.868,0.084l0.11,0.4
				l0.409,0.039l-0.583-2.003L93.459,55.698"/>
			<path fill="#FFFFFF" d="M95.807,56.846c-0.014,0-0.028-0.001-0.043-0.001l-0.303-0.02l0.037-0.603l0.305,0.019
				c0.231,0.016,0.343,0.131,0.331,0.324C96.12,56.741,96.015,56.846,95.807,56.846 M95.136,55.846l-0.124,1.934l0.384,0.025
				l0.041-0.643l0.293,0.018c0.027,0.002,0.054,0.003,0.079,0.003c0.418,0,0.685-0.224,0.707-0.599
				c0.026-0.412-0.24-0.665-0.703-0.695L95.136,55.846"/>
			<polyline fill="#FFFFFF" points="97.067,55.958 96.99,57.893 97.373,57.91 97.454,55.973 97.067,55.958 			"/>
			<polyline fill="#FFFFFF" points="98.074,55.997 98.037,57.933 99.422,57.96 99.428,57.604 98.428,57.585 98.437,57.129 
				99.181,57.142 99.189,56.783 98.444,56.77 98.45,56.362 99.443,56.38 99.449,56.023 98.074,55.997 			"/>
			<path fill="#FFFFFF" d="M101.721,56.005l-0.385,0.005l0.012,0.82c0.002,0.212,0.01,0.453,0.01,0.455h-0.006l-0.945-1.262
				l-0.39,0.004l0.024,1.938l0.385-0.004l-0.011-0.815c-0.003-0.246-0.011-0.478-0.011-0.48h0.008l0.943,1.282l0.391-0.005
				L101.721,56.005"/>
			<polyline fill="#FFFFFF" points="103.862,55.916 102.242,55.99 102.259,56.347 102.877,56.319 102.949,57.898 103.333,57.88 
				103.262,56.302 103.877,56.273 103.862,55.916 			"/>
			<polyline fill="#FFFFFF" points="104.785,55.852 104.399,55.877 104.535,57.812 104.918,57.785 104.785,55.852 			"/>
			<path fill="#FFFFFF" d="M106.064,56.952l0.122-0.44c0.05-0.174,0.099-0.348,0.102-0.351l0.008-0.002
				c0.002,0.003,0.086,0.167,0.168,0.327l0.201,0.41L106.064,56.952 M106.471,55.706l-0.434,0.041l-0.585,2.003l0.405-0.038
				l0.108-0.4l0.868-0.083l0.184,0.372l0.41-0.04L106.471,55.706"/>
			<path fill="#FFFFFF" d="M109.109,56.092c-0.016,0-0.031,0.001-0.049,0.001c-0.166,0.025-0.268,0.152-0.244,0.309
				c0.018,0.145,0.127,0.233,0.271,0.233c0.016,0,0.033,0,0.051-0.002c0.16-0.024,0.266-0.149,0.244-0.312
				C109.363,56.181,109.25,56.092,109.109,56.092"/>
			<path fill="#FFFFFF" d="M111.912,54.89c-0.068,0-0.142,0.007-0.219,0.021c-0.561,0.109-0.904,0.589-0.793,1.174
				c0.1,0.517,0.486,0.823,0.959,0.823c0.07,0,0.143-0.008,0.217-0.021c0.41-0.079,0.713-0.368,0.789-0.765l-0.395-0.025
				c-0.049,0.208-0.213,0.386-0.482,0.438c-0.041,0.008-0.084,0.012-0.125,0.012c-0.281,0-0.516-0.194-0.58-0.533
				c-0.074-0.38,0.113-0.674,0.463-0.745c0.049-0.006,0.094-0.012,0.135-0.012c0.201,0,0.348,0.091,0.443,0.199l0.354-0.175
				C112.527,55.053,112.252,54.89,111.912,54.89"/>
			<path fill="#FFFFFF" d="M113.688,55.499l-0.137-0.581l0.314-0.072c0.045-0.01,0.084-0.015,0.125-0.015
				c0.145,0,0.244,0.077,0.281,0.232c0.045,0.196-0.061,0.312-0.264,0.36L113.688,55.499 M114.025,54.475
				c-0.08,0-0.17,0.01-0.262,0.032l-0.668,0.159l0.445,1.886l0.373-0.088l-0.156-0.663l0.148-0.034l0.121-0.029l0.537,0.572
				l0.445-0.104l-0.617-0.631c0.225-0.134,0.32-0.349,0.256-0.624C114.576,54.647,114.352,54.475,114.025,54.475"/>
			<polyline fill="#FFFFFF" points="116.4,53.811 115.076,54.184 115.604,56.049 116.938,55.672 116.84,55.329 115.875,55.6 
				115.752,55.16 116.467,54.958 116.369,54.612 115.652,54.815 115.545,54.423 116.496,54.155 116.4,53.811 			"/>
			<path fill="#FFFFFF" d="M117.945,53.318c-0.105,0-0.215,0.021-0.33,0.059c-0.404,0.135-0.609,0.407-0.49,0.765
				c0.102,0.306,0.344,0.369,0.576,0.369c0.059,0,0.115-0.005,0.17-0.01c0.115-0.009,0.234-0.034,0.33-0.034
				c0.107,0,0.197,0.03,0.236,0.144c0.051,0.154-0.049,0.271-0.246,0.337c-0.072,0.024-0.143,0.037-0.205,0.037
				c-0.133,0-0.242-0.057-0.303-0.173l-0.316,0.21c0.137,0.235,0.346,0.315,0.557,0.315c0.127,0,0.256-0.029,0.375-0.071
				c0.434-0.145,0.631-0.416,0.508-0.778c-0.104-0.307-0.33-0.381-0.559-0.381c-0.072,0-0.143,0.007-0.211,0.017
				c-0.107,0.014-0.201,0.026-0.285,0.026c-0.127,0-0.221-0.032-0.258-0.144c-0.043-0.129,0.02-0.238,0.219-0.306
				c0.07-0.023,0.131-0.035,0.186-0.035c0.117,0,0.211,0.053,0.279,0.148l0.318-0.209C118.357,53.409,118.166,53.318,117.945,53.318
				"/>
			<path fill="#FFFFFF" d="M120.143,52.509c-0.131,0-0.27,0.027-0.408,0.083c-0.533,0.215-0.775,0.754-0.553,1.306
				c0.17,0.417,0.516,0.642,0.9,0.642c0.135,0,0.272-0.027,0.41-0.083c0.387-0.158,0.627-0.5,0.625-0.902l-0.389,0.051
				c-0.014,0.212-0.139,0.418-0.393,0.522c-0.076,0.032-0.154,0.047-0.232,0.047c-0.234,0-0.449-0.144-0.561-0.422
				c-0.146-0.358-0.02-0.685,0.311-0.819c0.09-0.035,0.172-0.052,0.252-0.052c0.143,0,0.262,0.053,0.352,0.121l0.314-0.241
				C120.617,52.607,120.395,52.509,120.143,52.509"/>
			<polyline fill="#FFFFFF" points="121.469,51.869 121.119,52.032 121.949,53.783 122.299,53.618 121.469,51.869 			"/>
			<polyline fill="#FFFFFF" points="123.412,50.838 121.996,51.621 122.168,51.933 122.709,51.635 123.473,53.017 123.809,52.832 
				123.045,51.45 123.584,51.15 123.412,50.838 			"/>
		</g>
		<path fill="#FFFFFF" d="M109.643,14.237L109.643,14.237c-0.061,0-0.121,0-0.178,0h-0.016c-0.076,0-0.15,0.004-0.227,0.005h-0.018
			c-0.518,0.014-1.006,0.052-1.443,0.111c-0.559,0.074-1.035,0.18-1.387,0.306c-0.235,0.083-0.411,0.175-0.516,0.263
			c-0.061,0.049-0.093,0.095-0.107,0.131c-0.008,0.019-0.012,0.035-0.012,0.052c0,0.016,0.004,0.032,0.012,0.052
			c0.006,0.018,0.02,0.041,0.04,0.065c0.038,0.047,0.105,0.103,0.2,0.157c0.186,0.109,0.471,0.215,0.828,0.304
			c0.467,0.117,1.051,0.202,1.709,0.25l0.076-0.191l0.006-0.01l0.395-0.991c-0.281,0.012-0.549,0.031-0.797,0.057
			c-0.426,0.044-0.787,0.109-1.053,0.184c-0.18,0.05-0.314,0.106-0.395,0.16c-0.045,0.03-0.07,0.059-0.082,0.08l-0.008,0.031
			l0.008,0.033l0.029,0.038c0.031,0.03,0.082,0.063,0.154,0.096c0.141,0.066,0.359,0.129,0.631,0.184
			c0.068,0.012,0.135,0.025,0.209,0.037c-0.303-0.043-0.586-0.095-0.834-0.158c-0.328-0.081-0.604-0.181-0.773-0.28
			c-0.074-0.044-0.113-0.078-0.132-0.097l0.028-0.027c0.086-0.073,0.25-0.156,0.451-0.226c0.342-0.122,0.809-0.224,1.346-0.295
			c0.412-0.053,0.867-0.091,1.332-0.106c0.061-0.001,0.123-0.004,0.184-0.005c0.02,0,0.041,0,0.063,0
			c0.061-0.001,0.119-0.002,0.178-0.002c0.033,0,0.064,0,0.098,0l0,0c0.092,0,0.182,0.001,0.271,0.002
			c0.082,0,0.164,0.003,0.244,0.005c0.85,0.028,1.648,0.126,2.252,0.274c0.328,0.081,0.605,0.182,0.775,0.283
			c0.072,0.043,0.113,0.077,0.133,0.097l-0.027,0.025c-0.088,0.073-0.254,0.156-0.455,0.227c-0.328,0.115-0.766,0.214-1.273,0.285
			c0.217-0.034,0.408-0.074,0.564-0.12c0.178-0.052,0.314-0.105,0.393-0.158c0.047-0.03,0.07-0.058,0.082-0.08l0.01-0.033
			l-0.01-0.031l-0.031-0.04c-0.029-0.029-0.082-0.061-0.15-0.096c-0.143-0.066-0.359-0.13-0.631-0.183
			c-0.404-0.081-0.928-0.137-1.514-0.162l0.395,0.991l0.006,0.01l0.076,0.191c0.266-0.018,0.525-0.045,0.766-0.077
			c0.561-0.074,1.037-0.181,1.389-0.307c0.234-0.082,0.412-0.175,0.514-0.262c0.061-0.049,0.096-0.096,0.109-0.13
			c0.008-0.02,0.01-0.037,0.01-0.052c0-0.017-0.002-0.033-0.01-0.052c-0.01-0.019-0.021-0.04-0.041-0.064
			c-0.039-0.049-0.107-0.104-0.197-0.158c-0.187-0.109-0.475-0.215-0.832-0.303c-0.617-0.155-1.453-0.259-2.385-0.285
			c-0.078-0.001-0.16-0.005-0.244-0.005C109.768,14.237,109.705,14.237,109.643,14.237"/>
		<path fill="#FFFFFF" d="M109.643,15.287l-0.195,0.478l-0.004,0.013l-0.076,0.194c0.09,0.002,0.18,0.002,0.271,0.002h0.004
			c0.092,0,0.182,0,0.271-0.002l-0.078-0.194l-0.004-0.013L109.643,15.287"/>
		<path fill="#FFFFFF" d="M109.66,14.729l0.414,1.033l0.004,0.009l0.076,0.192l0.572,1.428l-0.361,0.144l1.271,1.682l-0.236-2.096
			l-0.361,0.143l-0.523-1.315l-0.078-0.192l-0.002-0.01l-0.408-1.014C109.908,14.731,109.785,14.729,109.66,14.729"/>
		<polyline fill="#FFFFFF" points="106.357,3.688 105.607,4.139 104.752,4.331 105.59,4.453 105.74,4.473 105.834,4.354 
			106.357,3.688 		"/>
		<polyline fill="#FFFFFF" points="106.555,4.186 105.806,4.637 104.953,4.827 105.789,4.948 105.939,4.97 106.033,4.852 
			106.555,4.186 		"/>
		<polyline fill="#FFFFFF" points="106.754,4.682 106.004,5.133 105.15,5.323 105.99,5.445 106.14,5.466 106.23,5.347 
			106.754,4.682 		"/>
		<polyline fill="#FFFFFF" points="106.953,5.179 106.202,5.629 105.35,5.818 106.187,5.941 106.338,5.962 106.43,5.843 
			106.953,5.179 		"/>
		<polyline fill="#FFFFFF" points="107.152,5.675 106.402,6.126 105.547,6.316 106.385,6.437 106.535,6.458 106.629,6.34 
			107.152,5.675 		"/>
		<polyline fill="#FFFFFF" points="107.35,6.17 106.6,6.621 105.747,6.812 106.584,6.934 106.734,6.955 106.826,6.836 107.35,6.17 
					"/>
		<polyline fill="#FFFFFF" points="112.924,3.688 113.447,4.354 113.539,4.473 113.689,4.453 114.527,4.331 113.672,4.139 
			112.924,3.688 		"/>
		<polyline fill="#FFFFFF" points="112.725,4.186 113.248,4.852 113.342,4.97 113.492,4.948 114.33,4.827 113.475,4.637 
			112.725,4.186 		"/>
		<polyline fill="#FFFFFF" points="112.527,4.682 113.047,5.347 113.143,5.466 113.291,5.445 114.131,5.323 113.275,5.133 
			112.527,4.682 		"/>
		<polyline fill="#FFFFFF" points="112.328,5.179 112.85,5.844 112.943,5.962 113.094,5.941 113.93,5.818 113.076,5.629 
			112.328,5.179 		"/>
		<polyline fill="#FFFFFF" points="112.129,5.675 112.652,6.34 112.744,6.458 112.896,6.437 113.732,6.316 112.881,6.126 
			112.129,5.675 		"/>
		<polyline fill="#FFFFFF" points="111.932,6.17 112.453,6.836 112.547,6.955 112.697,6.934 113.535,6.812 112.68,6.621 
			111.932,6.17 		"/>
		<path fill="#FFFFFF" d="M111.732,6.667l0.494,0.631l-1.596,3.991l-0.098-0.361l-0.891-3.212l-0.893,3.215l-0.1,0.36l-1.598-3.993
			l0.496-0.631l-0.75,0.451l-0.854,0.19l0.793,0.116l1.332,3.329l-0.512-0.67l-1.25-1.64l0.135,3.644l-2.652-2.118l1.086,3.097
			c0.019-0.013,0.039-0.024,0.059-0.036c0.37-0.218,0.82-0.392,1.381-0.528c0.602-0.15,1.316-0.254,2.086-0.31
			c0.08-0.005,0.16-0.01,0.238-0.016c0.119-0.005,0.238-0.013,0.359-0.016c0.08-0.002,0.16-0.005,0.24-0.005
			c0.131-0.004,0.266-0.006,0.402-0.006c0.131,0,0.266,0.002,0.398,0.006c0.08,0,0.16,0.002,0.24,0.005
			c0.121,0.003,0.24,0.011,0.359,0.016c0.08,0.006,0.158,0.01,0.238,0.016c0.77,0.056,1.486,0.16,2.084,0.31
			c0.561,0.137,1.012,0.31,1.383,0.528c0.02,0.013,0.041,0.023,0.059,0.036l1.086-3.097l-2.65,2.118l0.135-3.644l-1.254,1.644
			l-0.512,0.671l1.334-3.333l0.791-0.116l-0.854-0.19L111.732,6.667"/>
		<path fill="#FFFFFF" d="M109.643,12.418c-0.102,0-0.199,0-0.297,0.001c-0.082,0.003-0.16,0.004-0.24,0.006
			c-0.123,0.003-0.242,0.008-0.361,0.014c-0.078,0.003-0.158,0.011-0.236,0.015c-0.787,0.05-1.52,0.156-2.125,0.307
			c-0.535,0.132-0.964,0.297-1.313,0.5c-0.035,0.02-0.07,0.042-0.104,0.062l0.148,0.421c0.053-0.037,0.111-0.076,0.174-0.111
			c0.311-0.184,0.703-0.332,1.197-0.453c0.619-0.155,1.377-0.257,2.189-0.305c0.08-0.004,0.158-0.008,0.236-0.012
			c0.121-0.006,0.242-0.009,0.363-0.011c0.08,0,0.16-0.002,0.242-0.002c0.041,0,0.082,0,0.125,0c0.039,0,0.078,0,0.121,0
			c0.078,0,0.162,0.001,0.24,0.002c0.123,0.003,0.242,0.005,0.361,0.011c0.08,0.004,0.158,0.007,0.238,0.012
			c0.816,0.047,1.572,0.15,2.191,0.305c0.496,0.121,0.887,0.269,1.199,0.453c0.061,0.037,0.119,0.075,0.172,0.112l0.146-0.42
			c-0.031-0.022-0.066-0.045-0.104-0.064c-0.346-0.203-0.775-0.368-1.313-0.5c-0.605-0.151-1.336-0.257-2.123-0.307
			c-0.08-0.005-0.158-0.011-0.238-0.015c-0.119-0.006-0.24-0.011-0.359-0.014c-0.08-0.003-0.16-0.003-0.24-0.006
			C109.836,12.418,109.74,12.418,109.643,12.418"/>
		<polyline fill="#FFFFFF" points="109.945,13.917 109.922,13.972 109.967,13.974 109.945,13.917 		"/>
		<path fill="#FFFFFF" d="M109.656,13.117h-0.014h-0.018c-0.08,0-0.162,0-0.242,0.002c-0.123,0-0.244,0.005-0.361,0.01
			c-0.082,0.002-0.16,0.005-0.24,0.008c-0.832,0.043-1.605,0.146-2.23,0.302c-0.463,0.115-0.842,0.257-1.127,0.425
			c-0.064,0.038-0.139,0.086-0.215,0.146l0.313,0.901c0.019-0.033,0.04-0.065,0.063-0.094c0.068-0.082,0.158-0.153,0.27-0.218
			c0.223-0.13,0.529-0.24,0.902-0.333c0.625-0.156,1.445-0.26,2.359-0.288c0.078-0.004,0.158-0.006,0.24-0.008
			c0.096,0,0.188-0.002,0.285-0.002c0.027,0,0.053,0,0.08,0c0.066,0.002,0.133,0.002,0.199,0.002l0.023-0.055l0.021,0.057
			c0.066,0,0.133,0.002,0.197,0.006c0.494,0.015,0.965,0.052,1.389,0.109c0.572,0.076,1.064,0.185,1.441,0.318
			c0.254,0.089,0.453,0.189,0.598,0.31c0.07,0.058,0.129,0.123,0.164,0.195l0.318-0.902c-0.066-0.051-0.137-0.098-0.219-0.146
			c-0.283-0.168-0.662-0.311-1.125-0.425c-0.625-0.156-1.396-0.259-2.23-0.302c-0.082-0.003-0.162-0.006-0.24-0.008
			c-0.121-0.004-0.24-0.009-0.361-0.01C109.818,13.117,109.736,13.117,109.656,13.117"/>
		<path fill="#FFFFFF" d="M109.619,14.729c-0.068,0-0.135,0-0.201,0.002c-0.057,0-0.109,0.001-0.164,0.003l-0.406,1.014l-0.004,0.01
			l-0.078,0.192l-0.525,1.315l-0.359-0.143l-0.238,2.096l1.269-1.682l-0.357-0.144l0.57-1.428l0.076-0.192l0.006-0.009l0.311-0.782
			L109.619,14.729"/>
		<path fill="#FFFFFF" d="M90.387,14.237h-0.002c-0.059,0-0.118,0-0.176,0h-0.014c-0.076,0-0.152,0.004-0.228,0.005h-0.016
			c-0.519,0.014-1.006,0.052-1.444,0.111c-0.558,0.074-1.036,0.18-1.386,0.306c-0.235,0.083-0.412,0.175-0.516,0.263
			c-0.06,0.049-0.094,0.095-0.108,0.131c-0.007,0.019-0.011,0.035-0.011,0.052c0,0.016,0.003,0.032,0.011,0.052
			c0.008,0.018,0.021,0.041,0.041,0.065c0.039,0.047,0.106,0.103,0.199,0.157c0.187,0.109,0.472,0.215,0.83,0.304
			c0.466,0.117,1.05,0.202,1.707,0.25l0.077-0.191l0.004-0.01l0.396-0.991c-0.282,0.012-0.548,0.031-0.795,0.057
			c-0.425,0.044-0.788,0.109-1.057,0.184c-0.177,0.05-0.312,0.106-0.392,0.16c-0.047,0.03-0.071,0.059-0.082,0.08l-0.007,0.031
			l0.007,0.033l0.031,0.038c0.03,0.03,0.081,0.063,0.152,0.096c0.141,0.066,0.359,0.129,0.631,0.184
			c0.067,0.012,0.138,0.025,0.209,0.037c-0.305-0.043-0.584-0.095-0.832-0.158c-0.331-0.081-0.605-0.181-0.774-0.28
			c-0.074-0.044-0.114-0.078-0.133-0.097l0.027-0.027c0.086-0.073,0.252-0.156,0.453-0.226c0.342-0.122,0.809-0.224,1.345-0.295
			c0.414-0.053,0.865-0.091,1.332-0.106c0.063-0.001,0.123-0.004,0.183-0.005c0.022,0,0.043,0,0.064,0
			c0.059-0.001,0.12-0.002,0.179-0.002c0.031,0,0.064,0,0.094,0h0.002c0.09,0,0.182,0.001,0.27,0.002
			c0.082,0,0.165,0.003,0.247,0.005c0.85,0.028,1.649,0.126,2.252,0.274c0.329,0.081,0.604,0.182,0.775,0.283
			c0.072,0.043,0.112,0.077,0.131,0.097l-0.028,0.025c-0.086,0.073-0.25,0.156-0.452,0.227c-0.326,0.115-0.765,0.214-1.273,0.285
			c0.216-0.034,0.406-0.074,0.566-0.12c0.176-0.052,0.311-0.105,0.392-0.158c0.044-0.03,0.071-0.058,0.082-0.08l0.007-0.033
			l-0.007-0.031l-0.032-0.04c-0.029-0.029-0.082-0.061-0.152-0.096c-0.141-0.066-0.358-0.13-0.63-0.183
			c-0.404-0.081-0.928-0.137-1.514-0.162l0.396,0.991l0.004,0.01l0.077,0.191c0.267-0.018,0.523-0.045,0.766-0.077
			c0.56-0.074,1.038-0.181,1.387-0.307c0.234-0.082,0.412-0.175,0.516-0.262c0.06-0.049,0.094-0.096,0.108-0.13
			c0.007-0.02,0.011-0.037,0.011-0.052c0-0.017-0.003-0.033-0.011-0.052c-0.007-0.019-0.022-0.04-0.04-0.064
			c-0.039-0.049-0.108-0.104-0.201-0.158c-0.187-0.109-0.471-0.215-0.828-0.303c-0.62-0.155-1.455-0.259-2.385-0.285
			c-0.082-0.001-0.164-0.005-0.246-0.005C90.512,14.237,90.451,14.237,90.387,14.237"/>
		<path fill="#FFFFFF" d="M90.226,15.287l-0.192,0.478l-0.003,0.013l-0.078,0.194c0.088,0.002,0.179,0.002,0.272,0.002h0.001
			c0.091,0,0.184,0,0.273-0.002l-0.077-0.194l-0.004-0.013L90.226,15.287"/>
		<path fill="#FFFFFF" d="M90.406,14.729l0.414,1.033l0.003,0.009l0.077,0.192l0.57,1.428l-0.358,0.144l1.272,1.682l-0.239-2.096
			l-0.358,0.143l-0.527-1.315l-0.076-0.192l-0.005-0.01l-0.406-1.014C90.652,14.731,90.528,14.729,90.406,14.729"/>
		<polyline fill="#FFFFFF" points="87.101,3.688 86.352,4.139 85.498,4.331 86.337,4.453 86.486,4.473 86.581,4.354 87.101,3.688 		
			"/>
		<polyline fill="#FFFFFF" points="87.3,4.186 86.55,4.637 85.698,4.827 86.535,4.948 86.685,4.97 86.777,4.852 87.3,4.186 		"/>
		<polyline fill="#FFFFFF" points="87.499,4.682 86.749,5.133 85.895,5.323 86.734,5.445 86.883,5.466 86.977,5.347 87.499,4.682 		
			"/>
		<polyline fill="#FFFFFF" points="87.698,5.179 86.947,5.629 86.093,5.818 86.932,5.941 87.081,5.962 87.176,5.843 87.698,5.179 		
			"/>
		<polyline fill="#FFFFFF" points="87.897,5.675 87.146,6.126 86.293,6.316 87.129,6.437 87.279,6.458 87.374,6.34 87.897,5.675 		
			"/>
		<polyline fill="#FFFFFF" points="88.093,6.17 87.344,6.621 86.491,6.812 87.328,6.934 87.478,6.955 87.572,6.836 88.093,6.17 		
			"/>
		<polyline fill="#FFFFFF" points="93.667,3.688 94.19,4.354 94.285,4.473 94.434,4.453 95.273,4.331 94.416,4.139 93.667,3.688 		
			"/>
		<polyline fill="#FFFFFF" points="93.47,4.186 93.991,4.852 94.085,4.97 94.235,4.948 95.073,4.827 94.218,4.637 93.47,4.186 		"/>
		<polyline fill="#FFFFFF" points="93.271,4.682 93.793,5.347 93.888,5.466 94.037,5.445 94.874,5.323 94.02,5.133 93.271,4.682 		
			"/>
		<polyline fill="#FFFFFF" points="93.072,5.179 93.596,5.844 93.688,5.962 93.837,5.941 94.675,5.818 93.821,5.629 93.072,5.179 		
			"/>
		<polyline fill="#FFFFFF" points="92.874,5.675 93.396,6.34 93.49,6.458 93.641,6.437 94.478,6.316 93.624,6.126 92.874,5.675 		
			"/>
		<polyline fill="#FFFFFF" points="92.674,6.17 93.198,6.836 93.291,6.955 93.442,6.934 94.279,6.812 93.427,6.621 92.674,6.17 		
			"/>
		<path fill="#FFFFFF" d="M92.476,6.667l0.496,0.631l-1.597,3.991l-0.099-0.361l-0.892-3.212l-0.891,3.215l-0.099,0.36l-1.597-3.993
			l0.495-0.631l-0.748,0.451l-0.855,0.19l0.794,0.116l1.332,3.329l-0.511-0.67l-1.252-1.64l0.136,3.644l-2.652-2.118l1.085,3.097
			c0.02-0.013,0.04-0.024,0.059-0.036c0.37-0.218,0.823-0.392,1.382-0.528c0.6-0.15,1.314-0.254,2.086-0.31
			c0.078-0.005,0.157-0.01,0.237-0.016c0.118-0.005,0.24-0.013,0.359-0.016c0.08-0.002,0.16-0.005,0.242-0.005
			c0.131-0.004,0.264-0.006,0.398-0.006c0.135,0,0.269,0.002,0.401,0.006c0.079,0,0.161,0.002,0.24,0.005
			c0.121,0.003,0.241,0.011,0.358,0.016c0.081,0.006,0.158,0.01,0.237,0.016c0.771,0.056,1.487,0.16,2.086,0.31
			c0.561,0.137,1.013,0.31,1.383,0.528c0.019,0.013,0.041,0.023,0.059,0.036l1.086-3.097l-2.651,2.118l0.135-3.644l-1.254,1.644
			l-0.512,0.671l1.334-3.333l0.792-0.116l-0.853-0.19L92.476,6.667"/>
		<path fill="#FFFFFF" d="M90.384,12.418c-0.099,0-0.195,0-0.294,0.001c-0.081,0.003-0.161,0.004-0.242,0.006
			c-0.12,0.003-0.24,0.008-0.358,0.014c-0.081,0.003-0.161,0.011-0.238,0.015c-0.789,0.05-1.518,0.156-2.126,0.307
			c-0.536,0.132-0.965,0.297-1.313,0.5c-0.034,0.02-0.068,0.042-0.103,0.062l0.147,0.421c0.055-0.037,0.111-0.076,0.174-0.111
			c0.312-0.184,0.703-0.332,1.198-0.453c0.62-0.155,1.375-0.257,2.188-0.305c0.081-0.004,0.159-0.008,0.24-0.012
			c0.12-0.006,0.24-0.009,0.36-0.011c0.079,0,0.162-0.002,0.242-0.002c0.042,0,0.083,0,0.123,0c0.04,0,0.083,0,0.123,0
			c0.081,0,0.162,0.001,0.243,0.002c0.12,0.003,0.241,0.005,0.36,0.011c0.08,0.004,0.16,0.007,0.239,0.012
			c0.815,0.047,1.572,0.15,2.19,0.305c0.495,0.121,0.885,0.269,1.198,0.453c0.063,0.037,0.121,0.075,0.174,0.112l0.148-0.42
			c-0.035-0.022-0.069-0.045-0.104-0.064c-0.348-0.203-0.776-0.368-1.312-0.5c-0.607-0.151-1.339-0.257-2.126-0.307
			c-0.078-0.005-0.158-0.011-0.237-0.015c-0.119-0.006-0.239-0.011-0.359-0.014c-0.081-0.003-0.161-0.003-0.241-0.006
			C90.582,12.418,90.482,12.418,90.384,12.418"/>
		<polyline fill="#FFFFFF" points="90.689,13.917 90.666,13.972 90.711,13.974 90.689,13.917 		"/>
		<path fill="#FFFFFF" d="M90.401,13.117h-0.017H90.37c-0.082,0-0.162,0-0.243,0.002c-0.122,0-0.241,0.005-0.361,0.01
			c-0.081,0.002-0.161,0.005-0.24,0.008c-0.833,0.043-1.604,0.146-2.23,0.302c-0.462,0.115-0.843,0.257-1.125,0.425
			c-0.066,0.038-0.141,0.086-0.218,0.146l0.316,0.901c0.016-0.033,0.038-0.065,0.062-0.094c0.066-0.082,0.158-0.153,0.269-0.218
			c0.222-0.13,0.527-0.24,0.9-0.333c0.628-0.156,1.447-0.26,2.362-0.288c0.079-0.004,0.159-0.006,0.241-0.008
			c0.094,0,0.188-0.002,0.282-0.002c0.028,0,0.056,0,0.083,0c0.066,0.002,0.133,0.002,0.199,0.002l0.022-0.055l0.022,0.057
			c0.066,0,0.131,0.002,0.197,0.006c0.496,0.015,0.963,0.052,1.389,0.109c0.573,0.076,1.064,0.185,1.441,0.318
			c0.252,0.089,0.454,0.189,0.597,0.31c0.07,0.058,0.127,0.123,0.167,0.195l0.316-0.902c-0.065-0.051-0.138-0.098-0.217-0.146
			c-0.286-0.168-0.664-0.311-1.126-0.425c-0.627-0.156-1.399-0.259-2.231-0.302c-0.081-0.003-0.16-0.006-0.24-0.008
			c-0.12-0.004-0.24-0.009-0.363-0.01C90.563,13.117,90.481,13.117,90.401,13.117"/>
		<path fill="#FFFFFF" d="M90.364,14.729c-0.067,0-0.135,0-0.203,0.002c-0.055,0-0.109,0.001-0.165,0.003l-0.405,1.014l-0.005,0.01
			l-0.077,0.192l-0.527,1.315l-0.36-0.143l-0.237,2.096l1.274-1.682l-0.36-0.144l0.571-1.428l0.077-0.192l0.004-0.009l0.311-0.782
			L90.364,14.729"/>
		<g>
			<path fill="#FFFFFF" d="M100.015,40.01h-0.003c-0.059,0-0.118,0.001-0.176,0.001h-0.014c-0.076,0.001-0.152,0.002-0.228,0.004
				l-0.017,0.001c-0.519,0.014-1.005,0.053-1.445,0.112c-0.557,0.072-1.036,0.18-1.386,0.303c-0.234,0.084-0.412,0.177-0.515,0.264
				c-0.06,0.049-0.095,0.097-0.107,0.131c-0.009,0.02-0.013,0.037-0.013,0.052c0,0.016,0.004,0.032,0.013,0.053
				c0.007,0.018,0.02,0.04,0.039,0.065c0.039,0.047,0.106,0.103,0.199,0.157c0.188,0.109,0.473,0.215,0.83,0.304
				c0.465,0.116,1.051,0.203,1.708,0.25l0.076-0.191l0.006-0.009l0.396-0.992c-0.282,0.013-0.548,0.032-0.796,0.057
				c-0.425,0.044-0.788,0.108-1.056,0.184c-0.178,0.049-0.314,0.107-0.393,0.161c-0.047,0.029-0.07,0.058-0.081,0.079l-0.008,0.03
				l0.008,0.033l0.031,0.038c0.031,0.029,0.082,0.063,0.151,0.096c0.142,0.066,0.36,0.129,0.631,0.183
				c0.068,0.013,0.138,0.026,0.211,0.039c-0.305-0.043-0.585-0.096-0.833-0.157c-0.331-0.083-0.605-0.183-0.773-0.281
				c-0.076-0.045-0.114-0.078-0.134-0.099l0.027-0.025c0.086-0.073,0.252-0.157,0.452-0.227c0.342-0.123,0.81-0.225,1.347-0.294
				c0.413-0.055,0.866-0.091,1.332-0.107c0.063-0.001,0.122-0.004,0.183-0.005c0.022,0,0.042,0,0.063,0
				c0.06-0.002,0.12-0.003,0.179-0.003c0.032,0,0.063,0,0.094,0h0.003c0.09,0,0.181,0.001,0.27,0.003
				c0.082,0,0.165,0.003,0.246,0.005c0.85,0.029,1.651,0.124,2.253,0.275c0.327,0.081,0.604,0.181,0.774,0.282
				c0.073,0.042,0.112,0.076,0.132,0.096l-0.029,0.026c-0.085,0.074-0.25,0.156-0.451,0.228c-0.326,0.116-0.766,0.213-1.273,0.284
				c0.217-0.034,0.406-0.074,0.566-0.119c0.177-0.051,0.312-0.106,0.393-0.159c0.043-0.03,0.068-0.059,0.08-0.08l0.01-0.033
				l-0.01-0.03l-0.031-0.041c-0.029-0.03-0.082-0.062-0.151-0.095c-0.142-0.066-0.359-0.13-0.63-0.184
				c-0.404-0.08-0.928-0.136-1.514-0.162l0.395,0.992l0.004,0.009l0.077,0.191c0.268-0.018,0.523-0.045,0.766-0.077
				c0.559-0.074,1.037-0.18,1.389-0.305c0.234-0.083,0.41-0.177,0.514-0.262c0.061-0.05,0.094-0.098,0.109-0.132
				c0.008-0.021,0.01-0.037,0.01-0.053c0-0.015-0.002-0.032-0.01-0.052c-0.008-0.019-0.021-0.042-0.04-0.063
				c-0.04-0.05-0.108-0.104-0.2-0.158c-0.187-0.11-0.472-0.217-0.829-0.305c-0.62-0.154-1.454-0.258-2.385-0.284
				c-0.081-0.002-0.163-0.004-0.245-0.005C100.141,40.011,100.079,40.01,100.015,40.01"/>
			<path fill="#FFFFFF" d="M100.013,41.06l-0.192,0.478l-0.003,0.013l-0.078,0.193c0.088,0.002,0.179,0.002,0.272,0.002h0.001
				c0.091,0,0.184,0,0.274-0.002l-0.077-0.193l-0.006-0.013L100.013,41.06"/>
			<path fill="#FFFFFF" d="M100.034,40.502l0.413,1.033l0.005,0.009l0.076,0.193l0.57,1.427l-0.359,0.144l1.273,1.681l-0.238-2.094
				l-0.359,0.144l-0.528-1.316l-0.075-0.192l-0.004-0.01l-0.407-1.014C100.28,40.503,100.158,40.502,100.034,40.502"/>
			<polyline fill="#FFFFFF" points="96.73,29.462 95.98,29.912 95.126,30.103 95.964,30.227 96.114,30.247 96.208,30.128 
				96.73,29.462 			"/>
			<polyline fill="#FFFFFF" points="96.929,29.958 96.178,30.409 95.326,30.6 96.162,30.722 96.313,30.744 96.405,30.625 
				96.929,29.958 			"/>
			<polyline fill="#FFFFFF" points="97.127,30.454 96.376,30.906 95.524,31.096 96.361,31.219 96.512,31.24 96.605,31.121 
				97.127,30.454 			"/>
			<polyline fill="#FFFFFF" points="97.327,30.95 96.576,31.402 95.721,31.593 96.559,31.713 96.708,31.736 96.805,31.616 
				97.327,30.95 			"/>
			<polyline fill="#FFFFFF" points="97.525,31.448 96.773,31.898 95.919,32.089 96.758,32.211 96.908,32.231 97.001,32.112 
				97.525,31.448 			"/>
			<polyline fill="#FFFFFF" points="97.721,31.944 96.972,32.394 96.119,32.584 96.955,32.708 97.106,32.729 97.2,32.61 
				97.721,31.944 			"/>
			<polyline fill="#FFFFFF" points="103.296,29.462 103.818,30.128 103.912,30.247 104.063,30.227 104.901,30.103 104.046,29.912 
				103.296,29.462 			"/>
			<polyline fill="#FFFFFF" points="103.098,29.958 103.621,30.625 103.713,30.744 103.863,30.722 104.703,30.6 103.846,30.409 
				103.098,29.958 			"/>
			<polyline fill="#FFFFFF" points="102.899,30.454 103.422,31.121 103.516,31.24 103.664,31.219 104.502,31.096 103.648,30.906 
				102.899,30.454 			"/>
			<polyline fill="#FFFFFF" points="102.701,30.95 103.223,31.616 103.318,31.736 103.467,31.713 104.303,31.593 103.45,31.402 
				102.701,30.95 			"/>
			<polyline fill="#FFFFFF" points="102.502,31.448 103.023,32.112 103.117,32.231 103.27,32.211 104.105,32.089 103.253,31.898 
				102.502,31.448 			"/>
			<polyline fill="#FFFFFF" points="102.303,31.944 102.826,32.61 102.919,32.729 103.068,32.708 103.906,32.584 103.055,32.394 
				102.303,31.944 			"/>
			<path fill="#FFFFFF" d="M102.105,32.44l0.494,0.631l-1.596,3.991l-0.099-0.361l-0.892-3.212l-0.892,3.213l-0.097,0.361
				l-1.597-3.992l0.494-0.631l-0.751,0.452l-0.853,0.189l0.793,0.116l1.333,3.329l-0.512-0.669l-1.253-1.639l0.136,3.644
				l-2.651-2.119l1.085,3.098c0.019-0.013,0.039-0.023,0.059-0.036c0.37-0.217,0.822-0.391,1.381-0.528
				c0.601-0.149,1.316-0.254,2.086-0.309c0.08-0.006,0.157-0.01,0.239-0.015c0.118-0.007,0.238-0.012,0.357-0.016
				c0.08-0.003,0.161-0.006,0.242-0.007c0.131-0.003,0.265-0.004,0.399-0.004c0.135,0,0.269,0.001,0.401,0.004
				c0.079,0.001,0.16,0.004,0.24,0.007c0.122,0.004,0.241,0.009,0.358,0.016c0.081,0.005,0.159,0.009,0.237,0.015
				c0.771,0.055,1.487,0.16,2.086,0.309c0.562,0.138,1.013,0.311,1.382,0.528c0.021,0.014,0.042,0.023,0.06,0.036l1.087-3.098
				l-2.652,2.119l0.136-3.644l-1.253,1.643l-0.513,0.67l1.334-3.333l0.794-0.116l-0.853-0.189L102.105,32.44"/>
			<path fill="#FFFFFF" d="M100.013,38.191c-0.098,0-0.195,0-0.294,0.002c-0.082,0.003-0.162,0.005-0.24,0.006
				c-0.122,0.004-0.241,0.009-0.36,0.016c-0.08,0.003-0.159,0.008-0.237,0.014c-0.788,0.05-1.518,0.155-2.124,0.305
				c-0.536,0.134-0.965,0.298-1.313,0.503c-0.035,0.019-0.069,0.041-0.102,0.061l0.146,0.421c0.056-0.036,0.113-0.075,0.176-0.111
				c0.311-0.184,0.702-0.333,1.196-0.453c0.62-0.154,1.376-0.258,2.192-0.304c0.079-0.004,0.158-0.008,0.238-0.012
				c0.121-0.005,0.24-0.007,0.362-0.011c0.079-0.002,0.161-0.003,0.243-0.003c0.04,0,0.081,0,0.121,0c0.041,0,0.084,0,0.122,0
				c0.082,0,0.163,0,0.243,0.003c0.121,0.004,0.243,0.006,0.36,0.011c0.08,0.004,0.16,0.008,0.24,0.012
				c0.815,0.046,1.571,0.15,2.189,0.304c0.493,0.12,0.886,0.269,1.197,0.453c0.063,0.036,0.12,0.075,0.175,0.113l0.148-0.422
				c-0.035-0.021-0.07-0.043-0.105-0.062c-0.346-0.205-0.775-0.369-1.312-0.503c-0.606-0.15-1.339-0.255-2.126-0.305
				c-0.079-0.006-0.158-0.011-0.237-0.014c-0.118-0.006-0.239-0.011-0.359-0.016c-0.081-0.001-0.161-0.003-0.241-0.006
				C100.21,38.191,100.111,38.191,100.013,38.191"/>
			<polyline fill="#FFFFFF" points="100.317,39.69 100.295,39.746 100.34,39.747 100.317,39.69 			"/>
			<path fill="#FFFFFF" d="M100.03,38.891h-0.018h-0.015c-0.082,0-0.163,0-0.243,0.002c-0.122,0.002-0.242,0.006-0.361,0.009
				c-0.081,0.003-0.161,0.006-0.239,0.01c-0.834,0.043-1.606,0.145-2.231,0.301c-0.463,0.115-0.843,0.258-1.128,0.426
				c-0.064,0.037-0.14,0.086-0.215,0.145l0.315,0.901c0.016-0.032,0.038-0.064,0.063-0.092c0.065-0.083,0.158-0.153,0.269-0.22
				c0.221-0.128,0.527-0.239,0.901-0.332c0.627-0.155,1.446-0.259,2.361-0.289c0.08-0.003,0.159-0.005,0.241-0.006
				c0.093,0,0.188-0.002,0.282-0.002c0.028,0,0.056,0,0.084,0c0.065,0.002,0.133,0.002,0.199,0.002l0.022-0.056l0.023,0.057
				c0.067,0.001,0.131,0.002,0.197,0.005c0.495,0.016,0.964,0.053,1.389,0.109c0.572,0.076,1.064,0.186,1.44,0.319
				c0.255,0.09,0.454,0.19,0.599,0.31c0.068,0.059,0.127,0.123,0.166,0.196l0.314-0.903c-0.064-0.049-0.137-0.098-0.216-0.145
				c-0.286-0.168-0.663-0.311-1.126-0.426c-0.627-0.156-1.4-0.258-2.231-0.301c-0.08-0.003-0.159-0.007-0.239-0.01
				c-0.12-0.003-0.241-0.007-0.362-0.009C100.19,38.891,100.11,38.891,100.03,38.891"/>
			<path fill="#FFFFFF" d="M99.991,40.502c-0.066,0-0.133,0-0.201,0.001c-0.056,0.001-0.11,0.002-0.166,0.003l-0.405,1.014
				l-0.003,0.01l-0.077,0.192l-0.528,1.316l-0.36-0.144l-0.237,2.094l1.272-1.681l-0.359-0.144l0.57-1.427l0.077-0.193l0.004-0.009
				l0.313-0.782L99.991,40.502"/>
		</g>
		<g>
			<path fill="#FFFFFF" d="M118.908,0.135C118.824,0.049,118.703,0,118.582,0H81.443c-0.12,0-0.239,0.049-0.326,0.135
				c-0.085,0.086-0.134,0.203-0.134,0.325c0,0,0,0.154,0,0.454c0,2.1,0,11.343,0,24.868c0,2.169,0.356,4.226,0.971,6.162
				c0.491,1.544,1.144,3.008,1.912,4.389c0.026,0.047,0.052,0.094,0.078,0.14c2.659,4.717,6.618,8.448,9.912,11.008
				c3.19,2.479,5.759,3.861,5.934,3.953c0.018,0.01,0.035,0.017,0.054,0.025c0.055,0.024,0.113,0.033,0.169,0.033h0.001l0,0
				c0.061,0,0.121-0.011,0.179-0.035c0.016-0.006,0.03-0.014,0.046-0.022c0.243-0.129,4.8-2.579,9.377-6.897
				c2.344-2.213,4.697-4.919,6.467-8.065c0.027-0.046,0.055-0.094,0.08-0.14c0.768-1.381,1.42-2.846,1.91-4.389
				c0.615-1.936,0.971-3.993,0.971-6.162c0-7.729,0-14.058,0-18.458c0-2.199,0-3.916,0-5.082c0-0.583,0-1.029,0-1.329
				c0-0.3,0-0.454,0-0.454C119.043,0.338,118.996,0.221,118.908,0.135z M115.279,36.021c-2.564,4.558-6.438,8.22-9.672,10.733
				c-1.617,1.257-3.074,2.228-4.123,2.882c-0.525,0.328-0.949,0.576-1.241,0.741c-0.089,0.053-0.167,0.095-0.231,0.131
				c-0.975-0.543-5.116-2.951-9.184-6.844c-2.259-2.164-4.497-4.783-6.163-7.786c-0.029-0.052-0.057-0.104-0.086-0.155
				l15.433-13.139l15.434,13.139C115.391,35.823,115.336,35.922,115.279,36.021z M118.123,25.782c0,1.928-0.297,3.768-0.814,5.513
				l-17.296-14.725L82.717,31.294c-0.517-1.745-0.813-3.584-0.813-5.513c0-7.729,0-14.058,0-18.458c0-2.199,0-3.916,0-5.082
				c0-0.579,0-1.024,0-1.322h36.219C118.123,3.032,118.123,12.271,118.123,25.782z"/>
		</g>
	</g>
	<g>
		<g>
			<path fill="#513628" d="M127.615,105.827c-6.479,0-9.008-4.754-4.33-7.208l0.727,0.422c-3.219,3.566,0.576,5.292,3.604,5.292
				c2.342,0,4.754-1.152,4.754-2.953c0-1.802-1.953-2.377-5.137-2.683c-3.182-0.307-5.48-1.267-5.48-3.565
				c0-1.383,1.264-2.454,3.219-3.067c-1.918-0.921-3.219-2.608-3.219-4.677c0-2.877,2.605-5.215,5.709-5.215
				c0.691,0,1.189,0.115,1.729,0.115c2.684,0,3.564-1.647,3.564-2.644c0-1.572-1.84-0.614-1.725-2.3
				c0.076-1.533,3.334-1.533,3.334,1.686c0,1.419-0.959,3.604-3.525,4.14c1.416,0.959,2.375,2.493,2.375,4.219
				c0,2.836-2.492,4.869-4.982,5.213c-1.725,0.192-4.293,0.575-4.293,1.61c0,1.034,2.184,1.342,3.488,1.455
				c5.252,0.424,6.938,2.686,6.938,5.024C134.363,103.872,131.334,105.827,127.615,105.827z M127.461,83.399
				c-1.877,0-2.758,1.726-2.758,3.988c0,2.223,0.881,3.948,2.758,3.948c1.918,0,2.799-1.725,2.799-3.948
				C130.26,85.125,129.379,83.399,127.461,83.399z"/>
		</g>
		<path fill="#513628" d="M6.719,82.716h1.919c3.84,0,4.455-0.461,4.455-3.687h0.806v8.793h-0.806c0-3.225-0.615-3.686-4.455-3.686
			H6.719v6.181c0,3.839,0.46,4.491,3.647,4.491v0.807H0v-0.807c3.186,0,3.647-0.652,3.647-4.491V77.84
			c0-3.839-0.461-4.453-3.647-4.453V72.58h18.16l0.308,5.068H17.66l-0.191-0.769c-0.499-1.996-0.921-2.878-4.415-2.878H6.719V82.716
			z"/>
		<path fill="#513628" d="M30.261,86.363c-0.729,0-1.344-0.653-1.344-1.382c0-0.807-0.461-1.267-1.229-1.267
			c-0.882,0-2.956,1.421-2.956,4.491v2.112c0,3.839,0.46,4.491,3.034,4.491v0.807h-8.792v-0.807c2.534,0,3.033-0.652,3.033-4.491
			v-1.92c0-3.839-0.5-4.454-3.033-4.454v-0.806l5.106-0.96c0.192,0.384,0.538,1.959,0.653,2.764
			c0.768-1.535,2.497-2.764,4.031-2.764c2.112,0,3.033,1.421,3.033,2.381C31.797,85.403,31.451,86.363,30.261,86.363z"/>
		<path fill="#513628" d="M44.737,96.038c-1.497,0-2.418-0.845-2.61-2.228c-1.881,1.69-3.264,2.304-4.8,2.304
			c-1.881,0-3.455-1.188-3.455-3.224c0-3.263,3.8-4.685,8.177-5.452c0-2.879-0.383-4.031-2.572-4.031
			c-0.883,0-2.188,0.614-2.188,1.843c0,0.768-0.576,1.344-1.305,1.344c-0.768,0-1.344-0.576-1.344-1.344
			c0-1.843,2.418-3.072,4.876-3.072c3.724,0,5.26,1.574,5.26,5.221v5.798c0,0.959,0.307,1.497,0.882,1.497
			c0.384,0,0.806-0.306,1.075-0.575l0.538,0.729C46.542,95.616,45.582,96.038,44.737,96.038z M42.05,88.628
			c-3.647,0.846-5.297,2.112-5.297,3.8c0,1.229,0.844,1.96,1.804,1.96c0.806,0,1.728-0.27,3.494-1.844V88.628z"/>
		<path fill="#513628" d="M64.507,90.317c0,4.07,0.269,4.491,2.419,4.491v0.807h-7.524v-0.807c2.111,0,2.418-0.421,2.418-4.491
			v-2.227c0-2.496-0.768-4.109-2.765-4.109c-1.344,0-3.955,1.458-3.955,3.84v2.495c0,3.992,0.27,4.491,2.382,4.491v0.807h-8.14
			v-0.807c2.533,0,3.033-0.652,3.033-4.491v-1.92c0-3.839-0.5-4.454-3.033-4.454v-0.806l5.106-0.96
			c0.192,0.384,0.537,1.959,0.652,2.764c1.038-1.304,2.766-2.764,4.992-2.764c2.342,0,3.532,1.113,4.069,2.88
			c0.883-1.267,3.11-2.88,5.375-2.88c3.417,0,4.416,2.458,4.416,5.721v2.419c0,3.839,0.498,4.491,3.033,4.491v0.807h-8.14v-0.807
			c2.112,0,2.381-0.421,2.381-4.491v-2.227c0-2.496-0.729-4.109-2.726-4.109c-1.304,0-3.993,1.458-3.993,3.84V90.317z"/>
		<path fill="#513628" d="M78.479,95.616v-0.807c2.572,0,3.033-0.652,3.033-4.491V78.186c0-3.84-0.461-4.492-3.033-4.492v-0.806
			l5.759-0.96v18.39c0,3.839,0.499,4.491,3.033,4.491v0.807H78.479z"/>
		<path fill="#513628" d="M89.497,95.616v-0.807c2.534,0,3.033-0.652,3.033-4.491v-1.92c0-3.839-0.499-4.454-3.033-4.454v-0.806
			l5.758-0.96v8.14c0,3.839,0.461,4.491,3.033,4.491v0.807H89.497z M93.874,78.416c-0.922,0-1.689-0.768-1.689-1.728
			c0-0.921,0.767-1.69,1.689-1.69c0.92,0,1.689,0.768,1.689,1.69C95.563,77.648,94.794,78.416,93.874,78.416z"/>
		<path fill="#513628" d="M111.57,82.178c3.455,0,4.992,2.458,4.992,5.721v2.419c0,3.839,0.461,4.491,3.033,4.491v0.807h-8.791
			v-0.807c2.494,0,3.031-0.652,3.031-4.491v-2.227c0-2.496-0.883-4.109-3.188-4.109c-2.109,0-4.414,1.728-4.414,3.84v2.495
			c0,3.955,0.307,4.491,2.688,4.491v0.807h-8.447v-0.807c2.535,0,3.034-0.652,3.034-4.491v-1.92c0-3.839-0.499-4.454-3.034-4.454
			v-0.806l5.107-0.96c0.191,0.384,0.537,1.959,0.652,2.764C107.271,83.638,109.037,82.178,111.57,82.178z"/>
		<path fill="#513628" d="M146.307,95.616v-0.807c2.42,0,2.729-0.537,2.729-4.491v-2.227c0-2.496-0.924-4.109-2.918-4.109
			c-1.92,0-4.148,1.651-4.148,3.84v2.495c0,3.992,0.309,4.491,2.42,4.491v0.807h-8.178v-0.807c2.572,0,3.033-0.652,3.033-4.491
			V78.186c0-3.84-0.461-4.492-3.033-4.492v-0.806l5.758-0.96v13.014c1.076-1.304,2.803-2.764,5.029-2.764
			c3.533,0,4.725,2.458,4.725,5.721v2.419c0,3.839,0.498,4.491,3.068,4.491v0.807H146.307z"/>
		<path fill="#513628" d="M167.844,96.038c-1.496,0-2.418-0.845-2.609-2.228c-1.883,1.69-3.264,2.304-4.801,2.304
			c-1.881,0-3.455-1.188-3.455-3.224c0-3.263,3.801-4.685,8.178-5.452c0-2.879-0.383-4.031-2.572-4.031
			c-0.883,0-2.188,0.614-2.188,1.843c0,0.768-0.576,1.344-1.307,1.344c-0.768,0-1.344-0.576-1.344-1.344
			c0-1.843,2.418-3.072,4.877-3.072c3.725,0,5.26,1.574,5.26,5.221v5.798c0,0.959,0.307,1.497,0.881,1.497
			c0.385,0,0.809-0.306,1.076-0.575l0.537,0.729C169.648,95.616,168.689,96.038,167.844,96.038z M165.156,88.628
			c-3.648,0.846-5.297,2.112-5.297,3.8c0,1.229,0.844,1.96,1.803,1.96c0.805,0,1.727-0.27,3.494-1.844V88.628z"/>
		<path fill="#513628" d="M187.613,90.317c0,4.07,0.27,4.491,2.42,4.491v0.807h-7.525v-0.807c2.111,0,2.42-0.421,2.42-4.491v-2.227
			c0-2.496-0.77-4.109-2.766-4.109c-1.344,0-3.957,1.458-3.957,3.84v2.495c0,3.992,0.272,4.491,2.385,4.491v0.807h-8.141v-0.807
			c2.533,0,3.033-0.652,3.033-4.491v-1.92c0-3.839-0.5-4.454-3.033-4.454v-0.806l5.105-0.96c0.193,0.384,0.537,1.959,0.65,2.764
			c1.039-1.304,2.766-2.764,4.994-2.764c2.342,0,3.531,1.113,4.068,2.88c0.883-1.267,3.111-2.88,5.375-2.88
			c3.418,0,4.416,2.458,4.416,5.721v2.419c0,3.839,0.498,4.491,3.033,4.491v0.807h-8.139v-0.807c2.111,0,2.379-0.421,2.379-4.491
			v-2.227c0-2.496-0.73-4.109-2.725-4.109c-1.305,0-3.994,1.458-3.994,3.84V90.317z"/>
	</g>
</g>
</svg>
