<?xml version="1.0" encoding="utf-8"?>
<!-- Generator: Adobe Illustrator 19.0.0, SVG Export Plug-In . SVG Version: 6.00 Build 0)  -->
<svg version="1.1" id="Layer_1" xmlns="http://www.w3.org/2000/svg" xmlns:xlink="http://www.w3.org/1999/xlink" x="0px" y="0px"
	 viewBox="-290.5 376.4 19.7 13.8" style="enable-background:new -290.5 376.4 19.7 13.8;" xml:space="preserve">
<style type="text/css">
	.st0{fill:#94B8BB;}
</style>
<g id="XMLID_14_">
	<path id="XMLID_15_" class="st0" d="M-283.5,377.4c-1.7,1.3-3,2.6-3.9,3.9c-0.8,1.3-1.3,2.4-1.3,3.4c0,1.1,0.2,1.6,0.7,1.6
		c0.1,0,0.3-0.1,0.4-0.3c0.1-0.2,0.3-0.4,0.5-0.7c0.2-0.2,0.4-0.5,0.7-0.7c0.3-0.2,0.7-0.3,1.3-0.3c0.7,0,1.3,0.2,1.8,0.7
		s0.7,1.1,0.7,1.9c0,1-0.3,1.8-1,2.4c-0.7,0.6-1.5,0.9-2.6,0.9c-1.2,0-2.3-0.4-3.1-1.3c-0.8-0.9-1.2-2-1.2-3.4
		c0-1.6,0.5-3.2,1.6-4.8c1.1-1.6,2.6-3,4.7-4.3L-283.5,377.4z M-271.9,377.4c-1.7,1.3-3,2.6-3.8,3.9c-0.8,1.3-1.2,2.4-1.2,3.4
		c0,1.1,0.2,1.6,0.7,1.6c0.1,0,0.3-0.1,0.4-0.3c0.1-0.2,0.3-0.4,0.5-0.7c0.2-0.2,0.4-0.5,0.7-0.7c0.3-0.2,0.7-0.3,1.3-0.3
		c0.7,0,1.3,0.2,1.8,0.7s0.7,1.1,0.7,1.9c0,1-0.3,1.8-1,2.4c-0.6,0.6-1.5,0.9-2.6,0.9c-1.2,0-2.3-0.4-3.1-1.3s-1.2-2-1.2-3.4
		c0-1.6,0.5-3.2,1.6-4.8c1.1-1.6,2.6-3,4.7-4.3L-271.9,377.4z"/>
</g>
</svg>
