<?xml version="1.0" encoding="utf-8"?>
<!-- Generator: Adobe Illustrator 17.0.0, SVG Export Plug-In . SVG Version: 6.00 Build 0)  -->
<!DOCTYPE svg PUBLIC "-//W3C//DTD SVG 1.1//EN" "http://www.w3.org/Graphics/SVG/1.1/DTD/svg11.dtd">
<svg version="1.1" id="Layer_1" xmlns="http://www.w3.org/2000/svg" xmlns:xlink="http://www.w3.org/1999/xlink" x="0px" y="0px"
	 width="107.298px" height="92.064px" viewBox="0 0 107.298 92.064" enable-background="new 0 0 107.298 92.064"
	 xml:space="preserve">
<g>
	<g>
		<g>
			<path fill="#92C0C8" d="M105.493,73.468l-4.503,0.824l-0.024-0.034l-2.271-3.052l-0.974-1.3l-0.504,1.043
				c-0.548,1.142-1.362,2.269-2.404,3.354l-3.825-2.327l-0.388,0.333c-0.164,0.14-0.333,0.279-0.508,0.421H90.09
				c-0.936,0.748-2.065,1.506-3.364,2.232c-1.734,0.972-3.774,1.896-6.062,2.728c-3.05,1.107-6.54,2.052-10.349,2.76
				c-5.069,0.944-10.696,1.476-16.619,1.479h-0.114c-5.915-0.004-11.538-0.536-16.599-1.479c-3.81-0.708-7.3-1.652-10.348-2.76
				c-2.288-0.831-4.329-1.756-6.061-2.728c-1.301-0.727-2.43-1.484-3.368-2.232c-0.175-0.142-0.348-0.281-0.507-0.421l-0.388-0.333
				l-3.828,2.327c-1.043-1.086-1.854-2.213-2.403-3.354l-0.504-1.043L8.602,71.21l-2.272,3.048l-0.024,0.034l-4.498-0.823L0,73.143
				l0.498,1.19c0.553,1.333,1.241,2.578,2.019,3.726c1.18,1.75,2.566,3.287,4.081,4.666L6.6,82.727
				c0.121,0.111,0.243,0.22,0.365,0.329l0.387,0.34l0.722-0.434l3.246-1.972c1.373,1.056,2.875,2.023,4.493,2.92l0,0
				c4.702,2.597,10.393,4.602,16.796,5.995v0.002c6.407,1.389,13.524,2.156,21.035,2.157h0.047
				c7.498-0.004,14.603-0.771,20.998-2.157v-0.002c6.405-1.394,12.097-3.398,16.799-5.995h0.001c1.614-0.896,3.119-1.864,4.492-2.92
				l3.252,1.974l0.715,0.432l0.387-0.34c0.123-0.109,0.244-0.218,0.367-0.329v-0.002c1.514-1.379,2.901-2.916,4.082-4.666
				c0.776-1.147,1.464-2.393,2.019-3.726l0.496-1.19L105.493,73.468z M7.514,81.655c-1.434-1.31-2.73-2.755-3.832-4.383
				c-0.489-0.722-0.936-1.48-1.333-2.275l4.564,0.837l0.549-0.736l1.892-2.541c0.52,0.86,1.157,1.693,1.9,2.496l-2.59,1.579
				l-1.219,0.74l0.582,0.631C8.688,78.72,9.4,79.4,10.158,80.049L7.514,81.655z M90.805,82.679L90.805,82.679
				c-4.546,2.514-10.117,4.481-16.415,5.852c-6.287,1.365-13.298,2.122-20.699,2.124h-0.047c-7.414,0-14.435-0.757-20.736-2.124
				c-6.298-1.37-11.866-3.338-16.414-5.852h0.001c-2.648-1.469-4.95-3.118-6.835-5.005l6.517-3.968
				c0.051,0.041,0.102,0.084,0.152,0.125c1.007,0.803,2.197,1.599,3.559,2.361c1.809,1.014,3.915,1.966,6.265,2.821
				c3.134,1.137,6.695,2.1,10.574,2.821c5.152,0.961,10.857,1.498,16.855,1.502h0.114l0,0c6.007-0.004,11.717-0.54,16.876-1.502
				c3.878-0.722,7.44-1.685,10.572-2.821c2.351-0.855,4.456-1.808,6.269-2.821c1.358-0.763,2.549-1.559,3.558-2.361l0,0
				c0.05-0.041,0.103-0.084,0.151-0.125l6.517,3.968C95.756,79.561,93.453,81.21,90.805,82.679z M103.616,77.272L103.616,77.272
				c-1.1,1.628-2.398,3.073-3.829,4.383l-2.646-1.606c0.758-0.648,1.471-1.329,2.131-2.046l0.583-0.631l-1.22-0.74l-2.591-1.579
				c0.743-0.801,1.381-1.636,1.9-2.496l1.892,2.541l0.551,0.736l4.564-0.837C104.554,75.792,104.104,76.551,103.616,77.272z"/>
		</g>
		<path fill="#92C0C8" d="M17.82,77.553c-0.285,0-0.53,0.135-0.695,0.421c-0.309,0.533,0.041,0.935,0.341,1.217
			c0.274,0.26,0.619,0.454,0.445,0.758c-0.067,0.115-0.166,0.17-0.287,0.17c-0.102,0-0.22-0.038-0.349-0.111
			c-0.314-0.182-0.459-0.441-0.355-0.717l-0.561-0.149c-0.2,0.634,0.224,1.059,0.66,1.312c0.259,0.148,0.497,0.226,0.711,0.226
			c0.286,0,0.527-0.141,0.695-0.433c0.323-0.559-0.024-0.953-0.362-1.247c-0.316-0.278-0.56-0.482-0.412-0.738
			c0.059-0.102,0.145-0.157,0.26-0.157c0.086,0,0.191,0.032,0.313,0.103c0.297,0.17,0.397,0.39,0.337,0.642l0.561,0.152
			c0.123-0.526-0.122-0.945-0.627-1.239C18.258,77.627,18.027,77.553,17.82,77.553"/>
		<polyline fill="#92C0C8" points="20.126,78.732 19.893,79.225 20.743,79.626 19.715,81.807 20.244,82.058 21.276,79.876 
			22.125,80.278 22.361,79.787 20.126,78.732 		"/>
		<path fill="#92C0C8" d="M23.155,80.126l-0.603,1.556c-0.318,0.81-0.044,1.423,0.681,1.704c0.184,0.072,0.359,0.108,0.526,0.108
			c0.486,0,0.888-0.304,1.124-0.906l0.604-1.553l-0.543-0.213l-0.597,1.541c-0.152,0.385-0.357,0.568-0.623,0.568
			c-0.089,0-0.186-0.02-0.288-0.06c-0.413-0.159-0.525-0.478-0.325-0.99l0.6-1.54L23.155,80.126"/>
		<path fill="#92C0C8" d="M27.167,84.067c-0.127,0-0.257-0.021-0.381-0.06l-0.546-0.176l0.566-1.778l0.535,0.17
			c0.5,0.159,0.861,0.595,0.667,1.205C27.864,83.887,27.529,84.067,27.167,84.067 M26.411,81.357l-0.894,2.816l1.134,0.359
			c0.19,0.063,0.377,0.092,0.559,0.092c0.618,0,1.152-0.349,1.362-1.016c0.274-0.857-0.183-1.624-1.031-1.893L26.411,81.357"/>
		<polyline fill="#92C0C8" points="29.875,82.418 29.092,85.267 29.657,85.423 30.443,82.573 29.875,82.418 		"/>
		<path fill="#92C0C8" d="M32.429,85.574c-0.083,0-0.165-0.009-0.251-0.028c-0.53-0.124-0.846-0.59-0.707-1.173
			c0.115-0.494,0.479-0.768,0.911-0.768c0.078,0,0.162,0.009,0.247,0.029c0.53,0.125,0.845,0.588,0.708,1.176
			C33.219,85.305,32.854,85.574,32.429,85.574 M32.351,83.05c-0.7,0-1.279,0.439-1.457,1.187c-0.209,0.885,0.291,1.644,1.155,1.848
			c0.141,0.033,0.274,0.048,0.406,0.048c0.696,0,1.279-0.44,1.455-1.184c0.21-0.89-0.289-1.647-1.156-1.852
			C32.618,83.064,32.48,83.05,32.351,83.05"/>
		<path fill="#92C0C8" d="M36.614,85.048c-0.206,0-0.367,0.128-0.406,0.334c-0.045,0.244,0.105,0.442,0.359,0.488
			c0.03,0.006,0.06,0.01,0.091,0.01c0.205,0,0.372-0.13,0.411-0.344c0.041-0.237-0.11-0.437-0.356-0.48
			C36.678,85.05,36.647,85.048,36.614,85.048"/>
		<path fill="#92C0C8" d="M40.486,84.533c-0.513,0-0.871,0.243-0.938,0.735c-0.08,0.612,0.395,0.853,0.779,0.995
			c0.354,0.137,0.746,0.187,0.699,0.533c-0.025,0.204-0.184,0.305-0.425,0.305c-0.041,0-0.089-0.003-0.137-0.01
			c-0.36-0.048-0.597-0.234-0.601-0.529l-0.577,0.079c0.055,0.662,0.608,0.895,1.11,0.96c0.098,0.014,0.188,0.02,0.274,0.02
			c0.535,0,0.88-0.247,0.947-0.747c0.083-0.639-0.388-0.873-0.813-1.014c-0.396-0.14-0.7-0.234-0.659-0.528
			c0.021-0.174,0.142-0.276,0.376-0.276c0.039,0,0.084,0.005,0.131,0.009c0.34,0.047,0.511,0.21,0.556,0.465l0.575-0.07
			c-0.084-0.537-0.472-0.829-1.048-0.907C40.648,84.542,40.567,84.533,40.486,84.533"/>
		<path fill="#92C0C8" d="M44.256,86.854l-0.917-0.091l0.312-0.622c0.126-0.248,0.253-0.492,0.256-0.497l0.014,0.001
			c0.006,0.005,0.079,0.274,0.155,0.537L44.256,86.854 M43.652,84.953l-1.463,2.826l0.618,0.06l0.279-0.566L44.41,87.4l0.167,0.611
			l0.624,0.06l-0.89-3.054L43.652,84.953"/>
		<path fill="#92C0C8" d="M47.234,86.705c-0.024,0-0.045-0.002-0.067-0.003l-0.464-0.03l0.058-0.919l0.465,0.03
			c0.354,0.023,0.523,0.199,0.505,0.494C47.712,86.544,47.549,86.705,47.234,86.705 M46.21,85.181l-0.189,2.949l0.587,0.037
			l0.062-0.981l0.447,0.029c0.042,0.002,0.081,0.004,0.12,0.004c0.639,0,1.043-0.34,1.08-0.912c0.039-0.629-0.366-1.015-1.074-1.061
			L46.21,85.181"/>
		<polyline fill="#92C0C8" points="49.156,85.35 49.036,88.303 49.623,88.327 49.744,85.373 49.156,85.35 		"/>
		<polyline fill="#92C0C8" points="50.69,85.409 50.633,88.364 52.749,88.405 52.757,87.861 51.23,87.833 51.243,87.137 
			52.38,87.156 52.393,86.608 51.255,86.587 51.265,85.966 52.778,85.994 52.789,85.45 50.69,85.409 		"/>
		<path fill="#92C0C8" d="M56.254,85.422l-0.588,0.008l0.018,1.252c0.002,0.322,0.016,0.69,0.016,0.692H55.69l-1.442-1.925
			l-0.596,0.007l0.038,2.955l0.588-0.008l-0.018-1.241c-0.004-0.376-0.016-0.729-0.016-0.734h0.012l1.438,1.956l0.598-0.008
			L56.254,85.422"/>
		<polyline fill="#92C0C8" points="59.518,85.287 57.049,85.398 57.074,85.944 58.016,85.9 58.125,88.309 58.713,88.281 
			58.601,85.873 59.542,85.83 59.518,85.287 		"/>
		<polyline fill="#92C0C8" points="60.925,85.189 60.338,85.227 60.543,88.177 61.131,88.137 60.925,85.189 		"/>
		<path fill="#92C0C8" d="M62.879,86.866l0.187-0.671c0.076-0.268,0.15-0.531,0.155-0.537l0.013-0.002
			c0.003,0.004,0.131,0.256,0.257,0.498l0.307,0.625L62.879,86.866 M63.499,84.967l-0.66,0.061l-0.896,3.059l0.619-0.06l0.164-0.61
			l1.325-0.127l0.28,0.567l0.627-0.061L63.499,84.967"/>
		<path fill="#92C0C8" d="M67.522,85.556c-0.021,0-0.046,0-0.072,0.002c-0.255,0.038-0.411,0.23-0.376,0.468
			c0.03,0.224,0.196,0.358,0.415,0.358c0.024,0,0.052-0.001,0.078-0.005c0.243-0.034,0.405-0.228,0.371-0.477
			C67.908,85.691,67.736,85.556,67.522,85.556"/>
		<path fill="#92C0C8" d="M71.798,83.721c-0.106,0-0.219,0.011-0.332,0.033c-0.858,0.166-1.382,0.898-1.211,1.79
			c0.152,0.79,0.743,1.257,1.462,1.257c0.107,0,0.218-0.013,0.328-0.034c0.628-0.119,1.09-0.562,1.205-1.164l-0.599-0.041
			c-0.078,0.318-0.328,0.59-0.737,0.667c-0.065,0.014-0.13,0.021-0.19,0.021c-0.43,0-0.788-0.297-0.887-0.813
			c-0.111-0.581,0.175-1.03,0.709-1.136c0.072-0.012,0.141-0.02,0.206-0.02c0.306,0,0.528,0.139,0.674,0.302l0.541-0.267
			C72.737,83.969,72.317,83.721,71.798,83.721"/>
		<path fill="#92C0C8" d="M74.504,84.649l-0.208-0.885l0.481-0.111c0.065-0.017,0.131-0.024,0.188-0.024
			c0.224,0,0.374,0.119,0.43,0.354c0.07,0.3-0.088,0.478-0.399,0.55L74.504,84.649 M75.021,83.088c-0.123,0-0.258,0.017-0.399,0.05
			l-1.02,0.24l0.681,2.878l0.57-0.135l-0.238-1.01l0.224-0.054l0.187-0.046l0.818,0.876l0.678-0.159l-0.943-0.962
			c0.345-0.205,0.491-0.533,0.393-0.95C75.86,83.351,75.518,83.088,75.021,83.088"/>
		<polyline fill="#92C0C8" points="78.643,82.075 76.623,82.643 77.427,85.49 79.461,84.913 79.313,84.391 77.841,84.805 
			77.654,84.133 78.744,83.825 78.596,83.299 77.503,83.606 77.337,83.01 78.79,82.6 78.643,82.075 		"/>
		<path fill="#92C0C8" d="M80.998,81.323c-0.157,0-0.324,0.032-0.502,0.091c-0.615,0.207-0.932,0.622-0.748,1.167
			c0.156,0.469,0.524,0.564,0.878,0.564c0.09,0,0.176-0.008,0.261-0.016c0.176-0.015,0.354-0.051,0.504-0.051
			c0.167,0,0.3,0.046,0.357,0.222c0.08,0.231-0.069,0.41-0.373,0.512c-0.109,0.037-0.217,0.056-0.313,0.056
			c-0.203,0-0.367-0.085-0.461-0.263l-0.484,0.32c0.213,0.358,0.53,0.48,0.851,0.48c0.194,0,0.39-0.044,0.571-0.105
			c0.663-0.224,0.961-0.635,0.774-1.189c-0.157-0.47-0.503-0.582-0.852-0.582c-0.109,0-0.217,0.011-0.322,0.026
			c-0.163,0.02-0.308,0.04-0.433,0.04c-0.196,0-0.338-0.049-0.396-0.221c-0.065-0.196,0.031-0.362,0.338-0.465
			c0.104-0.034,0.196-0.051,0.279-0.051c0.181,0,0.322,0.078,0.426,0.224l0.486-0.32C81.628,81.463,81.338,81.323,80.998,81.323"/>
		<path fill="#92C0C8" d="M84.351,80.09c-0.2,0-0.41,0.041-0.624,0.127c-0.81,0.328-1.182,1.15-0.841,1.992
			c0.26,0.636,0.786,0.978,1.374,0.978c0.204,0,0.414-0.039,0.623-0.125c0.591-0.24,0.958-0.763,0.954-1.377l-0.595,0.078
			c-0.018,0.325-0.208,0.64-0.597,0.797c-0.118,0.05-0.235,0.073-0.354,0.073c-0.357,0-0.685-0.221-0.855-0.645
			c-0.223-0.547-0.028-1.044,0.475-1.249c0.138-0.055,0.266-0.08,0.382-0.08c0.219,0,0.4,0.081,0.539,0.184l0.479-0.367
			C85.074,80.24,84.736,80.09,84.351,80.09"/>
		<polyline fill="#92C0C8" points="86.374,79.111 85.842,79.362 87.108,82.032 87.638,81.781 86.374,79.111 		"/>
		<polyline fill="#92C0C8" points="89.339,77.54 87.178,78.734 87.441,79.212 88.265,78.757 89.43,80.864 89.942,80.582 
			88.776,78.474 89.602,78.018 89.339,77.54 		"/>
	</g>
	<path fill="#92C0C8" d="M68.336,21.716h-0.003c-0.091,0-0.181,0.001-0.268,0.001h-0.022c-0.117,0.001-0.233,0.005-0.347,0.007
		l-0.028,0.001c-0.789,0.021-1.532,0.08-2.201,0.17c-0.852,0.111-1.58,0.273-2.114,0.464c-0.358,0.127-0.629,0.268-0.787,0.402
		c-0.092,0.076-0.144,0.146-0.163,0.2c-0.014,0.029-0.019,0.054-0.019,0.078c0,0.024,0.005,0.05,0.019,0.079
		c0.01,0.029,0.03,0.064,0.061,0.1c0.059,0.073,0.162,0.157,0.305,0.24c0.283,0.166,0.718,0.328,1.264,0.463
		c0.711,0.178,1.603,0.309,2.606,0.383l0.116-0.292l0.007-0.015l0.604-1.512c-0.428,0.019-0.836,0.049-1.215,0.087
		c-0.648,0.068-1.201,0.167-1.608,0.28c-0.271,0.075-0.478,0.162-0.598,0.245c-0.07,0.045-0.11,0.088-0.128,0.12l-0.012,0.048
		l0.012,0.049l0.047,0.058c0.047,0.046,0.124,0.097,0.233,0.146c0.216,0.102,0.549,0.199,0.964,0.281
		c0.1,0.018,0.207,0.039,0.317,0.058c-0.462-0.065-0.892-0.146-1.27-0.24c-0.501-0.124-0.923-0.277-1.181-0.429
		c-0.112-0.067-0.172-0.119-0.202-0.149l0.044-0.04c0.133-0.111,0.383-0.237,0.689-0.346c0.521-0.185,1.232-0.34,2.052-0.449
		c0.63-0.082,1.321-0.139,2.034-0.161c0.091-0.002,0.185-0.006,0.275-0.01c0.032,0,0.065,0,0.096,0
		c0.092-0.002,0.184-0.003,0.273-0.003c0.049,0,0.098,0,0.146,0h0.003c0.138,0,0.276,0.001,0.412,0.003
		c0.127,0.003,0.251,0.006,0.374,0.01c1.296,0.043,2.517,0.191,3.436,0.418c0.502,0.125,0.922,0.278,1.182,0.432
		c0.111,0.063,0.173,0.116,0.202,0.146l-0.044,0.04c-0.133,0.111-0.384,0.237-0.69,0.346c-0.499,0.178-1.168,0.327-1.943,0.435
		c0.331-0.052,0.623-0.112,0.861-0.181c0.273-0.079,0.48-0.162,0.6-0.242c0.068-0.046,0.107-0.089,0.124-0.122l0.014-0.049
		l-0.014-0.048l-0.044-0.061c-0.048-0.044-0.126-0.094-0.233-0.145c-0.215-0.102-0.548-0.2-0.962-0.279
		c-0.617-0.123-1.414-0.21-2.309-0.248l0.603,1.512l0.007,0.015l0.118,0.292c0.407-0.027,0.801-0.068,1.168-0.117
		c0.852-0.114,1.582-0.275,2.118-0.467c0.355-0.126,0.627-0.269,0.786-0.4c0.088-0.075,0.142-0.147,0.164-0.201
		c0.012-0.029,0.016-0.055,0.016-0.079c0-0.024-0.004-0.049-0.016-0.078c-0.013-0.029-0.032-0.063-0.062-0.1
		c-0.061-0.074-0.165-0.157-0.306-0.241c-0.283-0.167-0.72-0.327-1.265-0.462c-0.945-0.236-2.216-0.395-3.638-0.434
		c-0.121-0.003-0.247-0.007-0.374-0.008C68.527,21.717,68.432,21.716,68.336,21.716"/>
	<path fill="#92C0C8" d="M68.333,23.316l-0.295,0.73l-0.005,0.017l-0.119,0.295c0.138,0.004,0.275,0.004,0.414,0.004h0.005
		c0.141,0,0.279,0,0.417-0.004l-0.118-0.295l-0.005-0.017L68.333,23.316"/>
	<path fill="#92C0C8" d="M68.361,22.466l0.633,1.576l0.005,0.013l0.117,0.295l0.873,2.178l-0.55,0.219l1.94,2.565l-0.362-3.196
		l-0.549,0.22l-0.803-2.007l-0.117-0.293l-0.008-0.017l-0.616-1.546C68.74,22.469,68.553,22.466,68.361,22.466"/>
	<polyline fill="#92C0C8" points="63.326,5.628 62.181,6.314 60.878,6.606 62.156,6.791 62.384,6.824 62.528,6.643 63.326,5.628 	
		"/>
	<polyline fill="#92C0C8" points="63.627,6.385 62.483,7.072 61.184,7.362 62.459,7.548 62.688,7.581 62.83,7.399 63.627,6.385 	"/>
	<polyline fill="#92C0C8" points="63.931,7.142 62.786,7.829 61.484,8.119 62.764,8.307 62.99,8.339 63.134,8.157 63.931,7.142 	"/>
	<polyline fill="#92C0C8" points="64.233,7.898 63.089,8.586 61.788,8.876 63.065,9.061 63.295,9.095 63.436,8.913 64.233,7.898 	
		"/>
	<polyline fill="#92C0C8" points="64.536,8.656 63.393,9.345 62.088,9.635 63.368,9.819 63.595,9.851 63.74,9.67 64.536,8.656 	"/>
	<polyline fill="#92C0C8" points="64.84,9.412 63.695,10.1 62.393,10.391 63.669,10.576 63.9,10.608 64.042,10.429 64.84,9.412 	"/>
	<polyline fill="#92C0C8" points="73.34,5.628 74.137,6.643 74.28,6.824 74.509,6.791 75.784,6.606 74.483,6.314 73.34,5.628 	"/>
	<polyline fill="#92C0C8" points="73.037,6.385 73.834,7.399 73.977,7.581 74.207,7.548 75.482,7.362 74.181,7.072 73.037,6.385 	
		"/>
	<polyline fill="#92C0C8" points="72.734,7.142 73.531,8.157 73.675,8.339 73.902,8.307 75.18,8.119 73.877,7.829 72.734,7.142 	"/>
	<polyline fill="#92C0C8" points="72.432,7.898 73.229,8.913 73.37,9.095 73.601,9.061 74.877,8.876 73.576,8.586 72.432,7.898 	"/>
	<polyline fill="#92C0C8" points="72.128,8.656 72.926,9.67 73.067,9.851 73.297,9.819 74.574,9.635 73.272,9.345 72.128,8.656 	"/>
	<polyline fill="#92C0C8" points="71.826,9.412 72.622,10.429 72.766,10.608 72.994,10.576 74.271,10.391 72.971,10.1 71.826,9.412 
			"/>
	<path fill="#92C0C8" d="M71.523,10.169l0.754,0.963l-2.434,6.088l-0.152-0.551l-1.357-4.898l-1.36,4.901l-0.153,0.549l-2.433-6.089
		l0.755-0.963l-1.145,0.688l-1.302,0.291l1.211,0.175l2.032,5.078l-0.781-1.021l-1.908-2.502l0.205,5.559l-4.044-3.231l1.656,4.724
		c0.027-0.019,0.059-0.035,0.089-0.055c0.566-0.331,1.254-0.596,2.108-0.806c0.915-0.229,2.006-0.388,3.181-0.471
		c0.12-0.009,0.242-0.016,0.362-0.023c0.182-0.01,0.363-0.019,0.549-0.024c0.123-0.004,0.244-0.009,0.365-0.009
		c0.204-0.006,0.407-0.008,0.612-0.008s0.407,0.002,0.61,0.008c0.123,0,0.245,0.005,0.366,0.009
		c0.186,0.006,0.368,0.015,0.548,0.024c0.121,0.008,0.242,0.015,0.363,0.023c1.173,0.083,2.267,0.242,3.179,0.471
		c0.854,0.21,1.544,0.475,2.11,0.806c0.028,0.021,0.06,0.036,0.091,0.055l1.655-4.724l-4.044,3.231l0.207-5.559l-1.913,2.505
		l-0.78,1.024l2.033-5.085l1.209-0.175l-1.303-0.291L71.523,10.169"/>
	<path fill="#92C0C8" d="M68.333,18.941c-0.15,0-0.3,0-0.449,0.001c-0.124,0.006-0.245,0.007-0.367,0.011
		c-0.186,0.006-0.369,0.013-0.551,0.021c-0.119,0.006-0.243,0.015-0.36,0.022c-1.201,0.077-2.317,0.238-3.242,0.467
		c-0.816,0.204-1.471,0.453-2.001,0.765c-0.054,0.031-0.106,0.064-0.158,0.095l0.228,0.643c0.081-0.057,0.169-0.115,0.264-0.17
		c0.474-0.28,1.072-0.508,1.826-0.691c0.943-0.236,2.099-0.394,3.34-0.466c0.122-0.005,0.241-0.011,0.362-0.016
		c0.184-0.009,0.369-0.014,0.553-0.018c0.123-0.002,0.246-0.005,0.37-0.005c0.062,0,0.125,0,0.187,0s0.122,0,0.188,0
		c0.121,0,0.246,0.003,0.368,0.005c0.186,0.004,0.368,0.009,0.55,0.018c0.121,0.005,0.242,0.011,0.362,0.016
		c1.244,0.072,2.397,0.229,3.342,0.466c0.755,0.184,1.351,0.411,1.827,0.691c0.095,0.056,0.184,0.113,0.267,0.172l0.225-0.643
		c-0.051-0.032-0.104-0.065-0.16-0.097c-0.528-0.312-1.183-0.561-2.001-0.765c-0.925-0.229-2.04-0.39-3.24-0.467
		c-0.12-0.009-0.239-0.017-0.362-0.022c-0.18-0.009-0.364-0.016-0.549-0.021c-0.122-0.004-0.244-0.005-0.367-0.011
		C68.632,18.941,68.483,18.941,68.333,18.941"/>
	<polyline fill="#92C0C8" points="68.797,21.226 68.763,21.312 68.831,21.314 68.797,21.226 	"/>
	<path fill="#92C0C8" d="M68.356,20.009h-0.023h-0.026c-0.12,0-0.246,0-0.368,0.003c-0.187,0.001-0.369,0.008-0.551,0.013
		c-0.124,0.004-0.244,0.01-0.365,0.014c-1.27,0.066-2.448,0.223-3.403,0.461c-0.705,0.174-1.284,0.394-1.718,0.648
		c-0.1,0.059-0.213,0.132-0.329,0.222l0.48,1.375c0.026-0.05,0.058-0.098,0.096-0.142c0.104-0.127,0.242-0.233,0.411-0.333
		c0.341-0.198,0.806-0.367,1.373-0.508c0.955-0.237,2.209-0.396,3.602-0.44c0.12-0.006,0.241-0.007,0.367-0.01
		c0.143-0.001,0.285-0.003,0.431-0.003c0.042,0,0.082,0,0.124,0c0.102,0.002,0.203,0.002,0.306,0.003l0.034-0.086l0.034,0.089
		c0.101,0,0.201,0.003,0.3,0.007c0.755,0.024,1.47,0.082,2.119,0.168c0.872,0.116,1.624,0.28,2.198,0.485
		c0.386,0.137,0.691,0.289,0.91,0.473c0.108,0.089,0.197,0.188,0.254,0.299l0.483-1.377c-0.101-0.075-0.211-0.149-0.334-0.222
		c-0.433-0.255-1.012-0.475-1.718-0.648c-0.953-0.238-2.131-0.395-3.402-0.461c-0.12-0.004-0.242-0.01-0.364-0.014
		c-0.183-0.005-0.367-0.012-0.552-0.013C68.604,20.009,68.479,20.009,68.356,20.009"/>
	<path fill="#92C0C8" d="M68.3,22.466c-0.103,0-0.205,0-0.306,0.003c-0.088,0-0.168,0.001-0.252,0.004l-0.62,1.546l-0.007,0.017
		l-0.117,0.293l-0.801,2.007l-0.549-0.22l-0.363,3.196l1.938-2.565l-0.548-0.219l0.871-2.178l0.116-0.295l0.008-0.013l0.476-1.192
		L68.3,22.466"/>
	<path fill="#92C0C8" d="M38.966,21.716h-0.003c-0.091,0-0.18,0.001-0.269,0.001h-0.021c-0.116,0.001-0.231,0.005-0.348,0.007
		l-0.024,0.001c-0.791,0.021-1.535,0.08-2.203,0.17c-0.852,0.111-1.579,0.273-2.115,0.464c-0.356,0.127-0.628,0.268-0.786,0.402
		c-0.091,0.076-0.144,0.146-0.164,0.2c-0.012,0.029-0.018,0.054-0.018,0.078c0,0.024,0.006,0.05,0.018,0.079
		c0.012,0.029,0.032,0.064,0.062,0.1c0.059,0.073,0.161,0.157,0.303,0.24c0.286,0.166,0.722,0.328,1.267,0.463
		c0.709,0.178,1.602,0.309,2.604,0.383l0.116-0.292l0.008-0.015l0.605-1.512c-0.432,0.019-0.837,0.049-1.215,0.087
		c-0.648,0.068-1.202,0.167-1.611,0.28c-0.271,0.075-0.477,0.162-0.598,0.245c-0.071,0.045-0.108,0.088-0.127,0.12l-0.01,0.048
		l0.01,0.049l0.049,0.058c0.046,0.046,0.124,0.097,0.232,0.146c0.215,0.102,0.548,0.199,0.961,0.281
		c0.104,0.018,0.212,0.039,0.321,0.058c-0.466-0.065-0.892-0.146-1.271-0.24c-0.504-0.124-0.921-0.277-1.179-0.429
		c-0.115-0.067-0.175-0.119-0.204-0.149l0.042-0.04c0.132-0.111,0.384-0.237,0.69-0.346c0.523-0.185,1.233-0.34,2.052-0.449
		c0.632-0.082,1.321-0.139,2.031-0.161c0.096-0.002,0.188-0.006,0.28-0.01c0.032,0,0.064,0,0.097,0
		c0.091-0.002,0.182-0.003,0.272-0.003c0.048,0,0.097,0,0.144,0h0.003c0.139,0,0.277,0.001,0.412,0.003
		c0.125,0.003,0.251,0.006,0.376,0.01c1.295,0.043,2.516,0.191,3.437,0.418c0.5,0.125,0.92,0.278,1.181,0.432
		c0.11,0.063,0.17,0.116,0.2,0.146l-0.044,0.04c-0.132,0.111-0.383,0.237-0.688,0.346c-0.498,0.178-1.169,0.327-1.942,0.435
		c0.33-0.052,0.619-0.112,0.861-0.181c0.272-0.079,0.477-0.162,0.598-0.242c0.069-0.046,0.108-0.089,0.126-0.122l0.013-0.049
		l-0.013-0.048l-0.048-0.061c-0.046-0.044-0.126-0.094-0.232-0.145c-0.215-0.102-0.548-0.2-0.961-0.279
		c-0.617-0.123-1.415-0.21-2.308-0.248l0.604,1.512l0.006,0.015l0.116,0.292c0.409-0.027,0.8-0.068,1.169-0.117
		c0.854-0.114,1.582-0.275,2.116-0.467c0.356-0.126,0.628-0.269,0.786-0.4c0.092-0.075,0.145-0.147,0.165-0.201
		c0.012-0.029,0.015-0.055,0.015-0.079c0-0.024-0.003-0.049-0.015-0.078c-0.011-0.029-0.033-0.063-0.061-0.1
		c-0.061-0.074-0.163-0.157-0.306-0.241c-0.284-0.167-0.72-0.327-1.264-0.462c-0.945-0.236-2.218-0.395-3.638-0.434
		c-0.124-0.003-0.249-0.007-0.374-0.008C39.157,21.717,39.063,21.716,38.966,21.716"/>
	<path fill="#92C0C8" d="M38.721,23.316l-0.293,0.73l-0.005,0.017l-0.12,0.295c0.137,0.004,0.274,0.004,0.415,0.004h0.003
		c0.14,0,0.28,0,0.418-0.004l-0.117-0.295l-0.008-0.017L38.721,23.316"/>
	<path fill="#92C0C8" d="M38.995,22.466l0.63,1.576l0.007,0.013l0.117,0.295l0.869,2.178l-0.547,0.219l1.939,2.565l-0.363-3.196
		l-0.548,0.22l-0.804-2.007l-0.116-0.293l-0.007-0.017l-0.618-1.546C39.371,22.469,39.183,22.466,38.995,22.466"/>
	<polyline fill="#92C0C8" points="33.956,5.628 32.813,6.314 31.509,6.606 32.788,6.791 33.017,6.824 33.16,6.643 33.956,5.628 	"/>
	<polyline fill="#92C0C8" points="34.259,6.385 33.114,7.072 31.814,7.362 33.091,7.548 33.32,7.581 33.46,7.399 34.259,6.385 	"/>
	<polyline fill="#92C0C8" points="34.563,7.142 33.418,7.829 32.116,8.119 33.393,8.307 33.623,8.339 33.765,8.157 34.563,7.142 	
		"/>
	<polyline fill="#92C0C8" points="34.865,7.898 33.721,8.586 32.418,8.876 33.695,9.061 33.923,9.095 34.068,8.913 34.865,7.898 	
		"/>
	<polyline fill="#92C0C8" points="35.168,8.656 34.023,9.345 32.722,9.635 33.997,9.819 34.226,9.851 34.371,9.67 35.168,8.656 	"/>
	<polyline fill="#92C0C8" points="35.469,9.412 34.325,10.1 33.023,10.391 34.3,10.576 34.529,10.608 34.673,10.429 35.469,9.412 	
		"/>
	<polyline fill="#92C0C8" points="43.971,5.628 44.767,6.643 44.909,6.824 45.139,6.791 46.418,6.606 45.113,6.314 43.971,5.628 	
		"/>
	<polyline fill="#92C0C8" points="43.669,6.385 44.467,7.399 44.607,7.581 44.836,7.548 46.114,7.362 44.809,7.072 43.669,6.385 	
		"/>
	<polyline fill="#92C0C8" points="43.365,7.142 44.161,8.157 44.305,8.339 44.534,8.307 45.81,8.119 44.508,7.829 43.365,7.142 	"/>
	<polyline fill="#92C0C8" points="43.062,7.898 43.859,8.913 44.003,9.095 44.229,9.061 45.507,8.876 44.205,8.586 43.062,7.898 	
		"/>
	<polyline fill="#92C0C8" points="42.76,8.656 43.555,9.67 43.699,9.851 43.93,9.819 45.204,9.635 43.904,9.345 42.76,8.656 	"/>
	<polyline fill="#92C0C8" points="42.456,9.412 43.254,10.429 43.396,10.608 43.625,10.576 44.901,10.391 43.601,10.1 42.456,9.412 
			"/>
	<path fill="#92C0C8" d="M42.153,10.169l0.756,0.963l-2.437,6.088l-0.15-0.551l-1.359-4.898l-1.358,4.901l-0.15,0.549l-2.436-6.089
		l0.753-0.963l-1.143,0.688l-1.303,0.291l1.211,0.175L36.57,16.4l-0.782-1.021l-1.91-2.502l0.208,5.559l-4.044-3.231l1.654,4.724
		c0.03-0.019,0.059-0.035,0.091-0.055c0.563-0.331,1.253-0.596,2.107-0.806c0.915-0.229,2.007-0.388,3.181-0.471
		c0.122-0.009,0.239-0.016,0.362-0.023c0.183-0.01,0.364-0.019,0.547-0.024c0.124-0.004,0.246-0.009,0.369-0.009
		c0.201-0.006,0.404-0.008,0.609-0.008c0.204,0,0.409,0.002,0.61,0.008c0.121,0,0.246,0.005,0.368,0.009
		c0.184,0.006,0.366,0.015,0.546,0.024c0.123,0.008,0.24,0.015,0.362,0.023c1.177,0.083,2.269,0.242,3.181,0.471
		c0.855,0.21,1.544,0.475,2.108,0.806c0.031,0.021,0.063,0.036,0.091,0.055l1.655-4.724l-4.043,3.231l0.206-5.559l-1.912,2.505
		l-0.78,1.024l2.034-5.085l1.209-0.175l-1.301-0.291L42.153,10.169"/>
	<path fill="#92C0C8" d="M38.963,18.941c-0.151,0-0.298,0-0.448,0.001c-0.125,0.006-0.246,0.007-0.368,0.011
		c-0.184,0.006-0.367,0.013-0.549,0.021c-0.122,0.006-0.243,0.015-0.361,0.022c-1.203,0.077-2.315,0.238-3.241,0.467
		c-0.817,0.204-1.472,0.453-2.003,0.765c-0.052,0.031-0.104,0.064-0.155,0.095l0.223,0.643c0.083-0.057,0.171-0.115,0.267-0.17
		c0.475-0.28,1.07-0.508,1.825-0.691c0.945-0.236,2.099-0.394,3.341-0.466c0.121-0.005,0.242-0.011,0.364-0.016
		c0.184-0.009,0.366-0.014,0.551-0.018c0.121-0.002,0.246-0.005,0.369-0.005c0.063,0,0.125,0,0.186,0c0.061,0,0.127,0,0.186,0
		c0.125,0,0.248,0.003,0.371,0.005c0.185,0.004,0.368,0.009,0.549,0.018c0.123,0.005,0.244,0.011,0.366,0.016
		c1.242,0.072,2.396,0.229,3.34,0.466c0.753,0.184,1.35,0.411,1.825,0.691c0.096,0.056,0.184,0.113,0.268,0.172l0.224-0.643
		c-0.051-0.032-0.104-0.065-0.158-0.097c-0.53-0.312-1.185-0.561-2-0.765c-0.926-0.229-2.041-0.39-3.242-0.467
		c-0.12-0.009-0.241-0.017-0.363-0.022c-0.181-0.009-0.364-0.016-0.549-0.021c-0.121-0.004-0.242-0.005-0.366-0.011
		C39.263,18.941,39.112,18.941,38.963,18.941"/>
	<polyline fill="#92C0C8" points="39.427,21.226 39.393,21.312 39.462,21.314 39.427,21.226 	"/>
	<path fill="#92C0C8" d="M38.988,20.009h-0.025H38.94c-0.125,0-0.248,0-0.371,0.003c-0.187,0.001-0.368,0.008-0.551,0.013
		c-0.123,0.004-0.245,0.01-0.365,0.014c-1.271,0.066-2.447,0.223-3.403,0.461c-0.705,0.174-1.283,0.394-1.717,0.648
		c-0.1,0.059-0.214,0.132-0.332,0.222l0.482,1.375c0.025-0.05,0.06-0.098,0.097-0.142c0.101-0.127,0.241-0.233,0.411-0.333
		c0.337-0.198,0.804-0.367,1.372-0.508c0.957-0.237,2.207-0.396,3.602-0.44c0.121-0.006,0.243-0.007,0.366-0.01
		c0.144-0.001,0.288-0.003,0.432-0.003c0.042,0,0.084,0,0.127,0c0.101,0.002,0.203,0.002,0.303,0.003l0.034-0.086l0.035,0.089
		c0.102,0,0.199,0.003,0.301,0.007c0.755,0.024,1.47,0.082,2.118,0.168c0.872,0.116,1.623,0.28,2.198,0.485
		c0.388,0.137,0.691,0.289,0.91,0.473c0.106,0.089,0.195,0.188,0.255,0.299l0.481-1.377c-0.1-0.075-0.21-0.149-0.332-0.222
		c-0.435-0.255-1.012-0.475-1.716-0.648c-0.958-0.238-2.135-0.395-3.404-0.461c-0.121-0.004-0.243-0.01-0.364-0.014
		c-0.183-0.005-0.368-0.012-0.554-0.013C39.233,20.009,39.111,20.009,38.988,20.009"/>
	<path fill="#92C0C8" d="M38.93,22.466c-0.101,0-0.203,0-0.306,0.003c-0.085,0-0.168,0.001-0.253,0.004l-0.618,1.546l-0.006,0.017
		l-0.117,0.293l-0.805,2.007l-0.549-0.22l-0.362,3.196l1.942-2.565l-0.549-0.219l0.871-2.178l0.117-0.295l0.006-0.013l0.476-1.192
		L38.93,22.466"/>
	<g>
		<path fill="#92C0C8" d="M53.651,61.025h-0.003c-0.091,0-0.181,0.002-0.271,0.002h-0.019c-0.116,0.001-0.232,0.005-0.348,0.008
			l-0.024,0.001c-0.791,0.02-1.534,0.078-2.204,0.168c-0.852,0.112-1.578,0.275-2.113,0.465c-0.358,0.127-0.63,0.269-0.787,0.401
			c-0.092,0.076-0.143,0.146-0.165,0.2c-0.012,0.03-0.018,0.057-0.018,0.078c0,0.026,0.006,0.05,0.018,0.081
			c0.012,0.027,0.031,0.063,0.063,0.1c0.059,0.072,0.161,0.156,0.303,0.238c0.284,0.168,0.722,0.329,1.267,0.466
			c0.708,0.176,1.602,0.309,2.604,0.38l0.115-0.291l0.008-0.015l0.605-1.512c-0.431,0.019-0.836,0.049-1.213,0.087
			c-0.65,0.067-1.203,0.167-1.612,0.28c-0.271,0.077-0.478,0.164-0.598,0.244c-0.072,0.047-0.108,0.089-0.127,0.122l-0.01,0.047
			l0.01,0.049l0.048,0.059c0.047,0.046,0.125,0.096,0.233,0.146c0.215,0.1,0.548,0.198,0.961,0.279
			c0.104,0.019,0.211,0.04,0.321,0.058c-0.466-0.065-0.893-0.145-1.271-0.238c-0.504-0.126-0.921-0.278-1.181-0.43
			c-0.112-0.066-0.173-0.118-0.203-0.15l0.043-0.039c0.132-0.111,0.384-0.238,0.69-0.346c0.521-0.184,1.233-0.341,2.052-0.45
			c0.631-0.08,1.321-0.138,2.032-0.161c0.094-0.002,0.186-0.005,0.279-0.009c0.032,0,0.063,0,0.097,0
			c0.091-0.002,0.182-0.003,0.271-0.003c0.049,0,0.097,0,0.145,0h0.003c0.139,0,0.277,0.001,0.412,0.003
			c0.124,0.003,0.251,0.006,0.376,0.009c1.294,0.044,2.515,0.191,3.436,0.418c0.501,0.126,0.921,0.279,1.18,0.433
			c0.112,0.064,0.172,0.116,0.2,0.146l-0.043,0.041c-0.131,0.111-0.382,0.238-0.687,0.347c-0.499,0.176-1.169,0.326-1.942,0.434
			c0.329-0.053,0.619-0.112,0.862-0.182c0.271-0.077,0.476-0.161,0.596-0.242c0.069-0.045,0.109-0.089,0.127-0.121l0.013-0.049
			l-0.013-0.047l-0.048-0.062c-0.046-0.045-0.125-0.093-0.232-0.146c-0.215-0.102-0.548-0.199-0.962-0.279
			c-0.616-0.122-1.415-0.208-2.309-0.247l0.604,1.512l0.008,0.015l0.116,0.291c0.409-0.027,0.8-0.068,1.169-0.116
			c0.854-0.113,1.582-0.275,2.116-0.466c0.356-0.127,0.626-0.271,0.786-0.4c0.092-0.077,0.144-0.147,0.164-0.201
			c0.013-0.031,0.017-0.055,0.017-0.081c0-0.021-0.004-0.048-0.017-0.078c-0.011-0.029-0.032-0.063-0.06-0.099
			c-0.06-0.074-0.163-0.158-0.307-0.24c-0.284-0.168-0.719-0.33-1.264-0.464c-0.945-0.234-2.217-0.394-3.637-0.432
			c-0.125-0.003-0.249-0.008-0.374-0.009C53.843,61.027,53.749,61.025,53.651,61.025"/>
		<path fill="#92C0C8" d="M53.648,62.628l-0.293,0.729l-0.006,0.021l-0.119,0.295c0.135,0.002,0.273,0.002,0.414,0.002h0.004
			c0.139,0,0.28,0,0.417-0.002l-0.117-0.295l-0.007-0.021L53.648,62.628"/>
		<path fill="#92C0C8" d="M53.682,61.777l0.628,1.575l0.008,0.014l0.117,0.293l0.869,2.18l-0.546,0.217l1.938,2.566l-0.363-3.195
			l-0.549,0.219l-0.803-2.008l-0.117-0.293l-0.006-0.016l-0.618-1.546C54.057,61.779,53.868,61.777,53.682,61.777"/>
		<polyline fill="#92C0C8" points="48.642,44.938 47.496,45.624 46.194,45.917 47.474,46.103 47.702,46.134 47.845,45.954 
			48.642,44.938 		"/>
		<polyline fill="#92C0C8" points="48.943,45.696 47.799,46.383 46.499,46.672 47.776,46.858 48.006,46.892 48.144,46.71 
			48.943,45.696 		"/>
		<polyline fill="#92C0C8" points="49.247,46.452 48.104,47.141 46.8,47.43 48.078,47.616 48.308,47.648 48.45,47.467 
			49.247,46.452 		"/>
		<polyline fill="#92C0C8" points="49.551,47.209 48.406,47.896 47.101,48.188 48.381,48.372 48.608,48.405 48.755,48.223 
			49.551,47.209 		"/>
		<polyline fill="#92C0C8" points="49.854,47.966 48.709,48.654 47.407,48.944 48.683,49.13 48.912,49.162 49.056,48.981 
			49.854,47.966 		"/>
		<polyline fill="#92C0C8" points="50.153,48.722 49.012,49.41 47.709,49.7 48.984,49.888 49.215,49.918 49.358,49.738 
			50.153,48.722 		"/>
		<polyline fill="#92C0C8" points="58.654,44.938 59.452,45.954 59.596,46.134 59.823,46.103 61.103,45.917 59.797,45.624 
			58.654,44.938 		"/>
		<polyline fill="#92C0C8" points="58.354,45.696 59.15,46.71 59.292,46.892 59.521,46.858 60.799,46.672 59.494,46.383 
			58.354,45.696 		"/>
		<polyline fill="#92C0C8" points="58.051,46.452 58.847,47.467 58.99,47.648 59.219,47.616 60.495,47.43 59.193,47.141 
			58.051,46.452 		"/>
		<polyline fill="#92C0C8" points="57.747,47.209 58.545,48.224 58.688,48.405 58.915,48.372 60.192,48.188 58.891,47.896 
			57.747,47.209 		"/>
		<polyline fill="#92C0C8" points="57.445,47.966 58.24,48.981 58.385,49.162 58.614,49.13 59.89,48.944 58.589,48.654 
			57.445,47.966 		"/>
		<polyline fill="#92C0C8" points="57.142,48.722 57.939,49.738 58.081,49.918 58.31,49.888 59.587,49.7 58.287,49.41 
			57.142,48.722 		"/>
		<path fill="#92C0C8" d="M56.838,49.479l0.756,0.963l-2.436,6.088l-0.15-0.551l-1.359-4.898l-1.359,4.901l-0.15,0.549l-2.436-6.089
			l0.754-0.963l-1.143,0.688l-1.303,0.29l1.211,0.177l2.032,5.077l-0.781-1.021l-1.91-2.502l0.207,5.559l-4.043-3.229l1.654,4.724
			c0.03-0.02,0.06-0.036,0.091-0.056c0.563-0.331,1.253-0.596,2.107-0.806c0.916-0.228,2.005-0.387,3.181-0.471
			c0.121-0.009,0.239-0.015,0.362-0.023c0.182-0.01,0.364-0.019,0.547-0.023c0.123-0.006,0.245-0.01,0.369-0.01
			c0.201-0.005,0.403-0.008,0.609-0.008c0.204,0,0.409,0.003,0.61,0.008c0.121,0,0.245,0.004,0.368,0.01
			c0.184,0.005,0.365,0.014,0.546,0.023c0.122,0.009,0.24,0.015,0.362,0.023c1.176,0.084,2.268,0.243,3.181,0.471
			c0.855,0.21,1.545,0.475,2.108,0.806c0.031,0.021,0.062,0.036,0.09,0.056l1.656-4.724l-4.044,3.229l0.207-5.559l-1.912,2.505
			l-0.78,1.025l2.034-5.083l1.21-0.177l-1.302-0.29L56.838,49.479"/>
		<path fill="#92C0C8" d="M53.648,58.253c-0.151,0-0.299,0-0.449,0.002c-0.125,0.004-0.246,0.005-0.367,0.008
			c-0.185,0.006-0.367,0.014-0.548,0.023c-0.123,0.006-0.244,0.015-0.362,0.021c-1.203,0.076-2.315,0.239-3.242,0.467
			c-0.817,0.203-1.471,0.453-2.002,0.766c-0.053,0.029-0.104,0.063-0.156,0.093l0.224,0.643c0.083-0.058,0.171-0.115,0.267-0.171
			c0.474-0.279,1.07-0.506,1.826-0.691c0.944-0.235,2.097-0.393,3.338-0.464c0.123-0.006,0.244-0.012,0.366-0.018
			c0.182-0.009,0.365-0.013,0.551-0.017c0.121-0.003,0.246-0.005,0.369-0.005c0.062,0,0.125,0,0.187,0c0.061,0,0.126,0,0.185,0
			c0.126,0,0.248,0.002,0.372,0.005c0.184,0.004,0.367,0.008,0.549,0.017c0.123,0.006,0.244,0.012,0.365,0.018
			c1.242,0.071,2.397,0.229,3.341,0.464c0.752,0.186,1.35,0.412,1.824,0.691c0.096,0.057,0.184,0.113,0.269,0.172l0.225-0.641
			c-0.053-0.033-0.105-0.067-0.159-0.097c-0.531-0.313-1.185-0.563-2-0.766c-0.926-0.227-2.042-0.391-3.242-0.467
			c-0.12-0.009-0.242-0.016-0.363-0.021c-0.182-0.01-0.364-0.018-0.548-0.023c-0.122-0.003-0.245-0.004-0.367-0.008
			C53.948,58.253,53.798,58.253,53.648,58.253"/>
		<polyline fill="#92C0C8" points="54.111,60.537 54.078,60.622 54.146,60.625 54.111,60.537 		"/>
		<path fill="#92C0C8" d="M53.673,59.318h-0.024h-0.023c-0.125,0-0.248,0-0.371,0.003c-0.186,0.001-0.367,0.009-0.55,0.013
			c-0.124,0.006-0.246,0.011-0.365,0.016c-1.271,0.064-2.449,0.222-3.403,0.46c-0.704,0.175-1.285,0.394-1.717,0.648
			c-0.1,0.058-0.214,0.132-0.332,0.222l0.481,1.375c0.026-0.051,0.06-0.099,0.098-0.143c0.101-0.125,0.241-0.232,0.41-0.332
			c0.338-0.198,0.804-0.367,1.373-0.509c0.957-0.236,2.206-0.396,3.602-0.439c0.121-0.005,0.243-0.007,0.366-0.01
			c0.144-0.001,0.287-0.005,0.432-0.005c0.042,0,0.084,0,0.126,0c0.101,0.004,0.204,0.004,0.304,0.005l0.033-0.085l0.035,0.088
			c0.101,0,0.2,0.002,0.301,0.007c0.756,0.023,1.47,0.081,2.118,0.167c0.874,0.117,1.624,0.283,2.198,0.487
			c0.387,0.135,0.693,0.288,0.911,0.472c0.106,0.088,0.195,0.188,0.255,0.298l0.481-1.376c-0.1-0.075-0.211-0.15-0.332-0.222
			c-0.436-0.255-1.012-0.474-1.716-0.648c-0.958-0.238-2.135-0.396-3.404-0.46c-0.12-0.005-0.243-0.01-0.365-0.016
			c-0.183-0.004-0.367-0.012-0.554-0.013C53.919,59.318,53.796,59.318,53.673,59.318"/>
		<path fill="#92C0C8" d="M53.615,61.777c-0.101,0-0.203,0-0.307,0.002c-0.085,0.001-0.167,0.003-0.252,0.004l-0.618,1.546
			l-0.008,0.016l-0.116,0.293l-0.804,2.008l-0.549-0.219L50.6,68.622l1.942-2.566l-0.55-0.217l0.871-2.18l0.118-0.293l0.005-0.014
			l0.477-1.192L53.615,61.777"/>
	</g>
	<g>
		<path fill="#92C0C8" d="M82.469,0.206C82.338,0.075,82.157,0,81.973,0H25.325c-0.185,0-0.365,0.075-0.496,0.206
			c-0.131,0.131-0.206,0.312-0.206,0.496c0,0,0,0.235,0,0.693c0,3.201,0,17.302,0,37.929c0,3.308,0.545,6.446,1.483,9.397
			c0.747,2.355,1.744,4.59,2.913,6.695c0.04,0.071,0.081,0.144,0.121,0.214c4.054,7.196,10.093,12.885,15.116,16.791
			c4.866,3.781,8.785,5.887,9.051,6.028c0.027,0.016,0.054,0.028,0.082,0.039c0.084,0.034,0.173,0.051,0.26,0.051l0,0
			c0.001,0,0.001,0,0.001,0c0.092,0,0.184-0.017,0.271-0.056c0.025-0.009,0.048-0.021,0.071-0.034
			c0.368-0.197,7.321-3.936,14.301-10.52c3.577-3.376,7.165-7.503,9.866-12.3c0.04-0.07,0.079-0.143,0.118-0.214
			c1.171-2.105,2.168-4.34,2.915-6.695c0.937-2.951,1.482-6.09,1.482-9.397c0-11.787,0-21.443,0-28.152c0-3.354,0-5.971,0-7.75
			c0-0.89,0-1.569,0-2.026c0-0.458,0-0.692,0-0.692C82.675,0.518,82.6,0.337,82.469,0.206z M76.936,54.941
			c-3.912,6.952-9.822,12.539-14.757,16.372c-2.465,1.916-4.687,3.396-6.287,4.395c-0.802,0.499-1.446,0.879-1.891,1.132
			c-0.138,0.078-0.255,0.144-0.353,0.198c-1.487-0.828-7.803-4.5-14.008-10.44c-3.448-3.297-6.859-7.293-9.399-11.873
			c-0.044-0.079-0.088-0.157-0.132-0.237l23.54-20.038l23.538,20.038C77.104,54.64,77.02,54.791,76.936,54.941z M81.271,39.324
			c0,2.941-0.452,5.747-1.242,8.406l-26.38-22.457L27.268,47.73c-0.789-2.659-1.241-5.465-1.241-8.406c0-11.787,0-21.443,0-28.152
			c0-3.354,0-5.971,0-7.75c0-0.884,0-1.56,0-2.019h55.243C81.271,4.626,81.271,18.717,81.271,39.324z"/>
	</g>
</g>
</svg>
